<svg viewBox="0 0 1026 574" fill="none" xmlns="http://www.w3.org/2000/svg">
<path d="M171.966 205.689L275.359 471.286H218.825L195.68 409.44H82.4224L59.2775 471.286H4.07135L107.464 205.689H171.966ZM139.146 258.05L100.635 360.684H177.468L139.146 258.05Z" fill="#D1B4FF"/>
<path d="M310.998 82.5679C335.535 82.5679 357.921 87.8798 378.157 98.5037C398.519 109.001 414.075 123.546 424.826 142.137L379.295 170.025C371.706 158.389 362.031 149.41 350.269 143.086C338.507 136.636 325.29 133.411 310.619 133.411C286.336 133.411 266.29 141.505 250.48 157.694C234.671 173.883 226.766 194.751 226.766 220.299C226.893 246.479 234.924 267.537 250.86 283.473C266.796 299.282 286.715 307.187 310.619 307.187C325.164 307.187 338.317 304.088 350.079 297.891C361.841 291.567 371.77 282.524 379.864 270.762L423.118 301.875C411.103 319.455 395.357 333.241 375.88 343.232C356.529 353.097 334.902 358.03 310.998 358.03C290.889 358.03 272.171 354.615 254.844 347.785C237.517 340.829 222.719 331.344 210.451 319.328C198.31 307.187 188.761 292.579 181.805 275.505C174.975 258.431 171.56 240.029 171.56 220.299C171.56 200.569 174.975 182.167 181.805 165.093C188.761 148.019 198.31 133.474 210.451 121.459C222.719 109.317 237.517 99.8317 254.844 93.0021C272.171 86.0459 290.889 82.5679 310.998 82.5679Z" fill="#B99EE6"/>
<path d="M421.056 190.661C339.29 190.661 281.618 248.523 281.618 328.392C281.618 408.261 339.29 466.123 421.056 466.123C469.622 466.123 509.651 444.496 533.176 409.968L489.921 378.855C473.986 402 450.082 415.28 420.676 415.28C373.818 415.28 337.013 381.701 336.824 328.392C336.824 276.79 372.49 241.504 420.676 241.504C450.272 241.504 474.365 255.163 489.352 278.118L534.883 250.231C513.256 213.047 470.002 190.661 421.056 190.661Z" fill="#D1B4FF"/>
<path d="M560.594 95.0034C587.407 95.0034 611.437 100.948 632.684 112.836C654.059 124.725 670.627 141.167 682.389 162.161C694.278 183.03 700.222 206.554 700.222 232.734C700.222 258.915 694.278 282.502 682.389 303.497C670.627 324.365 654.059 340.744 632.684 352.632C611.437 364.521 587.407 370.465 560.594 370.465C540.484 370.465 521.766 366.987 504.439 360.031C487.112 353.075 472.315 343.526 460.047 331.385C447.905 319.243 438.356 304.698 431.4 287.751C424.57 270.677 421.156 252.338 421.156 232.734C421.156 213.131 424.57 194.855 431.4 177.908C438.356 160.833 447.905 146.226 460.047 134.084C472.315 121.943 487.112 112.394 504.439 105.438C521.766 98.4815 540.484 95.0034 560.594 95.0034ZM560.594 145.846C536.058 145.846 515.885 153.941 500.076 170.129C484.266 186.192 476.362 207.06 476.362 232.734C476.362 258.409 484.266 279.34 500.076 295.529C515.885 311.591 536.058 319.622 560.594 319.622C585.257 319.622 605.429 311.591 621.112 295.529C636.921 279.34 644.826 258.409 644.826 232.734C644.826 207.06 636.921 186.192 621.112 170.129C605.429 153.941 585.257 145.846 560.594 145.846Z" fill="#B99EE5"/>
<path d="M788.336 205.288V364.836C788.336 388.739 783.466 409.102 773.728 425.923C763.989 442.744 750.583 455.265 733.509 463.486C716.561 471.58 696.705 475.628 673.939 475.628C651.174 475.628 631.254 471.58 614.18 463.486C597.232 455.265 583.889 442.744 574.151 425.923C564.412 409.102 559.543 388.739 559.543 364.836V205.288H612.662V362.18C612.662 383.301 618.101 399.047 628.977 409.418C639.854 419.789 654.842 424.974 673.939 424.974C693.037 424.974 708.024 419.789 718.901 409.418C729.778 399.047 735.216 383.301 735.216 362.18V205.288H788.336Z" fill="#D1B4FF"/>
<path d="M994.704 243.83H941.585V421.211L806.7 243.83H757.185V509.427H810.115L810.304 332.047L945 509.427H994.704V243.83Z" fill="#B99EE5"/>
<path d="M1019.09 105.265H801.486V154.78H883.821V370.862H936.75V154.78H1019.09V105.265Z" fill="#D1B4FF"/>
</svg>
