<svg viewBox="0 0 840 503" fill="none" xmlns="http://www.w3.org/2000/svg">
<path d="M833.481 303.485H693.094V87.4032H640.164V353H833.481V303.485Z" fill="#B99EE5"/>
<path d="M591.823 313.758C653.13 299.32 678.433 259.449 666.735 209.775C654.95 159.732 614.514 135.342 552.837 149.866L447.396 174.697L508.278 433.222L559.798 421.089L537.533 326.543L591.823 313.758ZM563.09 197.541C591.159 190.931 608.486 199.13 613.922 222.212C619.402 245.479 607.51 260.364 579.441 266.974L526.444 279.454L510.093 210.022L563.09 197.541Z" fill="#D1B4FF"/>
<path d="M463.683 87.4032H410.564V264.784L275.679 87.4032H226.164V353H279.093L279.283 175.619L413.979 353H463.683V87.4032Z" fill="#B99EE6"/>
<path d="M30.1642 134.403V400H145.13C208.873 400 245.108 374.958 245.108 323.925C245.108 295.279 225.188 272.514 200.905 264.356C223.101 256.198 239.417 234.761 239.417 208.011C239.417 157.358 200.526 134.403 138.679 134.403H30.1642ZM142.474 289.588C171.689 289.588 190.091 296.417 190.091 321.27C190.091 346.691 171.689 353.521 142.474 353.521L83.0938 353.331V289.588H142.474ZM137.162 181.072C163.342 181.072 184.21 186.764 184.21 211.806C184.21 237.607 163.721 243.108 137.351 243.108H83.0938V181.072H137.162Z" fill="#D1B4FF"/>
</svg>
