<svg viewBox="0 0 937 543" fill="none" xmlns="http://www.w3.org/2000/svg">
<path d="M156.978 208.222C75.2119 208.222 17.5394 266.085 17.5394 345.953C17.5394 425.822 75.2119 483.684 156.978 483.684C205.544 483.684 245.573 462.057 269.098 427.529L225.843 396.417C209.907 419.562 186.004 432.841 156.598 432.841C109.739 432.841 72.9353 399.262 72.7456 345.953C72.7456 294.352 108.411 259.065 156.598 259.065C186.193 259.065 210.287 272.725 225.274 295.68L270.805 267.792C249.178 230.608 205.923 208.222 156.978 208.222Z" fill="#D1B4FF"/>
<path d="M379.879 87.4032H315.377L211.984 353H267.19L290.335 291.154H403.593L426.738 353H483.272L379.879 87.4032ZM347.059 139.764L385.38 242.398H308.547L347.059 139.764Z" fill="#B99EE6"/>
<path d="M476.164 163.403V429H529.094V323.33H544.65L622.052 429H686.175L604.409 322.572C655.442 317.639 685.796 287.854 685.796 244.221C685.796 193.378 651.837 163.403 588.473 163.403H476.164ZM587.525 212.159C615.602 212.159 631.348 222.214 631.348 244.221C631.348 266.607 616.361 277.23 587.525 277.23H529.094V212.159H587.525Z" fill="#D1B4FF"/>
<path d="M672.164 87.4032V353H781.628C864.722 353 919.549 300.26 919.549 220.202C919.549 140.143 864.722 87.4032 781.628 87.4032H672.164ZM781.059 136.918C837.024 136.918 864.153 171.446 864.153 220.202C864.153 268.388 837.024 303.485 781.059 303.485H725.094V136.918H781.059Z" fill="#B99EE5"/>
</svg>
