<svg viewBox="0 0 862 391" fill="none" xmlns="http://www.w3.org/2000/svg">
<path d="M832.781 83.1364H783.337V248.244L657.784 83.1364H611.695V330.357H660.963L661.139 165.249L786.515 330.357H832.781V83.1364Z" fill="#B99EE6"/>
<path d="M626.997 285.151H491.556V228.29H619.404V183.084H491.556V128.342H625.584V83.1364H442.288V330.357H626.997V285.151Z" fill="#D1B4FF"/>
<path d="M363.825 238.083C422.452 238.083 453.884 207.357 453.884 159.856C453.884 112.001 422.452 81.2748 363.472 81.2748H262.642V328.495H311.909V238.083H363.825ZM362.589 126.657C389.43 126.657 403.381 137.782 403.381 159.856C403.381 182.105 389.43 193.054 362.589 193.054H311.909V126.657H362.589Z" fill="#B99EE6"/>
<path d="M146.037 76.6835C69.928 76.6835 16.2459 131.072 16.2459 204.885C16.2459 278.698 69.928 333.086 146.037 333.086C222.145 333.086 276.004 278.698 276.004 204.885C276.004 131.072 222.145 76.6835 146.037 76.6835ZM146.037 124.009C191.596 124.009 224.441 156.854 224.441 204.885C224.441 252.916 191.596 285.761 146.037 285.761C100.654 285.761 67.6324 252.916 67.6324 204.885C67.6324 156.854 100.654 124.009 146.037 124.009Z" fill="#D1B4FF"/>
</svg>
