<svg viewBox="0 0 930 422" fill="none" xmlns="http://www.w3.org/2000/svg">
<path d="M134.303 135.003C64.3096 135.003 14.9406 185.022 14.9406 252.904C14.9406 320.787 64.3096 370.805 134.303 370.805C204.297 370.805 253.828 320.787 253.828 252.904C253.828 185.022 204.297 135.003 134.303 135.003ZM134.303 178.526C176.202 178.526 206.408 208.732 206.408 252.904C206.408 297.076 176.202 327.282 134.303 327.282C92.5668 327.282 62.1984 297.076 62.1984 252.904C62.1984 208.732 92.5668 178.526 134.303 178.526Z" fill="#D1B4FF"/>
<path d="M382.999 79.4232H196.729V121.809H267.21V306.78H312.519V121.809H382.999V79.4232Z" fill="#B99EE6"/>
<path d="M375.847 134.335H330.538V361.692H375.847V268.15H485.303V361.692H530.612V134.335H485.303V225.927H375.847V134.335Z" fill="#D1B4FF"/>
<path d="M717.811 260.724H593.251V208.432H710.827V166.858H593.251V116.514H716.511V74.9405H547.942V302.298H717.811V260.724Z" fill="#B99EE5"/>
<path d="M733.969 134.335V361.692H779.278V271.236H792.594L858.853 361.692H913.743L843.75 270.586C887.435 266.364 913.418 240.868 913.418 203.516C913.418 159.993 884.349 134.335 830.108 134.335H733.969ZM829.296 176.071C853.331 176.071 866.81 184.678 866.81 203.516C866.81 222.679 853.981 231.773 829.296 231.773H779.278V176.071H829.296Z" fill="#D1B4FF"/>
</svg>
