<svg viewBox="0 0 912 348" fill="none" xmlns="http://www.w3.org/2000/svg">
<path d="M527.421 115.795H473.315L425.294 240.808L377.14 115.795H323.034V301H359.943V162.228L405.715 283.141H444.74L490.512 161.17V301H527.421V115.795Z" fill="#B99EE5"/>
<path d="M844.66 117.795H807.619V241.485L713.562 117.795H679.034V303H715.943L716.075 179.309L810 303H844.66V117.795Z" fill="#B99EE5"/>
<path d="M96.8358 178.268C140.756 178.268 164.303 155.25 164.303 119.664C164.303 83.8133 140.756 60.7949 96.5712 60.7949H21.034V246H57.9427V178.268H96.8358ZM95.9098 94.7933C116.018 94.7933 126.469 103.128 126.469 119.664C126.469 136.332 116.018 144.534 95.9098 144.534H57.9427V94.7933H95.9098Z" fill="#D1B4FF"/>
<path d="M207.854 115.795H162.876L90.7781 301H129.274L145.414 257.874H224.39L240.53 301H279.952L207.854 115.795ZM184.968 152.307L211.691 223.875H158.113L184.968 152.307Z" fill="#B99EE6"/>
<path d="M366.006 69.2794L323.938 69.1657L277.16 147.619L230.806 68.9141L187.416 68.7968L258.417 181.038L258.219 254.194L295.127 254.294L295.325 181.27L366.006 69.2794Z" fill="#D1B4FF"/>
<path d="M673.409 222.134H571.943V179.537H667.72V145.671H571.943V104.661H672.35V70.7949H535.034V256H673.409V222.134Z" fill="#D1B4FF"/>
<path d="M906.969 72.7949H755.233V107.322H812.647V258H849.556V107.322H906.969V72.7949Z" fill="#D1B4FF"/>
</svg>
