<svg viewBox="0 0 641 422" fill="none" xmlns="http://www.w3.org/2000/svg">
<path d="M138.869 256.313C201.854 256.313 235.622 223.303 235.622 172.271C235.622 120.859 201.854 87.849 138.49 87.849H30.1642V353.446H83.0938V256.313H138.869ZM137.541 136.605C166.377 136.605 181.365 148.557 181.365 172.271C181.365 196.175 166.377 207.937 137.541 207.937H83.0938V136.605H137.541Z" fill="#D1B4FF"/>
<path d="M328.802 87.4707C247.036 87.4707 189.364 145.902 189.364 225.202C189.364 304.501 247.036 362.933 328.802 362.933C410.568 362.933 468.43 304.501 468.43 225.202C468.43 145.902 410.568 87.4707 328.802 87.4707ZM328.802 138.314C377.748 138.314 413.034 173.6 413.034 225.202C413.034 276.803 377.748 312.09 328.802 312.09C280.046 312.09 244.57 276.803 244.57 225.202C244.57 173.6 280.046 138.314 328.802 138.314Z" fill="#B99EE6"/>
<path d="M619.343 116.117C585.953 96.1975 555.03 87.8502 517.847 87.8502C461.313 87.8502 411.988 116.686 411.988 172.082C411.988 220.079 446.136 240.758 492.995 248.157L509.879 250.813C546.873 256.694 566.223 263.523 566.223 281.925C566.223 302.414 543.458 313.987 514.053 313.987C479.904 313.987 448.602 300.707 429.441 285.34L401.933 328.026C430.39 350.981 473.644 362.743 513.863 362.743C570.966 362.743 622.568 334.855 622.568 276.234C622.568 229.944 585.384 209.645 537.956 201.867L522.969 199.401C491.097 194.089 468.142 188.208 468.142 168.667C468.142 148.558 489.2 136.796 518.985 136.796C548.011 136.796 573.432 146.471 594.301 159.372L619.343 116.117Z" fill="#D1B4FF"/>
</svg>
