<svg viewBox="0 0 386 127" fill="none" xmlns="http://www.w3.org/2000/svg">
<path d="M80.7917 36.5482C80.7917 56.7332 64.4285 73.0963 44.2435 73.0963C24.0585 73.0963 7.69531 56.7332 7.69531 36.5482C7.69531 16.3632 24.0585 0 44.2435 0C64.4285 0 80.7917 16.3632 80.7917 36.5482ZM18.6598 36.5482C18.6598 50.6777 30.114 62.1319 44.2435 62.1319C58.373 62.1319 69.8272 50.6777 69.8272 36.5482C69.8272 22.4187 58.373 10.9645 44.2435 10.9645C30.114 10.9645 18.6598 22.4187 18.6598 36.5482Z" fill="#D9DBDE"/>
<path d="M43.2672 44.1592V31.6991L40.6808 32.3063V30.1022L44.4818 28.4153H46.2586V44.1592H43.2672Z" fill="#350E69"/>
<path d="M44.2435 0C37.8281 -7.65024e-08 31.5258 1.68866 25.9699 4.89626C20.4139 8.10386 15.8002 12.7174 12.5924 18.2732C9.38453 23.8289 7.69559 30.1312 7.69531 36.5466C7.69503 42.9619 9.38341 49.2643 12.5908 54.8204L22.0866 49.3387C19.8414 45.4495 18.6596 41.0378 18.6598 36.547C18.66 32.0563 19.8422 27.6447 22.0877 23.7557C24.3332 19.8666 27.5628 16.6372 31.452 14.3918C35.3411 12.1465 39.7527 10.9645 44.2435 10.9645V0Z" fill="#350E69"/>
<path d="M21.4181 97.6873C21.1668 97.6873 20.8915 97.6694 20.5923 97.6335C20.2931 97.6095 20.0238 97.5677 19.7844 97.5078V92.014L18.0429 92.6065V91.0446L19.7844 90.4521V89.339L18.0429 89.9314V88.3695L19.7844 87.777V84.689H22.4056V86.8793L25.2063 85.9099V87.4718L22.4056 88.4413V89.5544L25.2063 88.5849V90.1289L22.4056 91.0984V95.497C23.1596 95.3654 23.7461 95.114 24.165 94.743C24.5959 94.3719 24.8951 93.8872 25.0627 93.2887C25.2422 92.6903 25.332 92.0021 25.332 91.2241H27.7916C27.7916 92.05 27.6839 92.8519 27.4685 93.6299C27.253 94.3959 26.8999 95.0841 26.4092 95.6945C25.9305 96.3049 25.2781 96.7897 24.4523 97.1487C23.6384 97.5078 22.627 97.6873 21.4181 97.6873ZM32.213 89.9135H32.7695C33.0807 89.9135 33.3799 89.8955 33.6672 89.8596C33.9664 89.8237 34.2297 89.7459 34.4571 89.6262C34.6965 89.5065 34.888 89.333 35.0317 89.1056C35.1753 88.8782 35.2471 88.573 35.2471 88.19C35.2471 87.6992 35.0795 87.2983 34.7444 86.9871C34.4093 86.6759 33.9724 86.5203 33.4338 86.5203C33.0029 86.5203 32.6139 86.646 32.2668 86.8973C31.9317 87.1367 31.6863 87.4778 31.5307 87.9206L29.2506 87.3102C29.3943 86.8434 29.5977 86.4365 29.8611 86.0894C30.1244 85.7423 30.4356 85.461 30.7946 85.2456C31.1537 85.0182 31.5487 84.8506 31.9796 84.7429C32.4105 84.6352 32.8593 84.5813 33.3261 84.5813C33.8767 84.5813 34.3973 84.6531 34.888 84.7967C35.3788 84.9404 35.8096 85.1558 36.1807 85.4431C36.5517 85.7184 36.845 86.0714 37.0604 86.5023C37.2878 86.9212 37.4015 87.412 37.4015 87.9745C37.4015 88.6567 37.21 89.2672 36.827 89.8058C36.444 90.3324 35.9114 90.6795 35.2291 90.8471V90.883C36.043 91.0027 36.6594 91.3498 37.0784 91.9243C37.4973 92.4988 37.7067 93.181 37.7067 93.971C37.7067 94.5814 37.587 95.12 37.3477 95.5868C37.1202 96.0536 36.8091 96.4486 36.4141 96.7717C36.0191 97.0829 35.5583 97.3223 35.0317 97.4899C34.517 97.6455 33.9784 97.7233 33.4158 97.7233C32.8892 97.7233 32.3925 97.6634 31.9257 97.5437C31.4589 97.436 31.034 97.2624 30.651 97.0231C30.28 96.7837 29.9568 96.4785 29.6815 96.1074C29.4062 95.7244 29.1968 95.2696 29.0531 94.743L31.3512 94.1326C31.4829 94.6592 31.7162 95.0661 32.0514 95.3534C32.3865 95.6406 32.8413 95.7843 33.4158 95.7843C33.7031 95.7843 33.9724 95.7364 34.2238 95.6406C34.4871 95.5449 34.7145 95.4132 34.906 95.2457C35.1095 95.0661 35.2651 94.8567 35.3728 94.6173C35.4925 94.366 35.5523 94.0907 35.5523 93.7914C35.5523 93.3845 35.4625 93.0553 35.283 92.804C35.1154 92.5407 34.894 92.3432 34.6187 92.2115C34.3554 92.0679 34.0562 91.9722 33.7211 91.9243C33.3859 91.8764 33.0568 91.8525 32.7336 91.8525H32.213V89.9135ZM39.5702 91.1523C39.5702 90.1469 39.648 89.2911 39.8036 88.5849C39.9712 87.8668 40.1866 87.2683 40.45 86.7896C40.7133 86.2989 41.0065 85.9099 41.3297 85.6226C41.6648 85.3234 42 85.102 42.3351 84.9583C42.6822 84.8027 43.0113 84.701 43.3225 84.6531C43.6457 84.6052 43.927 84.5813 44.1663 84.5813C44.4057 84.5813 44.681 84.6052 44.9922 84.6531C45.3154 84.701 45.6445 84.8027 45.9796 84.9583C46.3267 85.102 46.6619 85.3234 46.985 85.6226C47.3202 85.9099 47.6194 86.2989 47.8827 86.7896C48.146 87.2683 48.3555 87.8668 48.5111 88.5849C48.6786 89.2911 48.7624 90.1469 48.7624 91.1523C48.7624 92.1577 48.6786 93.0194 48.5111 93.7376C48.3555 94.4438 48.146 95.0422 47.8827 95.5329C47.6194 96.0117 47.3202 96.4007 46.985 96.6999C46.6619 96.9872 46.3267 97.2086 45.9796 97.3642C45.6445 97.5078 45.3154 97.6036 44.9922 97.6514C44.681 97.6993 44.4057 97.7233 44.1663 97.7233C43.927 97.7233 43.6457 97.6993 43.3225 97.6514C43.0113 97.6036 42.6822 97.5078 42.3351 97.3642C42 97.2086 41.6648 96.9872 41.3297 96.6999C41.0065 96.4007 40.7133 96.0117 40.45 95.5329C40.1866 95.0422 39.9712 94.4438 39.8036 93.7376C39.648 93.0194 39.5702 92.1577 39.5702 91.1523ZM41.7247 91.1523C41.7247 91.5473 41.7486 92.0081 41.7965 92.5347C41.8563 93.0494 41.97 93.5401 42.1376 94.0069C42.3052 94.4737 42.5505 94.8686 42.8737 95.1918C43.1969 95.515 43.6277 95.6766 44.1663 95.6766C44.7049 95.6766 45.1358 95.515 45.459 95.1918C45.7822 94.8686 46.0275 94.4737 46.1951 94.0069C46.3626 93.5401 46.4704 93.0494 46.5182 92.5347C46.5781 92.0081 46.608 91.5473 46.608 91.1523C46.608 90.7573 46.5781 90.3025 46.5182 89.7878C46.4704 89.2612 46.3626 88.7645 46.1951 88.2977C46.0275 87.8309 45.7822 87.4359 45.459 87.1127C45.1358 86.7896 44.7049 86.628 44.1663 86.628C43.6277 86.628 43.1969 86.7896 42.8737 87.1127C42.5505 87.4359 42.3052 87.8309 42.1376 88.2977C41.97 88.7645 41.8563 89.2612 41.7965 89.7878C41.7486 90.3025 41.7247 90.7573 41.7247 91.1523ZM50.349 96.6101C50.349 96.3366 50.4473 96.1015 50.6439 95.9048C50.8491 95.7082 51.0927 95.6099 51.3749 95.6099C51.6484 95.6099 51.8878 95.7039 52.093 95.892C52.2982 96.0801 52.4008 96.3109 52.4008 96.5845C52.4008 96.8581 52.2982 97.0932 52.093 97.2898C51.8964 97.4864 51.657 97.5848 51.3749 97.5848C51.2381 97.5848 51.1056 97.5591 50.9773 97.5078C50.8576 97.4565 50.7508 97.3881 50.6567 97.3026C50.5627 97.2171 50.4857 97.1145 50.4259 96.9949C50.3746 96.8752 50.349 96.7469 50.349 96.6101ZM56.1184 92.0833H56.516C56.7382 92.0833 56.952 92.0705 57.1572 92.0448C57.3709 92.0192 57.559 91.9636 57.7214 91.8781C57.8924 91.7926 58.0292 91.6687 58.1318 91.5062C58.2344 91.3438 58.2857 91.1258 58.2857 90.8522C58.2857 90.5017 58.166 90.2153 57.9266 89.993C57.6872 89.7707 57.3752 89.6596 56.9904 89.6596C56.6827 89.6596 56.4048 89.7493 56.1569 89.9289C55.9175 90.0999 55.7422 90.3435 55.6311 90.6598L54.0025 90.2238C54.1051 89.8904 54.2504 89.5997 54.4385 89.3518C54.6266 89.1039 54.8488 88.903 55.1053 88.7491C55.3618 88.5866 55.6439 88.4669 55.9517 88.39C56.2595 88.3131 56.5801 88.2746 56.9135 88.2746C57.3068 88.2746 57.6787 88.3259 58.0292 88.4285C58.3797 88.5311 58.6875 88.685 58.9525 88.8901C59.2175 89.0868 59.427 89.339 59.5809 89.6467C59.7433 89.946 59.8245 90.2965 59.8245 90.6983C59.8245 91.1856 59.6877 91.6216 59.4142 92.0064C59.1406 92.3825 58.7601 92.6304 58.2728 92.7501V92.7758C58.8542 92.8613 59.2945 93.1092 59.5937 93.5196C59.8929 93.9299 60.0425 94.4172 60.0425 94.9815C60.0425 95.4175 59.957 95.8022 59.7861 96.1357C59.6236 96.4691 59.4013 96.7512 59.1192 96.982C58.8371 97.2043 58.5079 97.3753 58.1318 97.495C57.7642 97.6061 57.3794 97.6617 56.9776 97.6617C56.6014 97.6617 56.2467 97.619 55.9132 97.5335C55.5798 97.4565 55.2763 97.3326 55.0027 97.1616C54.7377 96.9906 54.5069 96.7726 54.3102 96.5075C54.1136 96.234 53.964 95.9091 53.8614 95.5329L55.5029 95.0969C55.5969 95.4731 55.7636 95.7638 56.003 95.9689C56.2424 96.1741 56.5673 96.2767 56.9776 96.2767C57.1828 96.2767 57.3752 96.2425 57.5547 96.1741C57.7428 96.1057 57.9052 96.0117 58.042 95.892C58.1873 95.7638 58.2985 95.6141 58.3754 95.4432C58.4609 95.2636 58.5037 95.067 58.5037 94.8533C58.5037 94.5626 58.4395 94.3275 58.3113 94.1479C58.1916 93.9599 58.0335 93.8188 57.8368 93.7248C57.6487 93.6222 57.435 93.5538 57.1956 93.5196C56.9562 93.4854 56.7211 93.4683 56.4903 93.4683H56.1184V92.0833ZM63.7076 92.0833H64.1051C64.3274 92.0833 64.5411 92.0705 64.7463 92.0448C64.96 92.0192 65.1481 91.9636 65.3106 91.8781C65.4815 91.7926 65.6183 91.6687 65.7209 91.5062C65.8235 91.3438 65.8748 91.1258 65.8748 90.8522C65.8748 90.5017 65.7551 90.2153 65.5157 89.993C65.2764 89.7707 64.9643 89.6596 64.5796 89.6596C64.2718 89.6596 63.994 89.7493 63.746 89.9289C63.5067 90.0999 63.3314 90.3435 63.2203 90.6598L61.5916 90.2238C61.6942 89.8904 61.8395 89.5997 62.0276 89.3518C62.2157 89.1039 62.438 88.903 62.6945 88.7491C62.951 88.5866 63.2331 88.4669 63.5409 88.39C63.8486 88.3131 64.1692 88.2746 64.5027 88.2746C64.8959 88.2746 65.2678 88.3259 65.6183 88.4285C65.9689 88.5311 66.2766 88.685 66.5417 88.8901C66.8067 89.0868 67.0161 89.339 67.17 89.6467C67.3325 89.946 67.4137 90.2965 67.4137 90.6983C67.4137 91.1856 67.2769 91.6216 67.0033 92.0064C66.7297 92.3825 66.3493 92.6304 65.862 92.7501V92.7758C66.4433 92.8613 66.8836 93.1092 67.1828 93.5196C67.4821 93.9299 67.6317 94.4172 67.6317 94.9815C67.6317 95.4175 67.5462 95.8022 67.3752 96.1357C67.2128 96.4691 66.9905 96.7512 66.7084 96.982C66.4262 97.2043 66.0971 97.3753 65.7209 97.495C65.3533 97.6061 64.9686 97.6617 64.5668 97.6617C64.1906 97.6617 63.8358 97.619 63.5024 97.5335C63.169 97.4565 62.8655 97.3326 62.5919 97.1616C62.3269 96.9906 62.096 96.7726 61.8994 96.5075C61.7028 96.234 61.5531 95.9091 61.4506 95.5329L63.092 95.0969C63.1861 95.4731 63.3528 95.7638 63.5922 95.9689C63.8315 96.1741 64.1564 96.2767 64.5668 96.2767C64.772 96.2767 64.9643 96.2425 65.1438 96.1741C65.3319 96.1057 65.4944 96.0117 65.6312 95.892C65.7765 95.7638 65.8876 95.6141 65.9646 95.4432C66.0501 95.2636 66.0928 95.067 66.0928 94.8533C66.0928 94.5626 66.0287 94.3275 65.9005 94.1479C65.7808 93.9599 65.6226 93.8188 65.426 93.7248C65.2379 93.6222 65.0242 93.5538 64.7848 93.5196C64.5454 93.4854 64.3103 93.4683 64.0795 93.4683H63.7076V92.0833Z" fill="black"/>
<path d="M174.024 97.6873C173.772 97.6873 173.497 97.6694 173.198 97.6335C172.899 97.6095 172.629 97.5677 172.39 97.5078V92.014L170.648 92.6065V91.0446L172.39 90.4521V89.339L170.648 89.9314V88.3695L172.39 87.777V84.689H175.011V86.8793L177.812 85.9099V87.4718L175.011 88.4413V89.5544L177.812 88.5849V90.1289L175.011 91.0984V95.497C175.765 95.3654 176.352 95.114 176.771 94.743C177.201 94.3719 177.501 93.8872 177.668 93.2887C177.848 92.6903 177.937 92.0021 177.937 91.2241H180.397C180.397 92.05 180.289 92.8519 180.074 93.6299C179.859 94.3959 179.505 95.0841 179.015 95.6945C178.536 96.3049 177.884 96.7897 177.058 97.1487C176.244 97.5078 175.232 97.6873 174.024 97.6873ZM184.818 89.9135H185.375C185.686 89.9135 185.985 89.8955 186.273 89.8596C186.572 89.8237 186.835 89.7459 187.063 89.6262C187.302 89.5065 187.494 89.333 187.637 89.1056C187.781 88.8782 187.853 88.573 187.853 88.19C187.853 87.6992 187.685 87.2983 187.35 86.9871C187.015 86.6759 186.578 86.5203 186.039 86.5203C185.608 86.5203 185.219 86.646 184.872 86.8973C184.537 87.1367 184.292 87.4778 184.136 87.9206L181.856 87.3102C182 86.8434 182.203 86.4365 182.467 86.0894C182.73 85.7423 183.041 85.461 183.4 85.2456C183.759 85.0182 184.154 84.8506 184.585 84.7429C185.016 84.6352 185.465 84.5813 185.932 84.5813C186.482 84.5813 187.003 84.6531 187.494 84.7967C187.984 84.9404 188.415 85.1558 188.786 85.4431C189.157 85.7184 189.45 86.0714 189.666 86.5023C189.893 86.9212 190.007 87.412 190.007 87.9745C190.007 88.6567 189.815 89.2672 189.432 89.8058C189.049 90.3324 188.517 90.6795 187.835 90.8471V90.883C188.649 91.0027 189.265 91.3498 189.684 91.9243C190.103 92.4988 190.312 93.181 190.312 93.971C190.312 94.5814 190.193 95.12 189.953 95.5868C189.726 96.0536 189.415 96.4486 189.02 96.7717C188.625 97.0829 188.164 97.3223 187.637 97.4899C187.122 97.6455 186.584 97.7233 186.021 97.7233C185.495 97.7233 184.998 97.6634 184.531 97.5437C184.064 97.436 183.639 97.2624 183.256 97.0231C182.885 96.7837 182.562 96.4785 182.287 96.1074C182.012 95.7244 181.802 95.2696 181.659 94.743L183.957 94.1326C184.088 94.6592 184.322 95.0661 184.657 95.3534C184.992 95.6406 185.447 95.7843 186.021 95.7843C186.309 95.7843 186.578 95.7364 186.829 95.6406C187.093 95.5449 187.32 95.4132 187.511 95.2457C187.715 95.0661 187.871 94.8567 187.978 94.6173C188.098 94.366 188.158 94.0907 188.158 93.7914C188.158 93.3845 188.068 93.0553 187.888 92.804C187.721 92.5407 187.499 92.3432 187.224 92.2115C186.961 92.0679 186.662 91.9722 186.327 91.9243C185.991 91.8764 185.662 91.8525 185.339 91.8525H184.818V89.9135ZM192.176 91.1523C192.176 90.1469 192.254 89.2911 192.409 88.5849C192.577 87.8668 192.792 87.2683 193.055 86.7896C193.319 86.2989 193.612 85.9099 193.935 85.6226C194.27 85.3234 194.605 85.102 194.941 84.9583C195.288 84.8027 195.617 84.701 195.928 84.6531C196.251 84.6052 196.532 84.5813 196.772 84.5813C197.011 84.5813 197.286 84.6052 197.598 84.6531C197.921 84.701 198.25 84.8027 198.585 84.9583C198.932 85.102 199.267 85.3234 199.591 85.6226C199.926 85.9099 200.225 86.2989 200.488 86.7896C200.751 87.2683 200.961 87.8668 201.117 88.5849C201.284 89.2911 201.368 90.1469 201.368 91.1523C201.368 92.1577 201.284 93.0194 201.117 93.7376C200.961 94.4438 200.751 95.0422 200.488 95.5329C200.225 96.0117 199.926 96.4007 199.591 96.6999C199.267 96.9872 198.932 97.2086 198.585 97.3642C198.25 97.5078 197.921 97.6036 197.598 97.6514C197.286 97.6993 197.011 97.7233 196.772 97.7233C196.532 97.7233 196.251 97.6993 195.928 97.6514C195.617 97.6036 195.288 97.5078 194.941 97.3642C194.605 97.2086 194.27 96.9872 193.935 96.6999C193.612 96.4007 193.319 96.0117 193.055 95.5329C192.792 95.0422 192.577 94.4438 192.409 93.7376C192.254 93.0194 192.176 92.1577 192.176 91.1523ZM194.33 91.1523C194.33 91.5473 194.354 92.0081 194.402 92.5347C194.462 93.0494 194.575 93.5401 194.743 94.0069C194.911 94.4737 195.156 94.8686 195.479 95.1918C195.802 95.515 196.233 95.6766 196.772 95.6766C197.31 95.6766 197.741 95.515 198.064 95.1918C198.388 94.8686 198.633 94.4737 198.801 94.0069C198.968 93.5401 199.076 93.0494 199.124 92.5347C199.184 92.0081 199.213 91.5473 199.213 91.1523C199.213 90.7573 199.184 90.3025 199.124 89.7878C199.076 89.2612 198.968 88.7645 198.801 88.2977C198.633 87.8309 198.388 87.4359 198.064 87.1127C197.741 86.7896 197.31 86.628 196.772 86.628C196.233 86.628 195.802 86.7896 195.479 87.1127C195.156 87.4359 194.911 87.8309 194.743 88.2977C194.575 88.7645 194.462 89.2612 194.402 89.7878C194.354 90.3025 194.33 90.7573 194.33 91.1523ZM202.954 96.6101C202.954 96.3366 203.053 96.1015 203.249 95.9048C203.455 95.7082 203.698 95.6099 203.98 95.6099C204.254 95.6099 204.493 95.7039 204.698 95.892C204.904 96.0801 205.006 96.3109 205.006 96.5845C205.006 96.8581 204.904 97.0932 204.698 97.2898C204.502 97.4864 204.262 97.5848 203.98 97.5848C203.844 97.5848 203.711 97.5591 203.583 97.5078C203.463 97.4565 203.356 97.3881 203.262 97.3026C203.168 97.2171 203.091 97.1145 203.031 96.9949C202.98 96.8752 202.954 96.7469 202.954 96.6101ZM208.724 92.0833H209.121C209.344 92.0833 209.557 92.0705 209.763 92.0448C209.976 92.0192 210.164 91.9636 210.327 91.8781C210.498 91.7926 210.635 91.6687 210.737 91.5062C210.84 91.3438 210.891 91.1258 210.891 90.8522C210.891 90.5017 210.771 90.2153 210.532 89.993C210.293 89.7707 209.981 89.6596 209.596 89.6596C209.288 89.6596 209.01 89.7493 208.762 89.9289C208.523 90.0999 208.348 90.3435 208.237 90.6598L206.608 90.2238C206.711 89.8904 206.856 89.5997 207.044 89.3518C207.232 89.1039 207.454 88.903 207.711 88.7491C207.967 88.5866 208.249 88.4669 208.557 88.39C208.865 88.3131 209.186 88.2746 209.519 88.2746C209.912 88.2746 210.284 88.3259 210.635 88.4285C210.985 88.5311 211.293 88.685 211.558 88.8901C211.823 89.0868 212.032 89.339 212.186 89.6467C212.349 89.946 212.43 90.2965 212.43 90.6983C212.43 91.1856 212.293 91.6216 212.02 92.0064C211.746 92.3825 211.366 92.6304 210.878 92.7501V92.7758C211.46 92.8613 211.9 93.1092 212.199 93.5196C212.498 93.9299 212.648 94.4172 212.648 94.9815C212.648 95.4175 212.563 95.8022 212.392 96.1357C212.229 96.4691 212.007 96.7512 211.725 96.982C211.443 97.2043 211.113 97.3753 210.737 97.495C210.37 97.6061 209.985 97.6617 209.583 97.6617C209.207 97.6617 208.852 97.619 208.519 97.5335C208.185 97.4565 207.882 97.3326 207.608 97.1616C207.343 96.9906 207.112 96.7726 206.916 96.5075C206.719 96.234 206.569 95.9091 206.467 95.5329L208.108 95.0969C208.202 95.4731 208.369 95.7638 208.608 95.9689C208.848 96.1741 209.173 96.2767 209.583 96.2767C209.788 96.2767 209.981 96.2425 210.16 96.1741C210.348 96.1057 210.511 96.0117 210.647 95.892C210.793 95.7638 210.904 95.6141 210.981 95.4432C211.066 95.2636 211.109 95.067 211.109 94.8533C211.109 94.5626 211.045 94.3275 210.917 94.1479C210.797 93.9599 210.639 93.8188 210.442 93.7248C210.254 93.6222 210.04 93.5538 209.801 93.5196C209.562 93.4854 209.327 93.4683 209.096 93.4683H208.724V92.0833ZM216.313 92.0833H216.711C216.933 92.0833 217.147 92.0705 217.352 92.0448C217.566 92.0192 217.754 91.9636 217.916 91.8781C218.087 91.7926 218.224 91.6687 218.326 91.5062C218.429 91.3438 218.48 91.1258 218.48 90.8522C218.48 90.5017 218.361 90.2153 218.121 89.993C217.882 89.7707 217.57 89.6596 217.185 89.6596C216.877 89.6596 216.599 89.7493 216.352 89.9289C216.112 90.0999 215.937 90.3435 215.826 90.6598L214.197 90.2238C214.3 89.8904 214.445 89.5997 214.633 89.3518C214.821 89.1039 215.043 88.903 215.3 88.7491C215.556 88.5866 215.839 88.4669 216.146 88.39C216.454 88.3131 216.775 88.2746 217.108 88.2746C217.501 88.2746 217.873 88.3259 218.224 88.4285C218.574 88.5311 218.882 88.685 219.147 88.8901C219.412 89.0868 219.622 89.339 219.775 89.6467C219.938 89.946 220.019 90.2965 220.019 90.6983C220.019 91.1856 219.882 91.6216 219.609 92.0064C219.335 92.3825 218.955 92.6304 218.467 92.7501V92.7758C219.049 92.8613 219.489 93.1092 219.788 93.5196C220.088 93.9299 220.237 94.4172 220.237 94.9815C220.237 95.4175 220.152 95.8022 219.981 96.1357C219.818 96.4691 219.596 96.7512 219.314 96.982C219.032 97.2043 218.703 97.3753 218.326 97.495C217.959 97.6061 217.574 97.6617 217.172 97.6617C216.796 97.6617 216.441 97.619 216.108 97.5335C215.774 97.4565 215.471 97.3326 215.197 97.1616C214.932 96.9906 214.701 96.7726 214.505 96.5075C214.308 96.234 214.159 95.9091 214.056 95.5329L215.697 95.0969C215.792 95.4731 215.958 95.7638 216.198 95.9689C216.437 96.1741 216.762 96.2767 217.172 96.2767C217.377 96.2767 217.57 96.2425 217.749 96.1741C217.937 96.1057 218.1 96.0117 218.237 95.892C218.382 95.7638 218.493 95.6141 218.57 95.4432C218.656 95.2636 218.698 95.067 218.698 94.8533C218.698 94.5626 218.634 94.3275 218.506 94.1479C218.386 93.9599 218.228 93.8188 218.031 93.7248C217.843 93.6222 217.63 93.5538 217.39 93.5196C217.151 93.4854 216.916 93.4683 216.685 93.4683H216.313V92.0833Z" fill="black"/>
<path d="M326.629 97.6873C326.378 97.6873 326.102 97.6694 325.803 97.6335C325.504 97.6095 325.235 97.5677 324.995 97.5078V92.014L323.254 92.6065V91.0446L324.995 90.4521V89.339L323.254 89.9314V88.3695L324.995 87.777V84.689H327.617V86.8793L330.417 85.9099V87.4718L327.617 88.4413V89.5544L330.417 88.5849V90.1289L327.617 91.0984V95.497C328.371 95.3654 328.957 95.114 329.376 94.743C329.807 94.3719 330.106 93.8872 330.274 93.2887C330.453 92.6903 330.543 92.0021 330.543 91.2241H333.003C333.003 92.05 332.895 92.8519 332.679 93.6299C332.464 94.3959 332.111 95.0841 331.62 95.6945C331.141 96.3049 330.489 96.7897 329.663 97.1487C328.849 97.5078 327.838 97.6873 326.629 97.6873ZM337.424 89.9135H337.98C338.292 89.9135 338.591 89.8955 338.878 89.8596C339.177 89.8237 339.441 89.7459 339.668 89.6262C339.907 89.5065 340.099 89.333 340.243 89.1056C340.386 88.8782 340.458 88.573 340.458 88.19C340.458 87.6992 340.29 87.2983 339.955 86.9871C339.62 86.6759 339.183 86.5203 338.645 86.5203C338.214 86.5203 337.825 86.646 337.478 86.8973C337.143 87.1367 336.897 87.4778 336.742 87.9206L334.462 87.3102C334.605 86.8434 334.809 86.4365 335.072 86.0894C335.335 85.7423 335.647 85.461 336.006 85.2456C336.365 85.0182 336.76 84.8506 337.191 84.7429C337.621 84.6352 338.07 84.5813 338.537 84.5813C339.088 84.5813 339.608 84.6531 340.099 84.7967C340.59 84.9404 341.021 85.1558 341.392 85.4431C341.763 85.7184 342.056 86.0714 342.271 86.5023C342.499 86.9212 342.612 87.412 342.612 87.9745C342.612 88.6567 342.421 89.2672 342.038 89.8058C341.655 90.3324 341.122 90.6795 340.44 90.8471V90.883C341.254 91.0027 341.87 91.3498 342.289 91.9243C342.708 92.4988 342.918 93.181 342.918 93.971C342.918 94.5814 342.798 95.12 342.559 95.5868C342.331 96.0536 342.02 96.4486 341.625 96.7717C341.23 97.0829 340.769 97.3223 340.243 97.4899C339.728 97.6455 339.189 97.7233 338.627 97.7233C338.1 97.7233 337.603 97.6634 337.137 97.5437C336.67 97.436 336.245 97.2624 335.862 97.0231C335.491 96.7837 335.168 96.4785 334.892 96.1074C334.617 95.7244 334.408 95.2696 334.264 94.743L336.562 94.1326C336.694 94.6592 336.927 95.0661 337.262 95.3534C337.597 95.6406 338.052 95.7843 338.627 95.7843C338.914 95.7843 339.183 95.7364 339.435 95.6406C339.698 95.5449 339.925 95.4132 340.117 95.2457C340.32 95.0661 340.476 94.8567 340.584 94.6173C340.703 94.366 340.763 94.0907 340.763 93.7914C340.763 93.3845 340.673 93.0553 340.494 92.804C340.326 92.5407 340.105 92.3432 339.83 92.2115C339.566 92.0679 339.267 91.9722 338.932 91.9243C338.597 91.8764 338.268 91.8525 337.945 91.8525H337.424V89.9135ZM344.781 91.1523C344.781 90.1469 344.859 89.2911 345.015 88.5849C345.182 87.8668 345.398 87.2683 345.661 86.7896C345.924 86.2989 346.217 85.9099 346.541 85.6226C346.876 85.3234 347.211 85.102 347.546 84.9583C347.893 84.8027 348.222 84.701 348.533 84.6531C348.857 84.6052 349.138 84.5813 349.377 84.5813C349.617 84.5813 349.892 84.6052 350.203 84.6531C350.526 84.701 350.855 84.8027 351.191 84.9583C351.538 85.102 351.873 85.3234 352.196 85.6226C352.531 85.9099 352.83 86.2989 353.094 86.7896C353.357 87.2683 353.566 87.8668 353.722 88.5849C353.89 89.2911 353.973 90.1469 353.973 91.1523C353.973 92.1577 353.89 93.0194 353.722 93.7376C353.566 94.4438 353.357 95.0422 353.094 95.5329C352.83 96.0117 352.531 96.4007 352.196 96.6999C351.873 96.9872 351.538 97.2086 351.191 97.3642C350.855 97.5078 350.526 97.6036 350.203 97.6514C349.892 97.6993 349.617 97.7233 349.377 97.7233C349.138 97.7233 348.857 97.6993 348.533 97.6514C348.222 97.6036 347.893 97.5078 347.546 97.3642C347.211 97.2086 346.876 96.9872 346.541 96.6999C346.217 96.4007 345.924 96.0117 345.661 95.5329C345.398 95.0422 345.182 94.4438 345.015 93.7376C344.859 93.0194 344.781 92.1577 344.781 91.1523ZM346.936 91.1523C346.936 91.5473 346.96 92.0081 347.007 92.5347C347.067 93.0494 347.181 93.5401 347.349 94.0069C347.516 94.4737 347.761 94.8686 348.085 95.1918C348.408 95.515 348.839 95.6766 349.377 95.6766C349.916 95.6766 350.347 95.515 350.67 95.1918C350.993 94.8686 351.238 94.4737 351.406 94.0069C351.574 93.5401 351.681 93.0494 351.729 92.5347C351.789 92.0081 351.819 91.5473 351.819 91.1523C351.819 90.7573 351.789 90.3025 351.729 89.7878C351.681 89.2612 351.574 88.7645 351.406 88.2977C351.238 87.8309 350.993 87.4359 350.67 87.1127C350.347 86.7896 349.916 86.628 349.377 86.628C348.839 86.628 348.408 86.7896 348.085 87.1127C347.761 87.4359 347.516 87.8309 347.349 88.2977C347.181 88.7645 347.067 89.2612 347.007 89.7878C346.96 90.3025 346.936 90.7573 346.936 91.1523ZM355.56 96.6101C355.56 96.3366 355.658 96.1015 355.855 95.9048C356.06 95.7082 356.304 95.6099 356.586 95.6099C356.859 95.6099 357.099 95.7039 357.304 95.892C357.509 96.0801 357.612 96.3109 357.612 96.5845C357.612 96.8581 357.509 97.0932 357.304 97.2898C357.107 97.4864 356.868 97.5848 356.586 97.5848C356.449 97.5848 356.317 97.5591 356.188 97.5078C356.069 97.4565 355.962 97.3881 355.868 97.3026C355.774 97.2171 355.697 97.1145 355.637 96.9949C355.586 96.8752 355.56 96.7469 355.56 96.6101ZM361.329 92.0833H361.727C361.949 92.0833 362.163 92.0705 362.368 92.0448C362.582 92.0192 362.77 91.9636 362.932 91.8781C363.103 91.7926 363.24 91.6687 363.343 91.5062C363.445 91.3438 363.497 91.1258 363.497 90.8522C363.497 90.5017 363.377 90.2153 363.138 89.993C362.898 89.7707 362.586 89.6596 362.201 89.6596C361.894 89.6596 361.616 89.7493 361.368 89.9289C361.128 90.0999 360.953 90.3435 360.842 90.6598L359.213 90.2238C359.316 89.8904 359.461 89.5997 359.649 89.3518C359.838 89.1039 360.06 88.903 360.316 88.7491C360.573 88.5866 360.855 88.4669 361.163 88.39C361.47 88.3131 361.791 88.2746 362.124 88.2746C362.518 88.2746 362.89 88.3259 363.24 88.4285C363.591 88.5311 363.898 88.685 364.163 88.8901C364.428 89.0868 364.638 89.339 364.792 89.6467C364.954 89.946 365.035 90.2965 365.035 90.6983C365.035 91.1856 364.899 91.6216 364.625 92.0064C364.352 92.3825 363.971 92.6304 363.484 92.7501V92.7758C364.065 92.8613 364.505 93.1092 364.805 93.5196C365.104 93.9299 365.253 94.4172 365.253 94.9815C365.253 95.4175 365.168 95.8022 364.997 96.1357C364.835 96.4691 364.612 96.7512 364.33 96.982C364.048 97.2043 363.719 97.3753 363.343 97.495C362.975 97.6061 362.59 97.6617 362.189 97.6617C361.812 97.6617 361.458 97.619 361.124 97.5335C360.791 97.4565 360.487 97.3326 360.214 97.1616C359.949 96.9906 359.718 96.7726 359.521 96.5075C359.325 96.234 359.175 95.9091 359.072 95.5329L360.714 95.0969C360.808 95.4731 360.975 95.7638 361.214 95.9689C361.453 96.1741 361.778 96.2767 362.189 96.2767C362.394 96.2767 362.586 96.2425 362.766 96.1741C362.954 96.1057 363.116 96.0117 363.253 95.892C363.398 95.7638 363.509 95.6141 363.586 95.4432C363.672 95.2636 363.715 95.067 363.715 94.8533C363.715 94.5626 363.65 94.3275 363.522 94.1479C363.403 93.9599 363.244 93.8188 363.048 93.7248C362.86 93.6222 362.646 93.5538 362.407 93.5196C362.167 93.4854 361.932 93.4683 361.701 93.4683H361.329V92.0833ZM368.919 92.0833H369.316C369.538 92.0833 369.752 92.0705 369.957 92.0448C370.171 92.0192 370.359 91.9636 370.521 91.8781C370.692 91.7926 370.829 91.6687 370.932 91.5062C371.034 91.3438 371.086 91.1258 371.086 90.8522C371.086 90.5017 370.966 90.2153 370.727 89.993C370.487 89.7707 370.175 89.6596 369.791 89.6596C369.483 89.6596 369.205 89.7493 368.957 89.9289C368.718 90.0999 368.542 90.3435 368.431 90.6598L366.803 90.2238C366.905 89.8904 367.05 89.5997 367.239 89.3518C367.427 89.1039 367.649 88.903 367.905 88.7491C368.162 88.5866 368.444 88.4669 368.752 88.39C369.06 88.3131 369.38 88.2746 369.714 88.2746C370.107 88.2746 370.479 88.3259 370.829 88.4285C371.18 88.5311 371.488 88.685 371.753 88.8901C372.018 89.0868 372.227 89.339 372.381 89.6467C372.543 89.946 372.625 90.2965 372.625 90.6983C372.625 91.1856 372.488 91.6216 372.214 92.0064C371.941 92.3825 371.56 92.6304 371.073 92.7501V92.7758C371.654 92.8613 372.095 93.1092 372.394 93.5196C372.693 93.9299 372.843 94.4172 372.843 94.9815C372.843 95.4175 372.757 95.8022 372.586 96.1357C372.424 96.4691 372.201 96.7512 371.919 96.982C371.637 97.2043 371.308 97.3753 370.932 97.495C370.564 97.6061 370.18 97.6617 369.778 97.6617C369.402 97.6617 369.047 97.619 368.713 97.5335C368.38 97.4565 368.076 97.3326 367.803 97.1616C367.538 96.9906 367.307 96.7726 367.11 96.5075C366.914 96.234 366.764 95.9091 366.661 95.5329L368.303 95.0969C368.397 95.4731 368.564 95.7638 368.803 95.9689C369.042 96.1741 369.367 96.2767 369.778 96.2767C369.983 96.2767 370.175 96.2425 370.355 96.1741C370.543 96.1057 370.705 96.0117 370.842 95.892C370.987 95.7638 371.099 95.6141 371.176 95.4432C371.261 95.2636 371.304 95.067 371.304 94.8533C371.304 94.5626 371.24 94.3275 371.111 94.1479C370.992 93.9599 370.834 93.8188 370.637 93.7248C370.449 93.6222 370.235 93.5538 369.996 93.5196C369.756 93.4854 369.521 93.4683 369.29 93.4683H368.919V92.0833Z" fill="black"/>
<path d="M3.23554 113.313H3.63564C3.90238 113.313 4.17938 113.293 4.46663 113.252C4.76415 113.211 5.03089 113.123 5.26685 112.99C5.51307 112.857 5.71312 112.667 5.86701 112.421C6.03115 112.164 6.11322 111.831 6.11322 111.42C6.11322 110.866 5.93882 110.43 5.59001 110.112C5.25146 109.784 4.80518 109.62 4.25119 109.62C3.78953 109.62 3.38942 109.723 3.05087 109.928C2.71232 110.133 2.44558 110.436 2.25066 110.836L1.00417 110.359C1.27091 109.743 1.68641 109.281 2.25066 108.974C2.82517 108.666 3.46124 108.512 4.15886 108.512C4.58974 108.512 5.00011 108.573 5.38996 108.697C5.79006 108.82 6.13887 108.999 6.43639 109.235C6.7339 109.471 6.96986 109.769 7.14427 110.128C7.31867 110.477 7.40588 110.887 7.40588 111.359C7.40588 111.933 7.23147 112.451 6.88266 112.913C6.54411 113.365 6.09784 113.677 5.54384 113.852V113.883C5.89265 113.944 6.20043 114.057 6.46717 114.221C6.74416 114.385 6.98012 114.59 7.17505 114.837C7.36997 115.073 7.51873 115.345 7.62132 115.652C7.72391 115.96 7.7752 116.283 7.7752 116.622C7.7752 117.145 7.67774 117.602 7.48282 117.991C7.2879 118.381 7.02629 118.71 6.698 118.976C6.3697 119.243 5.98499 119.443 5.54384 119.576C5.11296 119.71 4.65643 119.776 4.17425 119.776C3.34326 119.776 2.61999 119.597 2.00444 119.238C1.38889 118.879 0.94262 118.294 0.665623 117.484L1.97366 117.053C2.15833 117.637 2.41994 118.053 2.75849 118.299C3.09704 118.545 3.56896 118.668 4.17425 118.668C4.48202 118.668 4.76928 118.617 5.03602 118.515C5.30275 118.412 5.53358 118.268 5.72851 118.084C5.93369 117.889 6.09271 117.663 6.20556 117.407C6.32867 117.14 6.39022 116.847 6.39022 116.529C6.39022 116.129 6.30815 115.796 6.144 115.529C5.99011 115.252 5.7798 115.037 5.51307 114.883C5.25659 114.719 4.9642 114.601 4.63591 114.529C4.30762 114.457 3.97419 114.421 3.63564 114.421H3.23554V113.313ZM9.23196 114.144C9.23196 113.529 9.28326 112.887 9.38585 112.221C9.48844 111.554 9.67823 110.948 9.95523 110.405C10.2322 109.851 10.6067 109.399 11.0786 109.051C11.5608 108.691 12.1763 108.512 12.9253 108.512C13.6742 108.512 14.2846 108.691 14.7565 109.051C15.2387 109.399 15.6183 109.851 15.8953 110.405C16.1723 110.948 16.3621 111.554 16.4647 112.221C16.5672 112.887 16.6185 113.529 16.6185 114.144C16.6185 114.76 16.5672 115.401 16.4647 116.068C16.3621 116.735 16.1723 117.345 15.8953 117.899C15.6183 118.443 15.2387 118.894 14.7565 119.253C14.2846 119.602 13.6742 119.776 12.9253 119.776C12.1763 119.776 11.5608 119.602 11.0786 119.253C10.6067 118.894 10.2322 118.443 9.95523 117.899C9.67823 117.345 9.48844 116.735 9.38585 116.068C9.28326 115.401 9.23196 114.76 9.23196 114.144ZM10.5246 114.144C10.5246 114.411 10.5349 114.708 10.5554 115.037C10.5759 115.365 10.6118 115.698 10.6631 116.037C10.7247 116.365 10.8067 116.688 10.9093 117.006C11.0222 117.325 11.1658 117.607 11.3402 117.853C11.5249 118.099 11.7455 118.299 12.0019 118.453C12.2584 118.597 12.5662 118.668 12.9253 118.668C13.2843 118.668 13.5921 118.597 13.8486 118.453C14.1051 118.299 14.3205 118.099 14.4949 117.853C14.6796 117.607 14.8232 117.325 14.9258 117.006C15.0386 116.688 15.1207 116.365 15.172 116.037C15.2336 115.698 15.2746 115.365 15.2951 115.037C15.3156 114.708 15.3259 114.411 15.3259 114.144C15.3259 113.877 15.3156 113.58 15.2951 113.252C15.2746 112.923 15.2336 112.595 15.172 112.267C15.1207 111.928 15.0386 111.6 14.9258 111.282C14.8232 110.964 14.6796 110.682 14.4949 110.436C14.3205 110.189 14.1051 109.994 13.8486 109.851C13.5921 109.697 13.2843 109.62 12.9253 109.62C12.5662 109.62 12.2584 109.697 12.0019 109.851C11.7455 109.994 11.5249 110.189 11.3402 110.436C11.1658 110.682 11.0222 110.964 10.9093 111.282C10.8067 111.6 10.7247 111.928 10.6631 112.267C10.6118 112.595 10.5759 112.923 10.5554 113.252C10.5349 113.58 10.5246 113.877 10.5246 114.144ZM29.8064 119.269C29.8064 120.582 29.4679 121.577 28.7908 122.254C28.1239 122.941 27.1544 123.285 25.8823 123.285C25.1744 123.285 24.5332 123.182 23.9587 122.977C23.3945 122.772 22.8559 122.418 22.3429 121.915L23.2047 120.931C23.5843 121.341 23.9844 121.649 24.405 121.854C24.8359 122.069 25.3283 122.177 25.8823 122.177C26.4158 122.177 26.8569 122.095 27.2057 121.931C27.5648 121.777 27.8469 121.562 28.0521 121.285C28.2573 121.018 28.4009 120.71 28.483 120.361C28.5651 120.012 28.6061 119.648 28.6061 119.269V118.345H28.5753C28.2881 118.807 27.9136 119.146 27.4519 119.361C26.9903 119.576 26.5184 119.684 26.0362 119.684C25.4719 119.684 24.9538 119.592 24.4819 119.407C24.01 119.222 23.6048 118.966 23.2662 118.638C22.9277 118.309 22.6661 117.92 22.4814 117.468C22.2967 117.017 22.2044 116.524 22.2044 115.991C22.2044 115.406 22.2967 114.878 22.4814 114.406C22.6661 113.934 22.9225 113.539 23.2508 113.221C23.5894 112.893 23.9946 112.641 24.4665 112.467C24.9385 112.292 25.4617 112.205 26.0362 112.205C26.2824 112.205 26.5286 112.236 26.7748 112.298C27.0211 112.349 27.257 112.436 27.4827 112.559C27.7187 112.672 27.929 112.821 28.1137 113.005C28.2983 113.18 28.4522 113.385 28.5753 113.621H28.6061V112.39H29.8064V119.269ZM23.4971 115.991C23.4971 116.36 23.5637 116.704 23.6971 117.022C23.8305 117.33 24.01 117.602 24.2357 117.837C24.4717 118.063 24.7435 118.243 25.0513 118.376C25.3591 118.509 25.6874 118.576 26.0362 118.576C26.4466 118.576 26.8108 118.504 27.1288 118.361C27.4468 118.217 27.7136 118.027 27.929 117.791C28.1547 117.545 28.324 117.268 28.4368 116.96C28.5497 116.642 28.6061 116.309 28.6061 115.96C28.6061 115.57 28.5445 115.216 28.4214 114.898C28.2983 114.57 28.1239 114.288 27.8982 114.052C27.6725 113.816 27.4007 113.636 27.0826 113.513C26.7646 113.38 26.4158 113.313 26.0362 113.313C25.6566 113.313 25.3078 113.385 24.9898 113.529C24.682 113.662 24.4152 113.852 24.1895 114.098C23.9741 114.334 23.8048 114.616 23.6817 114.944C23.5586 115.262 23.4971 115.611 23.4971 115.991ZM38.306 117.884C38.306 118.212 38.3163 118.52 38.3368 118.807C38.3573 119.094 38.3676 119.356 38.3676 119.592H37.2288C37.2288 119.397 37.2237 119.202 37.2134 119.007C37.2032 118.812 37.198 118.612 37.198 118.407H37.1673C37.0852 118.581 36.9672 118.751 36.8133 118.915C36.6697 119.079 36.4953 119.228 36.2901 119.361C36.0849 119.484 35.8541 119.582 35.5976 119.653C35.3411 119.735 35.0641 119.776 34.7666 119.776C34.2947 119.776 33.8843 119.705 33.5355 119.561C33.197 119.417 32.9149 119.217 32.6892 118.961C32.4635 118.704 32.2942 118.397 32.1813 118.038C32.0787 117.668 32.0274 117.268 32.0274 116.837V112.39H33.2278V116.714C33.2278 117.319 33.3611 117.796 33.6279 118.145C33.8946 118.494 34.3101 118.668 34.8744 118.668C35.2642 118.668 35.5976 118.602 35.8746 118.468C36.1619 118.335 36.3927 118.145 36.5671 117.899C36.7518 117.653 36.8851 117.36 36.9672 117.022C37.0595 116.683 37.1057 116.309 37.1057 115.899V112.39H38.306V117.884ZM33.6433 108.82C33.8792 108.82 34.0741 108.902 34.228 109.066C34.3922 109.23 34.4742 109.425 34.4742 109.651C34.4742 109.887 34.3922 110.087 34.228 110.251C34.0741 110.405 33.8792 110.482 33.6433 110.482C33.4073 110.482 33.2072 110.405 33.0431 110.251C32.8892 110.087 32.8123 109.887 32.8123 109.651C32.8123 109.425 32.8892 109.23 33.0431 109.066C33.2072 108.902 33.4073 108.82 33.6433 108.82ZM36.6902 108.82C36.9262 108.82 37.1211 108.902 37.275 109.066C37.4391 109.23 37.5212 109.425 37.5212 109.651C37.5212 109.887 37.4391 110.087 37.275 110.251C37.1211 110.405 36.9262 110.482 36.6902 110.482C36.4543 110.482 36.2542 110.405 36.0901 110.251C35.9362 110.087 35.8592 109.887 35.8592 109.651C35.8592 109.425 35.9362 109.23 36.0901 109.066C36.2542 108.902 36.4543 108.82 36.6902 108.82ZM40.5784 114.098C40.5784 113.77 40.5681 113.462 40.5476 113.175C40.5271 112.887 40.5168 112.626 40.5168 112.39H41.6556C41.6556 112.585 41.6607 112.78 41.671 112.975C41.6813 113.17 41.6864 113.37 41.6864 113.575H41.7172C41.7992 113.4 41.9121 113.231 42.0557 113.067C42.2096 112.903 42.3891 112.759 42.5943 112.636C42.7995 112.503 43.0303 112.4 43.2868 112.328C43.5433 112.246 43.8203 112.205 44.1178 112.205C44.5897 112.205 44.995 112.277 45.3335 112.421C45.6823 112.564 45.9696 112.764 46.1953 113.021C46.421 113.277 46.5851 113.59 46.6877 113.96C46.8006 114.319 46.857 114.714 46.857 115.144V119.592H45.6567V115.268C45.6567 114.662 45.5233 114.185 45.2566 113.836C44.9898 113.488 44.5743 113.313 44.0101 113.313C43.6202 113.313 43.2817 113.38 42.9944 113.513C42.7174 113.647 42.4866 113.836 42.3019 114.083C42.1275 114.329 41.9942 114.621 41.9018 114.96C41.8197 115.298 41.7787 115.673 41.7787 116.083V119.592H40.5784V114.098ZM53.5662 117.699C53.8022 117.997 54.0587 118.232 54.3357 118.407C54.6229 118.581 54.982 118.668 55.4129 118.668C55.5975 118.668 55.7822 118.648 55.9669 118.607C56.1618 118.566 56.3362 118.499 56.4901 118.407C56.644 118.315 56.7671 118.202 56.8594 118.068C56.9517 117.925 56.9979 117.755 56.9979 117.56C56.9979 117.366 56.9517 117.207 56.8594 117.083C56.7773 116.96 56.6645 116.858 56.5208 116.776C56.3772 116.683 56.2131 116.612 56.0284 116.56C55.8437 116.509 55.654 116.463 55.459 116.422C55.1205 116.35 54.7973 116.268 54.4895 116.176C54.1818 116.083 53.9099 115.965 53.6739 115.822C53.4482 115.668 53.2636 115.473 53.1199 115.237C52.9866 115.001 52.9199 114.698 52.9199 114.329C52.9199 113.98 52.9968 113.672 53.1507 113.406C53.3046 113.139 53.5098 112.918 53.7663 112.744C54.0228 112.569 54.31 112.436 54.628 112.344C54.9461 112.251 55.2744 112.205 55.6129 112.205C56.1259 112.205 56.5978 112.308 57.0287 112.513C57.4698 112.718 57.8135 113.052 58.0597 113.513L57.0595 114.175C56.9056 113.918 56.7004 113.713 56.4439 113.559C56.1977 113.395 55.895 113.313 55.536 113.313C55.3718 113.313 55.2026 113.334 55.0281 113.375C54.864 113.416 54.7152 113.477 54.5819 113.559C54.4485 113.641 54.3357 113.749 54.2433 113.883C54.1612 114.006 54.1202 114.149 54.1202 114.313C54.1202 114.467 54.1664 114.601 54.2587 114.714C54.3613 114.816 54.4947 114.909 54.6588 114.991C54.8332 115.073 55.0281 115.144 55.2436 115.206C55.4693 115.268 55.7001 115.319 55.9361 115.36C56.2541 115.421 56.5568 115.504 56.844 115.606C57.1313 115.698 57.3826 115.827 57.5981 115.991C57.8135 116.155 57.9828 116.36 58.1059 116.606C58.229 116.853 58.2906 117.155 58.2906 117.514C58.2906 117.925 58.2085 118.273 58.0443 118.561C57.8802 118.848 57.6596 119.084 57.3826 119.269C57.1159 119.443 56.8081 119.571 56.4593 119.653C56.1207 119.735 55.7719 119.776 55.4129 119.776C54.7973 119.776 54.2638 119.684 53.8124 119.499C53.3713 119.305 52.9712 118.951 52.6121 118.438L53.5662 117.699ZM59.5491 115.991C59.5491 115.427 59.6465 114.914 59.8414 114.452C60.0364 113.99 60.3031 113.595 60.6417 113.267C60.9802 112.928 61.3854 112.667 61.8574 112.482C62.3293 112.298 62.8422 112.205 63.3962 112.205C63.9502 112.205 64.4632 112.298 64.9351 112.482C65.407 112.667 65.8123 112.928 66.1508 113.267C66.4894 113.595 66.7561 113.99 66.951 114.452C67.146 114.914 67.2434 115.427 67.2434 115.991C67.2434 116.555 67.146 117.068 66.951 117.53C66.7561 117.991 66.4894 118.391 66.1508 118.73C65.8123 119.058 65.407 119.315 64.9351 119.499C64.4632 119.684 63.9502 119.776 63.3962 119.776C62.8422 119.776 62.3293 119.684 61.8574 119.499C61.3854 119.315 60.9802 119.058 60.6417 118.73C60.3031 118.391 60.0364 117.991 59.8414 117.53C59.6465 117.068 59.5491 116.555 59.5491 115.991ZM60.8417 115.991C60.8417 116.37 60.8981 116.724 61.011 117.053C61.1341 117.371 61.3085 117.653 61.5342 117.899C61.7599 118.135 62.0266 118.325 62.3344 118.468C62.6524 118.602 63.0064 118.668 63.3962 118.668C63.7861 118.668 64.1349 118.602 64.4427 118.468C64.7607 118.325 65.0326 118.135 65.2583 117.899C65.484 117.653 65.6532 117.371 65.7661 117.053C65.8892 116.724 65.9508 116.37 65.9508 115.991C65.9508 115.611 65.8892 115.262 65.7661 114.944C65.6532 114.616 65.484 114.334 65.2583 114.098C65.0326 113.852 64.7607 113.662 64.4427 113.529C64.1349 113.385 63.7861 113.313 63.3962 113.313C63.0064 113.313 62.6524 113.385 62.3344 113.529C62.0266 113.662 61.7599 113.852 61.5342 114.098C61.3085 114.334 61.1341 114.616 61.011 114.944C60.8981 115.262 60.8417 115.611 60.8417 115.991ZM69.1016 114.098C69.1016 113.77 69.0913 113.462 69.0708 113.175C69.0503 112.887 69.04 112.626 69.04 112.39H70.1788C70.1788 112.585 70.1839 112.78 70.1942 112.975C70.2045 113.17 70.2096 113.37 70.2096 113.575H70.2404C70.3224 113.4 70.4353 113.231 70.5789 113.067C70.7328 112.903 70.9123 112.759 71.1175 112.636C71.3227 112.503 71.5535 112.4 71.81 112.328C72.0665 112.246 72.3435 112.205 72.641 112.205C73.1129 112.205 73.5182 112.277 73.8567 112.421C74.2055 112.564 74.4928 112.764 74.7185 113.021C74.9442 113.277 75.1083 113.59 75.2109 113.96C75.3238 114.319 75.3802 114.714 75.3802 115.144V119.592H74.1799V115.268C74.1799 114.662 74.0465 114.185 73.7798 113.836C73.513 113.488 73.0975 113.313 72.5333 113.313C72.1434 113.313 71.8049 113.38 71.5176 113.513C71.2406 113.647 71.0098 113.836 70.8251 114.083C70.6507 114.329 70.5174 114.621 70.425 114.96C70.3429 115.298 70.3019 115.673 70.3019 116.083V119.592H69.1016V114.098ZM77.6525 114.098C77.6525 113.77 77.6423 113.462 77.6218 113.175C77.6012 112.887 77.591 112.626 77.591 112.39H78.7298C78.7298 112.585 78.7349 112.78 78.7451 112.975C78.7554 113.17 78.7605 113.37 78.7605 113.575H78.7913C78.8734 113.4 78.9862 113.231 79.1299 113.067C79.2837 112.903 79.4633 112.759 79.6685 112.636C79.8736 112.503 80.1045 112.4 80.361 112.328C80.6174 112.246 80.8944 112.205 81.1919 112.205C81.274 112.205 81.3561 112.21 81.4382 112.221C81.5202 112.231 81.6023 112.251 81.6844 112.282L81.6074 113.498C81.4023 113.436 81.1868 113.406 80.9611 113.406C80.2225 113.406 79.6839 113.647 79.3453 114.129C79.017 114.601 78.8529 115.252 78.8529 116.083V119.592H77.6525V114.098ZM82.9703 113.313C83.3396 112.934 83.7756 112.657 84.2783 112.482C84.7913 112.298 85.3094 112.205 85.8326 112.205C86.8996 112.205 87.669 112.457 88.1409 112.959C88.6128 113.462 88.8488 114.226 88.8488 115.252V118.345C88.8488 118.55 88.8591 118.766 88.8796 118.992C88.9001 119.207 88.9257 119.407 88.9565 119.592H87.8024C87.7613 119.428 87.7357 119.248 87.7254 119.053C87.7254 118.848 87.7254 118.668 87.7254 118.515H87.6946C87.4587 118.884 87.1406 119.187 86.7405 119.423C86.3507 119.658 85.8788 119.776 85.3248 119.776C84.9554 119.776 84.6066 119.73 84.2783 119.638C83.9603 119.546 83.6782 119.412 83.432 119.238C83.196 119.053 83.0062 118.827 82.8626 118.561C82.719 118.294 82.6471 117.986 82.6471 117.637C82.6471 117.042 82.801 116.576 83.1088 116.237C83.4166 115.899 83.7962 115.647 84.2476 115.483C84.7092 115.319 85.2017 115.216 85.7249 115.175C86.2584 115.134 86.7457 115.114 87.1868 115.114H87.6485V114.898C87.6485 114.375 87.4895 113.98 87.1714 113.713C86.8636 113.447 86.4276 113.313 85.8634 113.313C85.4735 113.313 85.0888 113.38 84.7092 113.513C84.3399 113.636 84.0116 113.831 83.7244 114.098L82.9703 113.313ZM86.4482 116.129C85.6787 116.129 85.0683 116.237 84.6169 116.453C84.1655 116.668 83.9398 117.022 83.9398 117.514C83.9398 117.966 84.0886 118.289 84.3861 118.484C84.6938 118.668 85.0734 118.761 85.5248 118.761C85.8736 118.761 86.1763 118.704 86.4328 118.592C86.6995 118.468 86.9201 118.309 87.0945 118.114C87.2689 117.92 87.4023 117.694 87.4946 117.437C87.5869 117.171 87.6382 116.889 87.6485 116.591V116.129H86.4482Z" fill="#787876"/>
<path d="M164.057 118.114L168.166 114.113C168.423 113.867 168.648 113.641 168.843 113.436C169.038 113.221 169.197 113.016 169.32 112.821C169.454 112.616 169.551 112.405 169.613 112.19C169.674 111.974 169.705 111.733 169.705 111.467C169.705 111.179 169.654 110.923 169.551 110.697C169.448 110.471 169.305 110.282 169.12 110.128C168.946 109.964 168.735 109.84 168.489 109.758C168.253 109.666 167.997 109.62 167.72 109.62C167.166 109.62 166.709 109.779 166.35 110.097C165.991 110.415 165.76 110.836 165.658 111.359L164.257 111.236C164.329 110.795 164.463 110.405 164.657 110.066C164.863 109.717 165.114 109.43 165.411 109.204C165.719 108.979 166.063 108.809 166.443 108.697C166.822 108.573 167.232 108.512 167.674 108.512C168.125 108.512 168.551 108.579 168.951 108.712C169.351 108.835 169.7 109.02 169.997 109.266C170.305 109.512 170.546 109.82 170.721 110.189C170.905 110.559 170.998 110.984 170.998 111.467C170.998 111.897 170.936 112.287 170.813 112.636C170.7 112.985 170.541 113.308 170.336 113.606C170.141 113.893 169.915 114.17 169.659 114.437C169.413 114.693 169.151 114.95 168.874 115.206L165.519 118.361V118.391H171.075V119.592H164.057V118.114ZM177.168 113.313C177.538 112.934 177.974 112.657 178.476 112.482C178.989 112.298 179.507 112.205 180.031 112.205C181.097 112.205 181.867 112.457 182.339 112.959C182.811 113.462 183.047 114.226 183.047 115.252V118.345C183.047 118.55 183.057 118.766 183.077 118.992C183.098 119.207 183.124 119.407 183.154 119.592H182C181.959 119.428 181.934 119.248 181.923 119.053C181.923 118.848 181.923 118.668 181.923 118.515H181.893C181.657 118.884 181.339 119.187 180.938 119.423C180.549 119.658 180.077 119.776 179.523 119.776C179.153 119.776 178.805 119.73 178.476 119.638C178.158 119.546 177.876 119.412 177.63 119.238C177.394 119.053 177.204 118.827 177.061 118.561C176.917 118.294 176.845 117.986 176.845 117.637C176.845 117.042 176.999 116.576 177.307 116.237C177.615 115.899 177.994 115.647 178.445 115.483C178.907 115.319 179.4 115.216 179.923 115.175C180.456 115.134 180.944 115.114 181.385 115.114H181.846V114.898C181.846 114.375 181.687 113.98 181.369 113.713C181.062 113.447 180.626 113.313 180.061 113.313C179.671 113.313 179.287 113.38 178.907 113.513C178.538 113.636 178.21 113.831 177.922 114.098L177.168 113.313ZM180.646 116.129C179.877 116.129 179.266 116.237 178.815 116.453C178.363 116.668 178.138 117.022 178.138 117.514C178.138 117.966 178.286 118.289 178.584 118.484C178.892 118.668 179.271 118.761 179.723 118.761C180.072 118.761 180.374 118.704 180.631 118.592C180.897 118.468 181.118 118.309 181.292 118.114C181.467 117.92 181.6 117.694 181.693 117.437C181.785 117.171 181.836 116.889 181.846 116.591V116.129H180.646ZM187.887 121.238C187.764 121.546 187.636 121.823 187.503 122.069C187.379 122.326 187.226 122.541 187.041 122.716C186.867 122.9 186.651 123.039 186.395 123.131C186.148 123.234 185.846 123.285 185.487 123.285C185.312 123.285 185.128 123.275 184.933 123.254C184.748 123.234 184.574 123.182 184.409 123.1L184.563 122.054C184.686 122.105 184.815 122.136 184.948 122.146C185.081 122.167 185.235 122.177 185.41 122.177C185.8 122.177 186.087 122.069 186.271 121.854C186.456 121.638 186.615 121.351 186.749 120.992L187.241 119.638L184.256 112.39H185.656L187.887 118.038H187.918L190.057 112.39H191.365L187.887 121.238ZM197.101 117.699C197.337 117.997 197.594 118.232 197.871 118.407C198.158 118.581 198.517 118.668 198.948 118.668C199.132 118.668 199.317 118.648 199.502 118.607C199.697 118.566 199.871 118.499 200.025 118.407C200.179 118.315 200.302 118.202 200.394 118.068C200.487 117.925 200.533 117.755 200.533 117.56C200.533 117.366 200.487 117.207 200.394 117.083C200.312 116.96 200.199 116.858 200.056 116.776C199.912 116.683 199.748 116.612 199.563 116.56C199.379 116.509 199.189 116.463 198.994 116.422C198.655 116.35 198.332 116.268 198.024 116.176C197.717 116.083 197.445 115.965 197.209 115.822C196.983 115.668 196.799 115.473 196.655 115.237C196.522 115.001 196.455 114.698 196.455 114.329C196.455 113.98 196.532 113.672 196.686 113.406C196.84 113.139 197.045 112.918 197.301 112.744C197.558 112.569 197.845 112.436 198.163 112.344C198.481 112.251 198.809 112.205 199.148 112.205C199.661 112.205 200.133 112.308 200.564 112.513C201.005 112.718 201.348 113.052 201.595 113.513L200.594 114.175C200.441 113.918 200.235 113.713 199.979 113.559C199.733 113.395 199.43 113.313 199.071 113.313C198.907 113.313 198.738 113.334 198.563 113.375C198.399 113.416 198.25 113.477 198.117 113.559C197.983 113.641 197.871 113.749 197.778 113.883C197.696 114.006 197.655 114.149 197.655 114.313C197.655 114.467 197.701 114.601 197.794 114.714C197.896 114.816 198.03 114.909 198.194 114.991C198.368 115.073 198.563 115.144 198.779 115.206C199.004 115.268 199.235 115.319 199.471 115.36C199.789 115.421 200.092 115.504 200.379 115.606C200.666 115.698 200.918 115.827 201.133 115.991C201.348 116.155 201.518 116.36 201.641 116.606C201.764 116.853 201.826 117.155 201.826 117.514C201.826 117.925 201.743 118.273 201.579 118.561C201.415 118.848 201.195 119.084 200.918 119.269C200.651 119.443 200.343 119.571 199.994 119.653C199.656 119.735 199.307 119.776 198.948 119.776C198.332 119.776 197.799 119.684 197.347 119.499C196.906 119.305 196.506 118.951 196.147 118.438L197.101 117.699ZM203.084 115.991C203.084 115.427 203.181 114.914 203.376 114.452C203.571 113.99 203.838 113.595 204.177 113.267C204.515 112.928 204.92 112.667 205.392 112.482C205.864 112.298 206.377 112.205 206.931 112.205C207.485 112.205 207.998 112.298 208.47 112.482C208.942 112.667 209.347 112.928 209.686 113.267C210.024 113.595 210.291 113.99 210.486 114.452C210.681 114.914 210.778 115.427 210.778 115.991C210.778 116.555 210.681 117.068 210.486 117.53C210.291 117.991 210.024 118.391 209.686 118.73C209.347 119.058 208.942 119.315 208.47 119.499C207.998 119.684 207.485 119.776 206.931 119.776C206.377 119.776 205.864 119.684 205.392 119.499C204.92 119.315 204.515 119.058 204.177 118.73C203.838 118.391 203.571 117.991 203.376 117.53C203.181 117.068 203.084 116.555 203.084 115.991ZM204.377 115.991C204.377 116.37 204.433 116.724 204.546 117.053C204.669 117.371 204.843 117.653 205.069 117.899C205.295 118.135 205.562 118.325 205.869 118.468C206.187 118.602 206.541 118.668 206.931 118.668C207.321 118.668 207.67 118.602 207.978 118.468C208.296 118.325 208.568 118.135 208.793 117.899C209.019 117.653 209.188 117.371 209.301 117.053C209.424 116.724 209.486 116.37 209.486 115.991C209.486 115.611 209.424 115.262 209.301 114.944C209.188 114.616 209.019 114.334 208.793 114.098C208.568 113.852 208.296 113.662 207.978 113.529C207.67 113.385 207.321 113.313 206.931 113.313C206.541 113.313 206.187 113.385 205.869 113.529C205.562 113.662 205.295 113.852 205.069 114.098C204.843 114.334 204.669 114.616 204.546 114.944C204.433 115.262 204.377 115.611 204.377 115.991ZM212.637 114.098C212.637 113.77 212.626 113.462 212.606 113.175C212.585 112.887 212.575 112.626 212.575 112.39H213.714C213.714 112.585 213.719 112.78 213.729 112.975C213.739 113.17 213.745 113.37 213.745 113.575H213.775C213.857 113.4 213.97 113.231 214.114 113.067C214.268 112.903 214.447 112.759 214.652 112.636C214.858 112.503 215.088 112.4 215.345 112.328C215.601 112.246 215.878 112.205 216.176 112.205C216.648 112.205 217.053 112.277 217.392 112.421C217.74 112.564 218.028 112.764 218.253 113.021C218.479 113.277 218.643 113.59 218.746 113.96C218.859 114.319 218.915 114.714 218.915 115.144V119.592H217.715V115.268C217.715 114.662 217.581 114.185 217.315 113.836C217.048 113.488 216.632 113.313 216.068 113.313C215.678 113.313 215.34 113.38 215.053 113.513C214.776 113.647 214.545 113.836 214.36 114.083C214.186 114.329 214.052 114.621 213.96 114.96C213.878 115.298 213.837 115.673 213.837 116.083V119.592H212.637V114.098ZM221.187 114.098C221.187 113.77 221.177 113.462 221.157 113.175C221.136 112.887 221.126 112.626 221.126 112.39H222.265C222.265 112.585 222.27 112.78 222.28 112.975C222.29 113.17 222.295 113.37 222.295 113.575H222.326C222.408 113.4 222.521 113.231 222.665 113.067C222.819 112.903 222.998 112.759 223.203 112.636C223.409 112.503 223.639 112.4 223.896 112.328C224.152 112.246 224.429 112.205 224.727 112.205C224.809 112.205 224.891 112.21 224.973 112.221C225.055 112.231 225.137 112.251 225.219 112.282L225.142 113.498C224.937 113.436 224.722 113.406 224.496 113.406C223.757 113.406 223.219 113.647 222.88 114.129C222.552 114.601 222.388 115.252 222.388 116.083V119.592H221.187V114.098ZM226.505 113.313C226.875 112.934 227.311 112.657 227.813 112.482C228.326 112.298 228.844 112.205 229.368 112.205C230.435 112.205 231.204 112.457 231.676 112.959C232.148 113.462 232.384 114.226 232.384 115.252V118.345C232.384 118.55 232.394 118.766 232.415 118.992C232.435 119.207 232.461 119.407 232.491 119.592H231.337C231.296 119.428 231.271 119.248 231.26 119.053C231.26 118.848 231.26 118.668 231.26 118.515H231.23C230.994 118.884 230.676 119.187 230.275 119.423C229.886 119.658 229.414 119.776 228.86 119.776C228.49 119.776 228.142 119.73 227.813 119.638C227.495 119.546 227.213 119.412 226.967 119.238C226.731 119.053 226.541 118.827 226.398 118.561C226.254 118.294 226.182 117.986 226.182 117.637C226.182 117.042 226.336 116.576 226.644 116.237C226.952 115.899 227.331 115.647 227.783 115.483C228.244 115.319 228.737 115.216 229.26 115.175C229.793 115.134 230.281 115.114 230.722 115.114H231.183V114.898C231.183 114.375 231.024 113.98 230.706 113.713C230.399 113.447 229.963 113.313 229.398 113.313C229.008 113.313 228.624 113.38 228.244 113.513C227.875 113.636 227.547 113.831 227.259 114.098L226.505 113.313ZM229.983 116.129C229.214 116.129 228.603 116.237 228.152 116.453C227.7 116.668 227.475 117.022 227.475 117.514C227.475 117.966 227.624 118.289 227.921 118.484C228.229 118.668 228.608 118.761 229.06 118.761C229.409 118.761 229.711 118.704 229.968 118.592C230.234 118.468 230.455 118.309 230.629 118.114C230.804 117.92 230.937 117.694 231.03 117.437C231.122 117.171 231.173 116.889 231.183 116.591V116.129H229.983Z" fill="#787876"/>
<path d="M317.749 113.313H318.15C318.416 113.313 318.693 113.293 318.981 113.252C319.278 113.211 319.545 113.123 319.781 112.99C320.027 112.857 320.227 112.667 320.381 112.421C320.545 112.164 320.627 111.831 320.627 111.42C320.627 110.866 320.453 110.43 320.104 110.112C319.765 109.784 319.319 109.62 318.765 109.62C318.303 109.62 317.903 109.723 317.565 109.928C317.226 110.133 316.959 110.436 316.765 110.836L315.518 110.359C315.785 109.743 316.2 109.281 316.765 108.974C317.339 108.666 317.975 108.512 318.673 108.512C319.104 108.512 319.514 108.573 319.904 108.697C320.304 108.82 320.653 108.999 320.95 109.235C321.248 109.471 321.484 109.769 321.658 110.128C321.833 110.477 321.92 110.887 321.92 111.359C321.92 111.933 321.745 112.451 321.397 112.913C321.058 113.365 320.612 113.677 320.058 113.852V113.883C320.407 113.944 320.714 114.057 320.981 114.221C321.258 114.385 321.494 114.59 321.689 114.837C321.884 115.073 322.033 115.345 322.135 115.652C322.238 115.96 322.289 116.283 322.289 116.622C322.289 117.145 322.192 117.602 321.997 117.991C321.802 118.381 321.54 118.71 321.212 118.976C320.884 119.243 320.499 119.443 320.058 119.576C319.627 119.71 319.17 119.776 318.688 119.776C317.857 119.776 317.134 119.597 316.518 119.238C315.903 118.879 315.457 118.294 315.18 117.484L316.488 117.053C316.672 117.637 316.934 118.053 317.272 118.299C317.611 118.545 318.083 118.668 318.688 118.668C318.996 118.668 319.283 118.617 319.55 118.515C319.817 118.412 320.047 118.268 320.242 118.084C320.448 117.889 320.607 117.663 320.719 117.407C320.843 117.14 320.904 116.847 320.904 116.529C320.904 116.129 320.822 115.796 320.658 115.529C320.504 115.252 320.294 115.037 320.027 114.883C319.77 114.719 319.478 114.601 319.15 114.529C318.821 114.457 318.488 114.421 318.15 114.421H317.749V113.313ZM328.49 113.313C328.86 112.934 329.296 112.657 329.799 112.482C330.311 112.298 330.83 112.205 331.353 112.205C332.42 112.205 333.189 112.457 333.661 112.959C334.133 113.462 334.369 114.226 334.369 115.252V118.345C334.369 118.55 334.379 118.766 334.4 118.992C334.42 119.207 334.446 119.407 334.477 119.592H333.323C333.282 119.428 333.256 119.248 333.246 119.053C333.246 118.848 333.246 118.668 333.246 118.515H333.215C332.979 118.884 332.661 119.187 332.261 119.423C331.871 119.658 331.399 119.776 330.845 119.776C330.476 119.776 330.127 119.73 329.799 119.638C329.48 119.546 329.198 119.412 328.952 119.238C328.716 119.053 328.526 118.827 328.383 118.561C328.239 118.294 328.167 117.986 328.167 117.637C328.167 117.042 328.321 116.576 328.629 116.237C328.937 115.899 329.316 115.647 329.768 115.483C330.229 115.319 330.722 115.216 331.245 115.175C331.779 115.134 332.266 115.114 332.707 115.114H333.169V114.898C333.169 114.375 333.01 113.98 332.692 113.713C332.384 113.447 331.948 113.313 331.384 113.313C330.994 113.313 330.609 113.38 330.229 113.513C329.86 113.636 329.532 113.831 329.245 114.098L328.49 113.313ZM331.968 116.129C331.199 116.129 330.588 116.237 330.137 116.453C329.686 116.668 329.46 117.022 329.46 117.514C329.46 117.966 329.609 118.289 329.906 118.484C330.214 118.668 330.594 118.761 331.045 118.761C331.394 118.761 331.696 118.704 331.953 118.592C332.22 118.468 332.44 118.309 332.615 118.114C332.789 117.92 332.922 117.694 333.015 117.437C333.107 117.171 333.158 116.889 333.169 116.591V116.129H331.968ZM339.21 121.238C339.086 121.546 338.958 121.823 338.825 122.069C338.702 122.326 338.548 122.541 338.363 122.716C338.189 122.9 337.973 123.039 337.717 123.131C337.471 123.234 337.168 123.285 336.809 123.285C336.635 123.285 336.45 123.275 336.255 123.254C336.07 123.234 335.896 123.182 335.732 123.1L335.886 122.054C336.009 122.105 336.137 122.136 336.27 122.146C336.404 122.167 336.558 122.177 336.732 122.177C337.122 122.177 337.409 122.069 337.594 121.854C337.778 121.638 337.937 121.351 338.071 120.992L338.563 119.638L335.578 112.39H336.978L339.21 118.038H339.24L341.379 112.39H342.687L339.21 121.238ZM348.423 117.699C348.659 117.997 348.916 118.232 349.193 118.407C349.48 118.581 349.839 118.668 350.27 118.668C350.455 118.668 350.639 118.648 350.824 118.607C351.019 118.566 351.193 118.499 351.347 118.407C351.501 118.315 351.624 118.202 351.717 118.068C351.809 117.925 351.855 117.755 351.855 117.56C351.855 117.366 351.809 117.207 351.717 117.083C351.635 116.96 351.522 116.858 351.378 116.776C351.234 116.683 351.07 116.612 350.886 116.56C350.701 116.509 350.511 116.463 350.316 116.422C349.978 116.35 349.655 116.268 349.347 116.176C349.039 116.083 348.767 115.965 348.531 115.822C348.305 115.668 348.121 115.473 347.977 115.237C347.844 115.001 347.777 114.698 347.777 114.329C347.777 113.98 347.854 113.672 348.008 113.406C348.162 113.139 348.367 112.918 348.623 112.744C348.88 112.569 349.167 112.436 349.485 112.344C349.803 112.251 350.132 112.205 350.47 112.205C350.983 112.205 351.455 112.308 351.886 112.513C352.327 112.718 352.671 113.052 352.917 113.513L351.917 114.175C351.763 113.918 351.558 113.713 351.301 113.559C351.055 113.395 350.752 113.313 350.393 113.313C350.229 113.313 350.06 113.334 349.885 113.375C349.721 113.416 349.572 113.477 349.439 113.559C349.306 113.641 349.193 113.749 349.101 113.883C349.018 114.006 348.977 114.149 348.977 114.313C348.977 114.467 349.024 114.601 349.116 114.714C349.219 114.816 349.352 114.909 349.516 114.991C349.69 115.073 349.885 115.144 350.101 115.206C350.327 115.268 350.557 115.319 350.793 115.36C351.111 115.421 351.414 115.504 351.701 115.606C351.988 115.698 352.24 115.827 352.455 115.991C352.671 116.155 352.84 116.36 352.963 116.606C353.086 116.853 353.148 117.155 353.148 117.514C353.148 117.925 353.066 118.273 352.902 118.561C352.737 118.848 352.517 119.084 352.24 119.269C351.973 119.443 351.665 119.571 351.317 119.653C350.978 119.735 350.629 119.776 350.27 119.776C349.655 119.776 349.121 119.684 348.67 119.499C348.229 119.305 347.828 118.951 347.469 118.438L348.423 117.699ZM354.406 115.991C354.406 115.427 354.504 114.914 354.699 114.452C354.894 113.99 355.16 113.595 355.499 113.267C355.837 112.928 356.243 112.667 356.715 112.482C357.187 112.298 357.699 112.205 358.253 112.205C358.807 112.205 359.32 112.298 359.792 112.482C360.264 112.667 360.669 112.928 361.008 113.267C361.347 113.595 361.613 113.99 361.808 114.452C362.003 114.914 362.101 115.427 362.101 115.991C362.101 116.555 362.003 117.068 361.808 117.53C361.613 117.991 361.347 118.391 361.008 118.73C360.669 119.058 360.264 119.315 359.792 119.499C359.32 119.684 358.807 119.776 358.253 119.776C357.699 119.776 357.187 119.684 356.715 119.499C356.243 119.315 355.837 119.058 355.499 118.73C355.16 118.391 354.894 117.991 354.699 117.53C354.504 117.068 354.406 116.555 354.406 115.991ZM355.699 115.991C355.699 116.37 355.755 116.724 355.868 117.053C355.991 117.371 356.166 117.653 356.391 117.899C356.617 118.135 356.884 118.325 357.192 118.468C357.51 118.602 357.864 118.668 358.253 118.668C358.643 118.668 358.992 118.602 359.3 118.468C359.618 118.325 359.89 118.135 360.115 117.899C360.341 117.653 360.51 117.371 360.623 117.053C360.746 116.724 360.808 116.37 360.808 115.991C360.808 115.611 360.746 115.262 360.623 114.944C360.51 114.616 360.341 114.334 360.115 114.098C359.89 113.852 359.618 113.662 359.3 113.529C358.992 113.385 358.643 113.313 358.253 113.313C357.864 113.313 357.51 113.385 357.192 113.529C356.884 113.662 356.617 113.852 356.391 114.098C356.166 114.334 355.991 114.616 355.868 114.944C355.755 115.262 355.699 115.611 355.699 115.991ZM363.959 114.098C363.959 113.77 363.949 113.462 363.928 113.175C363.908 112.887 363.897 112.626 363.897 112.39H365.036C365.036 112.585 365.041 112.78 365.051 112.975C365.062 113.17 365.067 113.37 365.067 113.575H365.098C365.18 113.4 365.293 113.231 365.436 113.067C365.59 112.903 365.77 112.759 365.975 112.636C366.18 112.503 366.411 112.4 366.667 112.328C366.924 112.246 367.201 112.205 367.498 112.205C367.97 112.205 368.375 112.277 368.714 112.421C369.063 112.564 369.35 112.764 369.576 113.021C369.801 113.277 369.966 113.59 370.068 113.96C370.181 114.319 370.237 114.714 370.237 115.144V119.592H369.037V115.268C369.037 114.662 368.904 114.185 368.637 113.836C368.37 113.488 367.955 113.313 367.39 113.313C367.001 113.313 366.662 113.38 366.375 113.513C366.098 113.647 365.867 113.836 365.682 114.083C365.508 114.329 365.375 114.621 365.282 114.96C365.2 115.298 365.159 115.673 365.159 116.083V119.592H363.959V114.098ZM372.51 114.098C372.51 113.77 372.5 113.462 372.479 113.175C372.458 112.887 372.448 112.626 372.448 112.39H373.587C373.587 112.585 373.592 112.78 373.602 112.975C373.613 113.17 373.618 113.37 373.618 113.575H373.649C373.731 113.4 373.843 113.231 373.987 113.067C374.141 112.903 374.321 112.759 374.526 112.636C374.731 112.503 374.962 112.4 375.218 112.328C375.475 112.246 375.752 112.205 376.049 112.205C376.131 112.205 376.213 112.21 376.295 112.221C376.377 112.231 376.46 112.251 376.542 112.282L376.465 113.498C376.259 113.436 376.044 113.406 375.818 113.406C375.08 113.406 374.541 113.647 374.203 114.129C373.874 114.601 373.71 115.252 373.71 116.083V119.592H372.51V114.098ZM377.828 113.313C378.197 112.934 378.633 112.657 379.136 112.482C379.649 112.298 380.167 112.205 380.69 112.205C381.757 112.205 382.526 112.457 382.998 112.959C383.47 113.462 383.706 114.226 383.706 115.252V118.345C383.706 118.55 383.716 118.766 383.737 118.992C383.757 119.207 383.783 119.407 383.814 119.592H382.66C382.619 119.428 382.593 119.248 382.583 119.053C382.583 118.848 382.583 118.668 382.583 118.515H382.552C382.316 118.884 381.998 119.187 381.598 119.423C381.208 119.658 380.736 119.776 380.182 119.776C379.813 119.776 379.464 119.73 379.136 119.638C378.818 119.546 378.535 119.412 378.289 119.238C378.053 119.053 377.863 118.827 377.72 118.561C377.576 118.294 377.504 117.986 377.504 117.637C377.504 117.042 377.658 116.576 377.966 116.237C378.274 115.899 378.653 115.647 379.105 115.483C379.566 115.319 380.059 115.216 380.582 115.175C381.116 115.134 381.603 115.114 382.044 115.114H382.506V114.898C382.506 114.375 382.347 113.98 382.029 113.713C381.721 113.447 381.285 113.313 380.721 113.313C380.331 113.313 379.946 113.38 379.566 113.513C379.197 113.636 378.869 113.831 378.582 114.098L377.828 113.313ZM381.305 116.129C380.536 116.129 379.926 116.237 379.474 116.453C379.023 116.668 378.797 117.022 378.797 117.514C378.797 117.966 378.946 118.289 379.243 118.484C379.551 118.668 379.931 118.761 380.382 118.761C380.731 118.761 381.034 118.704 381.29 118.592C381.557 118.468 381.777 118.309 381.952 118.114C382.126 117.92 382.259 117.694 382.352 117.437C382.444 117.171 382.495 116.889 382.506 116.591V116.129H381.305Z" fill="#787876"/>
<path d="M233.395 36.5482C233.395 56.7332 217.032 73.0963 196.847 73.0963C176.662 73.0963 160.299 56.7332 160.299 36.5482C160.299 16.3632 176.662 0 196.847 0C217.032 0 233.395 16.3632 233.395 36.5482ZM171.263 36.5482C171.263 50.6777 182.718 62.1319 196.847 62.1319C210.976 62.1319 222.431 50.6777 222.431 36.5482C222.431 22.4187 210.976 10.9645 196.847 10.9645C182.718 10.9645 171.263 22.4187 171.263 36.5482Z" fill="#D9DBDE"/>
<path d="M192.869 44.1592V42.0675C193.829 41.2728 194.758 40.4856 195.658 39.7059C196.573 38.9262 197.382 38.154 198.087 37.3893C198.807 36.6246 199.376 35.8824 199.796 35.1627C200.231 34.428 200.448 33.7158 200.448 33.026C200.448 32.3813 200.269 31.8115 199.909 31.3167C199.564 30.8219 198.987 30.5745 198.177 30.5745C197.352 30.5745 196.73 30.8444 196.31 31.3842C195.89 31.924 195.68 32.5762 195.68 33.3409H192.891C192.921 32.1864 193.176 31.2267 193.656 30.462C194.136 29.6824 194.773 29.1051 195.568 28.7302C196.363 28.3404 197.255 28.1455 198.244 28.1455C199.849 28.1455 201.093 28.5878 201.978 29.4724C202.878 30.3421 203.327 31.4742 203.327 32.8686C203.327 33.7383 203.125 34.5854 202.72 35.4101C202.33 36.2348 201.813 37.0295 201.168 37.7942C200.523 38.5589 199.826 39.2786 199.077 39.9533C198.327 40.6131 197.6 41.2278 196.895 41.7976H203.71V44.1592H192.869Z" fill="#350E69"/>
<path d="M196.847 0C190.437 -7.64424e-08 184.139 1.68601 178.586 4.88883C173.033 8.09166 168.421 12.6986 165.211 18.2474C162.001 23.7962 160.307 30.0917 160.299 36.502C160.291 42.9123 161.969 49.212 165.165 54.7689C168.36 60.3258 172.962 64.9444 178.506 68.1613C184.051 71.3781 190.344 73.08 196.755 73.0962C203.165 73.1124 209.467 71.4423 215.028 68.2535C220.589 65.0648 225.213 60.4694 228.437 54.9288L218.96 49.4146C216.703 53.2931 213.466 56.5098 209.574 58.7419C205.681 60.9741 201.27 62.1431 196.782 62.1318C192.295 62.1205 187.89 60.9291 184.009 58.6773C180.127 56.4256 176.906 53.1925 174.669 49.3027C172.432 45.4129 171.258 41.0031 171.263 36.5159C171.269 32.0286 172.455 27.6218 174.702 23.7377C176.949 19.8535 180.177 16.6286 184.064 14.3866C187.951 12.1447 192.36 10.9645 196.847 10.9645V0Z" fill="#350E69"/>
<path d="M349.452 0C342.224 -8.61995e-08 335.158 2.14351 329.147 6.15948C323.137 10.1754 318.453 15.8835 315.686 22.5618C312.92 29.2401 312.196 36.5887 313.607 43.6784C315.017 50.768 318.498 57.2803 323.609 62.3916C328.72 67.503 335.233 70.9839 342.322 72.3941C349.412 73.8043 356.761 73.0805 363.439 70.3143C370.117 67.548 375.825 62.8636 379.841 56.8532C383.857 50.8429 386.001 43.7767 386.001 36.5482H375.036C375.036 41.6082 373.536 46.5545 370.725 50.7617C367.913 54.9689 363.918 58.2481 359.243 60.1844C354.568 62.1208 349.424 62.6275 344.461 61.6403C339.499 60.6532 334.94 58.2165 331.362 54.6386C327.784 51.0606 325.347 46.5021 324.36 41.5393C323.373 36.5766 323.88 31.4325 325.816 26.7577C327.753 22.0829 331.032 18.0873 335.239 15.2761C339.446 12.4649 344.392 10.9645 349.452 10.9645V0Z" fill="#D9DBDE"/>
<path d="M350.458 44.4291C349.424 44.4291 348.486 44.2491 347.647 43.8893C346.807 43.5144 346.132 42.9447 345.623 42.18C345.113 41.4153 344.843 40.4556 344.813 39.3011H347.647C347.662 40.0658 347.909 40.7105 348.389 41.2353C348.884 41.7451 349.574 42 350.458 42C351.298 42 351.943 41.7676 352.392 41.3028C352.842 40.838 353.067 40.2532 353.067 39.5485C353.067 38.7238 352.767 38.1016 352.167 37.6817C351.583 37.2469 350.826 37.0295 349.896 37.0295H348.726V34.6679H349.918C350.683 34.6679 351.32 34.488 351.83 34.1281C352.34 33.7683 352.595 33.236 352.595 32.5312C352.595 31.9465 352.4 31.4816 352.01 31.1368C351.635 30.7769 351.11 30.597 350.436 30.597C349.701 30.597 349.124 30.8144 348.704 31.2492C348.299 31.6841 348.074 32.2164 348.029 32.8461H345.218C345.278 31.3917 345.78 30.2446 346.725 29.405C347.684 28.5653 348.921 28.1455 350.436 28.1455C351.515 28.1455 352.422 28.3404 353.157 28.7302C353.907 29.1051 354.469 29.6074 354.844 30.2371C355.234 30.8669 355.429 31.5641 355.429 32.3288C355.429 33.2135 355.181 33.9632 354.687 34.5779C354.207 35.1777 353.607 35.5825 352.887 35.7925C353.772 35.9724 354.492 36.4072 355.046 37.0969C355.601 37.7717 355.879 38.6263 355.879 39.6609C355.879 40.5306 355.669 41.3253 355.249 42.045C354.829 42.7647 354.214 43.342 353.405 43.7768C352.61 44.2117 351.628 44.4291 350.458 44.4291Z" fill="#350E69"/>
<path d="M386.001 36.5482C386.001 56.7332 369.637 73.0963 349.452 73.0963C329.267 73.0963 312.904 56.7332 312.904 36.5482C312.904 16.3632 329.267 0 349.452 0C369.637 0 386.001 16.3632 386.001 36.5482ZM323.869 36.5482C323.869 50.6777 335.323 62.1319 349.452 62.1319C363.582 62.1319 375.036 50.6777 375.036 36.5482C375.036 22.4187 363.582 10.9645 349.452 10.9645C335.323 10.9645 323.869 22.4187 323.869 36.5482Z" fill="#350E69"/>
</svg>
