<svg viewBox="0 0 265 224" fill="none" xmlns="http://www.w3.org/2000/svg">
<g clip-path="url(#clip0_167_17049)">
<rect width="264.959" height="568.773" rx="39.6818" fill="white"/>
<g clip-path="url(#clip1_167_17049)">
<rect width="265" height="107" transform="translate(0.0117188 -26.5742)" fill="url(#paint0_linear_167_17049)"/>
<path d="M75.6168 63.4258L71.2871 58.7851H70.2377V63.4258H68.4809V52.5431H70.2377V57.1216H71.3104L75.3991 52.5431H77.6689L72.7718 57.8523L78.0032 63.4258H75.6168ZM80.979 55.9789V63.4258H79.3466V55.9789H80.979ZM79.3466 52.5898C79.5643 52.3669 79.8338 52.2555 80.1551 52.2555C80.4764 52.2555 80.7484 52.3669 80.9713 52.5898C81.1941 52.8126 81.3055 53.0847 81.3055 53.406C81.3055 53.7273 81.1941 53.9967 80.9713 54.2144C80.7484 54.4321 80.4764 54.5409 80.1551 54.5409C79.8338 54.5409 79.5643 54.4321 79.3466 54.2144C79.129 53.9967 79.0202 53.7273 79.0202 53.406C79.0202 53.0847 79.129 52.8126 79.3466 52.5898ZM92.7176 55.7846C93.6038 55.7846 94.3293 56.0619 94.8941 56.6164C95.459 57.1657 95.7414 57.8756 95.7414 58.7462V63.4258H94.109V59.2826C94.109 58.6607 93.9562 58.1814 93.6504 57.8445C93.3498 57.5025 92.9249 57.3315 92.3756 57.3315C91.8263 57.3315 91.3676 57.5077 90.9997 57.8601C90.6318 58.2073 90.4478 58.6866 90.4478 59.2981V63.4258H88.8154V59.2826C88.8154 58.6607 88.6625 58.1814 88.3568 57.8445C88.0562 57.5025 87.6313 57.3315 87.082 57.3315C86.5326 57.3315 86.074 57.5077 85.7061 57.8601C85.3381 58.2073 85.1542 58.6866 85.1542 59.2981V63.4258H83.5218V55.9789H85.1386V56.8884C85.6413 56.1525 86.4031 55.7846 87.424 55.7846C87.9837 55.7846 88.4863 55.9038 88.932 56.1422C89.3829 56.3754 89.7378 56.6993 89.9969 57.1138C90.5359 56.2277 91.4428 55.7846 92.7176 55.7846ZM99.8506 52.2322V63.4258H98.2182V52.2322H99.8506ZM104.026 55.9789V63.4258H102.393V55.9789H104.026ZM102.393 52.5898C102.611 52.3669 102.88 52.2555 103.202 52.2555C103.523 52.2555 103.795 52.3669 104.018 52.5898C104.241 52.8126 104.352 53.0847 104.352 53.406C104.352 53.7273 104.241 53.9967 104.018 54.2144C103.795 54.4321 103.523 54.5409 103.202 54.5409C102.88 54.5409 102.611 54.4321 102.393 54.2144C102.176 53.9967 102.067 53.7273 102.067 53.406C102.067 53.0847 102.176 52.8126 102.393 52.5898ZM109.483 55.7846C110.561 55.7846 111.388 56.1474 111.963 56.8729V55.9789H113.596V62.905C113.596 64.0761 113.241 64.9986 112.531 65.6723C111.821 66.346 110.844 66.6828 109.6 66.6828C109.03 66.6828 108.463 66.6077 107.898 66.4574C107.338 66.3071 106.866 66.0946 106.483 65.82L107.074 64.4441C107.898 64.9468 108.74 65.1981 109.6 65.1981C110.357 65.1981 110.94 65.0012 111.349 64.6073C111.758 64.2187 111.963 63.6745 111.963 62.9749V62.3764C111.393 63.1019 110.567 63.4646 109.483 63.4646C109.053 63.4646 108.634 63.3766 108.224 63.2004C107.815 63.019 107.447 62.7702 107.12 62.4541C106.794 62.1328 106.53 61.726 106.327 61.2337C106.131 60.7414 106.032 60.205 106.032 59.6246C106.032 59.0442 106.131 58.5079 106.327 58.0156C106.53 57.5232 106.794 57.119 107.12 56.8029C107.447 56.4816 107.815 56.2329 108.224 56.0567C108.634 55.8753 109.053 55.7846 109.483 55.7846ZM109.903 57.316C109.235 57.316 108.701 57.5388 108.302 57.9845C107.903 58.4249 107.703 58.9717 107.703 59.6246C107.703 60.2724 107.903 60.8191 108.302 61.2648C108.701 61.7105 109.235 61.9333 109.903 61.9333C110.551 61.9333 111.08 61.7157 111.489 61.2803C111.898 60.8399 112.103 60.288 112.103 59.6246C112.103 58.9613 111.898 58.412 111.489 57.9767C111.08 57.5362 110.551 57.316 109.903 57.316ZM107.035 52.6675L108.341 52.2711C108.636 53.1676 109.157 53.6159 109.903 53.6159C110.649 53.6159 111.17 53.1676 111.466 52.2711L112.772 52.6675C112.549 53.4293 112.189 54.0071 111.691 54.401C111.199 54.7948 110.603 54.9917 109.903 54.9917C109.204 54.9917 108.605 54.7948 108.108 54.401C107.615 54.0071 107.258 53.4293 107.035 52.6675ZM117.781 55.9789V63.4258H116.148V55.9789H117.781ZM116.148 52.5898C116.366 52.3669 116.636 52.2555 116.957 52.2555C117.278 52.2555 117.55 52.3669 117.773 52.5898C117.996 52.8126 118.107 53.0847 118.107 53.406C118.107 53.7273 117.996 53.9967 117.773 54.2144C117.55 54.4321 117.278 54.5409 116.957 54.5409C116.636 54.5409 116.366 54.4321 116.148 54.2144C115.931 53.9967 115.822 53.7273 115.822 53.406C115.822 53.0847 115.931 52.8126 116.148 52.5898ZM124.226 55.7846C125.112 55.7846 125.837 56.0619 126.402 56.6164C126.967 57.1657 127.25 57.8756 127.25 58.7462V63.4258H125.617V59.2826C125.617 58.6607 125.464 58.1814 125.159 57.8445C124.858 57.5025 124.433 57.3315 123.884 57.3315C123.334 57.3315 122.876 57.5077 122.508 57.8601C122.14 58.2073 121.956 58.6866 121.956 59.2981V63.4258H120.324V55.9789H121.94V56.8884C122.443 56.1525 123.205 55.7846 124.226 55.7846ZM131.354 55.9789V63.4258H129.721V55.9789H131.354ZM129.721 52.5898C129.939 52.3669 130.209 52.2555 130.53 52.2555C130.851 52.2555 131.123 52.3669 131.346 52.5898C131.569 52.8126 131.68 53.0847 131.68 53.406C131.68 53.7273 131.569 53.9967 131.346 54.2144C131.123 54.4321 130.851 54.5409 130.53 54.5409C130.209 54.5409 129.939 54.4321 129.721 54.2144C129.504 53.9967 129.395 53.7273 129.395 53.406C129.395 53.0847 129.504 52.8126 129.721 52.5898ZM138.289 52.5431H142.611C144.316 52.5431 145.684 53.0406 146.715 54.0356C147.746 55.0306 148.262 56.3469 148.262 57.9845C148.262 59.622 147.746 60.9383 146.715 61.9333C145.684 62.9283 144.316 63.4258 142.611 63.4258H138.289V52.5431ZM142.611 54.2066H140.046V61.7623H142.611C143.849 61.7623 144.793 61.4177 145.44 60.7284C146.093 60.0392 146.42 59.1245 146.42 57.9845C146.42 56.834 146.093 55.9168 145.44 55.2327C144.793 54.5487 143.849 54.2066 142.611 54.2066ZM151.845 56.2976C152.456 55.9556 153.14 55.7846 153.897 55.7846C154.654 55.7846 155.338 55.9556 155.949 56.2976C156.561 56.6345 157.04 57.1035 157.387 57.7046C157.734 58.3006 157.908 58.9665 157.908 59.7024C157.908 60.4382 157.734 61.1067 157.387 61.7079C157.04 62.3038 156.561 62.7728 155.949 63.1148C155.338 63.4517 154.654 63.6201 153.897 63.6201C153.14 63.6201 152.456 63.4491 151.845 63.1071C151.233 62.765 150.754 62.2961 150.407 61.7001C150.065 61.1041 149.894 60.4382 149.894 59.7024C149.894 58.9665 150.065 58.3006 150.407 57.7046C150.754 57.1087 151.233 56.6397 151.845 56.2976ZM155.568 57.9845C155.122 57.5388 154.565 57.316 153.897 57.316C153.228 57.316 152.671 57.5388 152.226 57.9845C151.785 58.4301 151.565 59.0028 151.565 59.7024C151.565 60.402 151.785 60.9746 152.226 61.4203C152.671 61.8659 153.228 62.0888 153.897 62.0888C154.565 62.0888 155.122 61.8659 155.568 61.4203C156.014 60.9746 156.237 60.402 156.237 59.7024C156.237 59.0028 156.014 58.4301 155.568 57.9845ZM162.834 55.7846C163.912 55.7846 164.738 56.1474 165.314 56.8729V55.9789H166.946V62.905C166.946 64.0761 166.591 64.9986 165.881 65.6723C165.171 66.346 164.194 66.6828 162.951 66.6828C162.38 66.6828 161.813 66.6077 161.248 66.4574C160.688 66.3071 160.217 66.0946 159.833 65.82L160.424 64.4441C161.248 64.9468 162.09 65.1981 162.951 65.1981C163.707 65.1981 164.29 65.0012 164.7 64.6073C165.109 64.2187 165.314 63.6745 165.314 62.9749V62.3764C164.744 63.1019 163.917 63.4646 162.834 63.4646C162.404 63.4646 161.984 63.3766 161.575 63.2004C161.165 63.019 160.797 62.7702 160.471 62.4541C160.144 62.1328 159.88 61.726 159.678 61.2337C159.481 60.7414 159.383 60.205 159.383 59.6246C159.383 59.0442 159.481 58.5079 159.678 58.0156C159.88 57.5232 160.144 57.119 160.471 56.8029C160.797 56.4816 161.165 56.2329 161.575 56.0567C161.984 55.8753 162.404 55.7846 162.834 55.7846ZM163.254 57.316C162.585 57.316 162.051 57.5388 161.652 57.9845C161.253 58.4249 161.054 58.9717 161.054 59.6246C161.054 60.2724 161.253 60.8191 161.652 61.2648C162.051 61.7105 162.585 61.9333 163.254 61.9333C163.901 61.9333 164.43 61.7157 164.839 61.2803C165.249 60.8399 165.454 60.288 165.454 59.6246C165.454 58.9613 165.249 58.412 164.839 57.9767C164.43 57.5362 163.901 57.316 163.254 57.316ZM160.385 52.6675L161.691 52.2711C161.987 53.1676 162.507 53.6159 163.254 53.6159C164 53.6159 164.521 53.1676 164.816 52.2711L166.122 52.6675C165.899 53.4293 165.539 54.0071 165.042 54.401C164.549 54.7948 163.953 54.9917 163.254 54.9917C162.554 54.9917 161.956 54.7948 161.458 54.401C160.966 54.0071 160.608 53.4293 160.385 52.6675ZM173.269 55.7846C173.751 55.7846 174.168 55.8546 174.52 55.9945L174.132 57.6036C173.785 57.4222 173.373 57.3315 172.896 57.3315C172.367 57.3315 171.94 57.5103 171.613 57.8679C171.287 58.2202 171.124 58.7074 171.124 59.3292V63.4258H169.499V55.9789H171.108V56.8185C171.585 56.1292 172.305 55.7846 173.269 55.7846ZM182.928 55.9789V60.2698C182.928 60.8399 182.83 61.3451 182.633 61.7856C182.441 62.2261 182.179 62.5785 181.848 62.8428C181.521 63.1019 181.156 63.2962 180.752 63.4258C180.353 63.5553 179.928 63.6201 179.477 63.6201C179.026 63.6201 178.598 63.5553 178.194 63.4258C177.795 63.2962 177.43 63.1019 177.098 62.8428C176.767 62.5785 176.505 62.2261 176.313 61.7856C176.121 61.3451 176.025 60.8399 176.025 60.2698V55.9789H177.658V60.1221C177.658 60.801 177.824 61.2985 178.155 61.6146C178.487 61.9307 178.928 62.0888 179.477 62.0888C180.026 62.0888 180.467 61.9307 180.798 61.6146C181.13 61.2985 181.296 60.801 181.296 60.1221V55.9789H182.928ZM187.027 52.2322V63.4258H185.395V52.2322H187.027ZM196.721 55.9789V63.4258H195.097V62.5318C194.532 63.2574 193.752 63.6201 192.757 63.6201C191.705 63.6201 190.821 63.2496 190.106 62.5085C189.391 61.7675 189.034 60.8321 189.034 59.7024C189.034 58.5726 189.391 57.6372 190.106 56.8962C190.821 56.1551 191.705 55.7846 192.757 55.7846C193.752 55.7846 194.532 56.15 195.097 56.8806V55.9789H196.721ZM192.951 57.316C192.272 57.316 191.728 57.5466 191.319 58.0078C190.909 58.4638 190.705 59.0287 190.705 59.7024C190.705 60.376 190.909 60.9435 191.319 61.4047C191.728 61.8608 192.272 62.0888 192.951 62.0888C193.615 62.0888 194.154 61.8633 194.568 61.4125C194.988 60.9616 195.198 60.3916 195.198 59.7024C195.198 59.0131 194.988 58.4431 194.568 57.9922C194.154 57.5414 193.615 57.316 192.951 57.316Z" fill="white"/>
<path d="M127.406 24.3008H128.712L124.936 20.4157L128.478 16.6829H127.238L124.147 20.0185H123.265V16.6829H122.308V24.3008H123.265V20.9217H124.136L127.406 24.3008ZM135.827 16.6829H134.711L132.371 20.247L130.032 16.6829H128.884L131.887 21.123V24.3008H132.845V21.1339L135.827 16.6829ZM140.053 16.5687C137.768 16.5687 136.108 18.2119 136.108 20.4919C136.108 22.7718 137.768 24.415 140.053 24.415C141.37 24.415 142.507 23.8274 143.149 22.8752L142.366 22.3038C141.865 23.0493 141.033 23.4955 140.053 23.4955C138.377 23.4955 137.109 22.2821 137.109 20.4919C137.109 18.7017 138.377 17.4882 140.053 17.4882C141.038 17.4882 141.876 17.9508 142.371 18.6853L143.171 18.1466C142.573 17.1672 141.386 16.5687 140.053 16.5687Z" fill="#C2BBCF"/>
</g>
<path d="M72.9217 180.783H74.0359V184.335H74.1287L77.7612 180.783H79.3163L75.3473 184.578L79.5832 189H77.9585L74.1287 184.892H74.0359V189H72.9217V180.783ZM80.2614 183.499H81.3059V189H80.2614V183.499ZM80.0177 181.526C80.0177 181.317 80.0912 181.139 80.2382 180.992C80.3929 180.838 80.5747 180.76 80.7836 180.76C80.9925 180.76 81.1705 180.838 81.3175 180.992C81.4722 181.139 81.5496 181.317 81.5496 181.526C81.5496 181.735 81.4722 181.917 81.3175 182.072C81.1705 182.219 80.9925 182.292 80.7836 182.292C80.5747 182.292 80.3929 182.219 80.2382 182.072C80.0912 181.917 80.0177 181.735 80.0177 181.526ZM82.9682 183.499H83.943V184.358H83.9662C83.9894 184.28 84.0475 184.184 84.1403 184.068C84.2409 183.952 84.3647 183.843 84.5117 183.743C84.6664 183.634 84.8444 183.545 85.0455 183.476C85.2544 183.398 85.4826 183.36 85.7302 183.36C86.1403 183.36 86.4846 183.445 86.7631 183.615C87.0416 183.785 87.2699 184.041 87.4478 184.381C87.6258 184.041 87.8772 183.785 88.2022 183.615C88.5271 183.445 88.8559 183.36 89.1886 183.36C89.6141 183.36 89.9623 183.429 90.2331 183.569C90.5039 183.708 90.7167 183.894 90.8714 184.126C91.0261 184.35 91.1306 184.609 91.1847 184.903C91.2466 185.19 91.2776 185.487 91.2776 185.797V189H90.2331V185.936C90.2331 185.727 90.2176 185.526 90.1867 185.333C90.1635 185.139 90.1093 184.969 90.0242 184.822C89.9391 184.675 89.8192 184.559 89.6644 184.474C89.5097 184.381 89.3047 184.335 89.0494 184.335C88.5465 184.335 88.1867 184.489 87.9701 184.799C87.7534 185.108 87.6451 185.507 87.6451 185.994V189H86.6006V186.122C86.6006 185.859 86.5852 185.619 86.5542 185.402C86.531 185.186 86.4768 185 86.3917 184.845C86.3144 184.683 86.1983 184.559 86.0436 184.474C85.8966 184.381 85.6954 184.335 85.4401 184.335C85.2544 184.335 85.0726 184.373 84.8946 184.451C84.7244 184.52 84.5736 184.629 84.442 184.776C84.3105 184.923 84.2061 185.112 84.1287 185.344C84.0513 185.569 84.0126 185.836 84.0126 186.145V189H82.9682V183.499ZM92.9321 180.226H93.9765V189H92.9321V180.226ZM95.7201 183.499H96.7645V189H95.7201V183.499ZM95.4764 181.526C95.4764 181.317 95.5499 181.139 95.6969 180.992C95.8516 180.838 96.0334 180.76 96.2423 180.76C96.4512 180.76 96.6291 180.838 96.7761 180.992C96.9309 181.139 97.0083 181.317 97.0083 181.526C97.0083 181.735 96.9309 181.917 96.7761 182.072C96.6291 182.219 96.4512 182.292 96.2423 182.292C96.0334 182.292 95.8516 182.219 95.6969 182.072C95.5499 181.917 95.4764 181.735 95.4764 181.526ZM98.4268 180.226H99.4713V185.89L101.839 183.511H103.289L100.725 186.006L103.51 189H102.024L99.4713 186.145V189H98.4268V180.226ZM107.675 180.226H108.719V185.89L111.087 183.511H112.537L109.973 186.006L112.758 189H111.272L108.719 186.145V189H107.675V180.226ZM113.716 184.172C114.01 183.901 114.35 183.7 114.737 183.569C115.124 183.429 115.511 183.36 115.898 183.36C116.3 183.36 116.644 183.41 116.931 183.511C117.225 183.611 117.465 183.747 117.65 183.917C117.836 184.087 117.971 184.284 118.056 184.509C118.149 184.725 118.196 184.954 118.196 185.193V188.002C118.196 188.195 118.2 188.373 118.207 188.536C118.215 188.698 118.227 188.853 118.242 189H117.314C117.29 188.721 117.279 188.443 117.279 188.164H117.256C117.024 188.52 116.749 188.772 116.432 188.919C116.114 189.066 115.747 189.139 115.329 189.139C115.074 189.139 114.83 189.104 114.598 189.035C114.366 188.965 114.161 188.861 113.983 188.721C113.813 188.582 113.677 188.412 113.577 188.211C113.476 188.002 113.426 187.762 113.426 187.491C113.426 187.135 113.503 186.838 113.658 186.598C113.82 186.358 114.037 186.164 114.308 186.017C114.586 185.863 114.908 185.754 115.271 185.692C115.643 185.623 116.037 185.588 116.455 185.588H117.221V185.356C117.221 185.217 117.194 185.077 117.14 184.938C117.085 184.799 117.004 184.675 116.896 184.567C116.788 184.451 116.652 184.362 116.49 184.3C116.327 184.23 116.134 184.195 115.909 184.195C115.708 184.195 115.53 184.215 115.376 184.253C115.229 184.292 115.093 184.342 114.969 184.404C114.846 184.458 114.733 184.524 114.633 184.602C114.532 184.679 114.436 184.752 114.343 184.822L113.716 184.172ZM116.664 186.354C116.416 186.354 116.161 186.369 115.898 186.4C115.643 186.424 115.407 186.474 115.19 186.551C114.981 186.629 114.807 186.737 114.668 186.876C114.536 187.015 114.47 187.193 114.47 187.41C114.47 187.727 114.575 187.956 114.784 188.095C115 188.234 115.29 188.304 115.654 188.304C115.94 188.304 116.184 188.257 116.385 188.164C116.586 188.064 116.749 187.936 116.873 187.781C116.996 187.627 117.085 187.456 117.14 187.271C117.194 187.077 117.221 186.888 117.221 186.702V186.354H116.664ZM119.711 183.499H120.755V184.346H120.779C120.848 184.199 120.941 184.068 121.057 183.952C121.173 183.828 121.301 183.723 121.44 183.638C121.587 183.553 121.746 183.487 121.916 183.441C122.086 183.387 122.256 183.36 122.426 183.36C122.597 183.36 122.751 183.383 122.891 183.429L122.844 184.555C122.759 184.532 122.674 184.513 122.589 184.497C122.504 184.482 122.419 184.474 122.334 184.474C121.823 184.474 121.432 184.617 121.161 184.903C120.891 185.19 120.755 185.634 120.755 186.238V189H119.711V183.499ZM126.954 184.404H125.457V186.899C125.457 187.054 125.461 187.209 125.468 187.364C125.476 187.511 125.503 187.646 125.55 187.77C125.604 187.886 125.681 187.983 125.782 188.06C125.89 188.13 126.045 188.164 126.246 188.164C126.37 188.164 126.497 188.153 126.629 188.13C126.76 188.106 126.88 188.064 126.989 188.002V188.954C126.865 189.023 126.702 189.07 126.501 189.093C126.308 189.124 126.157 189.139 126.049 189.139C125.646 189.139 125.333 189.085 125.109 188.977C124.892 188.861 124.73 188.714 124.621 188.536C124.521 188.358 124.459 188.161 124.436 187.944C124.42 187.72 124.412 187.495 124.412 187.271V184.404H123.205V183.499H124.412V181.956H125.457V183.499H126.954V184.404ZM128.383 183.499H129.427V189H128.383V183.499ZM131.089 183.499H132.134V184.346H132.157C132.289 184.052 132.517 183.816 132.842 183.638C133.167 183.453 133.542 183.36 133.968 183.36C134.231 183.36 134.482 183.402 134.722 183.487C134.97 183.565 135.182 183.689 135.36 183.859C135.546 184.029 135.693 184.25 135.801 184.52C135.91 184.783 135.964 185.097 135.964 185.46V189H134.919V185.751C134.919 185.495 134.884 185.279 134.815 185.101C134.745 184.915 134.652 184.768 134.536 184.66C134.42 184.544 134.285 184.462 134.13 184.416C133.983 184.362 133.828 184.335 133.666 184.335C133.449 184.335 133.248 184.369 133.062 184.439C132.877 184.509 132.714 184.621 132.575 184.776C132.436 184.923 132.327 185.112 132.25 185.344C132.173 185.576 132.134 185.851 132.134 186.168V189H131.089V183.499ZM137.619 183.499H138.664V189H137.619V183.499ZM146.504 184.404H145.007V186.899C145.007 187.054 145.011 187.209 145.018 187.364C145.026 187.511 145.053 187.646 145.1 187.77C145.154 187.886 145.231 187.983 145.332 188.06C145.44 188.13 145.595 188.164 145.796 188.164C145.92 188.164 146.047 188.153 146.179 188.13C146.31 188.106 146.43 188.064 146.539 188.002V188.954C146.415 189.023 146.252 189.07 146.051 189.093C145.858 189.124 145.707 189.139 145.599 189.139C145.196 189.139 144.883 189.085 144.659 188.977C144.442 188.861 144.28 188.714 144.171 188.536C144.071 188.358 144.009 188.161 143.986 187.944C143.97 187.72 143.962 187.495 143.962 187.271V184.404H142.755V183.499H143.962V181.956H145.007V183.499H146.504V184.404ZM148.641 186.633C148.641 186.872 148.691 187.093 148.792 187.294C148.9 187.487 149.039 187.654 149.209 187.793C149.38 187.932 149.577 188.041 149.801 188.118C150.026 188.195 150.258 188.234 150.498 188.234C150.822 188.234 151.105 188.161 151.345 188.014C151.585 187.859 151.805 187.658 152.006 187.41L152.795 188.014C152.215 188.764 151.403 189.139 150.358 189.139C149.925 189.139 149.53 189.066 149.175 188.919C148.826 188.772 148.528 188.571 148.281 188.315C148.041 188.052 147.855 187.747 147.724 187.398C147.592 187.043 147.527 186.66 147.527 186.25C147.527 185.839 147.596 185.46 147.735 185.112C147.882 184.756 148.08 184.451 148.327 184.195C148.583 183.932 148.884 183.727 149.233 183.58C149.581 183.433 149.96 183.36 150.37 183.36C150.857 183.36 151.267 183.445 151.6 183.615C151.94 183.785 152.219 184.01 152.436 184.288C152.652 184.559 152.807 184.869 152.9 185.217C153 185.557 153.051 185.905 153.051 186.261V186.633H148.641ZM151.937 185.797C151.929 185.565 151.89 185.352 151.821 185.159C151.759 184.965 151.662 184.799 151.53 184.66C151.399 184.513 151.233 184.4 151.031 184.323C150.838 184.238 150.61 184.195 150.347 184.195C150.091 184.195 149.855 184.246 149.639 184.346C149.43 184.439 149.252 184.563 149.105 184.718C148.958 184.872 148.842 185.046 148.757 185.24C148.679 185.426 148.641 185.611 148.641 185.797H151.937ZM154.381 180.226H155.426V189H154.381V180.226ZM157.877 186.633C157.877 186.872 157.928 187.093 158.028 187.294C158.137 187.487 158.276 187.654 158.446 187.793C158.616 187.932 158.813 188.041 159.038 188.118C159.262 188.195 159.494 188.234 159.734 188.234C160.059 188.234 160.342 188.161 160.581 188.014C160.821 187.859 161.042 187.658 161.243 187.41L162.032 188.014C161.452 188.764 160.639 189.139 159.595 189.139C159.162 189.139 158.767 189.066 158.411 188.919C158.063 188.772 157.765 188.571 157.518 188.315C157.278 188.052 157.092 187.747 156.961 187.398C156.829 187.043 156.763 186.66 156.763 186.25C156.763 185.839 156.833 185.46 156.972 185.112C157.119 184.756 157.316 184.451 157.564 184.195C157.819 183.932 158.121 183.727 158.469 183.58C158.817 183.433 159.196 183.36 159.607 183.36C160.094 183.36 160.504 183.445 160.837 183.615C161.177 183.785 161.456 184.01 161.672 184.288C161.889 184.559 162.044 184.869 162.136 185.217C162.237 185.557 162.287 185.905 162.287 186.261V186.633H157.877ZM161.173 185.797C161.165 185.565 161.127 185.352 161.057 185.159C160.995 184.965 160.899 184.799 160.767 184.66C160.636 184.513 160.469 184.4 160.268 184.323C160.075 184.238 159.846 184.195 159.583 184.195C159.328 184.195 159.092 184.246 158.875 184.346C158.666 184.439 158.489 184.563 158.342 184.718C158.195 184.872 158.078 185.046 157.993 185.24C157.916 185.426 157.877 185.611 157.877 185.797H161.173ZM163.943 184.404H162.759V183.499H163.943V182.269C163.943 181.534 164.082 180.988 164.361 180.633C164.647 180.269 165.134 180.087 165.823 180.087C165.939 180.087 166.059 180.091 166.183 180.099C166.314 180.106 166.454 180.13 166.601 180.168L166.485 181.097C166.384 181.058 166.287 181.031 166.194 181.016C166.102 181 166.001 180.992 165.893 180.992C165.699 180.992 165.545 181.023 165.428 181.085C165.312 181.139 165.22 181.221 165.15 181.329C165.088 181.437 165.046 181.569 165.022 181.723C165.007 181.87 164.999 182.041 164.999 182.234V183.499H166.241V184.404H164.987V189H163.943V184.404ZM168.249 186.25C168.249 186.528 168.291 186.787 168.376 187.027C168.461 187.259 168.581 187.46 168.736 187.631C168.891 187.793 169.08 187.925 169.305 188.025C169.529 188.118 169.781 188.164 170.059 188.164C170.338 188.164 170.589 188.118 170.813 188.025C171.038 187.925 171.227 187.793 171.382 187.631C171.537 187.46 171.657 187.259 171.742 187.027C171.827 186.787 171.87 186.528 171.87 186.25C171.87 185.971 171.827 185.716 171.742 185.484C171.657 185.244 171.537 185.043 171.382 184.88C171.227 184.71 171.038 184.578 170.813 184.486C170.589 184.385 170.338 184.335 170.059 184.335C169.781 184.335 169.529 184.385 169.305 184.486C169.08 184.578 168.891 184.71 168.736 184.88C168.581 185.043 168.461 185.244 168.376 185.484C168.291 185.716 168.249 185.971 168.249 186.25ZM167.135 186.25C167.135 185.847 167.208 185.472 167.355 185.124C167.51 184.776 167.719 184.47 167.982 184.207C168.245 183.944 168.554 183.739 168.91 183.592C169.266 183.437 169.649 183.36 170.059 183.36C170.469 183.36 170.852 183.437 171.208 183.592C171.564 183.739 171.873 183.944 172.136 184.207C172.4 184.47 172.605 184.776 172.752 185.124C172.906 185.472 172.984 185.847 172.984 186.25C172.984 186.652 172.906 187.031 172.752 187.387C172.605 187.735 172.4 188.041 172.136 188.304C171.873 188.559 171.564 188.764 171.208 188.919C170.852 189.066 170.469 189.139 170.059 189.139C169.649 189.139 169.266 189.066 168.91 188.919C168.554 188.764 168.245 188.559 167.982 188.304C167.719 188.041 167.51 187.735 167.355 187.387C167.208 187.031 167.135 186.652 167.135 186.25ZM174.292 183.499H175.337V184.346H175.36C175.491 184.052 175.72 183.816 176.045 183.638C176.37 183.453 176.745 183.36 177.17 183.36C177.433 183.36 177.685 183.402 177.925 183.487C178.172 183.565 178.385 183.689 178.563 183.859C178.749 184.029 178.896 184.25 179.004 184.52C179.112 184.783 179.166 185.097 179.166 185.46V189H178.122V185.751C178.122 185.495 178.087 185.279 178.017 185.101C177.948 184.915 177.855 184.768 177.739 184.66C177.623 184.544 177.487 184.462 177.333 184.416C177.186 184.362 177.031 184.335 176.869 184.335C176.652 184.335 176.451 184.369 176.265 184.439C176.079 184.509 175.917 184.621 175.778 184.776C175.638 184.923 175.53 185.112 175.453 185.344C175.375 185.576 175.337 185.851 175.337 186.168V189H174.292V183.499ZM185.615 189H184.571V188.153H184.547C184.416 188.447 184.188 188.687 183.863 188.872C183.538 189.05 183.162 189.139 182.737 189.139C182.466 189.139 182.211 189.097 181.971 189.012C181.731 188.934 181.518 188.81 181.333 188.64C181.155 188.47 181.012 188.253 180.903 187.99C180.795 187.72 180.741 187.402 180.741 187.039V183.499H181.785V186.749C181.785 187.004 181.82 187.224 181.89 187.41C181.959 187.588 182.052 187.735 182.168 187.851C182.284 187.959 182.416 188.041 182.563 188.095C182.718 188.141 182.876 188.164 183.039 188.164C183.255 188.164 183.456 188.13 183.642 188.06C183.828 187.99 183.99 187.882 184.13 187.735C184.269 187.58 184.377 187.387 184.455 187.155C184.532 186.923 184.571 186.648 184.571 186.331V183.499H185.615V189ZM187.189 183.499H188.234V184.346H188.257C188.389 184.052 188.617 183.816 188.942 183.638C189.267 183.453 189.642 183.36 190.068 183.36C190.331 183.36 190.582 183.402 190.822 183.487C191.07 183.565 191.282 183.689 191.46 183.859C191.646 184.029 191.793 184.25 191.901 184.52C192.01 184.783 192.064 185.097 192.064 185.46V189H191.019V185.751C191.019 185.495 190.984 185.279 190.915 185.101C190.845 184.915 190.752 184.768 190.636 184.66C190.52 184.544 190.385 184.462 190.23 184.416C190.083 184.362 189.928 184.335 189.766 184.335C189.549 184.335 189.348 184.369 189.162 184.439C188.977 184.509 188.814 184.621 188.675 184.776C188.536 184.923 188.427 185.112 188.35 185.344C188.273 185.576 188.234 185.851 188.234 186.168V189H187.189V183.499ZM87.0657 200.172C87.3597 199.901 87.7001 199.7 88.087 199.569C88.4738 199.429 88.8607 199.36 89.2475 199.36C89.6498 199.36 89.9941 199.41 90.2804 199.511C90.5744 199.611 90.8142 199.747 90.9999 199.917C91.1856 200.087 91.321 200.284 91.4061 200.509C91.4989 200.725 91.5454 200.954 91.5454 201.193V204.002C91.5454 204.195 91.5492 204.373 91.557 204.536C91.5647 204.698 91.5763 204.853 91.5918 205H90.6634C90.6401 204.721 90.6285 204.443 90.6285 204.164H90.6053C90.3732 204.52 90.0986 204.772 89.7814 204.919C89.4641 205.066 89.0966 205.139 88.6788 205.139C88.4235 205.139 88.1798 205.104 87.9477 205.035C87.7156 204.965 87.5106 204.861 87.3326 204.721C87.1624 204.582 87.027 204.412 86.9264 204.211C86.8259 204.002 86.7756 203.762 86.7756 203.491C86.7756 203.135 86.8529 202.838 87.0077 202.598C87.1702 202.358 87.3868 202.164 87.6576 202.017C87.9361 201.863 88.2572 201.754 88.6208 201.692C88.9922 201.623 89.3868 201.588 89.8046 201.588H90.5705V201.356C90.5705 201.217 90.5434 201.077 90.4893 200.938C90.4351 200.799 90.3539 200.675 90.2456 200.567C90.1372 200.451 90.0019 200.362 89.8394 200.3C89.6769 200.23 89.4835 200.195 89.2591 200.195C89.058 200.195 88.88 200.215 88.7253 200.253C88.5783 200.292 88.4429 200.342 88.3191 200.404C88.1953 200.458 88.0831 200.524 87.9825 200.602C87.8819 200.679 87.7852 200.752 87.6924 200.822L87.0657 200.172ZM90.0135 202.354C89.7659 202.354 89.5106 202.369 89.2475 202.4C88.9922 202.424 88.7562 202.474 88.5396 202.551C88.3307 202.629 88.1566 202.737 88.0173 202.876C87.8858 203.015 87.8201 203.193 87.8201 203.41C87.8201 203.727 87.9245 203.956 88.1334 204.095C88.35 204.234 88.6402 204.304 89.0038 204.304C89.2901 204.304 89.5338 204.257 89.7349 204.164C89.9361 204.064 90.0986 203.936 90.2224 203.781C90.3461 203.627 90.4351 203.456 90.4893 203.271C90.5434 203.077 90.5705 202.888 90.5705 202.702V202.354H90.0135ZM93.0605 199.499H94.105V200.346H94.1282C94.1978 200.199 94.2907 200.068 94.4067 199.952C94.5228 199.828 94.6504 199.723 94.7897 199.638C94.9367 199.553 95.0953 199.487 95.2655 199.441C95.4357 199.387 95.6059 199.36 95.7761 199.36C95.9464 199.36 96.1011 199.383 96.2404 199.429L96.1939 200.555C96.1088 200.532 96.0237 200.513 95.9386 200.497C95.8535 200.482 95.7684 200.474 95.6833 200.474C95.1727 200.474 94.782 200.617 94.5112 200.903C94.2404 201.19 94.105 201.634 94.105 202.238V205H93.0605V199.499ZM97.3558 196.226H98.4003V201.89L100.768 199.511H102.218L99.6537 202.006L102.439 205H100.953L98.4003 202.145V205H97.3558V196.226ZM103.397 200.172C103.691 199.901 104.031 199.7 104.418 199.569C104.805 199.429 105.192 199.36 105.579 199.36C105.981 199.36 106.325 199.41 106.612 199.511C106.906 199.611 107.146 199.747 107.331 199.917C107.517 200.087 107.652 200.284 107.737 200.509C107.83 200.725 107.877 200.954 107.877 201.193V204.002C107.877 204.195 107.881 204.373 107.888 204.536C107.896 204.698 107.908 204.853 107.923 205H106.995C106.971 204.721 106.96 204.443 106.96 204.164H106.937C106.705 204.52 106.43 204.772 106.113 204.919C105.795 205.066 105.428 205.139 105.01 205.139C104.755 205.139 104.511 205.104 104.279 205.035C104.047 204.965 103.842 204.861 103.664 204.721C103.494 204.582 103.358 204.412 103.258 204.211C103.157 204.002 103.107 203.762 103.107 203.491C103.107 203.135 103.184 202.838 103.339 202.598C103.501 202.358 103.718 202.164 103.989 202.017C104.267 201.863 104.589 201.754 104.952 201.692C105.324 201.623 105.718 201.588 106.136 201.588H106.902V201.356C106.902 201.217 106.875 201.077 106.821 200.938C106.766 200.799 106.685 200.675 106.577 200.567C106.469 200.451 106.333 200.362 106.171 200.3C106.008 200.23 105.815 200.195 105.59 200.195C105.389 200.195 105.211 200.215 105.057 200.253C104.91 200.292 104.774 200.342 104.65 200.404C104.527 200.458 104.414 200.524 104.314 200.602C104.213 200.679 104.117 200.752 104.024 200.822L103.397 200.172ZM106.345 202.354C106.097 202.354 105.842 202.369 105.579 202.4C105.324 202.424 105.088 202.474 104.871 202.551C104.662 202.629 104.488 202.737 104.349 202.876C104.217 203.015 104.151 203.193 104.151 203.41C104.151 203.727 104.256 203.956 104.465 204.095C104.681 204.234 104.971 204.304 105.335 204.304C105.621 204.304 105.865 204.257 106.066 204.164C106.267 204.064 106.43 203.936 106.554 203.781C106.677 203.627 106.766 203.456 106.821 203.271C106.875 203.077 106.902 202.888 106.902 202.702V202.354H106.345ZM115.57 200.404H114.072V202.899C114.072 203.054 114.076 203.209 114.084 203.364C114.092 203.511 114.119 203.646 114.165 203.77C114.219 203.886 114.297 203.983 114.397 204.06C114.506 204.13 114.66 204.164 114.862 204.164C114.985 204.164 115.113 204.153 115.245 204.13C115.376 204.106 115.496 204.064 115.604 204.002V204.954C115.481 205.023 115.318 205.07 115.117 205.093C114.924 205.124 114.773 205.139 114.664 205.139C114.262 205.139 113.949 205.085 113.724 204.977C113.508 204.861 113.345 204.714 113.237 204.536C113.136 204.358 113.074 204.161 113.051 203.944C113.036 203.72 113.028 203.495 113.028 203.271V200.404H111.821V199.499H113.028V197.956H114.072V199.499H115.57V200.404ZM116.94 200.172C117.234 199.901 117.575 199.7 117.962 199.569C118.348 199.429 118.735 199.36 119.122 199.36C119.524 199.36 119.869 199.41 120.155 199.511C120.449 199.611 120.689 199.747 120.875 199.917C121.06 200.087 121.196 200.284 121.281 200.509C121.374 200.725 121.42 200.954 121.42 201.193V204.002C121.42 204.195 121.424 204.373 121.432 204.536C121.439 204.698 121.451 204.853 121.466 205H120.538C120.515 204.721 120.503 204.443 120.503 204.164H120.48C120.248 204.52 119.973 204.772 119.656 204.919C119.339 205.066 118.971 205.139 118.554 205.139C118.298 205.139 118.054 205.104 117.822 205.035C117.59 204.965 117.385 204.861 117.207 204.721C117.037 204.582 116.902 204.412 116.801 204.211C116.701 204.002 116.65 203.762 116.65 203.491C116.65 203.135 116.728 202.838 116.882 202.598C117.045 202.358 117.261 202.164 117.532 202.017C117.811 201.863 118.132 201.754 118.495 201.692C118.867 201.623 119.261 201.588 119.679 201.588H120.445V201.356C120.445 201.217 120.418 201.077 120.364 200.938C120.31 200.799 120.229 200.675 120.12 200.567C120.012 200.451 119.877 200.362 119.714 200.3C119.552 200.23 119.358 200.195 119.134 200.195C118.933 200.195 118.755 200.215 118.6 200.253C118.453 200.292 118.318 200.342 118.194 200.404C118.07 200.458 117.958 200.524 117.857 200.602C117.757 200.679 117.66 200.752 117.567 200.822L116.94 200.172ZM119.888 202.354C119.641 202.354 119.385 202.369 119.122 202.4C118.867 202.424 118.631 202.474 118.414 202.551C118.205 202.629 118.031 202.737 117.892 202.876C117.76 203.015 117.695 203.193 117.695 203.41C117.695 203.727 117.799 203.956 118.008 204.095C118.225 204.234 118.515 204.304 118.878 204.304C119.165 204.304 119.408 204.257 119.61 204.164C119.811 204.064 119.973 203.936 120.097 203.781C120.221 203.627 120.31 203.456 120.364 203.271C120.418 203.077 120.445 202.888 120.445 202.702V202.354H119.888ZM122.935 199.499H123.98V200.346H124.003C124.072 200.199 124.165 200.068 124.281 199.952C124.397 199.828 124.525 199.723 124.664 199.638C124.811 199.553 124.97 199.487 125.14 199.441C125.31 199.387 125.481 199.36 125.651 199.36C125.821 199.36 125.976 199.383 126.115 199.429L126.069 200.555C125.983 200.532 125.898 200.513 125.813 200.497C125.728 200.482 125.643 200.474 125.558 200.474C125.047 200.474 124.657 200.617 124.386 200.903C124.115 201.19 123.98 201.634 123.98 202.238V205H122.935V199.499ZM127.254 200.172C127.548 199.901 127.888 199.7 128.275 199.569C128.662 199.429 129.049 199.36 129.436 199.36C129.838 199.36 130.182 199.41 130.468 199.511C130.762 199.611 131.002 199.747 131.188 199.917C131.374 200.087 131.509 200.284 131.594 200.509C131.687 200.725 131.733 200.954 131.733 201.193V204.002C131.733 204.195 131.737 204.373 131.745 204.536C131.753 204.698 131.764 204.853 131.78 205H130.851C130.828 204.721 130.817 204.443 130.817 204.164H130.793C130.561 204.52 130.287 204.772 129.969 204.919C129.652 205.066 129.285 205.139 128.867 205.139C128.612 205.139 128.368 205.104 128.136 205.035C127.904 204.965 127.699 204.861 127.521 204.721C127.35 204.582 127.215 204.412 127.114 204.211C127.014 204.002 126.964 203.762 126.964 203.491C126.964 203.135 127.041 202.838 127.196 202.598C127.358 202.358 127.575 202.164 127.846 202.017C128.124 201.863 128.445 201.754 128.809 201.692C129.18 201.623 129.575 201.588 129.993 201.588H130.759V201.356C130.759 201.217 130.731 201.077 130.677 200.938C130.623 200.799 130.542 200.675 130.434 200.567C130.325 200.451 130.19 200.362 130.027 200.3C129.865 200.23 129.671 200.195 129.447 200.195C129.246 200.195 129.068 200.215 128.913 200.253C128.766 200.292 128.631 200.342 128.507 200.404C128.383 200.458 128.271 200.524 128.171 200.602C128.07 200.679 127.973 200.752 127.88 200.822L127.254 200.172ZM130.201 202.354C129.954 202.354 129.699 202.369 129.436 202.4C129.18 202.424 128.944 202.474 128.728 202.551C128.519 202.629 128.345 202.737 128.205 202.876C128.074 203.015 128.008 203.193 128.008 203.41C128.008 203.727 128.112 203.956 128.321 204.095C128.538 204.234 128.828 204.304 129.192 204.304C129.478 204.304 129.722 204.257 129.923 204.164C130.124 204.064 130.287 203.936 130.41 203.781C130.534 203.627 130.623 203.456 130.677 203.271C130.731 203.077 130.759 202.888 130.759 202.702V202.354H130.201ZM133.655 200.404H132.471V199.499H133.655V198.269C133.655 197.534 133.794 196.988 134.072 196.633C134.359 196.269 134.846 196.087 135.535 196.087C135.651 196.087 135.771 196.091 135.895 196.099C136.026 196.106 136.165 196.13 136.312 196.168L136.196 197.097C136.096 197.058 135.999 197.031 135.906 197.016C135.813 197 135.713 196.992 135.604 196.992C135.411 196.992 135.256 197.023 135.14 197.085C135.024 197.139 134.931 197.221 134.862 197.329C134.8 197.437 134.757 197.569 134.734 197.723C134.719 197.87 134.711 198.041 134.711 198.234V199.499H135.953V200.404H134.699V205H133.655V200.404ZM137.194 199.499H138.239V205H137.194V199.499ZM139.901 199.499H140.946V200.346H140.969C141.1 200.052 141.329 199.816 141.654 199.638C141.979 199.453 142.354 199.36 142.779 199.36C143.042 199.36 143.294 199.402 143.534 199.487C143.781 199.565 143.994 199.689 144.172 199.859C144.358 200.029 144.505 200.25 144.613 200.52C144.721 200.783 144.775 201.097 144.775 201.46V205H143.731V201.751C143.731 201.495 143.696 201.279 143.626 201.101C143.557 200.915 143.464 200.768 143.348 200.66C143.232 200.544 143.096 200.462 142.942 200.416C142.795 200.362 142.64 200.335 142.478 200.335C142.261 200.335 142.06 200.369 141.874 200.439C141.688 200.509 141.526 200.621 141.387 200.776C141.247 200.923 141.139 201.112 141.062 201.344C140.984 201.576 140.946 201.851 140.946 202.168V205H139.901V199.499ZM146.373 200.172C146.667 199.901 147.007 199.7 147.394 199.569C147.781 199.429 148.168 199.36 148.555 199.36C148.957 199.36 149.301 199.41 149.588 199.511C149.882 199.611 150.122 199.747 150.307 199.917C150.493 200.087 150.628 200.284 150.713 200.509C150.806 200.725 150.853 200.954 150.853 201.193V204.002C150.853 204.195 150.857 204.373 150.864 204.536C150.872 204.698 150.884 204.853 150.899 205H149.971C149.947 204.721 149.936 204.443 149.936 204.164H149.913C149.681 204.52 149.406 204.772 149.089 204.919C148.771 205.066 148.404 205.139 147.986 205.139C147.731 205.139 147.487 205.104 147.255 205.035C147.023 204.965 146.818 204.861 146.64 204.721C146.47 204.582 146.334 204.412 146.234 204.211C146.133 204.002 146.083 203.762 146.083 203.491C146.083 203.135 146.16 202.838 146.315 202.598C146.477 202.358 146.694 202.164 146.965 202.017C147.243 201.863 147.565 201.754 147.928 201.692C148.3 201.623 148.694 201.588 149.112 201.588H149.878V201.356C149.878 201.217 149.851 201.077 149.797 200.938C149.742 200.799 149.661 200.675 149.553 200.567C149.445 200.451 149.309 200.362 149.147 200.3C148.984 200.23 148.791 200.195 148.566 200.195C148.365 200.195 148.187 200.215 148.033 200.253C147.886 200.292 147.75 200.342 147.626 200.404C147.503 200.458 147.39 200.524 147.29 200.602C147.189 200.679 147.093 200.752 147 200.822L146.373 200.172ZM149.321 202.354C149.073 202.354 148.818 202.369 148.555 202.4C148.3 202.424 148.064 202.474 147.847 202.551C147.638 202.629 147.464 202.737 147.325 202.876C147.193 203.015 147.127 203.193 147.127 203.41C147.127 203.727 147.232 203.956 147.441 204.095C147.657 204.234 147.947 204.304 148.311 204.304C148.597 204.304 148.841 204.257 149.042 204.164C149.243 204.064 149.406 203.936 149.53 203.781C149.653 203.627 149.742 203.456 149.797 203.271C149.851 203.077 149.878 202.888 149.878 202.702V202.354H149.321ZM156.445 202.25C156.445 202.528 156.488 202.787 156.573 203.027C156.658 203.259 156.778 203.46 156.932 203.631C157.087 203.793 157.277 203.925 157.501 204.025C157.725 204.118 157.977 204.164 158.255 204.164C158.534 204.164 158.785 204.118 159.01 204.025C159.234 203.925 159.424 203.793 159.578 203.631C159.733 203.46 159.853 203.259 159.938 203.027C160.023 202.787 160.066 202.528 160.066 202.25C160.066 201.971 160.023 201.716 159.938 201.484C159.853 201.244 159.733 201.043 159.578 200.88C159.424 200.71 159.234 200.578 159.01 200.486C158.785 200.385 158.534 200.335 158.255 200.335C157.977 200.335 157.725 200.385 157.501 200.486C157.277 200.578 157.087 200.71 156.932 200.88C156.778 201.043 156.658 201.244 156.573 201.484C156.488 201.716 156.445 201.971 156.445 202.25ZM155.331 202.25C155.331 201.847 155.404 201.472 155.551 201.124C155.706 200.776 155.915 200.47 156.178 200.207C156.441 199.944 156.751 199.739 157.107 199.592C157.462 199.437 157.845 199.36 158.255 199.36C158.666 199.36 159.048 199.437 159.404 199.592C159.76 199.739 160.07 199.944 160.333 200.207C160.596 200.47 160.801 200.776 160.948 201.124C161.103 201.472 161.18 201.847 161.18 202.25C161.18 202.652 161.103 203.031 160.948 203.387C160.801 203.735 160.596 204.041 160.333 204.304C160.07 204.559 159.76 204.764 159.404 204.919C159.048 205.066 158.666 205.139 158.255 205.139C157.845 205.139 157.462 205.066 157.107 204.919C156.751 204.764 156.441 204.559 156.178 204.304C155.915 204.041 155.706 203.735 155.551 203.387C155.404 203.031 155.331 202.652 155.331 202.25ZM162.488 196.226H163.533V201.89L165.9 199.511H167.351L164.786 202.006L167.572 205H166.086L163.533 202.145V205H162.488V196.226ZM173.381 205H172.336V204.153H172.313C172.182 204.447 171.953 204.687 171.628 204.872C171.303 205.05 170.928 205.139 170.503 205.139C170.232 205.139 169.977 205.097 169.737 205.012C169.497 204.934 169.284 204.81 169.098 204.64C168.92 204.47 168.777 204.253 168.669 203.99C168.561 203.72 168.506 203.402 168.506 203.039V199.499H169.551V202.749C169.551 203.004 169.586 203.224 169.655 203.41C169.725 203.588 169.818 203.735 169.934 203.851C170.05 203.959 170.182 204.041 170.329 204.095C170.483 204.141 170.642 204.164 170.804 204.164C171.021 204.164 171.222 204.13 171.408 204.06C171.594 203.99 171.756 203.882 171.895 203.735C172.035 203.58 172.143 203.387 172.22 203.155C172.298 202.923 172.336 202.648 172.336 202.331V199.499H173.381V205ZM177.903 200.404H176.406V202.899C176.406 203.054 176.41 203.209 176.417 203.364C176.425 203.511 176.452 203.646 176.499 203.77C176.553 203.886 176.63 203.983 176.731 204.06C176.839 204.13 176.994 204.164 177.195 204.164C177.319 204.164 177.446 204.153 177.578 204.13C177.709 204.106 177.829 204.064 177.938 204.002V204.954C177.814 205.023 177.651 205.07 177.45 205.093C177.257 205.124 177.106 205.139 176.998 205.139C176.595 205.139 176.282 205.085 176.058 204.977C175.841 204.861 175.679 204.714 175.57 204.536C175.47 204.358 175.408 204.161 175.385 203.944C175.369 203.72 175.361 203.495 175.361 203.271V200.404H174.154V199.499H175.361V197.956H176.406V199.499H177.903V200.404Z" fill="black"/>
<g opacity="0.13">
<path d="M132.5 102.258C150.859 102.258 165.742 117.141 165.742 135.5C165.742 153.859 150.859 168.742 132.5 168.742C114.141 168.742 99.2578 153.859 99.2578 135.5C99.2578 117.141 114.141 102.258 132.5 102.258Z" fill="#87969F"/>
</g>
<g opacity="0.25">
<path d="M132.501 110.407C146.359 110.407 157.593 121.642 157.593 135.5C157.593 149.358 146.359 160.592 132.501 160.592C118.642 160.592 107.408 149.358 107.408 135.5C107.408 121.642 118.642 110.407 132.501 110.407Z" fill="#87969F"/>
</g>
<path d="M124.583 126.711L124.597 137.749C124.598 138.975 123.604 139.971 122.379 139.972L103.372 139.995C102.147 139.997 101.151 139.003 101.149 137.778L101.136 126.74C101.134 125.515 102.128 124.518 103.353 124.517L122.36 124.494C123.585 124.492 124.582 125.486 124.583 126.711Z" fill="#2A3246"/>
<path d="M108.287 131.412V132.8C108.287 133.259 107.913 133.632 107.454 133.632H104.956C104.496 133.632 104.123 133.259 104.123 132.8V131.412C104.123 130.952 104.496 130.579 104.956 130.579H107.454C107.913 130.579 108.287 130.952 108.287 131.412Z" fill="#E6EDF1"/>
<path d="M143.746 118.553L143.784 152.436C143.786 154.275 142.297 155.768 140.457 155.77L124.483 155.788C122.643 155.791 121.15 154.301 121.148 152.461L121.11 118.578C121.108 116.739 122.597 115.246 124.437 115.244L140.411 115.225C142.251 115.223 143.744 116.713 143.746 118.553Z" fill="white" fill-opacity="0.90196"/>
<path d="M143.746 118.553L143.784 152.436C143.786 154.275 142.297 155.768 140.457 155.77L124.483 155.788C122.643 155.791 121.15 154.301 121.148 152.461L121.11 118.578C121.108 116.739 122.597 115.246 124.437 115.244L140.411 115.225C142.251 115.223 143.744 116.713 143.746 118.553Z" stroke="#2A3246" stroke-width="2.39584"/>
<path d="M137.622 115.556C137.622 116.061 137.242 116.471 136.772 116.471H128.126C127.656 116.471 127.275 116.061 127.275 115.556" fill="#2A3246"/>
<path d="M137.622 115.556C137.622 116.061 137.242 116.471 136.772 116.471H128.126C127.656 116.471 127.275 116.061 127.275 115.556" stroke="#2A3246" stroke-width="2.39584" stroke-linecap="round" stroke-linejoin="round"/>
</g>
<defs>
<linearGradient id="paint0_linear_167_17049" x1="132.5" y1="0" x2="132.5" y2="107" gradientUnits="userSpaceOnUse">
<stop stop-color="#220C45"/>
<stop offset="1" stop-color="#440E85"/>
</linearGradient>
<clipPath id="clip0_167_17049">
<rect width="264.959" height="568.773" rx="39.6818" fill="white"/>
</clipPath>
<clipPath id="clip1_167_17049">
<rect width="265" height="107" fill="white" transform="translate(0.0117188 -26.5742)"/>
</clipPath>
</defs>
</svg>
