<svg viewBox="0 0 266 260" fill="none" xmlns="http://www.w3.org/2000/svg">
<g clip-path="url(#clip0_167_6291)">
<rect x="0.986328" y="0.574219" width="264.959" height="568.773" rx="39.6818" fill="white"/>
<g clip-path="url(#clip1_167_6291)">
<rect width="264.959" height="194.333" transform="translate(0.986328 0.574219)" fill="url(#paint0_linear_167_6291)"/>
<path d="M53.0858 101.808H50.6216V106.083H48.8649V95.2004H53.0858C54.3243 95.2004 55.2753 95.4932 55.9386 96.0787C56.6071 96.6643 56.9414 97.4728 56.9414 98.504C56.9414 99.5353 56.6071 100.344 55.9386 100.929C55.2753 101.515 54.3243 101.808 53.0858 101.808ZM53.0392 96.8561H50.6216V100.152H53.0392C53.7491 100.152 54.2725 100.017 54.6094 99.7478C54.9462 99.4783 55.1146 99.0637 55.1146 98.504C55.1146 97.9443 54.9462 97.5298 54.6094 97.2603C54.2725 96.9908 53.7491 96.8561 53.0392 96.8561ZM65.8801 98.6362V106.083H64.2554V105.189C63.6906 105.915 62.9107 106.277 61.9157 106.277C60.8637 106.277 59.9801 105.907 59.265 105.166C58.5498 104.425 58.1923 103.489 58.1923 102.36C58.1923 101.23 58.5498 100.294 59.265 99.5534C59.9801 98.8124 60.8637 98.4418 61.9157 98.4418C62.9107 98.4418 63.6906 98.8072 64.2554 99.5379V98.6362H65.8801ZM62.11 99.9732C61.4311 99.9732 60.887 100.204 60.4776 100.665C60.0682 101.121 59.8635 101.686 59.8635 102.36C59.8635 103.033 60.0682 103.601 60.4776 104.062C60.887 104.518 61.4311 104.746 62.11 104.746C62.7733 104.746 63.3123 104.521 63.7269 104.07C64.1466 103.619 64.3565 103.049 64.3565 102.36C64.3565 101.67 64.1466 101.1 63.7269 100.649C63.3123 100.199 62.7733 99.9732 62.11 99.9732ZM72.2001 98.4418C72.6821 98.4418 73.0993 98.5118 73.4516 98.6517L73.063 100.261C72.7158 100.079 72.3038 99.9887 71.827 99.9887C71.2984 99.9887 70.8709 100.168 70.5444 100.525C70.2179 100.877 70.0547 101.365 70.0547 101.986V106.083H68.4301V98.6362H70.0392V99.4757C70.5159 98.7865 71.2362 98.4418 72.2001 98.4418ZM81.9581 98.6362V106.083H80.3335V105.189C79.7686 105.915 78.9887 106.277 77.9937 106.277C76.9417 106.277 76.0581 105.907 75.343 105.166C74.6278 104.425 74.2703 103.489 74.2703 102.36C74.2703 101.23 74.6278 100.294 75.343 99.5534C76.0581 98.8124 76.9417 98.4418 77.9937 98.4418C78.9887 98.4418 79.7686 98.8072 80.3335 99.5379V98.6362H81.9581ZM78.188 99.9732C77.5092 99.9732 76.965 100.204 76.5556 100.665C76.1462 101.121 75.9415 101.686 75.9415 102.36C75.9415 103.033 76.1462 103.601 76.5556 104.062C76.965 104.518 77.5092 104.746 78.188 104.746C78.8513 104.746 79.3903 104.521 79.8049 104.07C80.2246 103.619 80.4345 103.049 80.4345 102.36C80.4345 101.67 80.2246 101.1 79.8049 100.649C79.3903 100.199 78.8513 99.9732 78.188 99.9732ZM96.2906 95.2004V96.8639H92.7693V106.083H91.0125V96.8639H87.4912V95.2004H96.2906ZM100.773 98.4418C101.255 98.4418 101.672 98.5118 102.025 98.6517L101.636 100.261C101.289 100.079 100.877 99.9887 100.4 99.9887C99.8715 99.9887 99.4439 100.168 99.1174 100.525C98.791 100.877 98.6277 101.365 98.6277 101.986V106.083H97.0031V98.6362H98.6122V99.4757C99.0889 98.7865 99.8093 98.4418 100.773 98.4418ZM110.531 98.6362V106.083H108.906V105.189C108.342 105.915 107.562 106.277 106.567 106.277C105.515 106.277 104.631 105.907 103.916 105.166C103.201 104.425 102.843 103.489 102.843 102.36C102.843 101.23 103.201 100.294 103.916 99.5534C104.631 98.8124 105.515 98.4418 106.567 98.4418C107.562 98.4418 108.342 98.8072 108.906 99.5379V98.6362H110.531ZM106.761 99.9732C106.082 99.9732 105.538 100.204 105.129 100.665C104.719 101.121 104.515 101.686 104.515 102.36C104.515 103.033 104.719 103.601 105.129 104.062C105.538 104.518 106.082 104.746 106.761 104.746C107.424 104.746 107.963 104.521 108.378 104.07C108.798 103.619 109.008 103.049 109.008 102.36C109.008 101.67 108.798 101.1 108.378 100.649C107.963 100.199 107.424 99.9732 106.761 99.9732ZM116.983 98.4418C117.869 98.4418 118.595 98.7191 119.16 99.2736C119.725 99.8229 120.007 100.533 120.007 101.403V106.083H118.375V101.94C118.375 101.318 118.222 100.839 117.916 100.502C117.616 100.16 117.191 99.9887 116.641 99.9887C116.092 99.9887 115.633 100.165 115.265 100.517C114.897 100.865 114.714 101.344 114.714 101.955V106.083H113.081V98.6362H114.698V99.5456C115.201 98.8098 115.962 98.4418 116.983 98.4418ZM128.247 99.2347L127.547 100.502C127.283 100.336 126.938 100.188 126.513 100.059C126.094 99.9291 125.671 99.8644 125.246 99.8644C124.811 99.8644 124.466 99.9447 124.212 100.105C123.964 100.266 123.839 100.481 123.839 100.751C123.839 100.875 123.868 100.984 123.925 101.077C123.987 101.165 124.078 101.238 124.197 101.295C124.321 101.352 124.448 101.396 124.578 101.427C124.712 101.458 124.876 101.489 125.067 101.52L125.837 101.637C127.563 101.885 128.426 102.619 128.426 103.837C128.426 104.567 128.125 105.155 127.524 105.601C126.923 106.047 126.094 106.27 125.036 106.27C123.767 106.27 122.702 105.951 121.842 105.313L122.596 104.093C123.259 104.601 124.078 104.855 125.052 104.855C125.601 104.855 126.021 104.774 126.311 104.614C126.601 104.453 126.746 104.23 126.746 103.945C126.746 103.515 126.316 103.241 125.456 103.121L124.679 103.02C123.855 102.906 123.228 102.665 122.798 102.297C122.368 101.924 122.152 101.437 122.152 100.836C122.152 100.1 122.427 99.5197 122.976 99.0948C123.531 98.6647 124.282 98.4496 125.231 98.4496C126.433 98.4496 127.438 98.7113 128.247 99.2347ZM135.124 98.6362V100.113H132.574V106.083H130.942V100.113H129.449V98.6362H130.942V97.3769C130.942 96.584 131.149 95.9388 131.564 95.4413C131.984 94.9438 132.608 94.6951 133.437 94.6951C134.189 94.6951 134.88 94.8817 135.513 95.2548L134.937 96.6229C134.476 96.3586 134.012 96.2264 133.546 96.2264C133.23 96.2264 132.989 96.3275 132.823 96.5296C132.657 96.7265 132.574 97.009 132.574 97.3769V98.6362H135.124ZM139.846 98.4418C140.887 98.4418 141.732 98.8046 142.38 99.5301C143.033 100.25 143.362 101.191 143.367 102.352C143.367 102.507 143.357 102.709 143.336 102.958H137.833C137.936 103.596 138.19 104.072 138.594 104.388C138.999 104.699 139.483 104.855 140.048 104.855C140.825 104.855 141.543 104.593 142.201 104.07L143.01 105.228C142.191 105.928 141.17 106.277 139.947 106.277C138.822 106.277 137.905 105.917 137.195 105.197C136.49 104.477 136.138 103.531 136.138 102.36C136.138 101.194 136.48 100.25 137.164 99.5301C137.853 98.8046 138.747 98.4418 139.846 98.4418ZM139.815 99.8877C139.255 99.8877 138.807 100.054 138.47 100.385C138.138 100.712 137.928 101.157 137.84 101.722H141.704C141.616 101.142 141.406 100.691 141.074 100.37C140.748 100.048 140.328 99.8877 139.815 99.8877ZM149.144 98.4418C149.626 98.4418 150.043 98.5118 150.395 98.6517L150.007 100.261C149.659 100.079 149.247 99.9887 148.771 99.9887C148.242 99.9887 147.815 100.168 147.488 100.525C147.162 100.877 146.998 101.365 146.998 101.986V106.083H145.374V98.6362H146.983V99.4757C147.46 98.7865 148.18 98.4418 149.144 98.4418ZM153.686 98.6362V106.083H152.054V98.6362H153.686ZM152.054 95.247C152.272 95.0242 152.541 94.9127 152.862 94.9127C153.184 94.9127 153.456 95.0242 153.679 95.247C153.901 95.4698 154.013 95.7419 154.013 96.0632C154.013 96.3845 153.901 96.654 153.679 96.8716C153.456 97.0893 153.184 97.1981 152.862 97.1981C152.541 97.1981 152.272 97.0893 152.054 96.8716C151.836 96.654 151.728 96.3845 151.728 96.0632C151.728 95.7419 151.836 95.4698 152.054 95.247ZM160.131 98.4418C161.017 98.4418 161.743 98.7191 162.308 99.2736C162.873 99.8229 163.155 100.533 163.155 101.403V106.083H161.523V101.94C161.523 101.318 161.37 100.839 161.064 100.502C160.764 100.16 160.339 99.9887 159.789 99.9887C159.24 99.9887 158.781 100.165 158.413 100.517C158.045 100.865 157.862 101.344 157.862 101.955V106.083H156.229V98.6362H157.846V99.5456C158.349 98.8098 159.11 98.4418 160.131 98.4418ZM168.798 98.4418C169.84 98.4418 170.685 98.8046 171.333 99.5301C171.986 100.25 172.315 101.191 172.32 102.352C172.32 102.507 172.309 102.709 172.289 102.958H166.785C166.889 103.596 167.143 104.072 167.547 104.388C167.951 104.699 168.436 104.855 169.001 104.855C169.778 104.855 170.496 104.593 171.154 104.07L171.962 105.228C171.143 105.928 170.123 106.277 168.9 106.277C167.775 106.277 166.858 105.917 166.148 105.197C165.443 104.477 165.091 103.531 165.091 102.36C165.091 101.194 165.433 100.25 166.117 99.5301C166.806 98.8046 167.7 98.4418 168.798 98.4418ZM168.767 99.8877C168.208 99.8877 167.759 100.054 167.423 100.385C167.091 100.712 166.881 101.157 166.793 101.722H170.656C170.568 101.142 170.358 100.691 170.027 100.37C169.7 100.048 169.28 99.8877 168.767 99.8877ZM178.719 95.2004H182.94C183.541 95.2004 184.08 95.2548 184.557 95.3636C185.038 95.4724 185.466 95.6408 185.839 95.8689C186.217 96.0969 186.508 96.4052 186.71 96.7939C186.912 97.1826 187.013 97.6386 187.013 98.162C187.013 98.7165 186.855 99.2088 186.539 99.6389C186.223 100.064 185.821 100.344 185.334 100.478C185.878 100.639 186.334 100.945 186.702 101.396C187.075 101.847 187.262 102.373 187.262 102.974C187.262 104.026 186.904 104.808 186.189 105.321C185.474 105.829 184.474 106.083 183.188 106.083H178.719V95.2004ZM183.111 101.419H180.476V104.435H183.111C183.484 104.435 183.8 104.414 184.059 104.373C184.323 104.331 184.562 104.256 184.774 104.147C184.992 104.039 185.152 103.883 185.256 103.681C185.365 103.474 185.419 103.217 185.419 102.911C185.419 102.611 185.365 102.362 185.256 102.165C185.152 101.963 184.992 101.81 184.774 101.707C184.562 101.598 184.323 101.523 184.059 101.481C183.8 101.44 183.484 101.419 183.111 101.419ZM182.87 96.8483H180.476V99.7788H182.885C183.155 99.7788 183.391 99.7711 183.593 99.7555C183.8 99.7348 184.007 99.6933 184.215 99.6312C184.422 99.569 184.59 99.4861 184.72 99.3824C184.855 99.2736 184.963 99.1285 185.046 98.9471C185.129 98.7657 185.171 98.5481 185.171 98.2941C185.171 97.9936 185.111 97.7448 184.992 97.5479C184.873 97.3458 184.696 97.1981 184.463 97.1048C184.235 97.0064 183.997 96.939 183.748 96.9027C183.505 96.8664 183.212 96.8483 182.87 96.8483ZM196.569 98.6362V106.083H194.944V105.189C194.379 105.915 193.6 106.277 192.605 106.277C191.553 106.277 190.669 105.907 189.954 105.166C189.239 104.425 188.881 103.489 188.881 102.36C188.881 101.23 189.239 100.294 189.954 99.5534C190.669 98.8124 191.553 98.4418 192.605 98.4418C193.6 98.4418 194.379 98.8072 194.944 99.5379V98.6362H196.569ZM192.799 99.9732C192.12 99.9732 191.576 100.204 191.167 100.665C190.757 101.121 190.552 101.686 190.552 102.36C190.552 103.033 190.757 103.601 191.167 104.062C191.576 104.518 192.12 104.746 192.799 104.746C193.462 104.746 194.001 104.521 194.416 104.07C194.836 103.619 195.045 103.049 195.045 102.36C195.045 101.67 194.836 101.1 194.416 100.649C194.001 100.199 193.462 99.9732 192.799 99.9732ZM204.887 99.2347L204.187 100.502C203.923 100.336 203.578 100.188 203.153 100.059C202.734 99.9291 202.311 99.8644 201.886 99.8644C201.451 99.8644 201.106 99.9447 200.852 100.105C200.604 100.266 200.479 100.481 200.479 100.751C200.479 100.875 200.508 100.984 200.565 101.077C200.627 101.165 200.718 101.238 200.837 101.295C200.961 101.352 201.088 101.396 201.218 101.427C201.353 101.458 201.516 101.489 201.708 101.52L202.477 101.637C204.203 101.885 205.066 102.619 205.066 103.837C205.066 104.427 204.861 104.93 204.451 105.345C204.047 105.759 203.48 106.034 202.749 106.169L201.995 108.578H200.293L201.078 106.238C200.041 106.145 199.176 105.837 198.482 105.313L199.236 104.093C199.899 104.601 200.718 104.855 201.692 104.855C202.241 104.855 202.661 104.774 202.951 104.614C203.241 104.453 203.387 104.23 203.387 103.945C203.387 103.515 202.956 103.241 202.096 103.121L201.319 103.02C200.495 102.906 199.868 102.665 199.438 102.297C199.008 101.924 198.793 101.437 198.793 100.836C198.793 100.1 199.067 99.5197 199.616 99.0948C200.171 98.6647 200.922 98.4496 201.871 98.4496C203.073 98.4496 204.078 98.7113 204.887 99.2347ZM208.616 94.8894V106.083H206.983V94.8894H208.616ZM218.31 98.6362V106.083H216.685V105.189C216.12 105.915 215.341 106.277 214.346 106.277C213.294 106.277 212.41 105.907 211.695 105.166C210.98 104.425 210.622 103.489 210.622 102.36C210.622 101.23 210.98 100.294 211.695 99.5534C212.41 98.8124 213.294 98.4418 214.346 98.4418C215.341 98.4418 216.12 98.8072 216.685 99.5379V98.6362H218.31ZM214.54 99.9732C213.861 99.9732 213.317 100.204 212.908 100.665C212.498 101.121 212.293 101.686 212.293 102.36C212.293 103.033 212.498 103.601 212.908 104.062C213.317 104.518 213.861 104.746 214.54 104.746C215.203 104.746 215.742 104.521 216.157 104.07C216.577 103.619 216.786 103.049 216.786 102.36C216.786 101.67 216.577 101.1 216.157 100.649C215.742 100.199 215.203 99.9732 214.54 99.9732Z" fill="white"/>
<path fill-rule="evenodd" clip-rule="evenodd" d="M25.1184 43.2795C25.417 43.5597 25.417 44.014 25.1184 44.2942L22.006 47.2151L25.1184 50.136C25.417 50.4162 25.417 50.8705 25.1184 51.1507C24.8199 51.4309 24.3358 51.4309 24.0372 51.1507L20.3841 47.7225C20.2407 47.5879 20.1602 47.4054 20.1602 47.2151C20.1602 47.0248 20.2407 46.8423 20.3841 46.7078L24.0372 43.2795C24.3358 42.9993 24.8199 42.9993 25.1184 43.2795Z" fill="#C2BBCF"/>
<path d="M103.77 48.4021C105.489 48.4021 106.463 47.5423 106.463 46.1167C106.463 44.6911 105.489 43.8314 103.77 43.8314H100.875V51.4492H101.833V48.4021H103.77ZM103.748 44.7346C104.875 44.7346 105.468 45.1917 105.468 46.1167C105.468 47.0417 104.875 47.4988 103.748 47.4988H101.833V44.7346H103.748ZM112.688 46.28H111.796V46.9765C111.387 46.4867 110.783 46.1711 109.973 46.1711C108.52 46.1711 107.388 47.3029 107.388 48.8646C107.388 50.4262 108.52 51.558 109.973 51.558C110.783 51.558 111.387 51.2424 111.796 50.7582V51.4492H112.688V46.28ZM110.076 47.0091C111.121 47.0091 111.85 47.809 111.85 48.8646C111.85 49.9256 111.121 50.7255 110.076 50.7255C109.015 50.7255 108.297 49.893 108.297 48.8646C108.297 47.8362 108.999 47.0091 110.076 47.0091ZM116.96 46.1711C116.345 46.1711 115.806 46.4541 115.447 46.9601V46.28H114.571V51.4492H115.458V48.5708C115.458 47.6185 116.013 47.0145 116.802 47.0145C117.096 47.0145 117.444 47.0853 117.689 47.2159L117.906 46.3398C117.629 46.2201 117.33 46.1711 116.96 46.1711ZM123.826 46.28H122.933V46.9765C122.525 46.4867 121.921 46.1711 121.11 46.1711C119.658 46.1711 118.526 47.3029 118.526 48.8646C118.526 50.4262 119.658 51.558 121.11 51.558C121.921 51.558 122.525 51.2424 122.933 50.7582V51.4492H123.826V46.28ZM121.214 47.0091C122.258 47.0091 122.988 47.809 122.988 48.8646C122.988 49.9256 122.258 50.7255 121.214 50.7255C120.153 50.7255 119.434 49.893 119.434 48.8646C119.434 47.8362 120.136 47.0091 121.214 47.0091ZM132.277 43.7171C130.013 43.7171 128.332 45.3495 128.332 47.6403C128.332 50.127 130.237 51.558 132.234 51.558C134.541 51.558 135.945 49.8114 135.945 47.5968C135.945 47.5206 135.939 47.439 135.934 47.3573H132.609V48.2497H134.894C134.747 49.7406 133.79 50.6439 132.234 50.6439C130.601 50.6439 129.333 49.4305 129.333 47.6403C129.333 45.8501 130.601 44.6367 132.277 44.6367C133.197 44.6367 133.997 45.0285 134.524 45.6597L135.226 44.9795C134.535 44.1905 133.485 43.7171 132.277 43.7171ZM139.887 46.1711C138.32 46.1711 137.156 47.3301 137.156 48.8646C137.156 50.399 138.32 51.558 139.887 51.558C141.455 51.558 142.624 50.399 142.624 48.8646C142.624 47.3301 141.455 46.1711 139.887 46.1711ZM139.887 47.0091C140.921 47.0091 141.71 47.7818 141.71 48.8646C141.71 49.9474 140.921 50.7255 139.887 50.7255C138.848 50.7255 138.065 49.9474 138.065 48.8646C138.065 47.7818 138.848 47.0091 139.887 47.0091ZM138.783 44.0708C138.429 44.0708 138.157 44.3483 138.157 44.702C138.157 45.0611 138.429 45.3277 138.783 45.3277C139.137 45.3277 139.414 45.0611 139.414 44.702C139.414 44.3483 139.137 44.0708 138.783 44.0708ZM140.987 44.0708C140.627 44.0708 140.361 44.3483 140.361 44.702C140.361 45.0611 140.627 45.3277 140.987 45.3277C141.34 45.3277 141.618 45.0611 141.618 44.702C141.618 44.3483 141.34 44.0708 140.987 44.0708ZM146.689 46.1711C146.091 46.1711 145.421 46.3725 144.997 46.9547V46.28H144.116V51.4492H145.002V48.549C145.002 47.5859 145.699 47.0145 146.531 47.0145C147.429 47.0145 147.952 47.575 147.952 48.5272V51.4492H148.844V48.2388C148.844 46.9982 147.963 46.1711 146.689 46.1711ZM152.866 46.1711C151.413 46.1711 150.281 47.3029 150.281 48.8646C150.281 50.4262 151.413 51.558 152.866 51.558C153.676 51.558 154.28 51.2424 154.688 50.7582V51.4492H155.581V43.6137H154.688V46.9765C154.28 46.4867 153.676 46.1711 152.866 46.1711ZM152.969 47.0091C154.014 47.0091 154.743 47.809 154.743 48.8646C154.743 49.9256 154.014 50.7255 152.969 50.7255C151.908 50.7255 151.19 49.893 151.19 48.8646C151.19 47.8362 151.892 47.0091 152.969 47.0091ZM159.64 46.1711C158.155 46.1711 157.072 47.2757 157.072 48.8646C157.072 50.4752 158.16 51.558 159.695 51.558C160.456 51.558 161.175 51.373 161.817 50.7745L161.343 50.1651C160.903 50.546 160.353 50.7799 159.749 50.7799C158.862 50.7799 158.117 50.2521 157.992 49.1802H162.056C162.062 49.0822 162.073 48.9625 162.073 48.8483C162.062 47.2648 161.05 46.1711 159.64 46.1711ZM159.624 46.9601C160.462 46.9601 161.055 47.5478 161.164 48.4619H158.002C158.138 47.5804 158.71 46.9601 159.624 46.9601ZM165.953 46.1711C165.338 46.1711 164.799 46.4541 164.44 46.9601V46.28H163.564V51.4492H164.451V48.5708C164.451 47.6185 165.006 47.0145 165.795 47.0145C166.089 47.0145 166.437 47.0853 166.682 47.2159L166.9 46.3398C166.622 46.2201 166.323 46.1711 165.953 46.1711Z" fill="#C2BBCF"/>
</g>
<g filter="url(#filter0_d_167_6291)">
<rect x="9.25391" y="129.54" width="248.746" height="126.713" rx="7.77332" fill="white" shape-rendering="crispEdges"/>
<rect x="24.8008" y="149.362" width="24.8746" height="24.8746" rx="4.66399" fill="#F4F2F9"/>
<path d="M37.8644 155.949C37.8644 155.603 37.5838 155.322 37.2376 155.322C36.8913 155.322 36.6107 155.603 36.6107 155.949V161.173H31.3866C31.0404 161.173 30.7598 161.454 30.7598 161.8C30.7598 162.146 31.0404 162.427 31.3866 162.427H36.6107V167.651C36.6107 167.997 36.8913 168.278 37.2376 168.278C37.5838 168.278 37.8644 167.997 37.8644 167.651V162.427H43.0884C43.4346 162.427 43.7153 162.146 43.7153 161.8C43.7153 161.454 43.4346 161.173 43.0884 161.173H37.8644V155.949Z" fill="#4D008C"/>
<path d="M66.181 158.578L63.2427 163.106V166.196H62.013V163.084L59.0529 158.578H60.522L62.6333 161.99L64.7499 158.578H66.181ZM68.4716 160.847C69.2008 160.847 69.7921 161.101 70.2455 161.609C70.7026 162.113 70.9329 162.772 70.9366 163.584C70.9366 163.693 70.9293 163.835 70.9148 164.009H67.0623C67.1349 164.455 67.3126 164.789 67.5956 165.01C67.8785 165.228 68.2177 165.337 68.6131 165.337C69.1572 165.337 69.6597 165.153 70.1204 164.787L70.6863 165.598C70.1131 166.087 69.3985 166.332 68.5424 166.332C67.7552 166.332 67.1131 166.08 66.6161 165.576C66.1228 165.072 65.8761 164.41 65.8761 163.59C65.8761 162.774 66.1155 162.113 66.5944 161.609C67.0768 161.101 67.7026 160.847 68.4716 160.847ZM68.4499 161.86C68.0581 161.86 67.7443 161.976 67.5085 162.208C67.2764 162.436 67.1294 162.748 67.0678 163.144H69.7721C69.7104 162.737 69.5635 162.422 69.3314 162.197C69.1028 161.972 68.809 161.86 68.4499 161.86ZM75.0727 160.847C75.693 160.847 76.2009 161.042 76.5963 161.43C76.9917 161.814 77.1894 162.311 77.1894 162.921V166.196H76.0467V163.296C76.0467 162.861 75.9397 162.525 75.7257 162.289C75.5153 162.05 75.2178 161.93 74.8333 161.93C74.4488 161.93 74.1278 162.054 73.8702 162.3C73.6126 162.543 73.4839 162.879 73.4839 163.307V166.196H72.3412V160.984H73.473V161.62C73.8249 161.105 74.3581 160.847 75.0727 160.847ZM80.0623 160.984V166.196H78.9197V160.984H80.0623ZM78.9197 158.611C79.072 158.455 79.2606 158.377 79.4856 158.377C79.7105 158.377 79.9009 158.455 80.0569 158.611C80.2129 158.767 80.2909 158.958 80.2909 159.182C80.2909 159.407 80.2129 159.596 80.0569 159.748C79.9009 159.901 79.7105 159.977 79.4856 159.977C79.2606 159.977 79.072 159.901 78.9197 159.748C78.7673 159.596 78.6911 159.407 78.6911 159.182C78.6911 158.958 78.7673 158.767 78.9197 158.611ZM90.09 158.578V159.743H87.6251V166.196H86.3954V159.743H83.9304V158.578H90.09ZM93.2278 160.847C93.5652 160.847 93.8572 160.896 94.1038 160.994L93.8318 162.121C93.5887 161.994 93.3003 161.93 92.9666 161.93C92.5966 161.93 92.2973 162.055 92.0688 162.306C91.8403 162.552 91.726 162.893 91.726 163.329V166.196H90.5887V160.984H91.7151V161.571C92.0488 161.089 92.5531 160.847 93.2278 160.847ZM100.058 160.984V166.196H98.9211V165.571C98.5257 166.078 97.9798 166.332 97.2833 166.332C96.5469 166.332 95.9284 166.073 95.4278 165.554C94.9272 165.035 94.6769 164.381 94.6769 163.59C94.6769 162.799 94.9272 162.144 95.4278 161.626C95.9284 161.107 96.5469 160.847 97.2833 160.847C97.9798 160.847 98.5257 161.103 98.9211 161.615V160.984H100.058ZM97.4193 161.919C96.9441 161.919 96.5632 162.081 96.2766 162.404C95.9901 162.723 95.8468 163.118 95.8468 163.59C95.8468 164.061 95.9901 164.459 96.2766 164.782C96.5632 165.101 96.9441 165.26 97.4193 165.26C97.8836 165.26 98.2609 165.103 98.5511 164.787C98.8449 164.471 98.9919 164.072 98.9919 163.59C98.9919 163.107 98.8449 162.708 98.5511 162.393C98.2609 162.077 97.8836 161.919 97.4193 161.919ZM104.575 160.847C105.195 160.847 105.703 161.042 106.098 161.43C106.494 161.814 106.692 162.311 106.692 162.921V166.196H105.549V163.296C105.549 162.861 105.442 162.525 105.228 162.289C105.017 162.05 104.72 161.93 104.335 161.93C103.951 161.93 103.63 162.054 103.372 162.3C103.115 162.543 102.986 162.879 102.986 163.307V166.196H101.843V160.984H102.975V161.62C103.327 161.105 103.86 160.847 104.575 160.847ZM112.459 161.402L111.97 162.289C111.785 162.173 111.543 162.07 111.246 161.979C110.952 161.889 110.656 161.843 110.359 161.843C110.054 161.843 109.813 161.899 109.635 162.012C109.461 162.124 109.374 162.275 109.374 162.464C109.374 162.551 109.394 162.627 109.434 162.692C109.477 162.754 109.541 162.805 109.624 162.844C109.711 162.884 109.8 162.915 109.891 162.937C109.985 162.959 110.1 162.98 110.234 163.002L110.772 163.084C111.98 163.258 112.584 163.771 112.584 164.624C112.584 165.135 112.374 165.547 111.953 165.859C111.532 166.171 110.952 166.327 110.212 166.327C109.323 166.327 108.578 166.104 107.976 165.658L108.503 164.803C108.968 165.159 109.541 165.337 110.223 165.337C110.607 165.337 110.901 165.28 111.104 165.168C111.308 165.055 111.409 164.899 111.409 164.7C111.409 164.399 111.108 164.207 110.506 164.123L109.962 164.052C109.385 163.973 108.946 163.804 108.645 163.546C108.344 163.285 108.193 162.944 108.193 162.523C108.193 162.008 108.386 161.602 108.77 161.305C109.158 161.003 109.684 160.853 110.348 160.853C111.19 160.853 111.893 161.036 112.459 161.402ZM117.273 160.984V162.017H115.489V166.196H114.346V162.017H113.301V160.984H114.346V160.102C114.346 159.547 114.491 159.095 114.781 158.747C115.075 158.399 115.512 158.225 116.093 158.225C116.619 158.225 117.103 158.355 117.545 158.617L117.143 159.574C116.82 159.389 116.495 159.297 116.169 159.297C115.947 159.297 115.779 159.367 115.663 159.509C115.547 159.647 115.489 159.844 115.489 160.102V160.984H117.273ZM120.579 160.847C121.308 160.847 121.899 161.101 122.353 161.609C122.81 162.113 123.04 162.772 123.044 163.584C123.044 163.693 123.036 163.835 123.022 164.009H119.169C119.242 164.455 119.42 164.789 119.703 165.01C119.986 165.228 120.325 165.337 120.72 165.337C121.264 165.337 121.767 165.153 122.227 164.787L122.793 165.598C122.22 166.087 121.506 166.332 120.649 166.332C119.862 166.332 119.22 166.08 118.723 165.576C118.23 165.072 117.983 164.41 117.983 163.59C117.983 162.774 118.223 162.113 118.701 161.609C119.184 161.101 119.81 160.847 120.579 160.847ZM120.557 161.86C120.165 161.86 119.851 161.976 119.616 162.208C119.383 162.436 119.236 162.748 119.175 163.144H121.879C121.817 162.737 121.671 162.422 121.438 162.197C121.21 161.972 120.916 161.86 120.557 161.86ZM127.087 160.847C127.425 160.847 127.717 160.896 127.963 160.994L127.691 162.121C127.448 161.994 127.16 161.93 126.826 161.93C126.456 161.93 126.157 162.055 125.928 162.306C125.7 162.552 125.585 162.893 125.585 163.329V166.196H124.448V160.984H125.575V161.571C125.908 161.089 126.413 160.847 127.087 160.847Z" fill="black"/>
<path fill-rule="evenodd" clip-rule="evenodd" d="M233.868 157.863C233.569 158.144 233.569 158.598 233.868 158.878L236.98 161.799L233.868 164.72C233.569 165 233.569 165.455 233.868 165.735C234.166 166.015 234.651 166.015 234.949 165.735L238.602 162.306C238.746 162.172 238.826 161.989 238.826 161.799C238.826 161.609 238.746 161.426 238.602 161.292L234.949 157.863C234.651 157.583 234.166 157.583 233.868 157.863Z" fill="black"/>
<rect x="24.8008" y="206.496" width="105.717" height="37.32" rx="4.66399" fill="#F4F2F9"/>
<path d="M43.5081 221.538V222.703H41.0432V229.156H39.8135V222.703H37.3485V221.538H43.5081ZM48.7897 223.943V229.156H47.6525V228.53C47.2571 229.038 46.7111 229.292 46.0146 229.292C45.2782 229.292 44.6597 229.033 44.1591 228.514C43.6585 227.995 43.4082 227.341 43.4082 226.55C43.4082 225.759 43.6585 225.104 44.1591 224.586C44.6597 224.067 45.2782 223.807 46.0146 223.807C46.7111 223.807 47.2571 224.063 47.6525 224.575V223.943H48.7897ZM46.1507 224.879C45.6754 224.879 45.2946 225.041 45.008 225.364C44.7214 225.683 44.5781 226.078 44.5781 226.55C44.5781 227.021 44.7214 227.419 45.008 227.742C45.2946 228.061 45.6754 228.22 46.1507 228.22C46.615 228.22 46.9922 228.063 47.2824 227.747C47.5763 227.431 47.7232 227.032 47.7232 226.55C47.7232 226.067 47.5763 225.668 47.2824 225.353C46.9922 225.037 46.615 224.879 46.1507 224.879ZM51.7174 221.321V229.156H50.5747V221.321H51.7174ZM54.64 223.943V229.156H53.4973V223.943H54.64ZM53.4973 221.571C53.6496 221.415 53.8383 221.337 54.0632 221.337C54.2881 221.337 54.4785 221.415 54.6345 221.571C54.7905 221.727 54.8685 221.917 54.8685 222.142C54.8685 222.367 54.7905 222.556 54.6345 222.708C54.4785 222.861 54.2881 222.937 54.0632 222.937C53.8383 222.937 53.6496 222.861 53.4973 222.708C53.3449 222.556 53.2688 222.367 53.2688 222.142C53.2688 221.917 53.3449 221.727 53.4973 221.571ZM62.857 223.807C63.4773 223.807 63.9851 224.002 64.3805 224.39C64.7759 224.774 64.9736 225.271 64.9736 225.881V229.156H63.831V226.256C63.831 225.821 63.7239 225.485 63.5099 225.249C63.2995 225.01 63.0021 224.89 62.6175 224.89C62.233 224.89 61.912 225.014 61.6544 225.26C61.3969 225.503 61.2681 225.839 61.2681 226.267V229.156H60.1254V226.256C60.1254 225.821 60.0184 225.485 59.8044 225.249C59.594 225.01 59.2965 224.89 58.912 224.89C58.5275 224.89 58.2064 225.014 57.9489 225.26C57.6913 225.503 57.5626 225.839 57.5626 226.267V229.156H56.4199V223.943H57.5517V224.58C57.9035 224.065 58.4368 223.807 59.1514 223.807C59.5432 223.807 59.8951 223.891 60.207 224.058C60.5226 224.221 60.7711 224.448 60.9525 224.738C61.3298 224.118 61.9646 223.807 62.857 223.807ZM71.7134 223.943V229.156H70.5762V228.53C70.1808 229.038 69.6348 229.292 68.9383 229.292C68.2019 229.292 67.5834 229.033 67.0828 228.514C66.5822 227.995 66.3319 227.341 66.3319 226.55C66.3319 225.759 66.5822 225.104 67.0828 224.586C67.5834 224.067 68.2019 223.807 68.9383 223.807C69.6348 223.807 70.1808 224.063 70.5762 224.575V223.943H71.7134ZM69.0744 224.879C68.5991 224.879 68.2183 225.041 67.9317 225.364C67.6451 225.683 67.5018 226.078 67.5018 226.55C67.5018 227.021 67.6451 227.419 67.9317 227.742C68.2183 228.061 68.5991 228.22 69.0744 228.22C69.5387 228.22 69.9159 228.063 70.2062 227.747C70.5 227.431 70.6469 227.032 70.6469 226.55C70.6469 226.067 70.5 225.668 70.2062 225.353C69.9159 225.037 69.5387 224.879 69.0744 224.879ZM77.0516 223.943V224.977H75.0546V227.246C75.0546 227.58 75.1308 227.827 75.2832 227.986C75.4355 228.142 75.635 228.22 75.8817 228.22C76.2082 228.22 76.5582 228.102 76.9319 227.867L77.3835 228.775C76.872 229.12 76.3388 229.292 75.7838 229.292C75.1816 229.292 74.7191 229.125 74.3962 228.792C74.0734 228.458 73.9119 227.95 73.9119 227.268V224.977H72.8727V223.943H73.9119V222.365H75.0546V223.943H77.0516ZM82.3638 224.167C82.7918 223.927 83.2707 223.807 83.8003 223.807C84.3299 223.807 84.8087 223.927 85.2368 224.167C85.6648 224.402 86.0004 224.731 86.2434 225.151C86.4865 225.569 86.608 226.035 86.608 226.55C86.608 227.065 86.4865 227.533 86.2434 227.954C86.0004 228.371 85.6648 228.699 85.2368 228.939C84.8087 229.174 84.3299 229.292 83.8003 229.292C83.2707 229.292 82.7918 229.173 82.3638 228.933C81.9357 228.694 81.6002 228.365 81.3571 227.948C81.1177 227.531 80.998 227.065 80.998 226.55C80.998 226.035 81.1177 225.569 81.3571 225.151C81.6002 224.734 81.9357 224.406 82.3638 224.167ZM84.9702 225.347C84.6582 225.035 84.2682 224.879 83.8003 224.879C83.3323 224.879 82.9424 225.035 82.6304 225.347C82.322 225.659 82.1679 226.06 82.1679 226.55C82.1679 227.04 82.322 227.44 82.6304 227.752C82.9424 228.064 83.3323 228.22 83.8003 228.22C84.2682 228.22 84.6582 228.064 84.9702 227.752C85.2821 227.44 85.4381 227.04 85.4381 226.55C85.4381 226.06 85.2821 225.659 84.9702 225.347ZM89.1584 221.321V229.156H88.0157V221.321H89.1584ZM95.7158 223.943V226.947C95.7158 227.346 95.6468 227.7 95.509 228.008C95.3748 228.316 95.1916 228.563 94.9594 228.748C94.7309 228.93 94.4751 229.066 94.1922 229.156C93.9129 229.247 93.6154 229.292 93.2998 229.292C92.9842 229.292 92.6849 229.247 92.402 229.156C92.1227 229.066 91.8669 228.93 91.6348 228.748C91.4026 228.563 91.2194 228.316 91.0852 228.008C90.951 227.7 90.8839 227.346 90.8839 226.947V223.943H92.0265V226.844C92.0265 227.319 92.1426 227.667 92.3748 227.888C92.6069 228.11 92.9153 228.22 93.2998 228.22C93.6843 228.22 93.9927 228.11 94.2248 227.888C94.457 227.667 94.5731 227.319 94.5731 226.844V223.943H95.7158ZM101.48 224.362L100.99 225.249C100.805 225.133 100.564 225.03 100.266 224.939C99.9726 224.849 99.6769 224.803 99.3795 224.803C99.0747 224.803 98.8335 224.859 98.6558 224.972C98.4816 225.084 98.3946 225.235 98.3946 225.424C98.3946 225.511 98.4145 225.587 98.4544 225.652C98.498 225.714 98.5614 225.764 98.6449 225.804C98.7319 225.844 98.8208 225.875 98.9115 225.897C99.0058 225.919 99.1201 225.94 99.2543 225.962L99.793 226.044C101.001 226.218 101.605 226.731 101.605 227.584C101.605 227.997 101.462 228.349 101.175 228.639C100.892 228.93 100.495 229.122 99.9834 229.216L99.4556 230.903H98.264L98.8136 229.265C98.0881 229.2 97.4823 228.984 96.9962 228.618L97.524 227.763C97.9883 228.119 98.5614 228.297 99.2434 228.297C99.6279 228.297 99.9218 228.24 100.125 228.128C100.328 228.015 100.43 227.859 100.43 227.66C100.43 227.359 100.129 227.167 99.5264 227.083L98.9822 227.012C98.4055 226.933 97.9665 226.764 97.6654 226.506C97.3644 226.245 97.2138 225.904 97.2138 225.483C97.2138 224.968 97.4061 224.562 97.7906 224.265C98.1787 223.963 98.7047 223.813 99.3686 223.813C100.21 223.813 100.914 223.996 101.48 224.362ZM106.501 223.943V224.977H104.504V227.246C104.504 227.58 104.58 227.827 104.732 227.986C104.885 228.142 105.084 228.22 105.331 228.22C105.657 228.22 106.007 228.102 106.381 227.867L106.833 228.775C106.321 229.12 105.788 229.292 105.233 229.292C104.631 229.292 104.168 229.125 103.845 228.792C103.522 228.458 103.361 227.95 103.361 227.268V224.977H102.322V223.943H103.361V222.365H104.504V223.943H106.501ZM112.667 223.943V226.947C112.667 227.346 112.598 227.7 112.46 228.008C112.326 228.316 112.143 228.563 111.91 228.748C111.682 228.93 111.426 229.066 111.143 229.156C110.864 229.247 110.566 229.292 110.251 229.292C109.935 229.292 109.636 229.247 109.353 229.156C109.074 229.066 108.818 228.93 108.586 228.748C108.354 228.563 108.17 228.316 108.036 228.008C107.902 227.7 107.835 227.346 107.835 226.947V223.943H108.978V226.844C108.978 227.319 109.094 227.667 109.326 227.888C109.558 228.11 109.866 228.22 110.251 228.22C110.635 228.22 110.944 228.11 111.176 227.888C111.408 227.667 111.524 227.319 111.524 226.844V223.943H112.667ZM117.032 223.807C117.37 223.807 117.662 223.856 117.908 223.954L117.636 225.081C117.393 224.954 117.105 224.89 116.771 224.89C116.401 224.89 116.102 225.015 115.873 225.266C115.645 225.512 115.531 225.853 115.531 226.289V229.156H114.393V223.943H115.52V224.531C115.853 224.049 116.358 223.807 117.032 223.807Z" fill="#2A0C55"/>
<rect x="136.736" y="206.496" width="105.717" height="37.32" rx="4.66399" fill="#F4F2F9"/>
<path d="M152.123 221.538V222.703H149.658V229.156H148.428V222.703H145.963V221.538H152.123ZM157.404 223.943V229.156H156.267V228.53C155.871 229.038 155.326 229.292 154.629 229.292C153.893 229.292 153.274 229.033 152.774 228.514C152.273 227.995 152.023 227.341 152.023 226.55C152.023 225.759 152.273 225.104 152.774 224.586C153.274 224.067 153.893 223.807 154.629 223.807C155.326 223.807 155.871 224.063 156.267 224.575V223.943H157.404ZM154.765 224.879C154.29 224.879 153.909 225.041 153.622 225.364C153.336 225.683 153.193 226.078 153.193 226.55C153.193 227.021 153.336 227.419 153.622 227.742C153.909 228.061 154.29 228.22 154.765 228.22C155.229 228.22 155.607 228.063 155.897 227.747C156.191 227.431 156.338 227.032 156.338 226.55C156.338 226.067 156.191 225.668 155.897 225.353C155.607 225.037 155.229 224.879 154.765 224.879ZM160.332 221.321V229.156H159.189V221.321H160.332ZM163.254 223.943V229.156H162.112V223.943H163.254ZM162.112 221.571C162.264 221.415 162.453 221.337 162.678 221.337C162.903 221.337 163.093 221.415 163.249 221.571C163.405 221.727 163.483 221.917 163.483 222.142C163.483 222.367 163.405 222.556 163.249 222.708C163.093 222.861 162.903 222.937 162.678 222.937C162.453 222.937 162.264 222.861 162.112 222.708C161.959 222.556 161.883 222.367 161.883 222.142C161.883 221.917 161.959 221.727 162.112 221.571ZM171.471 223.807C172.092 223.807 172.6 224.002 172.995 224.39C173.39 224.774 173.588 225.271 173.588 225.881V229.156H172.445V226.256C172.445 225.821 172.338 225.485 172.124 225.249C171.914 225.01 171.616 224.89 171.232 224.89C170.847 224.89 170.526 225.014 170.269 225.26C170.011 225.503 169.883 225.839 169.883 226.267V229.156H168.74V226.256C168.74 225.821 168.633 225.485 168.419 225.249C168.208 225.01 167.911 224.89 167.526 224.89C167.142 224.89 166.821 225.014 166.563 225.26C166.306 225.503 166.177 225.839 166.177 226.267V229.156H165.034V223.943H166.166V224.58C166.518 224.065 167.051 223.807 167.766 223.807C168.158 223.807 168.509 223.891 168.821 224.058C169.137 224.221 169.386 224.448 169.567 224.738C169.944 224.118 170.579 223.807 171.471 223.807ZM180.328 223.943V229.156H179.191V228.53C178.795 229.038 178.249 229.292 177.553 229.292C176.816 229.292 176.198 229.033 175.697 228.514C175.197 227.995 174.946 227.341 174.946 226.55C174.946 225.759 175.197 225.104 175.697 224.586C176.198 224.067 176.816 223.807 177.553 223.807C178.249 223.807 178.795 224.063 179.191 224.575V223.943H180.328ZM177.689 224.879C177.214 224.879 176.833 225.041 176.546 225.364C176.26 225.683 176.116 226.078 176.116 226.55C176.116 227.021 176.26 227.419 176.546 227.742C176.833 228.061 177.214 228.22 177.689 228.22C178.153 228.22 178.53 228.063 178.821 227.747C179.114 227.431 179.261 227.032 179.261 226.55C179.261 226.067 179.114 225.668 178.821 225.353C178.53 225.037 178.153 224.879 177.689 224.879ZM185.666 223.943V224.977H183.669V227.246C183.669 227.58 183.745 227.827 183.898 227.986C184.05 228.142 184.249 228.22 184.496 228.22C184.823 228.22 185.173 228.102 185.546 227.867L185.998 228.775C185.486 229.12 184.953 229.292 184.398 229.292C183.796 229.292 183.333 229.125 183.011 228.792C182.688 228.458 182.526 227.95 182.526 227.268V224.977H181.487V223.943H182.526V222.365H183.669V223.943H185.666ZM191.131 223.943V229.156H189.988V223.943H191.131ZM189.988 221.571C190.14 221.415 190.329 221.337 190.554 221.337C190.779 221.337 190.969 221.415 191.125 221.571C191.281 221.727 191.359 221.917 191.359 222.142C191.359 222.367 191.281 222.556 191.125 222.708C190.969 222.861 190.779 222.937 190.554 222.937C190.329 222.937 190.14 222.861 189.988 222.708C189.836 222.556 189.759 222.367 189.759 222.142C189.759 221.917 189.836 221.727 189.988 221.571ZM196.948 224.362L196.458 225.249C196.273 225.133 196.032 225.03 195.735 224.939C195.441 224.849 195.145 224.803 194.848 224.803C194.543 224.803 194.302 224.859 194.124 224.972C193.95 225.084 193.863 225.235 193.863 225.424C193.863 225.511 193.883 225.587 193.923 225.652C193.966 225.714 194.03 225.764 194.113 225.804C194.2 225.844 194.289 225.875 194.38 225.897C194.474 225.919 194.588 225.94 194.722 225.962L195.261 226.044C196.469 226.218 197.073 226.731 197.073 227.584C197.073 227.997 196.93 228.349 196.643 228.639C196.36 228.93 195.963 229.122 195.452 229.216L194.924 230.903H193.732L194.282 229.265C193.556 229.2 192.95 228.984 192.464 228.618L192.992 227.763C193.456 228.119 194.03 228.297 194.712 228.297C195.096 228.297 195.39 228.24 195.593 228.128C195.796 228.015 195.898 227.859 195.898 227.66C195.898 227.359 195.597 227.167 194.994 227.083L194.45 227.012C193.874 226.933 193.435 226.764 193.134 226.506C192.832 226.245 192.682 225.904 192.682 225.483C192.682 224.968 192.874 224.562 193.259 224.265C193.647 223.963 194.173 223.813 194.837 223.813C195.678 223.813 196.382 223.996 196.948 224.362ZM199.558 221.321V229.156H198.416V221.321H199.558ZM203.558 223.807C204.287 223.807 204.879 224.061 205.332 224.569C205.789 225.073 206.019 225.732 206.023 226.544C206.023 226.653 206.016 226.795 206.001 226.969H202.149C202.221 227.415 202.399 227.749 202.682 227.97C202.965 228.188 203.304 228.297 203.7 228.297C204.244 228.297 204.746 228.113 205.207 227.747L205.773 228.558C205.2 229.047 204.485 229.292 203.629 229.292C202.842 229.292 202.2 229.04 201.703 228.536C201.209 228.032 200.963 227.37 200.963 226.55C200.963 225.734 201.202 225.073 201.681 224.569C202.163 224.061 202.789 223.807 203.558 223.807ZM203.536 224.82C203.145 224.82 202.831 224.936 202.595 225.168C202.363 225.396 202.216 225.708 202.154 226.104H204.859C204.797 225.697 204.65 225.382 204.418 225.157C204.189 224.932 203.896 224.82 203.536 224.82ZM213.865 223.807C214.485 223.807 214.993 224.002 215.388 224.39C215.784 224.774 215.981 225.271 215.981 225.881V229.156H214.839V226.256C214.839 225.821 214.732 225.485 214.518 225.249C214.307 225.01 214.01 224.89 213.625 224.89C213.241 224.89 212.92 225.014 212.662 225.26C212.405 225.503 212.276 225.839 212.276 226.267V229.156H211.133V226.256C211.133 225.821 211.026 225.485 210.812 225.249C210.602 225.01 210.304 224.89 209.92 224.89C209.535 224.89 209.214 225.014 208.957 225.26C208.699 225.503 208.57 225.839 208.57 226.267V229.156H207.428V223.943H208.56V224.58C208.911 224.065 209.445 223.807 210.159 223.807C210.551 223.807 210.903 223.891 211.215 224.058C211.53 224.221 211.779 224.448 211.96 224.738C212.338 224.118 212.972 223.807 213.865 223.807ZM218.858 221.321V229.156H217.715V221.321H218.858ZM222.858 223.807C223.587 223.807 224.178 224.061 224.632 224.569C225.089 225.073 225.319 225.732 225.323 226.544C225.323 226.653 225.316 226.795 225.301 226.969H221.449C221.521 227.415 221.699 227.749 221.982 227.97C222.265 228.188 222.604 228.297 222.999 228.297C223.543 228.297 224.046 228.113 224.507 227.747L225.073 228.558C224.499 229.047 223.785 229.292 222.929 229.292C222.141 229.292 221.499 229.04 221.002 228.536C220.509 228.032 220.262 227.37 220.262 226.55C220.262 225.734 220.502 225.073 220.981 224.569C221.463 224.061 222.089 223.807 222.858 223.807ZM222.836 224.82C222.444 224.82 222.131 224.936 221.895 225.168C221.663 225.396 221.516 225.708 221.454 226.104H224.158C224.097 225.697 223.95 225.382 223.718 225.157C223.489 224.932 223.195 224.82 222.836 224.82ZM229.366 223.807C229.704 223.807 229.996 223.856 230.243 223.954L229.97 225.081C229.727 224.954 229.439 224.89 229.105 224.89C228.735 224.89 228.436 225.015 228.207 225.266C227.979 225.512 227.865 225.853 227.865 226.289V229.156H226.727V223.943H227.854V224.531C228.188 224.049 228.692 223.807 229.366 223.807ZM232.546 223.943V229.156H231.404V223.943H232.546ZM231.404 221.571C231.556 221.415 231.745 221.337 231.969 221.337C232.194 221.337 232.385 221.415 232.541 221.571C232.697 221.727 232.775 221.917 232.775 222.142C232.775 222.367 232.697 222.556 232.541 222.708C232.385 222.861 232.194 222.937 231.969 222.937C231.745 222.937 231.556 222.861 231.404 222.708C231.251 222.556 231.175 222.367 231.175 222.142C231.175 221.917 231.251 221.727 231.404 221.571Z" fill="#2A0C55"/>
<path d="M9.25391 193.281H258V194.836H9.25391V193.281ZM258 256.253H9.25391H258ZM9.25391 256.253V194.059V256.253ZM258 194.059V256.253V194.059Z" fill="#F5F6F9" mask="url(#path-10-inside-1_167_6291)"/>
</g>
<g clip-path="url(#clip2_167_6291)">
<rect width="265" height="588.889" transform="translate(1 -29)" fill="white"/>
<path d="M24.5562 -0.291016C22.9547 -0.291016 21.3892 0.183878 20.0576 1.07361C18.7261 1.96335 17.6882 3.22796 17.0754 4.70753C16.4625 6.18711 16.3021 7.81519 16.6146 9.3859C16.927 10.9566 17.6982 12.3994 18.8306 13.5318C19.963 14.6642 21.4058 15.4354 22.9765 15.7478C24.5472 16.0603 26.1753 15.8999 27.6549 15.2871C29.1345 14.6742 30.3991 13.6364 31.2888 12.3048C32.1785 10.9732 32.6534 9.40769 32.6534 7.80621C32.6509 5.65947 31.797 3.60138 30.279 2.0834C28.761 0.565428 26.7029 -0.288483 24.5562 -0.291016V-0.291016ZM24.5562 14.4312C23.2459 14.4312 21.965 14.0427 20.8756 13.3147C19.7861 12.5867 18.9369 11.552 18.4355 10.3415C17.9341 9.13092 17.8029 7.79886 18.0585 6.51373C18.3141 5.22861 18.9451 4.04815 19.8716 3.12162C20.7982 2.1951 21.9786 1.56413 23.2637 1.3085C24.5489 1.05288 25.8809 1.18407 27.0915 1.6855C28.302 2.18694 29.3367 3.03608 30.0647 4.12555C30.7927 5.21503 31.1812 6.49591 31.1812 7.80621C31.1791 9.56261 30.4804 11.2465 29.2384 12.4884C27.9965 13.7304 26.3126 14.4291 24.5562 14.4312V14.4312ZM25.2923 4.86176H23.8201V3.38954H25.2923V4.86176ZM25.2923 12.2229H23.8201V6.33398H25.2923V12.2229Z" fill="white"/>
<path fill-rule="evenodd" clip-rule="evenodd" d="M147.669 14.3164H151.278L151.274 1.19343H149.912L144.88 6.69297L139.942 1.19343H138.543V14.3164H142.153V8.80845L144.662 11.4604H145.142L147.669 8.80687V14.3164ZM130.579 14.3164H133.994L133.992 13.6761L128.176 1.06641H126.6L120.816 13.6492L120.804 13.6761V14.3164H124.218L124.966 12.7053H129.831L130.579 14.3164ZM112.398 14.3164H116.26L116.26 13.6671L113.807 9.67857C114.585 9.07818 115.159 8.25115 115.451 7.31071C115.742 6.37027 115.737 5.3624 115.435 4.42515C114.829 2.43298 113.143 1.23927 110.925 1.23136H105.188V14.3164H106.967L108.675 10.545H110.208L112.398 14.3164ZM97.2213 14.3164H100.636L100.634 13.6761L94.8183 1.06641H93.2423L87.4581 13.6492L87.4455 13.6761V14.3164H90.8603L91.6079 12.7053H96.4727L97.2213 14.3164ZM73.9863 14.3164H75.761L77.4684 11.0388H79.7416C80.4076 11.0619 81.0704 10.9365 81.6822 10.6717C82.2941 10.4069 82.8397 10.0092 83.2799 9.50728C84.0437 8.55376 84.4605 7.36743 84.4614 6.1442C84.4624 4.92096 84.0475 3.73397 83.2852 2.77925C82.8454 2.27438 82.2995 1.87368 81.6867 1.60601C81.074 1.33835 80.4096 1.21039 79.7416 1.23136H73.9863V14.3164ZM128.652 9.63431H126.143L127.382 6.73987L128.652 9.63431ZM95.2948 9.63431H92.7857L94.025 6.73987L95.2948 9.63431ZM79.7227 7.82184H77.5215L77.5225 4.43042C77.6134 4.43019 77.7058 4.42942 77.7991 4.42866C77.9137 4.42771 78.0297 4.42676 78.1456 4.42676C78.6673 4.42201 79.2068 4.41777 79.7217 4.43042C80.5901 4.43885 80.9746 5.27736 80.971 6.10479C80.9662 6.95805 80.5365 7.82184 79.7227 7.82184ZM110.923 7.36388H108.722L108.721 4.43042C108.817 4.43018 108.913 4.42941 109.009 4.42864C109.126 4.4277 109.243 4.42676 109.36 4.42676C109.876 4.42254 110.41 4.4183 110.922 4.43042C111.1 4.43781 111.275 4.48219 111.435 4.56076C111.595 4.63934 111.738 4.7504 111.853 4.88694C111.968 5.02348 112.054 5.18252 112.105 5.35404C112.156 5.52556 112.171 5.70582 112.149 5.88345C112.146 6.61918 111.723 7.36388 110.923 7.36388ZM166.666 6.21391C166.666 8.59007 165.093 10.1271 162.161 10.1271H159.564V14.6497H157.099V2.28307H162.143C165.093 2.28307 166.666 3.82007 166.666 6.21391ZM164.139 6.21391C164.139 5.10974 163.441 4.55324 162.099 4.55324H159.564V7.87457H162.099C163.441 7.87457 164.139 7.32691 164.139 6.21391ZM168.187 8.46641C168.187 4.77407 170.873 2.05341 174.68 2.05341C178.487 2.05341 181.181 4.77407 181.181 8.46641C181.181 12.1587 178.487 14.8794 174.68 14.8794C170.873 14.8794 168.187 12.1587 168.187 8.46641ZM178.602 8.46641C178.602 6.06374 176.959 4.42074 174.68 4.42074C172.41 4.42074 170.758 6.06374 170.758 8.46641C170.758 10.8691 172.41 12.5121 174.68 12.5121C176.959 12.5121 178.602 10.8691 178.602 8.46641ZM188.138 2.07107C189.869 2.07107 191.309 2.45974 192.864 3.38724L191.698 5.40124C190.726 4.80057 189.542 4.35007 188.191 4.35007C186.804 4.35007 185.823 4.89774 185.823 5.83407C185.823 6.74391 186.892 7.01774 188.376 7.26507L189.074 7.37991C191.282 7.74207 193.014 8.68724 193.014 10.8426C193.014 13.5721 190.611 14.8706 187.952 14.8706C186.08 14.8706 184.066 14.3229 182.741 13.2541L184.021 11.2666C184.914 11.9821 186.371 12.6004 187.961 12.6004C189.33 12.6004 190.39 12.0616 190.39 11.1076C190.39 10.2507 189.489 9.93274 187.767 9.65891L186.981 9.53524C184.799 9.19074 183.209 8.22791 183.209 5.99307C183.209 3.41374 185.505 2.07107 188.138 2.07107Z" fill="white"/>
<path d="M248.408 5.76009C247.075 5.76009 246.531 4.81787 247.193 3.66217C247.576 2.99231 247.348 2.13842 246.678 1.75565L245.404 1.0269C244.823 0.680923 244.072 0.887034 243.726 1.46856L243.645 1.60842C242.982 2.76412 241.893 2.76412 241.223 1.60842L241.142 1.46856C240.811 0.887034 240.06 0.680923 239.479 1.0269L238.205 1.75565C237.535 2.13842 237.307 2.99967 237.69 3.66953C238.36 4.81787 237.815 5.76009 236.483 5.76009C235.717 5.76009 235.084 6.38578 235.084 7.1587V8.45426C235.084 9.21981 235.71 9.85287 236.483 9.85287C237.815 9.85287 238.36 10.7951 237.69 11.9508C237.307 12.6206 237.535 13.4745 238.205 13.8573L239.479 14.5861C240.06 14.932 240.811 14.7259 241.157 14.1444L241.238 14.0045C241.9 12.8488 242.99 12.8488 243.66 14.0045L243.741 14.1444C244.087 14.7259 244.837 14.932 245.419 14.5861L246.692 13.8573C247.362 13.4745 247.591 12.6133 247.208 11.9508C246.538 10.7951 247.083 9.85287 248.415 9.85287C249.181 9.85287 249.814 9.22717 249.814 8.45426V7.1587C249.806 6.39314 249.181 5.76009 248.408 5.76009ZM242.445 10.1988C241.127 10.1988 240.053 9.12412 240.053 7.80648C240.053 6.48884 241.127 5.41412 242.445 5.41412C243.763 5.41412 244.837 6.48884 244.837 7.80648C244.837 9.12412 243.763 10.1988 242.445 10.1988Z" fill="white"/>
<rect width="266" height="194" transform="translate(0 -29)" fill="url(#paint1_linear_167_6291)"/>
<path d="M28.2783 24.901C27.9762 24.9017 27.6867 25.0221 27.4731 25.2357C27.2595 25.4493 27.1391 25.7388 27.1384 26.0409V30.3386C27.1384 30.6409 27.2585 30.9307 27.4722 31.1445C27.6859 31.3582 27.9758 31.4783 28.2781 31.4783C28.5803 31.4783 28.8702 31.3582 29.0839 31.1445C29.2977 30.9307 29.4177 30.6409 29.4177 30.3386V26.0409C29.417 25.7389 29.2967 25.4494 29.0832 25.2358C28.8697 25.0223 28.5803 24.9019 28.2783 24.901Z" fill="white"/>
<path d="M27.4731 22.2688C27.6867 22.0552 27.9762 21.9348 28.2783 21.9341C28.5803 21.935 28.8697 22.0554 29.0832 22.269C29.2967 22.4825 29.417 22.772 29.4177 23.074V23.1278C29.4177 23.43 29.2977 23.7199 29.0839 23.9337C28.8702 24.1474 28.5803 24.2675 28.2781 24.2675C27.9758 24.2675 27.6859 24.1474 27.4722 23.9337C27.2585 23.7199 27.1384 23.43 27.1384 23.1278V23.074C27.1391 22.7719 27.2595 22.4824 27.4731 22.2688Z" fill="white"/>
<path fill-rule="evenodd" clip-rule="evenodd" d="M28.2783 17.4883C26.5305 17.4883 24.822 18.0066 23.3688 18.9776C21.9156 19.9486 20.7829 21.3287 20.1141 22.9434C19.4452 24.5582 19.2702 26.335 19.6112 28.0491C19.9522 29.7633 20.7938 31.3379 22.0297 32.5738C23.2655 33.8096 24.8401 34.6512 26.5543 34.9922C28.2685 35.3332 30.0453 35.1582 31.66 34.4893C33.2747 33.8205 34.6549 32.6879 35.6259 31.2346C36.5969 29.7814 37.1151 28.0729 37.1151 26.3251C37.1124 23.9823 36.1805 21.7362 34.5238 20.0796C32.8672 18.423 30.6211 17.4911 28.2783 17.4883ZM28.2783 33.2012C26.4744 33.2037 24.7418 32.4969 23.4544 31.2333C22.1669 29.9698 21.4278 28.2507 21.3966 26.4471C21.3654 24.6434 22.0445 22.8998 23.2873 21.5924C24.5302 20.285 26.2373 19.5186 28.0402 19.4586V19.4538L28.2783 19.451C29.1811 19.451 30.0752 19.6288 30.9093 19.9743C31.7434 20.3198 32.5013 20.8262 33.1397 21.4646C33.7781 22.1031 34.2846 22.861 34.6301 23.6951C34.9756 24.5292 35.1534 25.4232 35.1534 26.3261C35.1534 27.229 34.9756 28.123 34.6301 28.9571C34.2846 29.7912 33.7781 30.5491 33.1397 31.1876C32.5013 31.826 31.7434 32.3324 30.9093 32.6779C30.0752 33.0234 29.1811 33.2012 28.2783 33.2012Z" fill="white"/>
<path fill-rule="evenodd" clip-rule="evenodd" d="M143.835 31.3033H146.596L146.592 21.2671H145.551L141.703 25.473L137.926 21.2671H136.856V31.3033H139.617V27.0909L141.536 29.1191H141.903L143.835 27.0897V31.3033ZM130.765 31.3033H133.377L133.375 30.8136L128.928 21.1699H127.722L123.299 30.793L123.289 30.8136V31.3033H125.901L126.473 30.0711H130.194L130.765 31.3033ZM116.861 31.3033H119.814L119.815 30.8067L117.938 27.7563C118.534 27.2972 118.973 26.6647 119.196 25.9455C119.419 25.2262 119.415 24.4554 119.184 23.7386C118.72 22.2151 117.431 21.3021 115.734 21.2961H111.347V31.3033H112.707L114.013 28.419H115.186L116.861 31.3033ZM105.254 31.3033H107.866L107.864 30.8136L103.416 21.1699H102.211L97.7873 30.793L97.7777 30.8136V31.3033H100.389L100.961 30.0711H104.682L105.254 31.3033ZM87.4844 31.3033H88.8416L90.1474 28.7966H91.8859C92.3952 28.8143 92.9021 28.7184 93.3701 28.5159C93.838 28.3133 94.2553 28.0092 94.5919 27.6253C95.1761 26.8961 95.4948 25.9888 95.4956 25.0533C95.4963 24.1178 95.179 23.21 94.596 22.4799C94.2596 22.0938 93.8421 21.7873 93.3735 21.5826C92.9049 21.3779 92.3968 21.28 91.8859 21.2961H87.4844V31.3033ZM129.292 27.7225H127.373L128.32 25.5089L129.292 27.7225ZM103.781 27.7225H101.862L102.81 25.5089L103.781 27.7225ZM91.8715 26.3364H90.188L90.1888 23.7427C90.2583 23.7425 90.329 23.7419 90.4003 23.7413C90.488 23.7406 90.5766 23.7399 90.6653 23.7399C91.0643 23.7362 91.4769 23.733 91.8706 23.7427C92.5348 23.7491 92.8289 24.3904 92.8261 25.0232C92.8225 25.6757 92.4938 26.3364 91.8715 26.3364ZM115.733 25.9861H114.05L114.049 23.7427C114.122 23.7425 114.195 23.7419 114.269 23.7413C114.358 23.7406 114.448 23.7399 114.538 23.7399C114.932 23.7366 115.34 23.7334 115.732 23.7427C115.868 23.7483 116.002 23.7823 116.124 23.8423C116.247 23.9024 116.356 23.9874 116.444 24.0918C116.532 24.1962 116.598 24.3179 116.637 24.449C116.676 24.5802 116.688 24.7181 116.671 24.8539C116.668 25.4166 116.345 25.9861 115.733 25.9861ZM158.364 25.3406C158.364 27.1578 157.161 28.3333 154.919 28.3333H152.932V31.7921H151.048V22.3343H154.905C157.161 22.3343 158.364 23.5098 158.364 25.3406ZM156.432 25.3406C156.432 24.4961 155.898 24.0705 154.871 24.0705H152.932V26.6106H154.871C155.898 26.6106 156.432 26.1918 156.432 25.3406ZM159.528 27.0632C159.528 24.2394 161.581 22.1587 164.493 22.1587C167.405 22.1587 169.465 24.2394 169.465 27.0632C169.465 29.8871 167.405 31.9678 164.493 31.9678C161.581 31.9678 159.528 29.8871 159.528 27.0632ZM167.492 27.0632C167.492 25.2257 166.236 23.9692 164.493 23.9692C162.757 23.9692 161.493 25.2257 161.493 27.0632C161.493 28.9007 162.757 30.1573 164.493 30.1573C166.236 30.1573 167.492 28.9007 167.492 27.0632ZM174.785 22.1722C176.109 22.1722 177.211 22.4694 178.4 23.1788L177.508 24.719C176.765 24.2597 175.859 23.9151 174.826 23.9151C173.765 23.9151 173.015 24.334 173.015 25.0501C173.015 25.7459 173.833 25.9553 174.968 26.1445L175.501 26.2323C177.19 26.5093 178.514 27.2321 178.514 28.8805C178.514 30.968 176.677 31.961 174.643 31.961C173.211 31.961 171.671 31.5422 170.658 30.7248L171.637 29.2047C172.32 29.752 173.434 30.2248 174.65 30.2248C175.697 30.2248 176.508 29.8128 176.508 29.0831C176.508 28.4279 175.819 28.1847 174.502 27.9752L173.9 27.8807C172.232 27.6172 171.016 26.8808 171.016 25.1717C171.016 23.199 172.772 22.1722 174.785 22.1722Z" fill="white"/>
<path d="M235.576 33.0829H239.868C239.868 33.3559 239.812 33.6263 239.704 33.8785C239.596 34.1308 239.438 34.36 239.239 34.553C239.04 34.7461 238.803 34.8993 238.543 35.0038C238.283 35.1082 238.004 35.162 237.722 35.162C237.44 35.162 237.161 35.1082 236.9 35.0038C236.64 34.8993 236.404 34.7461 236.204 34.553C236.005 34.36 235.847 34.1308 235.739 33.8785C235.631 33.6263 235.576 33.3559 235.576 33.0829ZM245.234 30.4828C245.234 30.8964 245.064 31.293 244.762 31.5854C244.46 31.8778 244.051 32.0422 243.624 32.0423H231.82C231.394 32.0423 230.984 31.878 230.682 31.5855C230.381 31.2931 230.211 30.8964 230.211 30.4828C230.211 30.0693 230.381 29.6726 230.682 29.3802C230.984 29.0877 231.394 28.9234 231.82 28.9234H232.357V24.7651C232.357 23.567 232.784 22.4057 233.566 21.4777C234.348 20.5497 235.437 19.912 236.649 19.6724V18.5278C236.649 18.2521 236.762 17.9877 236.963 17.7927C237.164 17.5978 237.437 17.4883 237.722 17.4883C238.006 17.4883 238.279 17.5978 238.48 17.7927C238.681 17.9877 238.794 18.2521 238.794 18.5278V19.6724C240.006 19.9121 241.095 20.5499 241.877 21.4779C242.659 22.4059 243.086 23.5671 243.086 24.7651V28.9234H243.622C243.834 28.9232 244.043 28.9634 244.239 29.0417C244.434 29.12 244.612 29.2348 244.761 29.3796C244.911 29.5244 245.03 29.6964 245.111 29.8857C245.192 30.075 245.234 30.2779 245.234 30.4828Z" fill="white"/>
<path d="M99.6849 52.6324H95.5222V53.247H97.2815V57.7852H97.9293V53.247H99.6849V52.6324ZM104.164 57.1705H101.212V52.6324H100.564V57.7852H104.164V57.1705Z" fill="#C2BBCF"/>
<circle cx="111" cy="54.7845" r="1.22685" fill="#C2BBCF"/>
<path d="M121.935 52.6324H117.772V53.247H119.532V57.7852H120.179V53.247H121.935V52.6324ZM123.712 54.215C122.652 54.215 121.864 54.999 121.864 56.0369C121.864 57.0748 122.652 57.8588 123.712 57.8588C124.772 57.8588 125.563 57.0748 125.563 56.0369C125.563 54.999 124.772 54.215 123.712 54.215ZM123.712 54.7818C124.411 54.7818 124.945 55.3045 124.945 56.0369C124.945 56.7693 124.411 57.2956 123.712 57.2956C123.009 57.2956 122.479 56.7693 122.479 56.0369C122.479 55.3045 123.009 54.7818 123.712 54.7818ZM128.405 54.215C127.853 54.215 127.444 54.4285 127.172 54.7561V54.2886H126.572V59.2574H127.172V57.3177C127.444 57.6453 127.853 57.8588 128.405 57.8588C129.384 57.8588 130.153 57.0932 130.153 56.0369C130.153 54.9806 129.384 54.215 128.405 54.215ZM128.335 54.7818C129.049 54.7818 129.535 55.3413 129.535 56.0369C129.535 56.7325 129.06 57.2956 128.335 57.2956C127.628 57.2956 127.135 56.7546 127.135 56.0369C127.135 55.3229 127.628 54.7818 128.335 54.7818ZM131.758 52.4852H131.158V57.7852H131.758V52.4852ZM136.354 54.2886H135.751V54.7597C135.474 54.4285 135.066 54.215 134.518 54.215C133.535 54.215 132.769 54.9806 132.769 56.0369C132.769 57.0932 133.535 57.8588 134.518 57.8588C135.066 57.8588 135.474 57.6453 135.751 57.3177V57.7852H136.354V54.2886ZM134.587 54.7818C135.294 54.7818 135.787 55.3229 135.787 56.0369C135.787 56.7546 135.294 57.2956 134.587 57.2956C133.87 57.2956 133.384 56.7325 133.384 56.0369C133.384 55.3413 133.859 54.7818 134.587 54.7818ZM141.963 54.215C141.489 54.215 140.948 54.388 140.661 54.918C140.429 54.48 139.961 54.215 139.369 54.215C138.964 54.215 138.511 54.3512 138.224 54.745V54.2886H137.628V57.7852H138.228V55.8234C138.228 55.172 138.699 54.7855 139.262 54.7855C139.869 54.7855 140.223 55.1646 140.223 55.8087V57.7852H140.826V55.8234C140.826 55.1867 141.279 54.7855 141.857 54.7855C142.464 54.7855 142.817 55.1646 142.817 55.8087V57.7852H143.421V55.6136C143.421 54.7745 142.828 54.215 141.963 54.215ZM148.461 54.215C147.909 54.215 147.5 54.4285 147.228 54.7561V52.4852H146.628V57.7852H147.228V57.3177C147.5 57.6453 147.909 57.8588 148.461 57.8588C149.44 57.8588 150.209 57.0932 150.209 56.0369C150.209 54.9806 149.44 54.215 148.461 54.215ZM148.391 54.7818C149.105 54.7818 149.591 55.3413 149.591 56.0369C149.591 56.7325 149.116 57.2956 148.391 57.2956C147.684 57.2956 147.191 56.7546 147.191 56.0369C147.191 55.3229 147.684 54.7818 148.391 54.7818ZM154.534 54.2886H153.93V54.7597C153.654 54.4285 153.246 54.215 152.697 54.215C151.715 54.215 150.949 54.9806 150.949 56.0369C150.949 57.0932 151.715 57.8588 152.697 57.8588C153.246 57.8588 153.654 57.6453 153.93 57.3177V57.7852H154.534V54.2886ZM152.767 54.7818C153.474 54.7818 153.967 55.3229 153.967 56.0369C153.967 56.7546 153.474 57.2956 152.767 57.2956C152.05 57.2956 151.564 56.7325 151.564 56.0369C151.564 55.3413 152.039 54.7818 152.767 54.7818ZM156.408 52.4852H155.808V57.7852H156.408V56.232H156.882L158.204 57.7852H158.966L157.383 55.9375L158.944 54.2886H158.185L156.886 55.6872H156.408V52.4852ZM160.325 54.2886H159.725V57.7852H160.325V54.2886ZM160.02 52.6287C159.781 52.6287 159.597 52.8164 159.597 53.0593C159.597 53.2986 159.781 53.4789 160.02 53.4789C160.259 53.4789 160.451 53.2986 160.451 53.0593C160.451 52.8164 160.259 52.6287 160.02 52.6287ZM164.83 54.2886H164.167L162.971 56.4381L161.712 54.2886H161.039L162.632 57.038L161.34 59.2758H162.007L164.83 54.2886ZM166.927 54.215C165.922 54.215 165.19 54.9622 165.19 56.0369C165.19 57.1263 165.926 57.8588 166.964 57.8588C167.479 57.8588 167.965 57.7336 168.399 57.3288L168.079 56.9165C167.781 57.1742 167.409 57.3324 167.001 57.3324C166.401 57.3324 165.896 56.9754 165.812 56.2504H168.561C168.565 56.1841 168.572 56.1031 168.572 56.0259C168.565 54.9548 167.88 54.215 166.927 54.215ZM166.916 54.7487C167.483 54.7487 167.884 55.1462 167.958 55.7645H165.819C165.911 55.1683 166.298 54.7487 166.916 54.7487Z" fill="#C2BBCF"/>
<path d="M96.3563 76.9737L90.491 79.6826V77.5272L96.3563 74.8066V73.0988L90.491 75.8194V70.0248H88.5006V76.7381L86.2275 77.7863V79.4941L88.5006 78.4459V80.6012L86.2275 81.6494V83.3454L88.5006 82.2972V86.5137H92.9643C96.003 86.5137 98.0406 85.3359 99.7483 82.2737L98.0406 81.3197C96.745 83.6988 95.2257 84.6057 93.1175 84.6057H90.491V81.3786L96.3563 78.6697V76.9737ZM108.527 69.8128L101.814 72.663V74.7359L106.537 72.7101V86.5137H108.527V69.8128ZM114.061 83.5221C113.201 83.5221 112.447 84.2641 112.447 85.1239C112.447 85.9954 113.201 86.7492 114.061 86.7492C114.92 86.7492 115.662 85.9954 115.662 85.1239C115.662 84.2641 114.92 83.5221 114.061 83.5221ZM119.577 73.6994C120.366 72.6394 121.344 71.6972 123.181 71.6972C125.266 71.6972 126.467 73.0988 126.467 74.9361C126.467 76.2906 125.808 77.3977 124.818 78.4341L118.647 84.9472V86.5137H129.07V84.6174H121.603L126.338 79.5883C127.398 78.4694 128.552 76.9972 128.552 74.9479C128.552 71.9917 126.597 69.7892 123.228 69.7892C120.378 69.7892 118.918 71.391 118.14 72.5334L119.577 73.6994ZM141.62 70.0248H132.61L132.422 78.4577H136.061C139.229 78.4577 140.336 79.9063 140.336 81.6141C140.336 83.369 139.076 84.853 136.72 84.853C135.095 84.853 133.482 84.1228 132.433 82.8743L131.114 84.1699C132.504 85.8777 134.388 86.7492 136.732 86.7492C139.842 86.7492 142.409 84.8648 142.409 81.4492C142.409 78.8228 140.548 76.5732 136.673 76.5732H134.306L134.447 71.9092H141.62V70.0248ZM152.128 69.7892C148.348 69.7892 145.285 72.9692 145.285 78.2692C145.285 83.5574 148.348 86.7492 152.128 86.7492C155.897 86.7492 158.971 83.5574 158.971 78.2692C158.971 72.9692 155.897 69.7892 152.128 69.7892ZM152.128 71.709C154.766 71.709 156.886 74.0292 156.886 78.2692C156.886 82.5092 154.766 84.8294 152.128 84.8294C149.514 84.8294 147.37 82.5092 147.37 78.2692C147.37 74.0292 149.514 71.709 152.128 71.709ZM161.807 84.6513L161.38 88.4423H162.418L163.213 84.6513H161.807ZM171.436 76.2081H164.421V77.3859H169.941L165.377 86.5137H166.828L171.436 77.1871V76.2081ZM179.104 76.2081H173.473L173.355 81.4787H175.629C177.609 81.4787 178.301 82.3841 178.301 83.4514C178.301 84.5483 177.514 85.4758 176.042 85.4758C175.026 85.4758 174.017 85.0194 173.362 84.2391L172.538 85.0488C173.406 86.1162 174.584 86.6609 176.049 86.6609C177.992 86.6609 179.597 85.4831 179.597 83.3484C179.597 81.7069 178.434 80.3009 176.012 80.3009H174.533L174.621 77.3859H179.104V76.2081Z" fill="white"/>
<g filter="url(#filter1_d_167_6291)">
<rect x="16.8438" y="106" width="236.444" height="118.514" rx="7.36111" fill="white" shape-rendering="crispEdges"/>
<rect x="31.5664" y="123.667" width="23.5556" height="23.5556" rx="5.88889" fill="#F4F2F9"/>
<path d="M39.8211 140.352H49.0176C49.1394 140.352 49.2562 140.304 49.3425 140.218C49.4287 140.133 49.4772 140.017 49.4775 139.896V133.129C49.4773 133.008 49.4288 132.892 49.3426 132.806C49.2563 132.721 49.1395 132.673 49.0176 132.673H47.3238V130.993C47.3236 130.872 47.2751 130.756 47.189 130.671C47.1028 130.585 46.9861 130.537 46.8642 130.537H37.6685C37.5467 130.537 37.4299 130.585 37.3438 130.671C37.2577 130.756 37.2092 130.872 37.209 130.993V137.76C37.2091 137.881 37.2575 137.997 37.3437 138.083C37.4298 138.168 37.5467 138.216 37.6685 138.217H39.3597V139.896C39.3598 139.956 39.3719 140.016 39.3951 140.071C39.4183 140.126 39.4524 140.177 39.4952 140.219C39.5381 140.261 39.5889 140.295 39.6448 140.318C39.7008 140.34 39.7607 140.352 39.8211 140.352V140.352ZM47.3238 138.217V133.453H48.6907V139.572H40.1476V138.217H47.3238ZM37.9943 137.437V131.317H46.5374V137.437H37.9943Z" fill="#360E6A"/>
<path d="M42.3084 132.234C41.8812 132.234 41.4636 132.36 41.1084 132.595C40.7532 132.831 40.4763 133.165 40.3129 133.557C40.1494 133.948 40.1066 134.379 40.1899 134.794C40.2733 135.21 40.479 135.591 40.7811 135.891C41.0831 136.191 41.468 136.395 41.887 136.477C42.306 136.56 42.7403 136.517 43.135 136.355C43.5296 136.193 43.867 135.919 44.1043 135.566C44.3417 135.214 44.4683 134.8 44.4683 134.376C44.4677 133.808 44.2399 133.264 43.835 132.862C43.43 132.461 42.881 132.235 42.3084 132.234V132.234ZM42.3084 135.738C42.0368 135.738 41.7714 135.658 41.5456 135.508C41.3198 135.359 41.1439 135.146 41.04 134.897C40.9361 134.648 40.909 134.375 40.962 134.11C41.015 133.846 41.1458 133.604 41.3379 133.413C41.53 133.223 41.7746 133.093 42.041 133.041C42.3074 132.988 42.5834 133.015 42.8343 133.118C43.0852 133.221 43.2997 133.396 43.4505 133.62C43.6014 133.844 43.6819 134.107 43.6819 134.376C43.6814 134.737 43.5366 135.084 43.2791 135.339C43.0216 135.594 42.6725 135.738 42.3084 135.738Z" fill="#360E6A"/>
<path d="M69.6644 139.444L66.7943 136.368H66.0986V139.444H64.9341V132.23H66.0986V135.265H66.8097L69.5201 132.23H71.0247L67.7784 135.75L71.2463 139.444H69.6644ZM76.5654 134.508V139.444H75.4884V138.852C75.114 139.333 74.597 139.573 73.9375 139.573C73.2401 139.573 72.6544 139.328 72.1804 138.836C71.7063 138.345 71.4693 137.725 71.4693 136.976C71.4693 136.227 71.7063 135.607 72.1804 135.116C72.6544 134.625 73.2401 134.379 73.9375 134.379C74.597 134.379 75.114 134.621 75.4884 135.106V134.508H76.5654ZM74.0663 135.394C73.6163 135.394 73.2556 135.547 72.9842 135.853C72.7128 136.155 72.5771 136.53 72.5771 136.976C72.5771 137.423 72.7128 137.799 72.9842 138.105C73.2556 138.407 73.6163 138.558 74.0663 138.558C74.506 138.558 74.8632 138.409 75.1381 138.11C75.4163 137.811 75.5554 137.433 75.5554 136.976C75.5554 136.519 75.4163 136.141 75.1381 135.843C74.8632 135.544 74.506 135.394 74.0663 135.394ZM80.7548 134.379C81.0743 134.379 81.3508 134.426 81.5844 134.518L81.3268 135.585C81.0966 135.465 80.8235 135.405 80.5075 135.405C80.1571 135.405 79.8737 135.523 79.6573 135.76C79.4409 135.994 79.3327 136.317 79.3327 136.729V139.444H78.2557V134.508H79.3224V135.064C79.6384 134.608 80.1159 134.379 80.7548 134.379ZM86.1493 134.508V135.487H84.2582V137.636C84.2582 137.952 84.3304 138.185 84.4746 138.336C84.6189 138.484 84.8079 138.558 85.0415 138.558C85.3506 138.558 85.6821 138.446 86.0359 138.223L86.4636 139.084C85.9793 139.41 85.4743 139.573 84.9487 139.573C84.3785 139.573 83.9405 139.415 83.6347 139.099C83.329 138.783 83.1761 138.302 83.1761 137.656V135.487H82.192V134.508H83.1761V133.014H84.2582V134.508H86.1493ZM91.3241 134.508V139.444H90.242V134.508H91.3241ZM90.242 132.261C90.3863 132.114 90.5649 132.04 90.7779 132.04C90.9908 132.04 91.1712 132.114 91.3189 132.261C91.4666 132.409 91.5405 132.589 91.5405 132.802C91.5405 133.015 91.4666 133.194 91.3189 133.338C91.1712 133.483 90.9908 133.555 90.7779 133.555C90.5649 133.555 90.3863 133.483 90.242 133.338C90.0977 133.194 90.0256 133.015 90.0256 132.802C90.0256 132.589 90.0977 132.409 90.242 132.261ZM94.0917 132.024V139.444H93.0096V132.024H94.0917ZM97.8795 134.379C98.57 134.379 99.1299 134.62 99.5593 135.101C99.9922 135.578 100.21 136.202 100.214 136.971C100.214 137.074 100.207 137.208 100.193 137.373H96.5449C96.6137 137.795 96.782 138.111 97.0499 138.321C97.3179 138.527 97.6391 138.63 98.0135 138.63C98.5288 138.63 99.0045 138.457 99.4408 138.11L99.9767 138.878C99.4339 139.341 98.7572 139.573 97.9465 139.573C97.2011 139.573 96.593 139.334 96.1224 138.857C95.6552 138.379 95.4216 137.753 95.4216 136.976C95.4216 136.203 95.6484 135.578 96.1018 135.101C96.5587 134.62 97.1513 134.379 97.8795 134.379ZM97.8589 135.338C97.4879 135.338 97.1908 135.447 96.9675 135.667C96.7476 135.884 96.6085 136.179 96.5501 136.554H99.111C99.0526 136.169 98.9135 135.87 98.6937 135.657C98.4772 135.444 98.199 135.338 97.8589 135.338ZM107.636 134.508V135.487H105.745V137.636C105.745 137.952 105.817 138.185 105.961 138.336C106.106 138.484 106.295 138.558 106.528 138.558C106.837 138.558 107.169 138.446 107.523 138.223L107.95 139.084C107.466 139.41 106.961 139.573 106.435 139.573C105.865 139.573 105.427 139.415 105.121 139.099C104.816 138.783 104.663 138.302 104.663 137.656V135.487H103.679V134.508H104.663V133.014H105.745V134.508H107.636ZM113.692 134.508V139.444H112.615V138.852C112.24 139.333 111.723 139.573 111.064 139.573C110.366 139.573 109.781 139.328 109.307 138.836C108.832 138.345 108.595 137.725 108.595 136.976C108.595 136.227 108.832 135.607 109.307 135.116C109.781 134.625 110.366 134.379 111.064 134.379C111.723 134.379 112.24 134.621 112.615 135.106V134.508H113.692ZM111.192 135.394C110.742 135.394 110.382 135.547 110.11 135.853C109.839 136.155 109.703 136.53 109.703 136.976C109.703 137.423 109.839 137.799 110.11 138.105C110.382 138.407 110.742 138.558 111.192 138.558C111.632 138.558 111.989 138.409 112.264 138.11C112.542 137.811 112.682 137.433 112.682 136.976C112.682 136.519 112.542 136.141 112.264 135.843C111.989 135.544 111.632 135.394 111.192 135.394ZM116.464 132.024V135.095C116.797 134.618 117.299 134.379 117.969 134.379C118.556 134.379 119.037 134.563 119.411 134.931C119.786 135.295 119.973 135.765 119.973 136.342V139.444H118.891V136.698C118.891 136.286 118.79 135.968 118.587 135.745C118.388 135.518 118.106 135.405 117.742 135.405C117.378 135.405 117.074 135.521 116.83 135.755C116.586 135.985 116.464 136.303 116.464 136.708V139.444H115.382V132.024H116.464ZM125.435 134.905L124.971 135.745C124.796 135.635 124.567 135.537 124.286 135.451C124.008 135.365 123.728 135.322 123.446 135.322C123.157 135.322 122.929 135.375 122.761 135.482C122.596 135.588 122.513 135.731 122.513 135.91C122.513 135.992 122.532 136.064 122.57 136.126C122.611 136.184 122.671 136.232 122.75 136.27C122.833 136.308 122.917 136.337 123.003 136.358C123.092 136.378 123.2 136.399 123.327 136.42L123.838 136.497C124.981 136.662 125.553 137.148 125.553 137.955C125.553 138.44 125.354 138.829 124.956 139.125C124.557 139.42 124.008 139.568 123.307 139.568C122.465 139.568 121.759 139.357 121.189 138.934L121.689 138.125C122.129 138.462 122.671 138.63 123.317 138.63C123.681 138.63 123.959 138.577 124.152 138.47C124.344 138.364 124.44 138.216 124.44 138.027C124.44 137.742 124.155 137.56 123.585 137.481L123.07 137.414C122.524 137.339 122.108 137.179 121.823 136.935C121.538 136.688 121.395 136.365 121.395 135.966C121.395 135.478 121.577 135.094 121.941 134.812C122.309 134.527 122.807 134.384 123.436 134.384C124.233 134.384 124.899 134.558 125.435 134.905ZM127.907 134.508V139.444H126.825V134.508H127.907ZM126.825 132.261C126.969 132.114 127.148 132.04 127.361 132.04C127.574 132.04 127.754 132.114 127.902 132.261C128.049 132.409 128.123 132.589 128.123 132.802C128.123 133.015 128.049 133.194 127.902 133.338C127.754 133.483 127.574 133.555 127.361 133.555C127.148 133.555 126.969 133.483 126.825 133.338C126.68 133.194 126.608 133.015 126.608 132.802C126.608 132.589 126.68 132.409 126.825 132.261ZM130.674 132.024V139.444H129.592V132.024H130.674ZM137.1 134.508V139.444H136.024V138.852C135.649 139.333 135.132 139.573 134.473 139.573C133.775 139.573 133.189 139.328 132.715 138.836C132.241 138.345 132.004 137.725 132.004 136.976C132.004 136.227 132.241 135.607 132.715 135.116C133.189 134.625 133.775 134.379 134.473 134.379C135.132 134.379 135.649 134.621 136.024 135.106V134.508H137.1ZM134.601 135.394C134.151 135.394 133.791 135.547 133.519 135.853C133.248 136.155 133.112 136.53 133.112 136.976C133.112 137.423 133.248 137.799 133.519 138.105C133.791 138.407 134.151 138.558 134.601 138.558C135.041 138.558 135.398 138.409 135.673 138.11C135.951 137.811 136.091 137.433 136.091 136.976C136.091 136.519 135.951 136.141 135.673 135.843C135.398 135.544 135.041 135.394 134.601 135.394ZM142.156 134.508V135.487H140.264V137.636C140.264 137.952 140.337 138.185 140.481 138.336C140.625 138.484 140.814 138.558 141.048 138.558C141.357 138.558 141.688 138.446 142.042 138.223L142.47 139.084C141.986 139.41 141.481 139.573 140.955 139.573C140.385 139.573 139.947 139.415 139.641 139.099C139.335 138.783 139.182 138.302 139.182 137.656V135.487H138.198V134.508H139.182V133.014H140.264V134.508H142.156ZM150.848 134.508L146.953 141.536H145.757L147.525 138.429L145.335 134.508H146.546L148.133 137.342L149.663 134.508H150.848ZM156.393 134.508V139.444H155.316V138.852C154.942 139.333 154.425 139.573 153.765 139.573C153.068 139.573 152.482 139.328 152.008 138.836C151.534 138.345 151.297 137.725 151.297 136.976C151.297 136.227 151.534 135.607 152.008 135.116C152.482 134.625 153.068 134.379 153.765 134.379C154.425 134.379 154.942 134.621 155.316 135.106V134.508H156.393ZM153.894 135.394C153.444 135.394 153.083 135.547 152.812 135.853C152.541 136.155 152.405 136.53 152.405 136.976C152.405 137.423 152.541 137.799 152.812 138.105C153.083 138.407 153.444 138.558 153.894 138.558C154.334 138.558 154.691 138.409 154.966 138.11C155.244 137.811 155.383 137.433 155.383 136.976C155.383 136.519 155.244 136.141 154.966 135.843C154.691 135.544 154.334 135.394 153.894 135.394ZM160.706 134.379C161.404 134.379 161.989 134.625 162.463 135.116C162.937 135.607 163.174 136.227 163.174 136.976C163.174 137.725 162.937 138.345 162.463 138.836C161.989 139.328 161.404 139.573 160.706 139.573C160.05 139.573 159.535 139.334 159.16 138.857V141.505H158.084V134.508H159.16V135.095C159.535 134.618 160.05 134.379 160.706 134.379ZM160.577 135.394C160.138 135.394 159.779 135.544 159.501 135.843C159.226 136.141 159.088 136.519 159.088 136.976C159.088 137.433 159.226 137.811 159.501 138.11C159.779 138.409 160.138 138.558 160.577 138.558C161.027 138.558 161.388 138.407 161.66 138.105C161.931 137.799 162.067 137.423 162.067 136.976C162.067 136.53 161.931 136.155 161.66 135.853C161.388 135.547 161.027 135.394 160.577 135.394Z" fill="black"/>
<path fill-rule="evenodd" clip-rule="evenodd" d="M230.436 131.718C230.153 131.983 230.153 132.413 230.436 132.678L233.383 135.444L230.436 138.21C230.153 138.476 230.153 138.906 230.436 139.171C230.718 139.437 231.177 139.437 231.459 139.171L234.919 135.925C235.055 135.798 235.131 135.625 235.131 135.444C235.131 135.264 235.055 135.091 234.919 134.964L231.459 131.718C231.177 131.452 230.718 131.452 230.436 131.718Z" fill="#4D008C"/>
<rect x="31.5664" y="164.889" width="207" height="0.736111" fill="#F5F6F9"/>
<rect x="31.5664" y="183.292" width="23.5556" height="23.5556" rx="5.88889" fill="#F4F2F9"/>
<path d="M43.9369 189.53C43.9369 189.202 43.6711 188.937 43.3433 188.937C43.0154 188.937 42.7496 189.202 42.7496 189.53V194.477H37.8026C37.4748 194.477 37.209 194.743 37.209 195.071C37.209 195.399 37.4748 195.664 37.8026 195.664H42.7496V200.611C42.7496 200.939 43.0154 201.205 43.3433 201.205C43.6711 201.205 43.9369 200.939 43.9369 200.611V195.664H48.8839C49.2117 195.664 49.4775 195.399 49.4775 195.071C49.4775 194.743 49.2117 194.477 48.8839 194.477H43.9369V189.53Z" fill="#4D008C"/>
<path d="M67.7321 196.235H66.0986V199.069H64.9341V191.855H67.7321C68.5531 191.855 69.1834 192.05 69.6231 192.438C70.0663 192.826 70.2878 193.362 70.2878 194.045C70.2878 194.729 70.0663 195.265 69.6231 195.653C69.1834 196.041 68.5531 196.235 67.7321 196.235ZM67.7011 192.953H66.0986V195.138H67.7011C68.1718 195.138 68.5187 195.048 68.742 194.87C68.9653 194.691 69.0769 194.416 69.0769 194.045C69.0769 193.674 68.9653 193.4 68.742 193.221C68.5187 193.042 68.1718 192.953 67.7011 192.953ZM76.2131 194.133V199.069H75.1362V198.477C74.7618 198.958 74.2448 199.198 73.5852 199.198C72.8879 199.198 72.3022 198.953 71.8281 198.461C71.3541 197.97 71.117 197.35 71.117 196.601C71.117 195.852 71.3541 195.232 71.8281 194.741C72.3022 194.25 72.8879 194.004 73.5852 194.004C74.2448 194.004 74.7618 194.246 75.1362 194.731V194.133H76.2131ZM73.714 195.019C73.264 195.019 72.9033 195.172 72.632 195.478C72.3606 195.78 72.2249 196.155 72.2249 196.601C72.2249 197.048 72.3606 197.424 72.632 197.73C72.9033 198.032 73.264 198.183 73.714 198.183C74.1537 198.183 74.511 198.034 74.7858 197.735C75.0641 197.436 75.2032 197.058 75.2032 196.601C75.2032 196.144 75.0641 195.766 74.7858 195.468C74.511 195.169 74.1537 195.019 73.714 195.019ZM80.4026 194.004C80.7221 194.004 80.9986 194.051 81.2322 194.143L80.9745 195.21C80.7444 195.09 80.4713 195.03 80.1553 195.03C79.8049 195.03 79.5215 195.148 79.305 195.385C79.0886 195.619 78.9804 195.942 78.9804 196.354V199.069H77.9035V194.133H78.9701V194.689C79.2861 194.233 79.7636 194.004 80.4026 194.004ZM86.8709 194.133V199.069H85.794V198.477C85.4196 198.958 84.9026 199.198 84.243 199.198C83.5457 199.198 82.96 198.953 82.4859 198.461C82.0119 197.97 81.7748 197.35 81.7748 196.601C81.7748 195.852 82.0119 195.232 82.4859 194.741C82.96 194.25 83.5457 194.004 84.243 194.004C84.9026 194.004 85.4196 194.246 85.794 194.731V194.133H86.8709ZM84.3718 195.019C83.9218 195.019 83.5611 195.172 83.2897 195.478C83.0184 195.78 82.8827 196.155 82.8827 196.601C82.8827 197.048 83.0184 197.424 83.2897 197.73C83.5611 198.032 83.9218 198.183 84.3718 198.183C84.8115 198.183 85.1688 198.034 85.4436 197.735C85.7219 197.436 85.861 197.058 85.861 196.601C85.861 196.144 85.7219 195.766 85.4436 195.468C85.1688 195.169 84.8115 195.019 84.3718 195.019ZM94.657 194.004C95.2444 194.004 95.7254 194.188 96.0998 194.556C96.4742 194.92 96.6614 195.39 96.6614 195.967V199.069H95.5794V196.323C95.5794 195.911 95.478 195.593 95.2754 195.37C95.0761 195.143 94.7944 195.03 94.4303 195.03C94.0662 195.03 93.7622 195.146 93.5183 195.38C93.2744 195.61 93.1524 195.928 93.1524 196.333V199.069H92.0703V196.323C92.0703 195.911 91.969 195.593 91.7663 195.37C91.5671 195.143 91.2854 195.03 90.9213 195.03C90.5571 195.03 90.2531 195.146 90.0092 195.38C89.7653 195.61 89.6434 195.928 89.6434 196.333V199.069H88.5613V194.133H89.6331V194.736C89.9663 194.248 90.4712 194.004 91.148 194.004C91.519 194.004 91.8522 194.083 92.1476 194.241C92.4465 194.396 92.6818 194.61 92.8535 194.885C93.2108 194.298 93.812 194.004 94.657 194.004ZM103.487 191.855V192.958H101.153V199.069H99.9882V192.958H97.654V191.855H103.487ZM105.821 191.855V199.069H104.657V191.855H105.821ZM112.507 199.069L109.637 195.993H108.941V199.069H107.777V191.855H108.941V194.89H109.652L112.363 191.855H113.867L110.621 195.375L114.089 199.069H112.507ZM118.688 194.133V199.069H117.606V194.133H118.688ZM117.606 191.886C117.75 191.739 117.929 191.665 118.142 191.665C118.355 191.665 118.535 191.739 118.683 191.886C118.831 192.034 118.905 192.214 118.905 192.427C118.905 192.64 118.831 192.819 118.683 192.963C118.535 193.108 118.355 193.18 118.142 193.18C117.929 193.18 117.75 193.108 117.606 192.963C117.462 192.819 117.39 192.64 117.39 192.427C117.39 192.214 117.462 192.034 117.606 191.886ZM121.456 191.649V199.069H120.374V191.649H121.456ZM125.244 194.004C125.934 194.004 126.494 194.245 126.923 194.726C127.356 195.203 127.574 195.827 127.578 196.596C127.578 196.699 127.571 196.833 127.557 196.998H123.909C123.978 197.42 124.146 197.736 124.414 197.946C124.682 198.152 125.003 198.255 125.378 198.255C125.893 198.255 126.369 198.082 126.805 197.735L127.341 198.503C126.798 198.966 126.121 199.198 125.311 199.198C124.565 199.198 123.957 198.959 123.486 198.482C123.019 198.004 122.786 197.378 122.786 196.601C122.786 195.828 123.012 195.203 123.466 194.726C123.923 194.245 124.515 194.004 125.244 194.004ZM125.223 194.963C124.852 194.963 124.555 195.072 124.332 195.292C124.112 195.509 123.973 195.804 123.914 196.179H126.475C126.417 195.794 126.278 195.495 126.058 195.282C125.841 195.069 125.563 194.963 125.223 194.963ZM132.623 194.344C133.029 194.118 133.482 194.004 133.984 194.004C134.485 194.004 134.939 194.118 135.344 194.344C135.749 194.568 136.067 194.878 136.297 195.277C136.527 195.672 136.643 196.113 136.643 196.601C136.643 197.089 136.527 197.532 136.297 197.931C136.067 198.326 135.749 198.637 135.344 198.863C134.939 199.087 134.485 199.198 133.984 199.198C133.482 199.198 133.029 199.085 132.623 198.858C132.218 198.631 131.9 198.32 131.67 197.925C131.443 197.53 131.33 197.089 131.33 196.601C131.33 196.113 131.443 195.672 131.67 195.277C131.9 194.882 132.218 194.571 132.623 194.344ZM135.092 195.462C134.796 195.167 134.427 195.019 133.984 195.019C133.541 195.019 133.171 195.167 132.876 195.462C132.584 195.758 132.438 196.137 132.438 196.601C132.438 197.065 132.584 197.444 132.876 197.74C133.171 198.035 133.541 198.183 133.984 198.183C134.427 198.183 134.796 198.035 135.092 197.74C135.387 197.444 135.535 197.065 135.535 196.601C135.535 196.137 135.387 195.758 135.092 195.462ZM132.412 192.082C132.556 191.934 132.735 191.861 132.948 191.861C133.161 191.861 133.341 191.934 133.489 192.082C133.637 192.23 133.711 192.41 133.711 192.623C133.711 192.836 133.637 193.015 133.489 193.159C133.341 193.303 133.161 193.376 132.948 193.376C132.735 193.376 132.556 193.303 132.412 193.159C132.268 193.015 132.196 192.836 132.196 192.623C132.196 192.41 132.268 192.23 132.412 192.082ZM134.473 192.082C134.618 191.934 134.796 191.861 135.009 191.861C135.222 191.861 135.402 191.934 135.55 192.082C135.698 192.23 135.772 192.41 135.772 192.623C135.772 192.836 135.698 193.015 135.55 193.159C135.402 193.303 135.222 193.376 135.009 193.376C134.796 193.376 134.618 193.303 134.473 193.159C134.329 193.015 134.257 192.836 134.257 192.623C134.257 192.41 134.329 192.23 134.473 192.082ZM140.088 194.004C140.748 194.004 141.265 194.246 141.639 194.731V191.649H142.716V199.069H141.639V198.477C141.265 198.958 140.748 199.198 140.088 199.198C139.391 199.198 138.805 198.953 138.331 198.461C137.857 197.97 137.62 197.35 137.62 196.601C137.62 195.852 137.857 195.232 138.331 194.741C138.805 194.25 139.391 194.004 140.088 194.004ZM140.217 195.019C139.767 195.019 139.406 195.172 139.135 195.478C138.864 195.78 138.728 196.155 138.728 196.601C138.728 197.048 138.864 197.424 139.135 197.73C139.406 198.032 139.767 198.183 140.217 198.183C140.657 198.183 141.014 198.034 141.289 197.735C141.567 197.436 141.706 197.058 141.706 196.601C141.706 196.144 141.567 195.766 141.289 195.468C141.014 195.169 140.657 195.019 140.217 195.019ZM146.509 194.004C147.199 194.004 147.759 194.245 148.189 194.726C148.621 195.203 148.84 195.827 148.843 196.596C148.843 196.699 148.836 196.833 148.822 196.998H145.174C145.243 197.42 145.411 197.736 145.679 197.946C145.947 198.152 146.268 198.255 146.643 198.255C147.158 198.255 147.634 198.082 148.07 197.735L148.606 198.503C148.063 198.966 147.387 199.198 146.576 199.198C145.83 199.198 145.222 198.959 144.752 198.482C144.285 198.004 144.051 197.378 144.051 196.601C144.051 195.828 144.278 195.203 144.731 194.726C145.188 194.245 145.781 194.004 146.509 194.004ZM146.488 194.963C146.117 194.963 145.82 195.072 145.597 195.292C145.377 195.509 145.238 195.804 145.179 196.179H147.74C147.682 195.794 147.543 195.495 147.323 195.282C147.107 195.069 146.828 194.963 146.488 194.963ZM156.269 194.004C156.856 194.004 157.337 194.188 157.712 194.556C158.086 194.92 158.273 195.39 158.273 195.967V199.069H157.191V196.323C157.191 195.911 157.09 195.593 156.887 195.37C156.688 195.143 156.406 195.03 156.042 195.03C155.678 195.03 155.374 195.146 155.13 195.38C154.886 195.61 154.764 195.928 154.764 196.333V199.069H153.682V196.323C153.682 195.911 153.581 195.593 153.378 195.37C153.179 195.143 152.897 195.03 152.533 195.03C152.169 195.03 151.865 195.146 151.621 195.38C151.377 195.61 151.255 195.928 151.255 196.333V199.069H150.173V194.133H151.245V194.736C151.578 194.248 152.083 194.004 152.76 194.004C153.131 194.004 153.464 194.083 153.76 194.241C154.058 194.396 154.294 194.61 154.465 194.885C154.823 194.298 155.424 194.004 156.269 194.004ZM162.018 194.004C162.708 194.004 163.268 194.245 163.697 194.726C164.13 195.203 164.348 195.827 164.352 196.596C164.352 196.699 164.345 196.833 164.331 196.998H160.683C160.752 197.42 160.92 197.736 161.188 197.946C161.456 198.152 161.777 198.255 162.151 198.255C162.667 198.255 163.143 198.082 163.579 197.735L164.115 198.503C163.572 198.966 162.895 199.198 162.084 199.198C161.339 199.198 160.731 198.959 160.26 198.482C159.793 198.004 159.56 197.378 159.56 196.601C159.56 195.828 159.786 195.203 160.24 194.726C160.697 194.245 161.289 194.004 162.018 194.004ZM161.997 194.963C161.626 194.963 161.329 195.072 161.105 195.292C160.886 195.509 160.746 195.804 160.688 196.179H163.249C163.191 195.794 163.052 195.495 162.832 195.282C162.615 195.069 162.337 194.963 161.997 194.963ZM173.2 194.133V199.069H172.123V198.477C171.749 198.958 171.232 199.198 170.572 199.198C169.875 199.198 169.289 198.953 168.815 198.461C168.341 197.97 168.104 197.35 168.104 196.601C168.104 195.852 168.341 195.232 168.815 194.741C169.289 194.25 169.875 194.004 170.572 194.004C171.232 194.004 171.749 194.246 172.123 194.731V194.133H173.2ZM170.701 195.019C170.251 195.019 169.89 195.172 169.619 195.478C169.348 195.78 169.212 196.155 169.212 196.601C169.212 197.048 169.348 197.424 169.619 197.73C169.89 198.032 170.251 198.183 170.701 198.183C171.141 198.183 171.498 198.034 171.773 197.735C172.051 197.436 172.19 197.058 172.19 196.601C172.19 196.144 172.051 195.766 171.773 195.468C171.498 195.169 171.141 195.019 170.701 195.019ZM175.973 191.649V199.069H174.89V191.649H175.973Z" fill="black"/>
<path fill-rule="evenodd" clip-rule="evenodd" d="M230.436 191.343C230.153 191.608 230.153 192.038 230.436 192.303L233.383 195.069L230.436 197.835C230.153 198.101 230.153 198.531 230.436 198.796C230.718 199.062 231.177 199.062 231.459 198.796L234.919 195.55C235.055 195.423 235.131 195.25 235.131 195.069C235.131 194.889 235.055 194.716 234.919 194.589L231.459 191.343C231.177 191.077 230.718 191.077 230.436 191.343Z" fill="#4D008C"/>
</g>
<path d="M22.0193 244.441L21.4268 245.383C20.781 244.971 20.106 244.765 19.4017 244.765C18.9174 244.765 18.5258 244.863 18.2269 245.059C17.928 245.255 17.7786 245.516 17.7786 245.842C17.7786 246.124 17.9023 246.337 18.1496 246.481C18.3969 246.625 18.7731 246.734 19.2781 246.806L19.7779 246.873C21.3272 247.086 22.1018 247.747 22.1018 248.856C22.1018 249.331 21.9678 249.743 21.6999 250.093C21.4319 250.444 21.0815 250.705 20.6487 250.876C20.2193 251.045 19.7401 251.129 19.2111 251.129C18.6958 251.129 18.1719 251.045 17.6395 250.876C17.1105 250.708 16.6673 250.469 16.3101 250.16L16.9439 249.233C17.1946 249.463 17.5313 249.653 17.9538 249.805C18.3763 249.952 18.7937 250.026 19.2059 250.026C19.6903 250.026 20.0922 249.93 20.4117 249.738C20.7312 249.542 20.8909 249.282 20.8909 248.96C20.8909 248.685 20.7569 248.473 20.489 248.326C20.2245 248.175 19.8174 248.061 19.2678 247.986L18.7061 247.908C18.4794 247.877 18.2664 247.833 18.0672 247.774C17.8714 247.716 17.679 247.634 17.4901 247.527C17.3011 247.421 17.1397 247.297 17.0057 247.156C16.8752 247.012 16.7687 246.833 16.6862 246.62C16.6072 246.407 16.5677 246.172 16.5677 245.914C16.5677 245.447 16.6965 245.04 16.9542 244.693C17.2152 244.346 17.557 244.088 17.9796 243.92C18.4055 243.748 18.883 243.662 19.412 243.662C20.3739 243.662 21.243 243.922 22.0193 244.441ZM24.5201 246.275C24.9255 246.048 25.3789 245.935 25.8805 245.935C26.382 245.935 26.8355 246.048 27.2408 246.275C27.6462 246.498 27.9639 246.809 28.1941 247.208C28.4242 247.603 28.5393 248.044 28.5393 248.532C28.5393 249.02 28.4242 249.463 28.1941 249.861C27.9639 250.256 27.6462 250.567 27.2408 250.794C26.8355 251.017 26.382 251.129 25.8805 251.129C25.3789 251.129 24.9255 251.015 24.5201 250.789C24.1148 250.562 23.797 250.251 23.5669 249.856C23.3402 249.461 23.2268 249.02 23.2268 248.532C23.2268 248.044 23.3402 247.603 23.5669 247.208C23.797 246.813 24.1148 246.502 24.5201 246.275ZM26.9883 247.393C26.6929 247.098 26.3236 246.95 25.8805 246.95C25.4373 246.95 25.068 247.098 24.7726 247.393C24.4806 247.688 24.3346 248.068 24.3346 248.532C24.3346 248.996 24.4806 249.375 24.7726 249.671C25.068 249.966 25.4373 250.114 25.8805 250.114C26.3236 250.114 26.6929 249.966 26.9883 249.671C27.2837 249.375 27.4315 248.996 27.4315 248.532C27.4315 248.068 27.2837 247.688 26.9883 247.393ZM32.459 245.935C33.0465 245.935 33.5274 246.119 33.9018 246.486C34.2763 246.85 34.4635 247.321 34.4635 247.898V251H33.3814V248.254C33.3814 247.841 33.28 247.524 33.0774 247.3C32.8781 247.074 32.5964 246.96 32.2323 246.96C31.8682 246.96 31.5642 247.077 31.3203 247.311C31.0764 247.541 30.9544 247.859 30.9544 248.264V251H29.8723V246.064H30.9441V246.667C31.2773 246.179 31.7823 245.935 32.459 245.935ZM40.1781 243.786V246.816H44.0736V243.786H45.2382V251H44.0736V247.919H40.1781V251H39.0136V243.786H40.1781ZM51.8022 246.064V251H50.7253V250.407C50.3509 250.888 49.8339 251.129 49.1743 251.129C48.477 251.129 47.8913 250.883 47.4172 250.392C46.9432 249.901 46.7061 249.281 46.7061 248.532C46.7061 247.783 46.9432 247.163 47.4172 246.672C47.8913 246.18 48.477 245.935 49.1743 245.935C49.8339 245.935 50.3509 246.177 50.7253 246.661V246.064H51.8022ZM49.3031 246.95C48.8531 246.95 48.4924 247.103 48.2211 247.409C47.9497 247.711 47.814 248.085 47.814 248.532C47.814 248.978 47.9497 249.355 48.2211 249.66C48.4924 249.963 48.8531 250.114 49.3031 250.114C49.7428 250.114 50.1001 249.964 50.3749 249.665C50.6532 249.367 50.7923 248.989 50.7923 248.532C50.7923 248.075 50.6532 247.697 50.3749 247.398C50.1001 247.099 49.7428 246.95 49.3031 246.95ZM55.9917 245.935C56.3112 245.935 56.5877 245.981 56.8213 246.074L56.5636 247.141C56.3335 247.02 56.0604 246.96 55.7444 246.96C55.394 246.96 55.1106 247.079 54.8941 247.316C54.6777 247.549 54.5695 247.872 54.5695 248.284V251H53.4926V246.064H54.5592V246.62C54.8753 246.163 55.3527 245.935 55.9917 245.935ZM59.8218 245.935C60.5123 245.935 61.0722 246.175 61.5016 246.656C61.9345 247.134 62.1526 247.757 62.156 248.527C62.156 248.63 62.1492 248.764 62.1354 248.929H58.4872C58.556 249.351 58.7243 249.667 58.9922 249.877C59.2602 250.083 59.5814 250.186 59.9558 250.186C60.4711 250.186 60.9468 250.012 61.3831 249.665L61.919 250.433C61.3762 250.897 60.6995 251.129 59.8888 251.129C59.1434 251.129 58.5353 250.89 58.0647 250.413C57.5975 249.935 57.3639 249.308 57.3639 248.532C57.3639 247.759 57.5907 247.134 58.0441 246.656C58.501 246.175 59.0936 245.935 59.8218 245.935ZM59.8012 246.893C59.4302 246.893 59.1331 247.003 58.9098 247.223C58.6899 247.439 58.5508 247.735 58.4924 248.109H61.0533C60.9949 247.725 60.8558 247.426 60.636 247.213C60.4195 247 60.1413 246.893 59.8012 246.893ZM64.5682 243.58V247.939H65.1093L66.7376 246.064H68.0927L66.0265 248.388L68.1134 251H66.7479L65.1041 248.918H64.5682V251H63.4862V243.58H64.5682ZM70.9828 245.935C71.6733 245.935 72.2332 246.175 72.6626 246.656C73.0955 247.134 73.3136 247.757 73.317 248.527C73.317 248.63 73.3101 248.764 73.2964 248.929H69.6482C69.7169 249.351 69.8853 249.667 70.1532 249.877C70.4212 250.083 70.7423 250.186 71.1168 250.186C71.6321 250.186 72.1078 250.012 72.5441 249.665L73.08 250.433C72.5372 250.897 71.8605 251.129 71.0498 251.129C70.3044 251.129 69.6963 250.89 69.2257 250.413C68.7585 249.935 68.5249 249.308 68.5249 248.532C68.5249 247.759 68.7517 247.134 69.2051 246.656C69.662 246.175 70.2546 245.935 70.9828 245.935ZM70.9622 246.893C70.5912 246.893 70.2941 247.003 70.0708 247.223C69.8509 247.439 69.7118 247.735 69.6534 248.109H72.2143C72.1559 247.725 72.0168 247.426 71.797 247.213C71.5805 247 71.3023 246.893 70.9622 246.893ZM77.9616 246.064V247.043H76.0705V249.191C76.0705 249.507 76.1427 249.741 76.287 249.892C76.4312 250.04 76.6202 250.114 76.8538 250.114C77.1629 250.114 77.4944 250.002 77.8482 249.779L78.2759 250.639C77.7916 250.966 77.2866 251.129 76.761 251.129C76.1908 251.129 75.7528 250.971 75.447 250.655C75.1413 250.339 74.9885 249.858 74.9885 249.212V247.043H74.0043V246.064H74.9885V244.569H76.0705V246.064H77.9616ZM80.3587 243.58V251H79.2766V243.58H80.3587ZM84.1465 245.935C84.837 245.935 85.397 246.175 85.8264 246.656C86.2592 247.134 86.4773 247.757 86.4808 248.527C86.4808 248.63 86.4739 248.764 86.4601 248.929H82.812C82.8807 249.351 83.049 249.667 83.3169 249.877C83.5849 250.083 83.9061 250.186 84.2805 250.186C84.7958 250.186 85.2716 250.012 85.7078 249.665L86.2437 250.433C85.701 250.897 85.0242 251.129 84.2135 251.129C83.4681 251.129 82.8601 250.89 82.3894 250.413C81.9223 249.935 81.6887 249.308 81.6887 248.532C81.6887 247.759 81.9154 247.134 82.3688 246.656C82.8257 246.175 83.4183 245.935 84.1465 245.935ZM84.1259 246.893C83.7549 246.893 83.4578 247.003 83.2345 247.223C83.0147 247.439 82.8755 247.735 82.8171 248.109H85.3781C85.3197 247.725 85.1805 247.426 84.9607 247.213C84.7443 247 84.466 246.893 84.1259 246.893ZM90.31 245.935C90.6295 245.935 90.906 245.981 91.1396 246.074L90.8819 247.141C90.6518 247.02 90.3787 246.96 90.0627 246.96C89.7123 246.96 89.4289 247.079 89.2124 247.316C88.996 247.549 88.8878 247.872 88.8878 248.284V251H87.8109V246.064H88.8775V246.62C89.1936 246.163 89.671 245.935 90.31 245.935Z" fill="#3D2852"/>
<path d="M222.679 243.817V244.762H220.678V250H219.68V244.762H217.679V243.817H222.679ZM226.962 245.769V248.207C226.962 248.531 226.906 248.818 226.794 249.068C226.685 249.318 226.536 249.519 226.348 249.669C226.162 249.816 225.955 249.926 225.725 250C225.498 250.074 225.257 250.11 225.001 250.11C224.744 250.11 224.501 250.074 224.272 250C224.045 249.926 223.837 249.816 223.649 249.669C223.461 249.519 223.312 249.318 223.203 249.068C223.094 248.818 223.04 248.531 223.04 248.207V245.769H223.967V248.123C223.967 248.509 224.061 248.791 224.25 248.971C224.438 249.151 224.688 249.24 225.001 249.24C225.313 249.24 225.563 249.151 225.751 248.971C225.94 248.791 226.034 248.509 226.034 248.123V245.769H226.962ZM223.653 244.011C223.777 243.884 223.93 243.821 224.113 243.821C224.295 243.821 224.45 243.884 224.577 244.011C224.703 244.138 224.766 244.292 224.766 244.475C224.766 244.657 224.703 244.81 224.577 244.934C224.45 245.058 224.295 245.12 224.113 245.12C223.93 245.12 223.777 245.058 223.653 244.934C223.53 244.81 223.468 244.657 223.468 244.475C223.468 244.292 223.53 244.138 223.653 244.011ZM225.42 244.011C225.544 243.884 225.697 243.821 225.879 243.821C226.062 243.821 226.217 243.884 226.343 244.011C226.47 244.138 226.533 244.292 226.533 244.475C226.533 244.657 226.47 244.81 226.343 244.934C226.217 245.058 226.062 245.12 225.879 245.12C225.697 245.12 225.544 245.058 225.42 244.934C225.296 244.81 225.235 244.657 225.235 244.475C225.235 244.292 225.296 244.138 225.42 244.011ZM233.588 245.658C234.091 245.658 234.504 245.816 234.825 246.131C235.146 246.443 235.306 246.846 235.306 247.341V250H234.379V247.646C234.379 247.293 234.292 247.02 234.118 246.829C233.947 246.634 233.706 246.537 233.394 246.537C233.081 246.537 232.821 246.637 232.612 246.838C232.403 247.035 232.298 247.307 232.298 247.655V250H231.371V247.646C231.371 247.293 231.284 247.02 231.11 246.829C230.939 246.634 230.698 246.537 230.386 246.537C230.074 246.537 229.813 246.637 229.604 246.838C229.395 247.035 229.291 247.307 229.291 247.655V250H228.363V245.769H229.282V246.286C229.567 245.867 230 245.658 230.58 245.658C230.898 245.658 231.184 245.726 231.437 245.862C231.693 245.994 231.895 246.178 232.042 246.414C232.348 245.91 232.864 245.658 233.588 245.658ZM240.591 245.769V248.207C240.591 248.531 240.535 248.818 240.423 249.068C240.314 249.318 240.166 249.519 239.977 249.669C239.792 249.816 239.584 249.926 239.354 250C239.128 250.074 238.886 250.11 238.63 250.11C238.374 250.11 238.131 250.074 237.901 250C237.675 249.926 237.467 249.816 237.279 249.669C237.09 249.519 236.941 249.318 236.833 249.068C236.724 248.818 236.669 248.531 236.669 248.207V245.769H237.597V248.123C237.597 248.509 237.691 248.791 237.879 248.971C238.068 249.151 238.318 249.24 238.63 249.24C238.942 249.24 239.192 249.151 239.381 248.971C239.569 248.791 239.664 248.509 239.664 248.123V245.769H240.591ZM237.283 244.011C237.407 243.884 237.56 243.821 237.742 243.821C237.925 243.821 238.079 243.884 238.206 244.011C238.333 244.138 238.396 244.292 238.396 244.475C238.396 244.657 238.333 244.81 238.206 244.934C238.079 245.058 237.925 245.12 237.742 245.12C237.56 245.12 237.407 245.058 237.283 244.934C237.159 244.81 237.098 244.657 237.098 244.475C237.098 244.292 237.159 244.138 237.283 244.011ZM239.05 244.011C239.173 243.884 239.326 243.821 239.509 243.821C239.692 243.821 239.846 243.884 239.973 244.011C240.099 244.138 240.163 244.292 240.163 244.475C240.163 244.657 240.099 244.81 239.973 244.934C239.846 245.058 239.692 245.12 239.509 245.12C239.326 245.12 239.173 245.058 239.05 244.934C238.926 244.81 238.864 244.657 238.864 244.475C238.864 244.292 238.926 244.138 239.05 244.011ZM242.121 246.502V245.513L245.72 247.191V248.096L242.121 249.775V248.785L244.762 247.646L242.121 246.502ZM247.417 246.502V245.513L251.017 247.191V248.096L247.417 249.775V248.785L250.058 247.646L247.417 246.502Z" fill="#7D8E9F"/>
<rect x="16.0907" y="260.257" width="234.819" height="181.819" rx="6.99306" fill="white"/>
<rect x="16.0907" y="260.257" width="234.819" height="181.819" rx="6.99306" stroke="#EEF0F4" stroke-width="0.736111"/>
</g>
</g>
<defs>
<filter id="filter0_d_167_6291" x="-17.1754" y="113.216" width="301.605" height="179.571" filterUnits="userSpaceOnUse" color-interpolation-filters="sRGB">
<feFlood flood-opacity="0" result="BackgroundImageFix"/>
<feColorMatrix in="SourceAlpha" type="matrix" values="0 0 0 0 0 0 0 0 0 0 0 0 0 0 0 0 0 0 127 0" result="hardAlpha"/>
<feOffset dy="10.1053"/>
<feGaussianBlur stdDeviation="13.2146"/>
<feComposite in2="hardAlpha" operator="out"/>
<feColorMatrix type="matrix" values="0 0 0 0 0.703958 0 0 0 0 0.712133 0 0 0 0 0.908333 0 0 0 0.3 0"/>
<feBlend mode="normal" in2="BackgroundImageFix" result="effect1_dropShadow_167_6291"/>
<feBlend mode="normal" in="SourceGraphic" in2="effect1_dropShadow_167_6291" result="shape"/>
</filter>
<filter id="filter1_d_167_6291" x="-8.18403" y="90.5417" width="286.501" height="168.569" filterUnits="userSpaceOnUse" color-interpolation-filters="sRGB">
<feFlood flood-opacity="0" result="BackgroundImageFix"/>
<feColorMatrix in="SourceAlpha" type="matrix" values="0 0 0 0 0 0 0 0 0 0 0 0 0 0 0 0 0 0 127 0" result="hardAlpha"/>
<feOffset dy="9.56944"/>
<feGaussianBlur stdDeviation="12.5139"/>
<feComposite in2="hardAlpha" operator="out"/>
<feColorMatrix type="matrix" values="0 0 0 0 0.703958 0 0 0 0 0.712133 0 0 0 0 0.908333 0 0 0 0.3 0"/>
<feBlend mode="normal" in2="BackgroundImageFix" result="effect1_dropShadow_167_6291"/>
<feBlend mode="normal" in="SourceGraphic" in2="effect1_dropShadow_167_6291" result="shape"/>
</filter>
<linearGradient id="paint0_linear_167_6291" x1="132.479" y1="0" x2="132.479" y2="194.333" gradientUnits="userSpaceOnUse">
<stop stop-color="#220C45"/>
<stop offset="1" stop-color="#440E85"/>
</linearGradient>
<linearGradient id="paint1_linear_167_6291" x1="133" y1="0" x2="133" y2="194" gradientUnits="userSpaceOnUse">
<stop stop-color="#220C45"/>
<stop offset="1" stop-color="#440E85"/>
</linearGradient>
<clipPath id="clip0_167_6291">
<rect x="0.986328" y="0.574219" width="264.959" height="568.773" rx="39.6818" fill="white"/>
</clipPath>
<clipPath id="clip1_167_6291">
<rect width="264.959" height="194.333" fill="white" transform="translate(0.986328 0.574219)"/>
</clipPath>
<clipPath id="clip2_167_6291">
<rect width="265" height="588.889" fill="white" transform="translate(1 -29)"/>
</clipPath>
</defs>
</svg>
