<svg viewBox="0 0 534 422" fill="none" xmlns="http://www.w3.org/2000/svg">
<g clip-path="url(#clip0_0_1)">
<path d="M558 144H8C3.58172 144 0 147.582 0 152V456C0 460.418 3.58172 464 8 464H558C562.418 464 566 460.418 566 456V152C566 147.582 562.418 144 558 144Z" fill="#ECEEF2"/>
<path d="M30.055 173.2L33.926 183H32.225L31.259 180.501H26.821L25.855 183H24.21L28.081 173.2H30.055ZM29.04 174.775L27.402 179.003H30.678L29.04 174.775ZM38.7929 176.119C39.5909 176.119 40.2442 176.369 40.7529 176.868C41.2615 177.363 41.5159 178.002 41.5159 178.786V183H40.0459V179.269C40.0459 178.709 39.9082 178.277 39.6329 177.974C39.3622 177.666 38.9795 177.512 38.4849 177.512C37.9902 177.512 37.5772 177.671 37.2459 177.988C36.9145 178.301 36.7489 178.732 36.7489 179.283V183H35.2789V176.294H36.7349V177.113C37.1875 176.45 37.8735 176.119 38.7929 176.119ZM45.2118 172.92V183H43.7418V172.92H45.2118ZM48.9715 176.294V183H47.5015V176.294H48.9715ZM52.7313 172.92V178.842H53.4663L55.6783 176.294H57.5193L54.7123 179.451L57.5473 183H55.6923L53.4593 180.172H52.7313V183H51.2613V172.92H52.7313ZM70.8338 173.2L67.0958 183H65.1218L61.3838 173.2H63.0708L66.1228 181.397L69.1958 173.2H70.8338ZM74.2149 176.119C75.1529 176.119 75.9136 176.446 76.4969 177.099C77.0849 177.748 77.3813 178.595 77.3859 179.64C77.3859 179.78 77.3766 179.962 77.3579 180.186H72.4019C72.4953 180.76 72.7239 181.189 73.0879 181.474C73.4519 181.754 73.8883 181.894 74.3969 181.894C75.0969 181.894 75.7433 181.658 76.3359 181.187L77.0639 182.23C76.3266 182.86 75.4073 183.175 74.3059 183.175C73.2933 183.175 72.4673 182.851 71.8279 182.202C71.1933 181.553 70.8759 180.702 70.8759 179.647C70.8759 178.597 71.1839 177.748 71.7999 177.099C72.4206 176.446 73.2256 176.119 74.2149 176.119ZM74.1869 177.421C73.6829 177.421 73.2793 177.57 72.9759 177.869C72.6773 178.163 72.4883 178.564 72.4089 179.073H75.8879C75.8086 178.55 75.6196 178.144 75.3209 177.855C75.0269 177.566 74.6489 177.421 74.1869 177.421ZM82.5879 176.119C83.0219 176.119 83.3976 176.182 83.7149 176.308L83.3649 177.757C83.0523 177.594 82.6813 177.512 82.2519 177.512C81.7759 177.512 81.3909 177.673 81.0969 177.995C80.8029 178.312 80.6559 178.751 80.6559 179.311V183H79.1929V176.294H80.6419V177.05C81.0713 176.429 81.7199 176.119 82.5879 176.119ZM86.6785 176.294V183H85.2085V176.294H86.6785ZM85.2085 173.242C85.4045 173.041 85.6472 172.941 85.9365 172.941C86.2259 172.941 86.4709 173.041 86.6715 173.242C86.8722 173.443 86.9725 173.688 86.9725 173.977C86.9725 174.266 86.8722 174.509 86.6715 174.705C86.4709 174.901 86.2259 174.999 85.9365 174.999C85.6472 174.999 85.4045 174.901 85.2085 174.705C85.0125 174.509 84.9145 174.266 84.9145 173.977C84.9145 173.688 85.0125 173.443 85.2085 173.242ZM90.4383 172.92V183H88.9683V172.92H90.4383ZM95.5841 176.119C96.5221 176.119 97.2827 176.446 97.8661 177.099C98.4541 177.748 98.7504 178.595 98.7551 179.64C98.7551 179.78 98.7457 179.962 98.7271 180.186H93.7711C93.8644 180.76 94.0931 181.189 94.4571 181.474C94.8211 181.754 95.2574 181.894 95.7661 181.894C96.4661 181.894 97.1124 181.658 97.7051 181.187L98.4331 182.23C97.6957 182.86 96.7764 183.175 95.6751 183.175C94.6624 183.175 93.8364 182.851 93.1971 182.202C92.5624 181.553 92.2451 180.702 92.2451 179.647C92.2451 178.597 92.5531 177.748 93.1691 177.099C93.7897 176.446 94.5947 176.119 95.5841 176.119ZM95.5561 177.421C95.0521 177.421 94.6484 177.57 94.3451 177.869C94.0464 178.163 93.8574 178.564 93.7781 179.073H97.2571C97.1777 178.55 96.9887 178.144 96.6901 177.855C96.3961 177.566 96.0181 177.421 95.5561 177.421ZM103.957 176.119C104.391 176.119 104.767 176.182 105.084 176.308L104.734 177.757C104.421 177.594 104.05 177.512 103.621 177.512C103.145 177.512 102.76 177.673 102.466 177.995C102.172 178.312 102.025 178.751 102.025 179.311V183H100.562V176.294H102.011V177.05C102.44 176.429 103.089 176.119 103.957 176.119Z" fill="#210B44"/>
<path d="M130.5 164V198" stroke="#E6E9EE"/>
<path d="M155.026 167.6H148.24V168.602H151.108V176H152.164V168.602H155.026V167.6ZM157.923 170.18C156.195 170.18 154.911 171.458 154.911 173.15C154.911 174.842 156.195 176.12 157.923 176.12C159.651 176.12 160.941 174.842 160.941 173.15C160.941 171.458 159.651 170.18 157.923 170.18ZM157.923 171.104C159.063 171.104 159.933 171.956 159.933 173.15C159.933 174.344 159.063 175.202 157.923 175.202C156.777 175.202 155.913 174.344 155.913 173.15C155.913 171.956 156.777 171.104 157.923 171.104ZM165.573 170.18C164.673 170.18 164.007 170.528 163.563 171.062V170.3H162.585V178.4H163.563V175.238C164.007 175.772 164.673 176.12 165.573 176.12C167.169 176.12 168.423 174.872 168.423 173.15C168.423 171.428 167.169 170.18 165.573 170.18ZM165.459 171.104C166.623 171.104 167.415 172.016 167.415 173.15C167.415 174.284 166.641 175.202 165.459 175.202C164.307 175.202 163.503 174.32 163.503 173.15C163.503 171.986 164.307 171.104 165.459 171.104ZM171.039 167.36H170.061V176H171.039V167.36ZM178.532 170.3H177.548V171.068C177.098 170.528 176.432 170.18 175.538 170.18C173.936 170.18 172.688 171.428 172.688 173.15C172.688 174.872 173.936 176.12 175.538 176.12C176.432 176.12 177.098 175.772 177.548 175.238V176H178.532V170.3ZM175.652 171.104C176.804 171.104 177.608 171.986 177.608 173.15C177.608 174.32 176.804 175.202 175.652 175.202C174.482 175.202 173.69 174.284 173.69 173.15C173.69 172.016 174.464 171.104 175.652 171.104ZM187.676 170.18C186.902 170.18 186.02 170.462 185.552 171.326C185.174 170.612 184.412 170.18 183.446 170.18C182.786 170.18 182.048 170.402 181.58 171.044V170.3H180.608V176H181.586V172.802C181.586 171.74 182.354 171.11 183.272 171.11C184.262 171.11 184.838 171.728 184.838 172.778V176H185.822V172.802C185.822 171.764 186.56 171.11 187.502 171.11C188.492 171.11 189.068 171.728 189.068 172.778V176H190.052V172.46C190.052 171.092 189.086 170.18 187.676 170.18ZM196.258 167.36H195.28V176H196.258V172.802C196.258 171.74 197.026 171.11 197.944 171.11C198.934 171.11 199.51 171.728 199.51 172.778V176H200.494V172.46C200.494 171.092 199.522 170.18 198.118 170.18C197.458 170.18 196.726 170.396 196.258 171.038V167.36ZM207.923 170.3H206.939V171.068C206.489 170.528 205.823 170.18 204.929 170.18C203.327 170.18 202.079 171.428 202.079 173.15C202.079 174.872 203.327 176.12 204.929 176.12C205.823 176.12 206.489 175.772 206.939 175.238V176H207.923V170.3ZM205.043 171.104C206.195 171.104 206.999 171.986 206.999 173.15C206.999 174.32 206.195 175.202 205.043 175.202C203.873 175.202 203.081 174.284 203.081 173.15C203.081 172.016 203.855 171.104 205.043 171.104ZM212.633 170.18C211.955 170.18 211.361 170.492 210.965 171.05V170.3H209.999V176H210.977V172.826C210.977 171.776 211.589 171.11 212.459 171.11C212.783 171.11 213.167 171.188 213.437 171.332L213.677 170.366C213.371 170.234 213.041 170.18 212.633 170.18ZM217.318 170.18C215.554 170.18 214.36 171.458 214.36 173.15C214.36 174.842 215.554 176.12 217.318 176.12C218.164 176.12 218.92 175.808 219.436 175.226L218.83 174.548C218.434 174.932 217.9 175.202 217.294 175.202C216.196 175.202 215.362 174.344 215.362 173.15C215.362 171.956 216.196 171.104 217.294 171.104C217.9 171.104 218.386 171.338 218.806 171.746L219.436 171.08C218.926 170.492 218.164 170.18 217.318 170.18ZM226.251 170.3H225.267V171.068C224.817 170.528 224.151 170.18 223.257 170.18C221.655 170.18 220.407 171.428 220.407 173.15C220.407 174.872 221.655 176.12 223.257 176.12C224.151 176.12 224.817 175.772 225.267 175.238V176H226.251V170.3ZM223.371 171.104C224.523 171.104 225.327 171.986 225.327 173.15C225.327 174.32 224.523 175.202 223.371 175.202C222.201 175.202 221.409 174.284 221.409 173.15C221.409 172.016 222.183 171.104 223.371 171.104ZM235.395 170.18C234.621 170.18 233.739 170.462 233.271 171.326C232.893 170.612 232.131 170.18 231.165 170.18C230.505 170.18 229.767 170.402 229.299 171.044V170.3H228.327V176H229.305V172.802C229.305 171.74 230.073 171.11 230.991 171.11C231.981 171.11 232.557 171.728 232.557 172.778V176H233.541V172.802C233.541 171.764 234.279 171.11 235.221 171.11C236.211 171.11 236.787 171.728 236.787 172.778V176H237.771V172.46C237.771 171.092 236.805 170.18 235.395 170.18ZM245.2 170.3H244.216V171.068C243.766 170.528 243.1 170.18 242.206 170.18C240.604 170.18 239.356 171.428 239.356 173.15C239.356 174.872 240.604 176.12 242.206 176.12C243.1 176.12 243.766 175.772 244.216 175.238V176H245.2V170.3ZM242.32 171.104C243.472 171.104 244.276 171.986 244.276 173.15C244.276 174.32 243.472 175.202 242.32 175.202C241.15 175.202 240.358 174.284 240.358 173.15C240.358 172.016 241.132 171.104 242.32 171.104ZM153.256 184.624L148.416 186.576V188.752L151.096 187.664V196H153.256V184.624ZM156.787 193.096C155.955 193.096 155.227 193.808 155.227 194.64C155.227 195.48 155.955 196.2 156.787 196.2C157.611 196.2 158.331 195.48 158.331 194.64C158.331 193.808 157.611 193.096 156.787 193.096ZM163.24 184.6C161.456 184.6 160.24 185.344 159.504 186.336L160.864 187.704C161.32 187.104 162.088 186.568 163.128 186.568C164.168 186.568 164.984 187.064 164.984 187.968C164.984 188.912 164.112 189.392 163.024 189.392H161.712V191.312H163.016C164.224 191.312 165.208 191.816 165.208 192.776C165.208 193.76 164.336 194.232 163.248 194.232C162.288 194.232 161.352 193.84 160.704 193.16L159.416 194.576C160.264 195.6 161.648 196.2 163.328 196.2C165.448 196.2 167.456 195.136 167.456 192.928C167.456 191.72 166.712 190.824 165.536 190.36C166.576 189.872 167.208 189 167.208 187.816C167.208 185.88 165.6 184.6 163.24 184.6ZM176.124 184.8H169.684L169.564 191H172.228C173.98 191 174.508 191.736 174.508 192.576C174.508 193.464 173.892 194.2 172.644 194.2C171.612 194.2 170.516 193.68 169.908 193.016L168.692 194.528C169.62 195.576 170.988 196.2 172.66 196.2C174.924 196.2 176.748 194.824 176.748 192.416C176.748 190.544 175.436 189.048 172.828 189.048H171.54L171.588 186.808H176.124V184.8ZM182.564 184.6C180.3 184.6 178.46 185.8 178.46 187.816C178.46 189.104 179.196 189.904 180.164 190.352C179.06 190.784 178.188 191.584 178.188 192.952C178.188 194.992 180.156 196.2 182.564 196.2C184.972 196.2 186.94 194.992 186.94 192.952C186.94 191.584 186.06 190.784 184.956 190.352C185.924 189.904 186.668 189.104 186.668 187.816C186.668 185.8 184.828 184.6 182.564 184.6ZM182.564 191.232C183.676 191.232 184.612 191.768 184.612 192.768C184.612 193.752 183.676 194.272 182.564 194.272C181.444 194.272 180.516 193.752 180.516 192.768C180.516 191.768 181.444 191.232 182.564 191.232ZM182.564 186.552C183.564 186.552 184.372 187.056 184.372 187.984C184.372 188.944 183.564 189.456 182.564 189.456C181.564 189.456 180.756 188.944 180.756 187.984C180.756 187.056 181.564 186.552 182.564 186.552ZM188.849 193.472L188.313 198.24H190.073L191.193 193.472H188.849ZM193.834 187.896C194.41 187.24 195.042 186.664 196.106 186.664C197.138 186.664 197.818 187.36 197.818 188.336C197.818 189.04 197.49 189.656 196.898 190.256L192.938 194.312V196H200.338V193.976H196.058L198.45 191.488C199.37 190.536 200.066 189.584 200.066 188.216C200.066 186.072 198.61 184.6 196.266 184.6C194.186 184.6 193.05 185.736 192.442 186.528L193.834 187.896ZM206.209 184.624L201.369 186.576V188.752L204.049 187.664V196H206.209V184.624Z" fill="#210B44"/>
<path d="M274.25 167.6H273.194V176H274.25V167.6ZM273.626 165.32C273.218 165.32 272.906 165.638 272.906 166.052C272.906 166.454 273.218 166.76 273.626 166.76C274.028 166.76 274.352 166.454 274.352 166.052C274.352 165.638 274.028 165.32 273.626 165.32ZM280.749 170.804C280.197 170.426 279.375 170.186 278.475 170.186C277.089 170.186 276.183 170.846 276.183 171.938C276.183 172.802 276.801 173.378 278.079 173.534L278.739 173.612C279.513 173.708 279.885 173.972 279.885 174.392C279.885 174.956 279.309 175.262 278.373 175.262C277.419 175.262 276.849 174.986 276.423 174.656L275.967 175.388C276.609 175.874 277.395 176.06 278.049 176.108L277.443 177.932H278.469L279.051 176.066C280.203 175.892 280.893 175.25 280.893 174.332C280.893 173.39 280.179 172.88 278.967 172.718L278.307 172.634C277.617 172.55 277.203 172.34 277.203 171.884C277.203 171.368 277.707 171.038 278.487 171.038C279.237 171.038 279.963 171.32 280.323 171.566L280.749 170.804ZM283.426 167.36H282.448V176H283.426V167.36ZM287.907 170.18C286.269 170.18 285.075 171.398 285.075 173.15C285.075 174.926 286.275 176.12 287.967 176.12C288.807 176.12 289.599 175.916 290.307 175.256L289.785 174.584C289.299 175.004 288.693 175.262 288.027 175.262C287.049 175.262 286.227 174.68 286.089 173.498H290.571C290.577 173.39 290.589 173.258 290.589 173.132C290.577 171.386 289.461 170.18 287.907 170.18ZM287.889 171.05C288.813 171.05 289.467 171.698 289.587 172.706H286.101C286.251 171.734 286.881 171.05 287.889 171.05ZM299.301 170.18C298.527 170.18 297.645 170.462 297.177 171.326C296.799 170.612 296.037 170.18 295.071 170.18C294.411 170.18 293.673 170.402 293.205 171.044V170.3H292.233V176H293.211V172.802C293.211 171.74 293.979 171.11 294.897 171.11C295.887 171.11 296.463 171.728 296.463 172.778V176H297.447V172.802C297.447 171.764 298.185 171.11 299.127 171.11C300.117 171.11 300.693 171.728 300.693 172.778V176H301.677V172.46C301.677 171.092 300.711 170.18 299.301 170.18ZM310.629 167.6H309.315L305.901 176H306.999L307.917 173.708H311.991L312.915 176H314.049L310.629 167.6ZM309.957 168.644L311.589 172.706H308.319L309.957 168.644ZM317.667 170.18C316.065 170.18 314.817 171.428 314.817 173.15C314.817 174.872 316.065 176.12 317.667 176.12C318.561 176.12 319.227 175.772 319.677 175.238V176H320.661V167.36H319.677V171.068C319.227 170.528 318.561 170.18 317.667 170.18ZM317.781 171.104C318.933 171.104 319.737 171.986 319.737 173.15C319.737 174.32 318.933 175.202 317.781 175.202C316.611 175.202 315.819 174.284 315.819 173.15C315.819 172.016 316.593 171.104 317.781 171.104ZM325.137 170.18C323.499 170.18 322.305 171.398 322.305 173.15C322.305 174.926 323.505 176.12 325.197 176.12C326.037 176.12 326.829 175.916 327.537 175.256L327.015 174.584C326.529 175.004 325.923 175.262 325.257 175.262C324.279 175.262 323.457 174.68 323.319 173.498H327.801C327.807 173.39 327.819 173.258 327.819 173.132C327.807 171.386 326.691 170.18 325.137 170.18ZM325.119 171.05C326.043 171.05 326.697 171.698 326.817 172.706H323.331C323.481 171.734 324.111 171.05 325.119 171.05ZM331.882 170.18C330.28 170.18 329.032 171.428 329.032 173.15C329.032 174.872 330.28 176.12 331.882 176.12C332.776 176.12 333.442 175.772 333.892 175.238V176H334.876V167.36H333.892V171.068C333.442 170.528 332.776 170.18 331.882 170.18ZM331.996 171.104C333.148 171.104 333.952 171.986 333.952 173.15C333.952 174.32 333.148 175.202 331.996 175.202C330.826 175.202 330.034 174.284 330.034 173.15C330.034 172.016 330.808 171.104 331.996 171.104ZM337.93 170.3H336.952V176H337.93V170.3ZM337.432 167.594C337.042 167.594 336.742 167.9 336.742 168.296C336.742 168.686 337.042 168.98 337.432 168.98C337.822 168.98 338.134 168.686 338.134 168.296C338.134 167.9 337.822 167.594 337.432 167.594ZM277.072 184.624V196H275.336V187.144L272.488 188.368V186.56L277.072 184.624ZM280.497 187.504L279.257 186.48C279.385 186.304 279.513 186.144 279.641 186C279.769 185.856 279.942 185.693 280.161 185.512C280.385 185.331 280.617 185.179 280.857 185.056C281.097 184.928 281.39 184.821 281.737 184.736C282.084 184.651 282.449 184.608 282.833 184.608C283.974 184.608 284.878 184.941 285.545 185.608C286.212 186.269 286.545 187.136 286.545 188.208C286.545 188.544 286.502 188.867 286.417 189.176C286.332 189.485 286.209 189.773 286.049 190.04C285.889 190.307 285.734 190.536 285.585 190.728C285.441 190.915 285.265 191.12 285.057 191.344L282.249 194.352H286.849V196H279.681V194.64L283.729 190.336C284.396 189.616 284.729 188.904 284.729 188.2C284.729 187.629 284.553 187.165 284.201 186.808C283.849 186.445 283.377 186.264 282.785 186.264C282.428 186.264 282.1 186.325 281.801 186.448C281.508 186.571 281.27 186.712 281.089 186.872C280.908 187.032 280.71 187.243 280.497 187.504ZM294.651 189.168V192.176H296.363V193.824H294.651V196H292.915V193.824H287.915V192.488L292.107 184.816H294.075L290.003 192.176H292.915V189.168H294.651Z" fill="#210B44"/>
<path d="M28.3867 217.119C27.7447 217.119 27.1978 216.945 26.7461 216.595C26.2944 216.243 25.9492 215.733 25.7106 215.065C25.4719 214.395 25.3526 213.585 25.3526 212.636C25.3526 211.693 25.4719 210.888 25.7106 210.22C25.9521 209.55 26.2987 209.038 26.7504 208.686C27.2049 208.331 27.7504 208.153 28.3867 208.153C29.0231 208.153 29.5671 208.331 30.0188 208.686C30.4734 209.038 30.82 209.55 31.0586 210.22C31.3001 210.888 31.4208 211.693 31.4208 212.636C31.4208 213.585 31.3015 214.395 31.0629 215.065C30.8242 215.733 30.479 216.243 30.0273 216.595C29.5756 216.945 29.0288 217.119 28.3867 217.119ZM28.3867 216.182C29.0231 216.182 29.5174 215.875 29.8697 215.261C30.2219 214.648 30.3981 213.773 30.3981 212.636C30.3981 211.881 30.3171 211.237 30.1552 210.706C29.9961 210.175 29.766 209.77 29.4648 209.492C29.1665 209.213 28.8072 209.074 28.3867 209.074C27.756 209.074 27.2631 209.385 26.908 210.007C26.5529 210.626 26.3754 211.503 26.3754 212.636C26.3754 213.392 26.4549 214.034 26.614 214.563C26.7731 215.091 27.0018 215.493 27.3001 215.769C27.6012 216.044 27.9634 216.182 28.3867 216.182ZM35.8185 208.153C36.1765 208.156 36.5344 208.224 36.8924 208.358C37.2504 208.492 37.5771 208.713 37.8725 209.023C38.168 209.329 38.4052 209.749 38.5842 210.28C38.7631 210.811 38.8526 211.477 38.8526 212.278C38.8526 213.054 38.7788 213.743 38.631 214.345C38.4862 214.945 38.2759 215.45 38.0004 215.862C37.7276 216.274 37.3952 216.587 37.0032 216.8C36.614 217.013 36.1737 217.119 35.6822 217.119C35.1935 217.119 34.7575 217.023 34.3739 216.829C33.9933 216.633 33.6808 216.362 33.4364 216.016C33.195 215.666 33.0401 215.261 32.9719 214.801H34.0117C34.1055 215.202 34.2915 215.533 34.57 215.794C34.8512 216.053 35.2219 216.182 35.6822 216.182C36.3555 216.182 36.8867 215.888 37.2759 215.3C37.668 214.712 37.864 213.881 37.864 212.807H37.7958C37.6367 213.046 37.4478 213.251 37.229 213.425C37.0103 213.598 36.7674 213.732 36.5004 213.825C36.2333 213.919 35.9492 213.966 35.6481 213.966C35.1481 213.966 34.6893 213.842 34.2717 213.595C33.8569 213.345 33.5245 213.003 33.2745 212.568C33.0273 212.131 32.9038 211.631 32.9038 211.068C32.9038 210.534 33.0231 210.046 33.2617 209.602C33.5032 209.156 33.8413 208.801 34.2759 208.537C34.7134 208.273 35.2276 208.145 35.8185 208.153ZM35.8185 209.091C35.4606 209.091 35.1381 209.18 34.8512 209.359C34.5671 209.535 34.3413 209.774 34.1737 210.075C34.0089 210.374 33.9265 210.704 33.9265 211.068C33.9265 211.432 34.006 211.763 34.1651 212.061C34.3271 212.356 34.5472 212.592 34.8256 212.769C35.1069 212.942 35.4265 213.028 35.7844 213.028C36.0543 213.028 36.3058 212.976 36.5387 212.871C36.7717 212.763 36.9748 212.617 37.1481 212.432C37.3242 212.244 37.462 212.033 37.5614 211.797C37.6609 211.558 37.7106 211.31 37.7106 211.051C37.7106 210.71 37.6282 210.391 37.4634 210.092C37.3015 209.794 37.0771 209.553 36.7901 209.368C36.506 209.183 36.1822 209.091 35.8185 209.091ZM44.0568 217V208.273H49.2898V209.21H45.1136V212.159H48.8977V213.097H45.1136V217H44.0568ZM53.2273 217.136C52.5966 217.136 52.0526 216.997 51.5952 216.719C51.1406 216.438 50.7898 216.046 50.5426 215.543C50.2983 215.037 50.1761 214.449 50.1761 213.778C50.1761 213.108 50.2983 212.517 50.5426 212.006C50.7898 211.491 51.1335 211.091 51.5739 210.804C52.017 210.514 52.5341 210.369 53.125 210.369C53.4659 210.369 53.8026 210.426 54.1349 210.54C54.4673 210.653 54.7699 210.838 55.0426 211.094C55.3153 211.347 55.5327 211.682 55.6946 212.099C55.8565 212.517 55.9375 213.031 55.9375 213.642V214.068H50.892V213.199H54.9148C54.9148 212.829 54.8409 212.5 54.6932 212.21C54.5483 211.92 54.3409 211.692 54.071 211.524C53.804 211.357 53.4886 211.273 53.125 211.273C52.7244 211.273 52.3778 211.372 52.0852 211.571C51.7955 211.767 51.5724 212.023 51.4162 212.338C51.2599 212.653 51.1818 212.992 51.1818 213.352V213.932C51.1818 214.426 51.267 214.845 51.4375 215.189C51.6108 215.53 51.8509 215.79 52.1577 215.969C52.4645 216.145 52.821 216.233 53.2273 216.233C53.4915 216.233 53.7301 216.196 53.9432 216.122C54.1591 216.046 54.3452 215.932 54.5014 215.781C54.6577 215.628 54.7784 215.437 54.8636 215.21L55.8352 215.483C55.733 215.813 55.5611 216.102 55.3196 216.352C55.0781 216.599 54.7798 216.793 54.4247 216.932C54.0696 217.068 53.6705 217.136 53.2273 217.136ZM57.6037 217V208.273H58.6094V211.494H58.6946C58.7685 211.381 58.8707 211.236 59.0014 211.06C59.1349 210.881 59.3253 210.722 59.5724 210.582C59.8224 210.44 60.1605 210.369 60.5866 210.369C61.1378 210.369 61.6236 210.507 62.044 210.783C62.4645 211.058 62.7926 211.449 63.0284 211.954C63.2642 212.46 63.3821 213.057 63.3821 213.744C63.3821 214.438 63.2642 215.038 63.0284 215.547C62.7926 216.053 62.4659 216.445 62.0483 216.723C61.6307 216.999 61.1491 217.136 60.6037 217.136C60.1832 217.136 59.8466 217.067 59.5938 216.928C59.3409 216.785 59.1463 216.625 59.0099 216.446C58.8736 216.264 58.7685 216.114 58.6946 215.994H58.5753V217H57.6037ZM58.5923 213.727C58.5923 214.222 58.6648 214.658 58.8097 215.036C58.9545 215.411 59.1662 215.705 59.4446 215.918C59.723 216.128 60.0639 216.233 60.4673 216.233C60.8878 216.233 61.2386 216.122 61.5199 215.901C61.804 215.676 62.017 215.375 62.1591 214.997C62.304 214.617 62.3764 214.193 62.3764 213.727C62.3764 213.267 62.3054 212.852 62.1634 212.483C62.0241 212.111 61.8125 211.817 61.5284 211.601C61.2472 211.382 60.8935 211.273 60.4673 211.273C60.0582 211.273 59.7145 211.376 59.4361 211.584C59.1577 211.788 58.9474 212.075 58.8054 212.445C58.6634 212.811 58.5923 213.239 58.5923 213.727Z" fill="#7D8E9F"/>
<path d="M28.4805 264.119C27.8384 264.119 27.2915 263.945 26.8398 263.595C26.3881 263.243 26.043 262.733 25.8043 262.065C25.5657 261.395 25.4464 260.585 25.4464 259.636C25.4464 258.693 25.5657 257.888 25.8043 257.22C26.0458 256.55 26.3924 256.038 26.8441 255.686C27.2987 255.331 27.8441 255.153 28.4805 255.153C29.1168 255.153 29.6609 255.331 30.1126 255.686C30.5671 256.038 30.9137 256.55 31.1523 257.22C31.3938 257.888 31.5146 258.693 31.5146 259.636C31.5146 260.585 31.3952 261.395 31.1566 262.065C30.918 262.733 30.5728 263.243 30.1211 263.595C29.6694 263.945 29.1225 264.119 28.4805 264.119ZM28.4805 263.182C29.1168 263.182 29.6112 262.875 29.9634 262.261C30.3157 261.648 30.4918 260.773 30.4918 259.636C30.4918 258.881 30.4109 258.237 30.2489 257.706C30.0898 257.175 29.8597 256.77 29.5586 256.491C29.2603 256.213 28.9009 256.074 28.4805 256.074C27.8498 256.074 27.3569 256.385 27.0018 257.007C26.6467 257.626 26.4691 258.503 26.4691 259.636C26.4691 260.392 26.5487 261.034 26.7077 261.562C26.8668 262.091 27.0955 262.493 27.3938 262.768C27.695 263.044 28.0572 263.182 28.4805 263.182ZM35.9293 264.119C35.3441 264.119 34.8271 264.016 34.3782 263.808C33.9322 263.598 33.5842 263.31 33.3342 262.943C33.0842 262.574 32.9606 262.153 32.9634 261.682C32.9606 261.312 33.033 260.972 33.1808 260.659C33.3285 260.344 33.5302 260.081 33.7859 259.871C34.0444 259.658 34.3327 259.523 34.6509 259.466V259.415C34.2333 259.307 33.9009 259.072 33.6538 258.712C33.4066 258.348 33.2844 257.935 33.2873 257.472C33.2844 257.028 33.3967 256.632 33.6239 256.283C33.8512 255.933 34.1637 255.658 34.5614 255.456C34.962 255.254 35.418 255.153 35.9293 255.153C36.435 255.153 36.8867 255.254 37.2844 255.456C37.6822 255.658 37.9947 255.933 38.2219 256.283C38.4521 256.632 38.5685 257.028 38.5714 257.472C38.5685 257.935 38.4421 258.348 38.1921 258.712C37.945 259.072 37.6168 259.307 37.2077 259.415V259.466C37.5231 259.523 37.8072 259.658 38.06 259.871C38.3129 260.081 38.5146 260.344 38.6651 260.659C38.8157 260.972 38.8924 261.312 38.8952 261.682C38.8924 262.153 38.7646 262.574 38.5117 262.943C38.2617 263.31 37.9137 263.598 37.4677 263.808C37.0245 264.016 36.5117 264.119 35.9293 264.119ZM35.9293 263.182C36.3242 263.182 36.6651 263.118 36.9521 262.99C37.239 262.862 37.4606 262.682 37.6168 262.449C37.7731 262.216 37.8526 261.943 37.8555 261.631C37.8526 261.301 37.7674 261.01 37.5998 260.757C37.4322 260.504 37.2035 260.305 36.9137 260.161C36.6268 260.016 36.2987 259.943 35.9293 259.943C35.5572 259.943 35.2248 260.016 34.9322 260.161C34.6424 260.305 34.4137 260.504 34.2461 260.757C34.0813 261.01 34.0004 261.301 34.0032 261.631C34.0004 261.943 34.0756 262.216 34.229 262.449C34.3853 262.682 34.6083 262.862 34.8981 262.99C35.1879 263.118 35.5316 263.182 35.9293 263.182ZM35.9293 259.04C36.2418 259.04 36.5188 258.977 36.7603 258.852C37.0046 258.727 37.1964 258.553 37.3356 258.328C37.4748 258.104 37.5458 257.841 37.5487 257.54C37.5458 257.244 37.4762 256.987 37.3398 256.768C37.2035 256.547 37.0146 256.376 36.7731 256.257C36.5316 256.135 36.2504 256.074 35.9293 256.074C35.6026 256.074 35.3171 256.135 35.0728 256.257C34.8285 256.376 34.6396 256.547 34.506 256.768C34.3725 256.987 34.3072 257.244 34.31 257.54C34.3072 257.841 34.3739 258.104 34.5103 258.328C34.6495 258.553 34.8413 258.727 35.0856 258.852C35.3299 258.977 35.6112 259.04 35.9293 259.04ZM44.0568 264V255.273H49.2898V256.21H45.1136V259.159H48.8977V260.097H45.1136V264H44.0568ZM53.2273 264.136C52.5966 264.136 52.0526 263.997 51.5952 263.719C51.1406 263.438 50.7898 263.045 50.5426 262.543C50.2983 262.037 50.1761 261.449 50.1761 260.778C50.1761 260.108 50.2983 259.517 50.5426 259.006C50.7898 258.491 51.1335 258.091 51.5739 257.804C52.017 257.514 52.5341 257.369 53.125 257.369C53.4659 257.369 53.8026 257.426 54.1349 257.54C54.4673 257.653 54.7699 257.838 55.0426 258.094C55.3153 258.347 55.5327 258.682 55.6946 259.099C55.8565 259.517 55.9375 260.031 55.9375 260.642V261.068H50.892V260.199H54.9148C54.9148 259.83 54.8409 259.5 54.6932 259.21C54.5483 258.92 54.3409 258.692 54.071 258.524C53.804 258.357 53.4886 258.273 53.125 258.273C52.7244 258.273 52.3778 258.372 52.0852 258.571C51.7955 258.767 51.5724 259.023 51.4162 259.338C51.2599 259.653 51.1818 259.991 51.1818 260.352V260.932C51.1818 261.426 51.267 261.845 51.4375 262.189C51.6108 262.53 51.8509 262.79 52.1577 262.969C52.4645 263.145 52.821 263.233 53.2273 263.233C53.4915 263.233 53.7301 263.196 53.9432 263.122C54.1591 263.045 54.3452 262.932 54.5014 262.781C54.6577 262.628 54.7784 262.437 54.8636 262.21L55.8352 262.483C55.733 262.812 55.5611 263.102 55.3196 263.352C55.0781 263.599 54.7798 263.793 54.4247 263.932C54.0696 264.068 53.6705 264.136 53.2273 264.136ZM57.6037 264V255.273H58.6094V258.494H58.6946C58.7685 258.381 58.8707 258.236 59.0014 258.06C59.1349 257.881 59.3253 257.722 59.5724 257.582C59.8224 257.44 60.1605 257.369 60.5866 257.369C61.1378 257.369 61.6236 257.507 62.044 257.783C62.4645 258.058 62.7926 258.449 63.0284 258.955C63.2642 259.46 63.3821 260.057 63.3821 260.744C63.3821 261.438 63.2642 262.038 63.0284 262.547C62.7926 263.053 62.4659 263.445 62.0483 263.723C61.6307 263.999 61.1491 264.136 60.6037 264.136C60.1832 264.136 59.8466 264.067 59.5938 263.928C59.3409 263.786 59.1463 263.625 59.0099 263.446C58.8736 263.264 58.7685 263.114 58.6946 262.994H58.5753V264H57.6037ZM58.5923 260.727C58.5923 261.222 58.6648 261.658 58.8097 262.036C58.9545 262.411 59.1662 262.705 59.4446 262.918C59.723 263.128 60.0639 263.233 60.4673 263.233C60.8878 263.233 61.2386 263.122 61.5199 262.901C61.804 262.676 62.017 262.375 62.1591 261.997C62.304 261.616 62.3764 261.193 62.3764 260.727C62.3764 260.267 62.3054 259.852 62.1634 259.483C62.0241 259.111 61.8125 258.817 61.5284 258.601C61.2472 258.382 60.8935 258.273 60.4673 258.273C60.0582 258.273 59.7145 258.376 59.4361 258.584C59.1577 258.788 58.9474 259.075 58.8054 259.445C58.6634 259.811 58.5923 260.239 58.5923 260.727Z" fill="#7D8E9F"/>
<path d="M29.2539 311.119C28.6119 311.119 28.065 310.945 27.6133 310.595C27.1616 310.243 26.8164 309.733 26.5778 309.065C26.3391 308.395 26.2198 307.585 26.2198 306.636C26.2198 305.693 26.3391 304.888 26.5778 304.22C26.8192 303.55 27.1658 303.038 27.6175 302.686C28.0721 302.331 28.6175 302.153 29.2539 302.153C29.8903 302.153 30.4343 302.331 30.886 302.686C31.3406 303.038 31.6871 303.55 31.9258 304.22C32.1673 304.888 32.288 305.693 32.288 306.636C32.288 307.585 32.1687 308.395 31.93 309.065C31.6914 309.733 31.3462 310.243 30.8945 310.595C30.4428 310.945 29.896 311.119 29.2539 311.119ZM29.2539 310.182C29.8903 310.182 30.3846 309.875 30.7369 309.261C31.0891 308.648 31.2653 307.773 31.2653 306.636C31.2653 305.881 31.1843 305.237 31.0224 304.706C30.8633 304.175 30.6332 303.77 30.332 303.491C30.0337 303.213 29.6744 303.074 29.2539 303.074C28.6232 303.074 28.1303 303.385 27.7752 304.007C27.4201 304.626 27.2425 305.503 27.2425 306.636C27.2425 307.392 27.3221 308.034 27.4812 308.562C27.6403 309.091 27.869 309.493 28.1673 309.768C28.4684 310.044 28.8306 310.182 29.2539 310.182ZM33.9457 311L37.8491 303.278V303.21H33.3491V302.273H38.94V303.261L35.0536 311H33.9457ZM44.0568 311V302.273H49.2898V303.21H45.1136V306.159H48.8977V307.097H45.1136V311H44.0568ZM53.2273 311.136C52.5966 311.136 52.0526 310.997 51.5952 310.719C51.1406 310.438 50.7898 310.045 50.5426 309.543C50.2983 309.037 50.1761 308.449 50.1761 307.778C50.1761 307.108 50.2983 306.517 50.5426 306.006C50.7898 305.491 51.1335 305.091 51.5739 304.804C52.017 304.514 52.5341 304.369 53.125 304.369C53.4659 304.369 53.8026 304.426 54.1349 304.54C54.4673 304.653 54.7699 304.838 55.0426 305.094C55.3153 305.347 55.5327 305.682 55.6946 306.099C55.8565 306.517 55.9375 307.031 55.9375 307.642V308.068H50.892V307.199H54.9148C54.9148 306.83 54.8409 306.5 54.6932 306.21C54.5483 305.92 54.3409 305.692 54.071 305.524C53.804 305.357 53.4886 305.273 53.125 305.273C52.7244 305.273 52.3778 305.372 52.0852 305.571C51.7955 305.767 51.5724 306.023 51.4162 306.338C51.2599 306.653 51.1818 306.991 51.1818 307.352V307.932C51.1818 308.426 51.267 308.845 51.4375 309.189C51.6108 309.53 51.8509 309.79 52.1577 309.969C52.4645 310.145 52.821 310.233 53.2273 310.233C53.4915 310.233 53.7301 310.196 53.9432 310.122C54.1591 310.045 54.3452 309.932 54.5014 309.781C54.6577 309.628 54.7784 309.437 54.8636 309.21L55.8352 309.483C55.733 309.812 55.5611 310.102 55.3196 310.352C55.0781 310.599 54.7798 310.793 54.4247 310.932C54.0696 311.068 53.6705 311.136 53.2273 311.136ZM57.6037 311V302.273H58.6094V305.494H58.6946C58.7685 305.381 58.8707 305.236 59.0014 305.06C59.1349 304.881 59.3253 304.722 59.5724 304.582C59.8224 304.44 60.1605 304.369 60.5866 304.369C61.1378 304.369 61.6236 304.507 62.044 304.783C62.4645 305.058 62.7926 305.449 63.0284 305.955C63.2642 306.46 63.3821 307.057 63.3821 307.744C63.3821 308.438 63.2642 309.038 63.0284 309.547C62.7926 310.053 62.4659 310.445 62.0483 310.723C61.6307 310.999 61.1491 311.136 60.6037 311.136C60.1832 311.136 59.8466 311.067 59.5938 310.928C59.3409 310.786 59.1463 310.625 59.0099 310.446C58.8736 310.264 58.7685 310.114 58.6946 309.994H58.5753V311H57.6037ZM58.5923 307.727C58.5923 308.222 58.6648 308.658 58.8097 309.036C58.9545 309.411 59.1662 309.705 59.4446 309.918C59.723 310.128 60.0639 310.233 60.4673 310.233C60.8878 310.233 61.2386 310.122 61.5199 309.901C61.804 309.676 62.017 309.375 62.1591 308.997C62.304 308.616 62.3764 308.193 62.3764 307.727C62.3764 307.267 62.3054 306.852 62.1634 306.483C62.0241 306.111 61.8125 305.817 61.5284 305.601C61.2472 305.382 60.8935 305.273 60.4673 305.273C60.0582 305.273 59.7145 305.376 59.4361 305.584C59.1577 305.788 58.9474 306.075 58.8054 306.445C58.6634 306.811 58.5923 307.239 58.5923 307.727Z" fill="#7D8E9F"/>
<path d="M28.3867 358.119C27.7447 358.119 27.1978 357.945 26.7461 357.595C26.2944 357.243 25.9492 356.733 25.7106 356.065C25.4719 355.395 25.3526 354.585 25.3526 353.636C25.3526 352.693 25.4719 351.888 25.7106 351.22C25.9521 350.55 26.2987 350.038 26.7504 349.686C27.2049 349.331 27.7504 349.153 28.3867 349.153C29.0231 349.153 29.5671 349.331 30.0188 349.686C30.4734 350.038 30.82 350.55 31.0586 351.22C31.3001 351.888 31.4208 352.693 31.4208 353.636C31.4208 354.585 31.3015 355.395 31.0629 356.065C30.8242 356.733 30.479 357.243 30.0273 357.595C29.5756 357.945 29.0288 358.119 28.3867 358.119ZM28.3867 357.182C29.0231 357.182 29.5174 356.875 29.8697 356.261C30.2219 355.648 30.3981 354.773 30.3981 353.636C30.3981 352.881 30.3171 352.237 30.1552 351.706C29.9961 351.175 29.766 350.77 29.4648 350.491C29.1665 350.213 28.8072 350.074 28.3867 350.074C27.756 350.074 27.2631 350.385 26.908 351.007C26.5529 351.626 26.3754 352.503 26.3754 353.636C26.3754 354.392 26.4549 355.034 26.614 355.562C26.7731 356.091 27.0018 356.493 27.3001 356.768C27.6012 357.044 27.9634 357.182 28.3867 357.182ZM35.9379 358.119C35.5799 358.114 35.2219 358.045 34.864 357.915C34.506 357.784 34.1793 357.564 33.8839 357.254C33.5884 356.942 33.3512 356.52 33.1722 355.989C32.9933 355.455 32.9038 354.784 32.9038 353.977C32.9038 353.205 32.9762 352.52 33.1211 351.923C33.266 351.324 33.4762 350.82 33.7518 350.411C34.0273 349.999 34.3597 349.686 34.7489 349.473C35.141 349.26 35.5827 349.153 36.0742 349.153C36.5629 349.153 36.9975 349.251 37.3782 349.447C37.7617 349.641 38.0742 349.911 38.3157 350.257C38.5572 350.604 38.7134 351.003 38.7844 351.455H37.7447C37.6481 351.062 37.4606 350.737 37.1822 350.479C36.9038 350.22 36.5344 350.091 36.0742 350.091C35.3981 350.091 34.8654 350.385 34.4762 350.973C34.0898 351.561 33.8952 352.386 33.8924 353.449H33.9606C34.1197 353.207 34.3086 353.001 34.5273 352.831C34.7489 352.658 34.9933 352.524 35.2603 352.43C35.5273 352.337 35.81 352.29 36.1083 352.29C36.6083 352.29 37.0657 352.415 37.4805 352.665C37.8952 352.912 38.2276 353.254 38.4776 353.692C38.7276 354.126 38.8526 354.625 38.8526 355.188C38.8526 355.727 38.7319 356.222 38.4904 356.67C38.2489 357.116 37.9094 357.472 37.4719 357.736C37.0373 357.997 36.5259 358.125 35.9379 358.119ZM35.9379 357.182C36.2958 357.182 36.6168 357.092 36.9009 356.913C37.1879 356.734 37.4137 356.494 37.5785 356.193C37.7461 355.892 37.8299 355.557 37.8299 355.188C37.8299 354.827 37.7489 354.499 37.587 354.203C37.4279 353.905 37.2077 353.668 36.9265 353.491C36.6481 353.315 36.3299 353.227 35.9719 353.227C35.7021 353.227 35.4506 353.281 35.2177 353.389C34.9847 353.494 34.7802 353.639 34.604 353.824C34.4308 354.009 34.2944 354.22 34.195 354.459C34.0955 354.695 34.0458 354.943 34.0458 355.205C34.0458 355.551 34.1268 355.875 34.2887 356.176C34.4535 356.477 34.6779 356.72 34.962 356.905C35.2489 357.089 35.5742 357.182 35.9379 357.182ZM44.0568 358V349.273H49.2898V350.21H45.1136V353.159H48.8977V354.097H45.1136V358H44.0568ZM53.2273 358.136C52.5966 358.136 52.0526 357.997 51.5952 357.719C51.1406 357.438 50.7898 357.045 50.5426 356.543C50.2983 356.037 50.1761 355.449 50.1761 354.778C50.1761 354.108 50.2983 353.517 50.5426 353.006C50.7898 352.491 51.1335 352.091 51.5739 351.804C52.017 351.514 52.5341 351.369 53.125 351.369C53.4659 351.369 53.8026 351.426 54.1349 351.54C54.4673 351.653 54.7699 351.838 55.0426 352.094C55.3153 352.347 55.5327 352.682 55.6946 353.099C55.8565 353.517 55.9375 354.031 55.9375 354.642V355.068H50.892V354.199H54.9148C54.9148 353.83 54.8409 353.5 54.6932 353.21C54.5483 352.92 54.3409 352.692 54.071 352.524C53.804 352.357 53.4886 352.273 53.125 352.273C52.7244 352.273 52.3778 352.372 52.0852 352.571C51.7955 352.767 51.5724 353.023 51.4162 353.338C51.2599 353.653 51.1818 353.991 51.1818 354.352V354.932C51.1818 355.426 51.267 355.845 51.4375 356.189C51.6108 356.53 51.8509 356.79 52.1577 356.969C52.4645 357.145 52.821 357.233 53.2273 357.233C53.4915 357.233 53.7301 357.196 53.9432 357.122C54.1591 357.045 54.3452 356.932 54.5014 356.781C54.6577 356.628 54.7784 356.437 54.8636 356.21L55.8352 356.483C55.733 356.812 55.5611 357.102 55.3196 357.352C55.0781 357.599 54.7798 357.793 54.4247 357.932C54.0696 358.068 53.6705 358.136 53.2273 358.136ZM57.6037 358V349.273H58.6094V352.494H58.6946C58.7685 352.381 58.8707 352.236 59.0014 352.06C59.1349 351.881 59.3253 351.722 59.5724 351.582C59.8224 351.44 60.1605 351.369 60.5866 351.369C61.1378 351.369 61.6236 351.507 62.044 351.783C62.4645 352.058 62.7926 352.449 63.0284 352.955C63.2642 353.46 63.3821 354.057 63.3821 354.744C63.3821 355.438 63.2642 356.038 63.0284 356.547C62.7926 357.053 62.4659 357.445 62.0483 357.723C61.6307 357.999 61.1491 358.136 60.6037 358.136C60.1832 358.136 59.8466 358.067 59.5938 357.928C59.3409 357.786 59.1463 357.625 59.0099 357.446C58.8736 357.264 58.7685 357.114 58.6946 356.994H58.5753V358H57.6037ZM58.5923 354.727C58.5923 355.222 58.6648 355.658 58.8097 356.036C58.9545 356.411 59.1662 356.705 59.4446 356.918C59.723 357.128 60.0639 357.233 60.4673 357.233C60.8878 357.233 61.2386 357.122 61.5199 356.901C61.804 356.676 62.017 356.375 62.1591 355.997C62.304 355.616 62.3764 355.193 62.3764 354.727C62.3764 354.267 62.3054 353.852 62.1634 353.483C62.0241 353.111 61.8125 352.817 61.5284 352.601C61.2472 352.382 60.8935 352.273 60.4673 352.273C60.0582 352.273 59.7145 352.376 59.4361 352.584C59.1577 352.788 58.9474 353.075 58.8054 353.445C58.6634 353.811 58.5923 354.239 58.5923 354.727Z" fill="#7D8E9F"/>
<path d="M28.5742 405.119C27.9322 405.119 27.3853 404.945 26.9336 404.595C26.4819 404.243 26.1367 403.733 25.8981 403.065C25.6594 402.395 25.5401 401.585 25.5401 400.636C25.5401 399.693 25.6594 398.888 25.8981 398.22C26.1396 397.55 26.4862 397.038 26.9379 396.686C27.3924 396.331 27.9379 396.153 28.5742 396.153C29.2106 396.153 29.7546 396.331 30.2063 396.686C30.6609 397.038 31.0075 397.55 31.2461 398.22C31.4876 398.888 31.6083 399.693 31.6083 400.636C31.6083 401.585 31.489 402.395 31.2504 403.065C31.0117 403.733 30.6665 404.243 30.2148 404.595C29.7631 404.945 29.2163 405.119 28.5742 405.119ZM28.5742 404.182C29.2106 404.182 29.7049 403.875 30.0572 403.261C30.4094 402.648 30.5856 401.773 30.5856 400.636C30.5856 399.881 30.5046 399.237 30.3427 398.706C30.1836 398.175 29.9535 397.77 29.6523 397.491C29.354 397.213 28.9947 397.074 28.5742 397.074C27.9435 397.074 27.4506 397.385 27.0955 398.007C26.7404 398.626 26.5629 399.503 26.5629 400.636C26.5629 401.392 26.6424 402.034 26.8015 402.562C26.9606 403.091 27.1893 403.493 27.4876 403.768C27.7887 404.044 28.1509 404.182 28.5742 404.182ZM35.9549 405.119C35.4549 405.119 35.0046 405.02 34.604 404.821C34.2035 404.622 33.8825 404.349 33.641 404.003C33.3995 403.656 33.2674 403.261 33.2447 402.818H34.2674C34.3072 403.213 34.4862 403.54 34.8043 403.798C35.1254 404.054 35.5089 404.182 35.9549 404.182C36.3129 404.182 36.631 404.098 36.9094 403.93C37.1907 403.763 37.4109 403.533 37.57 403.24C37.7319 402.945 37.8129 402.611 37.8129 402.239C37.8129 401.858 37.729 401.518 37.5614 401.22C37.3967 400.919 37.1694 400.682 36.8796 400.509C36.5898 400.335 36.2589 400.247 35.8867 400.244C35.6197 400.241 35.3455 400.283 35.0643 400.368C34.783 400.45 34.5515 400.557 34.3697 400.688L33.381 400.568L33.9094 396.273H38.4435V397.21H34.7958L34.489 399.784H34.5401C34.7191 399.642 34.9435 399.524 35.2134 399.43C35.4833 399.337 35.7646 399.29 36.0572 399.29C36.5913 399.29 37.0671 399.418 37.4847 399.673C37.9052 399.926 38.2347 400.273 38.4734 400.713C38.7148 401.153 38.8356 401.656 38.8356 402.222C38.8356 402.778 38.7106 403.276 38.4606 403.713C38.2134 404.148 37.8725 404.491 37.4379 404.744C37.0032 404.994 36.5089 405.119 35.9549 405.119ZM44.0568 405V396.273H49.2898V397.21H45.1136V400.159H48.8977V401.097H45.1136V405H44.0568ZM53.2273 405.136C52.5966 405.136 52.0526 404.997 51.5952 404.719C51.1406 404.438 50.7898 404.045 50.5426 403.543C50.2983 403.037 50.1761 402.449 50.1761 401.778C50.1761 401.108 50.2983 400.517 50.5426 400.006C50.7898 399.491 51.1335 399.091 51.5739 398.804C52.017 398.514 52.5341 398.369 53.125 398.369C53.4659 398.369 53.8026 398.426 54.1349 398.54C54.4673 398.653 54.7699 398.838 55.0426 399.094C55.3153 399.347 55.5327 399.682 55.6946 400.099C55.8565 400.517 55.9375 401.031 55.9375 401.642V402.068H50.892V401.199H54.9148C54.9148 400.83 54.8409 400.5 54.6932 400.21C54.5483 399.92 54.3409 399.692 54.071 399.524C53.804 399.357 53.4886 399.273 53.125 399.273C52.7244 399.273 52.3778 399.372 52.0852 399.571C51.7955 399.767 51.5724 400.023 51.4162 400.338C51.2599 400.653 51.1818 400.991 51.1818 401.352V401.932C51.1818 402.426 51.267 402.845 51.4375 403.189C51.6108 403.53 51.8509 403.79 52.1577 403.969C52.4645 404.145 52.821 404.233 53.2273 404.233C53.4915 404.233 53.7301 404.196 53.9432 404.122C54.1591 404.045 54.3452 403.932 54.5014 403.781C54.6577 403.628 54.7784 403.437 54.8636 403.21L55.8352 403.483C55.733 403.812 55.5611 404.102 55.3196 404.352C55.0781 404.599 54.7798 404.793 54.4247 404.932C54.0696 405.068 53.6705 405.136 53.2273 405.136ZM57.6037 405V396.273H58.6094V399.494H58.6946C58.7685 399.381 58.8707 399.236 59.0014 399.06C59.1349 398.881 59.3253 398.722 59.5724 398.582C59.8224 398.44 60.1605 398.369 60.5866 398.369C61.1378 398.369 61.6236 398.507 62.044 398.783C62.4645 399.058 62.7926 399.449 63.0284 399.955C63.2642 400.46 63.3821 401.057 63.3821 401.744C63.3821 402.438 63.2642 403.038 63.0284 403.547C62.7926 404.053 62.4659 404.445 62.0483 404.723C61.6307 404.999 61.1491 405.136 60.6037 405.136C60.1832 405.136 59.8466 405.067 59.5938 404.928C59.3409 404.786 59.1463 404.625 59.0099 404.446C58.8736 404.264 58.7685 404.114 58.6946 403.994H58.5753V405H57.6037ZM58.5923 401.727C58.5923 402.222 58.6648 402.658 58.8097 403.036C58.9545 403.411 59.1662 403.705 59.4446 403.918C59.723 404.128 60.0639 404.233 60.4673 404.233C60.8878 404.233 61.2386 404.122 61.5199 403.901C61.804 403.676 62.017 403.375 62.1591 402.997C62.304 402.616 62.3764 402.193 62.3764 401.727C62.3764 401.267 62.3054 400.852 62.1634 400.483C62.0241 400.111 61.8125 399.817 61.5284 399.601C61.2472 399.382 60.8935 399.273 60.4673 399.273C60.0582 399.273 59.7145 399.376 59.4361 399.584C59.1577 399.788 58.9474 400.075 58.8054 400.445C58.6634 400.811 58.5923 401.239 58.5923 401.727Z" fill="#7D8E9F"/>
<path d="M80.5 219.5H541.5" stroke="#E6E9EE" stroke-linecap="round"/>
<path d="M80.5 267H541.5" stroke="#E6E9EE" stroke-linecap="round"/>
<path d="M80.5 314.5H541.5" stroke="#E6E9EE" stroke-linecap="round"/>
<path d="M80.5 362H541.5" stroke="#E6E9EE" stroke-linecap="round"/>
<path d="M80.5 409.5H541.5" stroke="#E6E9EE" stroke-linecap="round"/>
<path d="M118 362C125.117 355.386 141.352 342.323 149.358 342.984C159.366 343.811 168.039 353.732 179.382 353.732C190.724 353.732 200.318 328.102 214.076 334.717C243.676 348.947 236.76 326.449 263.448 334.717C284.798 341.331 304.814 333.063 312.153 328.102C320.604 323.693 343.778 315.37 368.864 317.354C400.222 319.835 425.576 317.354 438.92 301.646C443.273 296.521 462.938 278.496 486.957 285.11C510.976 291.724 536.997 260.307 541 257" stroke="#00B7B3" stroke-width="3" stroke-linecap="round" stroke-linejoin="round"/>
<path d="M104.962 305.052C111.772 298.201 130.974 286.287 153.296 293.435C181.199 302.37 188.642 319.528 195.192 324.1C218.318 340.239 215.828 328.456 244.649 304.6C286.3 270.124 287.944 313.739 307.77 317.924C321.527 320.828 330.796 289.314 368.982 309.533C386.81 318.972 403.483 321.89 413.804 310.875C424.125 299.86 451.828 295.559 469.194 305.314C486.561 315.07 500.776 312.435 505.627 309.96C521.807 301.704 531.469 312.878 543.893 325.143" stroke="#450D87" stroke-width="3" stroke-linecap="round" stroke-linejoin="round"/>
</g>
<g clip-path="url(#clip1_0_1)">
<path d="M142.25 0H16C7.16344 0 0 7.16344 0 16V96C0 104.837 7.16344 112 16 112H142.25C151.087 112 158.25 104.837 158.25 96V16C158.25 7.16344 151.087 0 142.25 0Z" fill="#ECE8F4"/>
<path d="M24.5568 30.3643V28.8182H32.6804V30.3643H29.5334V39H27.7038V30.3643H24.5568ZM36.3904 39.1491C35.6447 39.1491 34.9984 38.9851 34.4515 38.657C33.9047 38.3288 33.4804 37.8698 33.1788 37.2798C32.8805 36.6899 32.7314 36.0005 32.7314 35.2116C32.7314 34.4228 32.8805 33.7318 33.1788 33.1385C33.4804 32.5452 33.9047 32.0845 34.4515 31.7564C34.9984 31.4283 35.6447 31.2642 36.3904 31.2642C37.1362 31.2642 37.7825 31.4283 38.3294 31.7564C38.8762 32.0845 39.2988 32.5452 39.5971 33.1385C39.8987 33.7318 40.0495 34.4228 40.0495 35.2116C40.0495 36.0005 39.8987 36.6899 39.5971 37.2798C39.2988 37.8698 38.8762 38.3288 38.3294 38.657C37.7825 38.9851 37.1362 39.1491 36.3904 39.1491ZM36.4004 37.7074C36.8047 37.7074 37.1428 37.5964 37.4146 37.3743C37.6864 37.1489 37.8886 36.8473 38.0211 36.4695C38.157 36.0916 38.225 35.6707 38.225 35.2067C38.225 34.7393 38.157 34.3168 38.0211 33.9389C37.8886 33.5578 37.6864 33.2545 37.4146 33.0291C37.1428 32.8037 36.8047 32.6911 36.4004 32.6911C35.9861 32.6911 35.6414 32.8037 35.3663 33.0291C35.0945 33.2545 34.8907 33.5578 34.7548 33.9389C34.6222 34.3168 34.5559 34.7393 34.5559 35.2067C34.5559 35.6707 34.6222 36.0916 34.7548 36.4695C34.8907 36.8473 35.0945 37.1489 35.3663 37.3743C35.6414 37.5964 35.9861 37.7074 36.4004 37.7074ZM41.5771 41.8636V31.3636H43.3469V32.6264H43.4513C43.5442 32.4408 43.6751 32.2436 43.8441 32.0348C44.0131 31.8227 44.2418 31.642 44.5302 31.4929C44.8185 31.3404 45.1864 31.2642 45.6339 31.2642C46.2238 31.2642 46.7558 31.415 47.2298 31.7166C47.707 32.0149 48.0849 32.4574 48.3633 33.044C48.645 33.6274 48.7859 34.3433 48.7859 35.1918C48.7859 36.0303 48.6483 36.7429 48.3732 37.3295C48.0981 37.9162 47.7236 38.3636 47.2496 38.6719C46.7757 38.9801 46.2388 39.1342 45.6388 39.1342C45.2013 39.1342 44.8384 39.0613 44.5501 38.9155C44.2617 38.7696 44.0297 38.594 43.854 38.3885C43.6817 38.1797 43.5475 37.9825 43.4513 37.7969H43.3768V41.8636H41.5771ZM43.342 35.1818C43.342 35.6757 43.4116 36.1082 43.5508 36.4794C43.6933 36.8506 43.8971 37.1406 44.1623 37.3494C44.4308 37.5549 44.7556 37.6577 45.1367 37.6577C45.5344 37.6577 45.8675 37.5516 46.136 37.3395C46.4045 37.1241 46.6067 36.8307 46.7425 36.4595C46.8817 36.085 46.9513 35.6591 46.9513 35.1818C46.9513 34.7079 46.8834 34.2869 46.7475 33.919C46.6116 33.5511 46.4094 33.2628 46.141 33.054C45.8725 32.8452 45.5378 32.7408 45.1367 32.7408C44.7522 32.7408 44.4258 32.8419 44.1573 33.044C43.8888 33.2462 43.685 33.5296 43.5458 33.8942C43.4099 34.2588 43.342 34.688 43.342 35.1818ZM52.1268 28.8182V39H50.3271V28.8182H52.1268ZM56.1749 39.1541C55.691 39.1541 55.2551 39.0679 54.8674 38.8956C54.4829 38.7199 54.178 38.4614 53.9526 38.12C53.7305 37.7786 53.6195 37.3577 53.6195 36.8572C53.6195 36.4264 53.699 36.0701 53.8581 35.7884C54.0172 35.5066 54.2343 35.2812 54.5094 35.1122C54.7845 34.9432 55.0944 34.8156 55.4391 34.7294C55.7871 34.6399 56.1467 34.5753 56.5179 34.5355C56.9654 34.4891 57.3283 34.4477 57.6067 34.4112C57.8851 34.3714 58.0873 34.3118 58.2132 34.2322C58.3425 34.1494 58.4071 34.0218 58.4071 33.8494V33.8196C58.4071 33.4451 58.2961 33.1551 58.074 32.9496C57.852 32.7441 57.5321 32.6413 57.1145 32.6413C56.6737 32.6413 56.324 32.7375 56.0655 32.9297C55.8103 33.1219 55.638 33.349 55.5485 33.6108L53.8681 33.3722C54.0007 32.9081 54.2194 32.5204 54.5243 32.2088C54.8292 31.8939 55.2021 31.6586 55.6429 31.5028C56.0837 31.3438 56.571 31.2642 57.1046 31.2642C57.4725 31.2642 57.8387 31.3073 58.2033 31.3935C58.5679 31.4796 58.901 31.6222 59.2026 31.821C59.5042 32.0166 59.7462 32.2834 59.9284 32.6214C60.1141 32.9595 60.2069 33.3821 60.2069 33.8892V39H58.4767V37.951H58.4171C58.3077 38.1631 58.1536 38.362 57.9547 38.5476C57.7592 38.7299 57.5123 38.8774 57.214 38.9901C56.919 39.0994 56.5726 39.1541 56.1749 39.1541ZM56.6422 37.8317C57.0035 37.8317 57.3167 37.7604 57.5819 37.6179C57.847 37.4721 58.0508 37.2798 58.1934 37.0412C58.3392 36.8026 58.4121 36.5424 58.4121 36.2607V35.3608C58.3558 35.4072 58.2596 35.4503 58.1238 35.4901C57.9912 35.5298 57.842 35.5646 57.6763 35.5945C57.5106 35.6243 57.3465 35.6508 57.1841 35.674C57.0217 35.6972 56.8809 35.7171 56.7615 35.7337C56.4931 35.7701 56.2528 35.8298 56.0407 35.9126C55.8285 35.9955 55.6612 36.1115 55.5385 36.2607C55.4159 36.4065 55.3546 36.5954 55.3546 36.8274C55.3546 37.1589 55.4756 37.4091 55.7175 37.5781C55.9595 37.7472 56.2677 37.8317 56.6422 37.8317ZM62.0165 39V31.3636H63.7367V32.6612H63.8262C63.9853 32.2237 64.2488 31.8823 64.6167 31.6371C64.9846 31.3885 65.4237 31.2642 65.9341 31.2642C66.4512 31.2642 66.887 31.3902 67.2417 31.642C67.5996 31.8906 67.8515 32.2304 67.9973 32.6612H68.0769C68.2459 32.237 68.531 31.8989 68.932 31.647C69.3364 31.3918 69.8153 31.2642 70.3688 31.2642C71.0714 31.2642 71.6448 31.4863 72.089 31.9304C72.5331 32.3745 72.7551 33.0225 72.7551 33.8743V39H70.9505V34.1527C70.9505 33.6787 70.8245 33.3324 70.5726 33.1136C70.3207 32.8916 70.0125 32.7805 69.6479 32.7805C69.2137 32.7805 68.874 32.9164 68.6287 33.1882C68.3868 33.4567 68.2658 33.8063 68.2658 34.2372V39H66.5009V34.0781C66.5009 33.6837 66.3816 33.3688 66.1429 33.1335C65.9076 32.8982 65.5994 32.7805 65.2182 32.7805C64.9597 32.7805 64.7244 32.8468 64.5123 32.9794C64.3001 33.1087 64.1311 33.2926 64.0051 33.5312C63.8792 33.7666 63.8162 34.0417 63.8162 34.3565V39H62.0165ZM78.1332 39V28.8182H79.9776V33.1286H84.6957V28.8182H86.5451V39H84.6957V34.6747H79.9776V39H78.1332ZM90.669 39.1541C90.1851 39.1541 89.7493 39.0679 89.3615 38.8956C88.977 38.7199 88.6721 38.4614 88.4467 38.12C88.2247 37.7786 88.1136 37.3577 88.1136 36.8572C88.1136 36.4264 88.1932 36.0701 88.3523 35.7884C88.5114 35.5066 88.7285 35.2812 89.0036 35.1122C89.2786 34.9432 89.5885 34.8156 89.9332 34.7294C90.2813 34.6399 90.6409 34.5753 91.0121 34.5355C91.4595 34.4891 91.8224 34.4477 92.1009 34.4112C92.3793 34.3714 92.5814 34.3118 92.7074 34.2322C92.8366 34.1494 92.9013 34.0218 92.9013 33.8494V33.8196C92.9013 33.4451 92.7902 33.1551 92.5682 32.9496C92.3461 32.7441 92.0263 32.6413 91.6087 32.6413C91.1679 32.6413 90.8182 32.7375 90.5597 32.9297C90.3045 33.1219 90.1321 33.349 90.0426 33.6108L88.3622 33.3722C88.4948 32.9081 88.7135 32.5204 89.0185 32.2088C89.3234 31.8939 89.6963 31.6586 90.1371 31.5028C90.5779 31.3438 91.0651 31.2642 91.5987 31.2642C91.9666 31.2642 92.3329 31.3073 92.6974 31.3935C93.062 31.4796 93.3951 31.6222 93.6967 31.821C93.9983 32.0166 94.2403 32.2834 94.4226 32.6214C94.6082 32.9595 94.701 33.3821 94.701 33.8892V39H92.9709V37.951H92.9112C92.8018 38.1631 92.6477 38.362 92.4489 38.5476C92.2533 38.7299 92.0064 38.8774 91.7081 38.9901C91.4131 39.0994 91.0668 39.1541 90.669 39.1541ZM91.1364 37.8317C91.4976 37.8317 91.8108 37.7604 92.076 37.6179C92.3411 37.4721 92.545 37.2798 92.6875 37.0412C92.8333 36.8026 92.9062 36.5424 92.9062 36.2607V35.3608C92.8499 35.4072 92.7538 35.4503 92.6179 35.4901C92.4853 35.5298 92.3362 35.5646 92.1705 35.5945C92.0047 35.6243 91.8407 35.6508 91.6783 35.674C91.5159 35.6972 91.375 35.7171 91.2557 35.7337C90.9872 35.7701 90.7469 35.8298 90.5348 35.9126C90.3227 35.9955 90.1553 36.1115 90.0327 36.2607C89.91 36.4065 89.8487 36.5954 89.8487 36.8274C89.8487 37.1589 89.9697 37.4091 90.2116 37.5781C90.4536 37.7472 90.7618 37.8317 91.1364 37.8317ZM96.5107 39V31.3636H98.2557V32.6364H98.3352C98.4744 32.1955 98.7131 31.8558 99.0511 31.6172C99.3925 31.3752 99.782 31.2543 100.219 31.2543C100.319 31.2543 100.43 31.2592 100.553 31.2692C100.679 31.2758 100.783 31.2874 100.866 31.304V32.9595C100.79 32.933 100.669 32.9098 100.503 32.8899C100.34 32.8667 100.183 32.8551 100.031 32.8551C99.7024 32.8551 99.4074 32.9264 99.1456 33.0689C98.8871 33.2081 98.6832 33.402 98.5341 33.6506C98.3849 33.8991 98.3104 34.1858 98.3104 34.5107V39H96.5107ZM105.078 39.1491C104.316 39.1491 103.661 38.9818 103.114 38.647C102.571 38.3123 102.151 37.8499 101.856 37.2599C101.565 36.6667 101.419 35.9839 101.419 35.2116C101.419 34.4361 101.568 33.7517 101.866 33.1584C102.165 32.5618 102.586 32.0978 103.129 31.7663C103.676 31.4316 104.322 31.2642 105.068 31.2642C105.688 31.2642 106.236 31.3786 106.714 31.6072C107.194 31.8326 107.577 32.1525 107.862 32.5668C108.147 32.9777 108.309 33.4583 108.349 34.0085H106.629C106.559 33.6406 106.394 33.334 106.132 33.0888C105.873 32.8402 105.527 32.7159 105.093 32.7159C104.725 32.7159 104.402 32.8153 104.123 33.0142C103.845 33.2098 103.628 33.4915 103.472 33.8594C103.32 34.2273 103.243 34.6681 103.243 35.1818C103.243 35.7022 103.32 36.1496 103.472 36.5241C103.625 36.8954 103.838 37.1821 104.113 37.3842C104.392 37.5831 104.718 37.6825 105.093 37.6825C105.358 37.6825 105.595 37.6328 105.804 37.5334C106.016 37.4306 106.193 37.2831 106.336 37.0909C106.478 36.8987 106.576 36.665 106.629 36.3899H108.349C108.306 36.9302 108.147 37.4091 107.872 37.8267C107.597 38.241 107.222 38.5658 106.748 38.8011C106.274 39.0331 105.718 39.1491 105.078 39.1491ZM112.025 39.1541C111.541 39.1541 111.105 39.0679 110.717 38.8956C110.333 38.7199 110.028 38.4614 109.802 38.12C109.58 37.7786 109.469 37.3577 109.469 36.8572C109.469 36.4264 109.549 36.0701 109.708 35.7884C109.867 35.5066 110.084 35.2812 110.359 35.1122C110.634 34.9432 110.944 34.8156 111.289 34.7294C111.637 34.6399 111.996 34.5753 112.368 34.5355C112.815 34.4891 113.178 34.4477 113.456 34.4112C113.735 34.3714 113.937 34.3118 114.063 34.2322C114.192 34.1494 114.257 34.0218 114.257 33.8494V33.8196C114.257 33.4451 114.146 33.1551 113.924 32.9496C113.702 32.7441 113.382 32.6413 112.964 32.6413C112.523 32.6413 112.174 32.7375 111.915 32.9297C111.66 33.1219 111.488 33.349 111.398 33.6108L109.718 33.3722C109.85 32.9081 110.069 32.5204 110.374 32.2088C110.679 31.8939 111.052 31.6586 111.493 31.5028C111.933 31.3438 112.421 31.2642 112.954 31.2642C113.322 31.2642 113.688 31.3073 114.053 31.3935C114.417 31.4796 114.751 31.6222 115.052 31.821C115.354 32.0166 115.596 32.2834 115.778 32.6214C115.964 32.9595 116.056 33.3821 116.056 33.8892V39H114.326V37.951H114.267C114.157 38.1631 114.003 38.362 113.804 38.5476C113.609 38.7299 113.362 38.8774 113.064 38.9901C112.769 39.0994 112.422 39.1541 112.025 39.1541ZM112.492 37.8317C112.853 37.8317 113.166 37.7604 113.431 37.6179C113.697 37.4721 113.9 37.2798 114.043 37.0412C114.189 36.8026 114.262 36.5424 114.262 36.2607V35.3608C114.205 35.4072 114.109 35.4503 113.973 35.4901C113.841 35.5298 113.692 35.5646 113.526 35.5945C113.36 35.6243 113.196 35.6508 113.034 35.674C112.871 35.6972 112.73 35.7171 112.611 35.7337C112.343 35.7701 112.102 35.8298 111.89 35.9126C111.678 35.9955 111.511 36.1115 111.388 36.2607C111.266 36.4065 111.204 36.5954 111.204 36.8274C111.204 37.1589 111.325 37.4091 111.567 37.5781C111.809 37.7472 112.117 37.8317 112.492 37.8317ZM117.866 39V31.3636H119.586V32.6612H119.676C119.835 32.2237 120.098 31.8823 120.466 31.6371C120.834 31.3885 121.273 31.2642 121.784 31.2642C122.301 31.2642 122.737 31.3902 123.091 31.642C123.449 31.8906 123.701 32.2304 123.847 32.6612H123.926C124.096 32.237 124.381 31.8989 124.782 31.647C125.186 31.3918 125.665 31.2642 126.218 31.2642C126.921 31.2642 127.494 31.4863 127.939 31.9304C128.383 32.3745 128.605 33.0225 128.605 33.8743V39H126.8V34.1527C126.8 33.6787 126.674 33.3324 126.422 33.1136C126.17 32.8916 125.862 32.7805 125.498 32.7805C125.063 32.7805 124.724 32.9164 124.478 33.1882C124.236 33.4567 124.115 33.8063 124.115 34.2372V39H122.35V34.0781C122.35 33.6837 122.231 33.3688 121.993 33.1335C121.757 32.8982 121.449 32.7805 121.068 32.7805C120.809 32.7805 120.574 32.8468 120.362 32.9794C120.15 33.1087 119.981 33.2926 119.855 33.5312C119.729 33.7666 119.666 34.0417 119.666 34.3565V39H117.866ZM132.628 39.1541C132.144 39.1541 131.708 39.0679 131.32 38.8956C130.936 38.7199 130.631 38.4614 130.406 38.12C130.184 37.7786 130.073 37.3577 130.073 36.8572C130.073 36.4264 130.152 36.0701 130.311 35.7884C130.47 35.5066 130.687 35.2812 130.963 35.1122C131.238 34.9432 131.548 34.8156 131.892 34.7294C132.24 34.6399 132.6 34.5753 132.971 34.5355C133.419 34.4891 133.781 34.4477 134.06 34.4112C134.338 34.3714 134.54 34.3118 134.666 34.2322C134.796 34.1494 134.86 34.0218 134.86 33.8494V33.8196C134.86 33.4451 134.749 33.1551 134.527 32.9496C134.305 32.7441 133.985 32.6413 133.568 32.6413C133.127 32.6413 132.777 32.7375 132.519 32.9297C132.263 33.1219 132.091 33.349 132.002 33.6108L130.321 33.3722C130.454 32.9081 130.673 32.5204 130.977 32.2088C131.282 31.8939 131.655 31.6586 132.096 31.5028C132.537 31.3438 133.024 31.2642 133.558 31.2642C133.926 31.2642 134.292 31.3073 134.656 31.3935C135.021 31.4796 135.354 31.6222 135.656 31.821C135.957 32.0166 136.199 32.2834 136.382 32.6214C136.567 32.9595 136.66 33.3821 136.66 33.8892V39H134.93V37.951H134.87C134.761 38.1631 134.607 38.362 134.408 38.5476C134.212 38.7299 133.965 38.8774 133.667 38.9901C133.372 39.0994 133.026 39.1541 132.628 39.1541ZM133.095 37.8317C133.457 37.8317 133.77 37.7604 134.035 37.6179C134.3 37.4721 134.504 37.2798 134.646 37.0412C134.792 36.8026 134.865 36.5424 134.865 36.2607V35.3608C134.809 35.4072 134.713 35.4503 134.577 35.4901C134.444 35.5298 134.295 35.5646 134.129 35.5945C133.964 35.6243 133.8 35.6508 133.637 35.674C133.475 35.6972 133.334 35.7171 133.215 35.7337C132.946 35.7701 132.706 35.8298 132.494 35.9126C132.282 35.9955 132.114 36.1115 131.992 36.2607C131.869 36.4065 131.808 36.5954 131.808 36.8274C131.808 37.1589 131.929 37.4091 132.171 37.5781C132.413 37.7472 132.721 37.8317 133.095 37.8317Z" fill="#1C1C1C"/>
<path d="M25.5511 79V76.7159L31.6108 70.7756C32.1903 70.1903 32.6733 69.6705 33.0597 69.2159C33.446 68.7614 33.7358 68.321 33.929 67.8949C34.1222 67.4687 34.2188 67.0142 34.2188 66.5312C34.2188 65.9801 34.0938 65.5085 33.8438 65.1165C33.5938 64.7188 33.25 64.4119 32.8125 64.196C32.375 63.9801 31.8778 63.8722 31.321 63.8722C30.7472 63.8722 30.2443 63.9915 29.8125 64.2301C29.3807 64.4631 29.0455 64.7955 28.8068 65.2273C28.5739 65.6591 28.4574 66.1733 28.4574 66.7699H25.4489C25.4489 65.6619 25.7017 64.6989 26.2074 63.8807C26.7131 63.0625 27.4091 62.429 28.2955 61.9801C29.1875 61.5312 30.2102 61.3068 31.3636 61.3068C32.5341 61.3068 33.5625 61.5256 34.4489 61.9631C35.3352 62.4006 36.0227 63 36.5114 63.7614C37.0057 64.5227 37.2528 65.392 37.2528 66.3693C37.2528 67.0227 37.1278 67.6648 36.8778 68.2955C36.6278 68.9261 36.1875 69.625 35.5568 70.392C34.9318 71.1591 34.054 72.0881 32.9233 73.179L29.9148 76.2386V76.358H37.517V79H25.5511ZM47.5568 61.5455V79H44.3949V64.6222H44.2926L40.2102 67.2301V64.3324L44.5483 61.5455H47.5568ZM52.1591 79V61.5455H55.321V69.5653H55.5341L62.3438 61.5455H66.2045L59.4545 69.3778L66.2642 79H62.4631L57.2557 71.517L55.321 73.8011V79H52.1591Z" fill="#1C1C1C"/>
<path d="M71.0984 72.4659V66.8409H72.0529V72.4659H71.0984ZM68.7631 70.1307V69.1761H74.3881V70.1307H68.7631ZM79.5028 65.2727V74H78.446V66.3807H78.3949L76.2642 67.7955V66.7216L78.446 65.2727H79.5028ZM85.081 65.2727V74H84.0241V66.3807H83.973L81.8423 67.7955V66.7216L84.0241 65.2727H85.081ZM87.8253 74.0682C87.6151 74.0682 87.4347 73.9929 87.2841 73.8423C87.1335 73.6918 87.0582 73.5114 87.0582 73.3011C87.0582 73.0909 87.1335 72.9105 87.2841 72.7599C87.4347 72.6094 87.6151 72.5341 87.8253 72.5341C88.0355 72.5341 88.2159 72.6094 88.3665 72.7599C88.517 72.9105 88.5923 73.0909 88.5923 73.3011C88.5923 73.4403 88.5568 73.5682 88.4858 73.6847C88.4176 73.8011 88.3253 73.8949 88.2088 73.9659C88.0952 74.0341 87.9673 74.0682 87.8253 74.0682ZM92.9219 74.1193C92.2798 74.1193 91.733 73.9446 91.2812 73.5952C90.8295 73.2429 90.4844 72.733 90.2457 72.0653C90.0071 71.3949 89.8878 70.5852 89.8878 69.6364C89.8878 68.6932 90.0071 67.8878 90.2457 67.2202C90.4872 66.5497 90.8338 66.0384 91.2855 65.6861C91.7401 65.331 92.2855 65.1534 92.9219 65.1534C93.5582 65.1534 94.1023 65.331 94.554 65.6861C95.0085 66.0384 95.3551 66.5497 95.5938 67.2202C95.8352 67.8878 95.956 68.6932 95.956 69.6364C95.956 70.5852 95.8366 71.3949 95.598 72.0653C95.3594 72.733 95.0142 73.2429 94.5625 73.5952C94.1108 73.9446 93.5639 74.1193 92.9219 74.1193ZM92.9219 73.1818C93.5582 73.1818 94.0526 72.875 94.4048 72.2614C94.7571 71.6477 94.9332 70.7727 94.9332 69.6364C94.9332 68.8807 94.8523 68.2372 94.6903 67.706C94.5313 67.1747 94.3011 66.7699 94 66.4915C93.7017 66.2131 93.3423 66.0739 92.9219 66.0739C92.2912 66.0739 91.7983 66.3849 91.4432 67.0071C91.0881 67.6264 90.9105 68.5028 90.9105 69.6364C90.9105 70.392 90.9901 71.0341 91.1491 71.5625C91.3082 72.0909 91.5369 72.4929 91.8352 72.7685C92.1364 73.044 92.4986 73.1818 92.9219 73.1818ZM100.643 65.2727V74H99.5866V66.3807H99.5355L97.4048 67.7955V66.7216L99.5866 65.2727H100.643ZM107.602 72.3636V71.9034C107.602 71.5852 107.668 71.294 107.798 71.0298C107.932 70.7628 108.125 70.5497 108.378 70.3906C108.634 70.2287 108.943 70.1477 109.307 70.1477C109.676 70.1477 109.986 70.2287 110.236 70.3906C110.486 70.5497 110.675 70.7628 110.803 71.0298C110.93 71.294 110.994 71.5852 110.994 71.9034V72.3636C110.994 72.6818 110.929 72.9744 110.798 73.2415C110.67 73.5057 110.48 73.7187 110.227 73.8807C109.977 74.0398 109.67 74.1193 109.307 74.1193C108.938 74.1193 108.626 74.0398 108.374 73.8807C108.121 73.7187 107.929 73.5057 107.798 73.2415C107.668 72.9744 107.602 72.6818 107.602 72.3636ZM108.472 71.9034V72.3636C108.472 72.6278 108.534 72.8651 108.659 73.0753C108.784 73.2827 109 73.3864 109.307 73.3864C109.605 73.3864 109.815 73.2827 109.938 73.0753C110.062 72.8651 110.125 72.6278 110.125 72.3636V71.9034C110.125 71.6392 110.065 71.4034 109.946 71.196C109.827 70.9858 109.614 70.8807 109.307 70.8807C109.009 70.8807 108.794 70.9858 108.663 71.196C108.536 71.4034 108.472 71.6392 108.472 71.9034ZM103.256 67.3693V66.9091C103.256 66.5909 103.321 66.2997 103.452 66.0355C103.585 65.7685 103.778 65.5554 104.031 65.3963C104.287 65.2344 104.597 65.1534 104.96 65.1534C105.33 65.1534 105.639 65.2344 105.889 65.3963C106.139 65.5554 106.328 65.7685 106.456 66.0355C106.584 66.2997 106.648 66.5909 106.648 66.9091V67.3693C106.648 67.6875 106.582 67.9801 106.452 68.2472C106.324 68.5114 106.134 68.7244 105.881 68.8864C105.631 69.0455 105.324 69.125 104.96 69.125C104.591 69.125 104.28 69.0455 104.027 68.8864C103.774 68.7244 103.582 68.5114 103.452 68.2472C103.321 67.9801 103.256 67.6875 103.256 67.3693ZM104.125 66.9091V67.3693C104.125 67.6335 104.188 67.8707 104.312 68.081C104.438 68.2884 104.653 68.392 104.96 68.392C105.259 68.392 105.469 68.2884 105.591 68.081C105.716 67.8707 105.778 67.6335 105.778 67.3693V66.9091C105.778 66.6449 105.719 66.4091 105.599 66.2017C105.48 65.9915 105.267 65.8864 104.96 65.8864C104.662 65.8864 104.447 65.9915 104.317 66.2017C104.189 66.4091 104.125 66.6449 104.125 66.9091ZM103.58 74L109.58 65.2727H110.551L104.551 74H103.58Z" fill="#1C1C1C"/>
<path fill-rule="evenodd" clip-rule="evenodd" d="M124.455 67.6078L130 66L128.62 71.6061L126.898 69.9532L124.121 72.8463C124.026 72.9445 123.896 73 123.76 73C123.624 73 123.494 72.9445 123.399 72.8463L121.36 70.722L118.361 73.8463C118.169 74.0455 117.853 74.0519 117.654 73.8607C117.455 73.6695 117.448 73.3529 117.639 73.1537L120.999 69.6537C121.094 69.5555 121.224 69.5 121.36 69.5C121.496 69.5 121.626 69.5555 121.721 69.6537L123.76 71.778L126.177 69.2607L124.455 67.6078Z" fill="#1C1C1C"/>
<path d="M315.5 0H189.25C180.413 0 173.25 7.16344 173.25 16V96C173.25 104.837 180.413 112 189.25 112H315.5C324.337 112 331.5 104.837 331.5 96V16C331.5 7.16344 324.337 0 315.5 0Z" fill="#ECEEF2"/>
<path d="M201.727 39V28.8182H203.571V33.4964H203.696L207.668 28.8182H209.92L205.983 33.3871L209.955 39H207.738L204.7 34.6349L203.571 35.9673V39H201.727ZM215.511 35.7884V31.3636H217.31V39H215.565V37.6428H215.486C215.313 38.0703 215.03 38.42 214.636 38.6918C214.245 38.9635 213.762 39.0994 213.189 39.0994C212.688 39.0994 212.246 38.9884 211.862 38.7663C211.48 38.541 211.182 38.2145 210.967 37.7869C210.751 37.3561 210.643 36.8357 210.643 36.2259V31.3636H212.443V35.9474C212.443 36.4313 212.576 36.8158 212.841 37.1009C213.106 37.3859 213.454 37.5284 213.885 37.5284C214.15 37.5284 214.407 37.4638 214.656 37.3345C214.904 37.2053 215.108 37.013 215.267 36.7578C215.429 36.4993 215.511 36.1761 215.511 35.7884ZM220.961 28.8182V39H219.161V28.8182H220.961ZM224.611 28.8182V39H222.811V28.8182H224.611ZM228.659 39.1541C228.175 39.1541 227.74 39.0679 227.352 38.8956C226.967 38.7199 226.662 38.4614 226.437 38.12C226.215 37.7786 226.104 37.3577 226.104 36.8572C226.104 36.4264 226.183 36.0701 226.343 35.7884C226.502 35.5066 226.719 35.2812 226.994 35.1122C227.269 34.9432 227.579 34.8156 227.923 34.7294C228.271 34.6399 228.631 34.5753 229.002 34.5355C229.45 34.4891 229.813 34.4477 230.091 34.4112C230.369 34.3714 230.572 34.3118 230.698 34.2322C230.827 34.1494 230.892 34.0218 230.892 33.8494V33.8196C230.892 33.4451 230.78 33.1551 230.558 32.9496C230.336 32.7441 230.017 32.6413 229.599 32.6413C229.158 32.6413 228.808 32.7375 228.55 32.9297C228.295 33.1219 228.122 33.349 228.033 33.6108L226.352 33.3722C226.485 32.9081 226.704 32.5204 227.009 32.2088C227.314 31.8939 227.686 31.6586 228.127 31.5028C228.568 31.3438 229.055 31.2642 229.589 31.2642C229.957 31.2642 230.323 31.3073 230.688 31.3935C231.052 31.4796 231.385 31.6222 231.687 31.821C231.989 32.0166 232.231 32.2834 232.413 32.6214C232.598 32.9595 232.691 33.3821 232.691 33.8892V39H230.961V37.951H230.901C230.792 38.1631 230.638 38.362 230.439 38.5476C230.244 38.7299 229.997 38.8774 229.698 38.9901C229.403 39.0994 229.057 39.1541 228.659 39.1541ZM229.127 37.8317C229.488 37.8317 229.801 37.7604 230.066 37.6179C230.331 37.4721 230.535 37.2798 230.678 37.0412C230.824 36.8026 230.896 36.5424 230.896 36.2607V35.3608C230.84 35.4072 230.744 35.4503 230.608 35.4901C230.476 35.5298 230.326 35.5646 230.161 35.5945C229.995 35.6243 229.831 35.6508 229.669 35.674C229.506 35.6972 229.365 35.7171 229.246 35.7337C228.977 35.7701 228.737 35.8298 228.525 35.9126C228.313 35.9955 228.146 36.1115 228.023 36.2607C227.9 36.4065 227.839 36.5954 227.839 36.8274C227.839 37.1589 227.96 37.4091 228.202 37.5781C228.444 37.7472 228.752 37.8317 229.127 37.8317ZM236.301 34.5256V39H234.501V31.3636H236.221V32.6612H236.311C236.486 32.2337 236.766 31.8939 237.151 31.642C237.539 31.3902 238.017 31.2642 238.588 31.2642C239.115 31.2642 239.574 31.3769 239.965 31.6023C240.359 31.8277 240.664 32.1541 240.879 32.5817C241.098 33.0092 241.206 33.5279 241.203 34.1378V39H239.403V34.4162C239.403 33.9058 239.27 33.5064 239.005 33.218C238.743 32.9297 238.38 32.7855 237.916 32.7855C237.602 32.7855 237.321 32.8551 237.076 32.9943C236.834 33.1302 236.644 33.3274 236.504 33.5859C236.369 33.8445 236.301 34.1577 236.301 34.5256ZM243.032 39V31.3636H244.832V39H243.032ZM250.013 39.1491C249.251 39.1491 248.597 38.9818 248.05 38.647C247.506 38.3123 247.087 37.8499 246.792 37.2599C246.5 36.6667 246.354 35.9839 246.354 35.2116C246.354 34.4361 246.504 33.7517 246.802 33.1584C247.1 32.5618 247.521 32.0978 248.065 31.7663C248.612 31.4316 249.258 31.2642 250.004 31.2642C250.623 31.2642 251.172 31.3786 251.649 31.6072C252.13 31.8326 252.513 32.1525 252.798 32.5668C253.083 32.9777 253.245 33.4583 253.285 34.0085H251.565C251.495 33.6406 251.329 33.334 251.067 33.0888C250.809 32.8402 250.463 32.7159 250.028 32.7159C249.661 32.7159 249.337 32.8153 249.059 33.0142C248.781 33.2098 248.563 33.4915 248.408 33.8594C248.255 34.2273 248.179 34.6681 248.179 35.1818C248.179 35.7022 248.255 36.1496 248.408 36.5241C248.56 36.8954 248.774 37.1821 249.049 37.3842C249.327 37.5831 249.654 37.6825 250.028 37.6825C250.294 37.6825 250.531 37.6328 250.739 37.5334C250.951 37.4306 251.129 37.2831 251.271 37.0909C251.414 36.8987 251.512 36.665 251.565 36.3899H253.285C253.242 36.9302 253.083 37.4091 252.808 37.8267C252.532 38.241 252.158 38.5658 251.684 38.8011C251.21 39.0331 250.653 39.1491 250.013 39.1491ZM254.763 39V31.3636H256.562V39H254.763Z" fill="#1C1C1C"/>
<path d="M198.801 79V76.7159L204.861 70.7756C205.44 70.1903 205.923 69.6705 206.31 69.2159C206.696 68.7614 206.986 68.321 207.179 67.8949C207.372 67.4687 207.469 67.0142 207.469 66.5312C207.469 65.9801 207.344 65.5085 207.094 65.1165C206.844 64.7188 206.5 64.4119 206.062 64.196C205.625 63.9801 205.128 63.8722 204.571 63.8722C203.997 63.8722 203.494 63.9915 203.062 64.2301C202.631 64.4631 202.295 64.7955 202.057 65.2273C201.824 65.6591 201.707 66.1733 201.707 66.7699H198.699C198.699 65.6619 198.952 64.6989 199.457 63.8807C199.963 63.0625 200.659 62.429 201.545 61.9801C202.438 61.5312 203.46 61.3068 204.614 61.3068C205.784 61.3068 206.813 61.5256 207.699 61.9631C208.585 62.4006 209.273 63 209.761 63.7614C210.256 64.5227 210.503 65.392 210.503 66.3693C210.503 67.0227 210.378 67.6648 210.128 68.2955C209.878 68.9261 209.438 69.625 208.807 70.392C208.182 71.1591 207.304 72.0881 206.173 73.179L203.165 76.2386V76.358H210.767V79H198.801ZM219.972 79.2386C218.744 79.2386 217.653 79.0284 216.699 78.608C215.75 78.1875 215 77.6023 214.449 76.8523C213.898 76.1023 213.605 75.2358 213.571 74.2528H216.776C216.804 74.7244 216.96 75.1364 217.244 75.4886C217.528 75.8352 217.906 76.1051 218.378 76.2983C218.849 76.4915 219.378 76.5881 219.963 76.5881C220.588 76.5881 221.142 76.4801 221.625 76.2642C222.108 76.0426 222.486 75.7358 222.759 75.3438C223.031 74.9517 223.165 74.5 223.159 73.9886C223.165 73.4602 223.028 72.9943 222.75 72.5909C222.472 72.1875 222.068 71.8722 221.54 71.6449C221.017 71.4176 220.386 71.304 219.648 71.304H218.105V68.8665H219.648C220.256 68.8665 220.787 68.7614 221.241 68.5511C221.702 68.3409 222.063 68.0455 222.324 67.6648C222.585 67.2784 222.713 66.8324 222.707 66.3267C222.713 65.8324 222.602 65.4034 222.375 65.0398C222.153 64.6705 221.838 64.3835 221.429 64.179C221.026 63.9744 220.551 63.8722 220.006 63.8722C219.472 63.8722 218.977 63.9687 218.523 64.1619C218.068 64.3551 217.702 64.6307 217.423 64.9886C217.145 65.3409 216.997 65.7614 216.98 66.25H213.938C213.96 65.2727 214.241 64.4148 214.781 63.6761C215.327 62.9318 216.054 62.3523 216.963 61.9375C217.872 61.517 218.892 61.3068 220.023 61.3068C221.188 61.3068 222.199 61.5256 223.057 61.9631C223.92 62.3949 224.588 62.9773 225.06 63.7102C225.531 64.4432 225.767 65.2528 225.767 66.1392C225.773 67.1222 225.483 67.946 224.898 68.6108C224.318 69.2756 223.557 69.7102 222.614 69.9148V70.0511C223.841 70.2216 224.781 70.6761 225.435 71.4148C226.094 72.1477 226.42 73.0597 226.415 74.1506C226.415 75.1278 226.136 76.0028 225.58 76.7756C225.028 77.5426 224.267 78.1449 223.295 78.5824C222.33 79.0199 221.222 79.2386 219.972 79.2386ZM235.4 61.3068C236.235 61.3125 237.048 61.4602 237.837 61.75C238.633 62.0341 239.349 62.5 239.985 63.1477C240.621 63.7898 241.127 64.6506 241.502 65.7301C241.877 66.8097 242.065 68.1449 242.065 69.7358C242.07 71.2358 241.911 72.5767 241.587 73.7585C241.269 74.9347 240.812 75.929 240.215 76.7415C239.619 77.554 238.9 78.1733 238.059 78.5994C237.218 79.0256 236.272 79.2386 235.221 79.2386C234.119 79.2386 233.141 79.0227 232.289 78.5909C231.442 78.1591 230.758 77.5682 230.235 76.8182C229.712 76.0682 229.391 75.2102 229.272 74.2443H232.383C232.542 74.9375 232.866 75.4886 233.354 75.8977C233.849 76.3011 234.471 76.5028 235.221 76.5028C236.431 76.5028 237.363 75.9773 238.016 74.9261C238.67 73.875 238.996 72.4148 238.996 70.5455H238.877C238.599 71.0455 238.238 71.4773 237.795 71.8409C237.352 72.1989 236.849 72.4744 236.286 72.6676C235.729 72.8608 235.138 72.9574 234.513 72.9574C233.491 72.9574 232.57 72.7131 231.752 72.2244C230.94 71.7358 230.295 71.0653 229.817 70.2131C229.346 69.3608 229.107 68.3864 229.102 67.2898C229.102 66.1534 229.363 65.1335 229.886 64.2301C230.414 63.321 231.15 62.6051 232.093 62.0824C233.036 61.554 234.138 61.2955 235.4 61.3068ZM235.408 63.8636C234.795 63.8636 234.241 64.0142 233.746 64.3153C233.258 64.6108 232.871 65.0142 232.587 65.5256C232.309 66.0312 232.17 66.5966 232.17 67.2216C232.175 67.8409 232.315 68.4034 232.587 68.9091C232.866 69.4148 233.244 69.8153 233.721 70.1108C234.204 70.4062 234.755 70.554 235.374 70.554C235.835 70.554 236.263 70.4659 236.661 70.2898C237.059 70.1136 237.406 69.8693 237.701 69.5568C238.002 69.2386 238.235 68.8778 238.4 68.4744C238.57 68.071 238.653 67.6449 238.647 67.196C238.647 66.5994 238.505 66.0483 238.221 65.5426C237.942 65.0369 237.559 64.6307 237.07 64.3239C236.587 64.017 236.033 63.8636 235.408 63.8636ZM245.073 79V61.5455H248.235V69.5653H248.448L255.258 61.5455H259.119L252.369 69.3778L259.178 79H255.377L250.17 71.517L248.235 73.8011V79H245.073Z" fill="#1C1C1C"/>
<path d="M251.19 69.1676V70.1051H247.372V69.1676H251.19ZM256.011 65.2727V74H254.954V66.3807H254.903L252.772 67.7955V66.7216L254.954 65.2727H256.011ZM258.755 74.0682C258.545 74.0682 258.364 73.9929 258.214 73.8423C258.063 73.6918 257.988 73.5114 257.988 73.3011C257.988 73.0909 258.063 72.9105 258.214 72.7599C258.364 72.6094 258.545 72.5341 258.755 72.5341C258.965 72.5341 259.146 72.6094 259.296 72.7599C259.447 72.9105 259.522 73.0909 259.522 73.3011C259.522 73.4403 259.487 73.5682 259.415 73.6847C259.347 73.8011 259.255 73.8949 259.138 73.9659C259.025 74.0341 258.897 74.0682 258.755 74.0682ZM261.105 72.2102V71.3409L264.94 65.2727H265.571V66.6193H265.145L262.247 71.2045V71.2727H267.412V72.2102H261.105ZM265.213 74V71.946V71.5412V65.2727H266.219V74H265.213ZM271.804 74.1193C271.219 74.1193 270.702 74.0156 270.253 73.8082C269.807 73.598 269.459 73.3097 269.209 72.9432C268.959 72.5739 268.836 72.1534 268.838 71.6818C268.836 71.3125 268.908 70.9716 269.056 70.6591C269.203 70.3437 269.405 70.081 269.661 69.8707C269.919 69.6577 270.208 69.5227 270.526 69.4659V69.4148C270.108 69.3068 269.776 69.0724 269.529 68.7116C269.282 68.348 269.159 67.9347 269.162 67.4716C269.159 67.0284 269.272 66.6321 269.499 66.2827C269.726 65.9332 270.039 65.6577 270.436 65.456C270.837 65.2543 271.293 65.1534 271.804 65.1534C272.31 65.1534 272.762 65.2543 273.159 65.456C273.557 65.6577 273.87 65.9332 274.097 66.2827C274.327 66.6321 274.444 67.0284 274.446 67.4716C274.444 67.9347 274.317 68.348 274.067 68.7116C273.82 69.0724 273.492 69.3068 273.083 69.4148V69.4659C273.398 69.5227 273.682 69.6577 273.935 69.8707C274.188 70.081 274.39 70.3437 274.54 70.6591C274.691 70.9716 274.767 71.3125 274.77 71.6818C274.767 72.1534 274.64 72.5739 274.387 72.9432C274.137 73.3097 273.789 73.598 273.343 73.8082C272.9 74.0156 272.387 74.1193 271.804 74.1193ZM271.804 73.1818C272.199 73.1818 272.54 73.1179 272.827 72.9901C273.114 72.8622 273.336 72.6818 273.492 72.4489C273.648 72.2159 273.728 71.9432 273.73 71.6307C273.728 71.3011 273.642 71.0099 273.475 70.7571C273.307 70.5043 273.078 70.3054 272.789 70.1605C272.502 70.0156 272.174 69.9432 271.804 69.9432C271.432 69.9432 271.1 70.0156 270.807 70.1605C270.517 70.3054 270.289 70.5043 270.121 70.7571C269.956 71.0099 269.875 71.3011 269.878 71.6307C269.875 71.9432 269.951 72.2159 270.104 72.4489C270.26 72.6818 270.483 72.8622 270.773 72.9901C271.063 73.1179 271.407 73.1818 271.804 73.1818ZM271.804 69.0398C272.117 69.0398 272.394 68.9773 272.635 68.8523C272.88 68.7273 273.071 68.5526 273.211 68.3281C273.35 68.1037 273.421 67.8409 273.424 67.5398C273.421 67.2443 273.351 66.9872 273.215 66.7685C273.078 66.5469 272.89 66.3764 272.648 66.2571C272.407 66.1349 272.125 66.0739 271.804 66.0739C271.478 66.0739 271.192 66.1349 270.948 66.2571C270.703 66.3764 270.515 66.5469 270.381 66.7685C270.248 66.9872 270.182 67.2443 270.185 67.5398C270.182 67.8409 270.249 68.1037 270.385 68.3281C270.525 68.5526 270.716 68.7273 270.961 68.8523C271.205 68.9773 271.486 69.0398 271.804 69.0398ZM280.852 72.3636V71.9034C280.852 71.5852 280.918 71.294 281.048 71.0298C281.182 70.7628 281.375 70.5497 281.628 70.3906C281.884 70.2287 282.193 70.1477 282.557 70.1477C282.926 70.1477 283.236 70.2287 283.486 70.3906C283.736 70.5497 283.925 70.7628 284.053 71.0298C284.18 71.294 284.244 71.5852 284.244 71.9034V72.3636C284.244 72.6818 284.179 72.9744 284.048 73.2415C283.92 73.5057 283.73 73.7187 283.477 73.8807C283.227 74.0398 282.92 74.1193 282.557 74.1193C282.188 74.1193 281.876 74.0398 281.624 73.8807C281.371 73.7187 281.179 73.5057 281.048 73.2415C280.918 72.9744 280.852 72.6818 280.852 72.3636ZM281.722 71.9034V72.3636C281.722 72.6278 281.784 72.8651 281.909 73.0753C282.034 73.2827 282.25 73.3864 282.557 73.3864C282.855 73.3864 283.065 73.2827 283.188 73.0753C283.312 72.8651 283.375 72.6278 283.375 72.3636V71.9034C283.375 71.6392 283.315 71.4034 283.196 71.196C283.077 70.9858 282.864 70.8807 282.557 70.8807C282.259 70.8807 282.044 70.9858 281.913 71.196C281.786 71.4034 281.722 71.6392 281.722 71.9034ZM276.506 67.3693V66.9091C276.506 66.5909 276.571 66.2997 276.702 66.0355C276.835 65.7685 277.028 65.5554 277.281 65.3963C277.537 65.2344 277.847 65.1534 278.21 65.1534C278.58 65.1534 278.889 65.2344 279.139 65.3963C279.389 65.5554 279.578 65.7685 279.706 66.0355C279.834 66.2997 279.898 66.5909 279.898 66.9091V67.3693C279.898 67.6875 279.832 67.9801 279.702 68.2472C279.574 68.5114 279.384 68.7244 279.131 68.8864C278.881 69.0455 278.574 69.125 278.21 69.125C277.841 69.125 277.53 69.0455 277.277 68.8864C277.024 68.7244 276.832 68.5114 276.702 68.2472C276.571 67.9801 276.506 67.6875 276.506 67.3693ZM277.375 66.9091V67.3693C277.375 67.6335 277.438 67.8707 277.562 68.081C277.688 68.2884 277.903 68.392 278.21 68.392C278.509 68.392 278.719 68.2884 278.841 68.081C278.966 67.8707 279.028 67.6335 279.028 67.3693V66.9091C279.028 66.6449 278.969 66.4091 278.849 66.2017C278.73 65.9915 278.517 65.8864 278.21 65.8864C277.912 65.8864 277.697 65.9915 277.567 66.2017C277.439 66.4091 277.375 66.6449 277.375 66.9091ZM276.83 74L282.83 65.2727H283.801L277.801 74H276.83Z" fill="#1C1C1C"/>
<path fill-rule="evenodd" clip-rule="evenodd" d="M303.596 65.6393C303.795 65.8305 303.802 66.1471 303.611 66.3463L300.251 69.8463C300.156 69.9445 300.026 70 299.89 70C299.754 70 299.624 69.9445 299.529 69.8463L297.49 67.722L295.073 70.2393L296.795 71.8922L291.25 73.5L292.63 67.8939L294.352 69.5468L297.129 66.6537C297.224 66.5555 297.354 66.5 297.49 66.5C297.626 66.5 297.756 66.5555 297.851 66.6537L299.89 68.778L302.889 65.6537C303.081 65.4545 303.397 65.4481 303.596 65.6393Z" fill="#1C1C1C"/>
<path d="M488.75 0H362.5C353.663 0 346.5 7.16344 346.5 16V96C346.5 104.837 353.663 112 362.5 112H488.75C497.587 112 504.75 104.837 504.75 96V16C504.75 7.16344 497.587 0 488.75 0Z" fill="#ECE8F4"/>
<path d="M373.349 28.8182V39H371.504V28.8182H373.349ZM372.429 27.7344C372.141 27.7344 371.894 27.6399 371.688 27.451C371.486 27.2588 371.385 27.0284 371.385 26.7599C371.385 26.4882 371.488 26.2578 371.693 26.0689C371.899 25.8767 372.144 25.7805 372.429 25.7805C372.714 25.7805 372.958 25.8767 373.16 26.0689C373.365 26.2578 373.468 26.4882 373.468 26.7599C373.468 27.0284 373.365 27.2588 373.16 27.451C372.958 27.6399 372.714 27.7344 372.429 27.7344ZM381.302 33.3821L379.661 33.5611C379.615 33.3954 379.534 33.2396 379.418 33.0938C379.305 32.9479 379.153 32.8303 378.96 32.7408C378.768 32.6513 378.533 32.6065 378.254 32.6065C377.88 32.6065 377.565 32.6877 377.31 32.8501C377.058 33.0125 376.934 33.223 376.937 33.4815C376.934 33.7036 377.015 33.8842 377.181 34.0234C377.35 34.1626 377.628 34.277 378.016 34.3665L379.318 34.6449C380.041 34.8007 380.578 35.0476 380.929 35.3857C381.284 35.7237 381.463 36.1662 381.466 36.7131C381.463 37.1937 381.322 37.6179 381.044 37.9858C380.768 38.3504 380.386 38.6354 379.895 38.8409C379.405 39.0464 378.841 39.1491 378.205 39.1491C377.27 39.1491 376.518 38.9536 375.948 38.5625C375.378 38.1681 375.038 37.6196 374.928 36.9169L376.683 36.7479C376.763 37.0926 376.932 37.3527 377.191 37.5284C377.449 37.7041 377.785 37.7919 378.2 37.7919C378.627 37.7919 378.97 37.7041 379.229 37.5284C379.491 37.3527 379.622 37.1357 379.622 36.8771C379.622 36.6584 379.537 36.4777 379.368 36.3352C379.202 36.1927 378.944 36.0833 378.593 36.0071L377.29 35.7337C376.557 35.5812 376.016 35.3243 375.664 34.9631C375.313 34.5985 375.139 34.1378 375.142 33.581C375.139 33.1103 375.267 32.7027 375.525 32.358C375.787 32.0099 376.15 31.7415 376.614 31.5526C377.081 31.3603 377.62 31.2642 378.23 31.2642C379.124 31.2642 379.829 31.4548 380.343 31.8359C380.86 32.2171 381.179 32.7325 381.302 33.3821ZM377.752 38.9602H378.727L378.647 39.3828C378.959 39.4292 379.222 39.5485 379.438 39.7408C379.656 39.9363 379.766 40.2164 379.766 40.581C379.769 41.0516 379.559 41.4295 379.134 41.7145C378.71 41.9995 378.105 42.142 377.32 42.142L377.3 41.2571C377.681 41.2571 377.984 41.2057 378.21 41.103C378.435 41.0036 378.549 40.8445 378.553 40.6257C378.559 40.4136 378.48 40.2578 378.314 40.1584C378.152 40.0623 377.893 39.996 377.539 39.9595L377.752 38.9602ZM384.75 28.8182V39H382.95V28.8182H384.75ZM389.981 39.1491C389.216 39.1491 388.554 38.9901 387.998 38.6719C387.444 38.3504 387.018 37.8963 386.72 37.3097C386.422 36.7197 386.272 36.0253 386.272 35.2266C386.272 34.4411 386.422 33.7517 386.72 33.1584C387.021 32.5618 387.442 32.0978 387.983 31.7663C388.523 31.4316 389.158 31.2642 389.887 31.2642C390.357 31.2642 390.801 31.3404 391.219 31.4929C391.64 31.642 392.011 31.8741 392.333 32.1889C392.658 32.5038 392.913 32.9048 393.098 33.392C393.284 33.8759 393.377 34.4527 393.377 35.1222V35.674H387.118V34.4609H391.652C391.648 34.1162 391.574 33.8097 391.428 33.5412C391.282 33.2694 391.078 33.0556 390.816 32.8999C390.558 32.7441 390.256 32.6662 389.912 32.6662C389.544 32.6662 389.221 32.7557 388.942 32.9347C388.664 33.1103 388.447 33.3423 388.291 33.6307C388.138 33.9157 388.06 34.2289 388.057 34.5703V35.6293C388.057 36.0734 388.138 36.4545 388.301 36.7727C388.463 37.0876 388.69 37.3295 388.982 37.4986C389.274 37.6643 389.615 37.7472 390.006 37.7472C390.268 37.7472 390.505 37.7107 390.717 37.6378C390.929 37.5616 391.113 37.4505 391.269 37.3047C391.425 37.1589 391.542 36.9782 391.622 36.7628L393.302 36.9517C393.196 37.3958 392.994 37.7836 392.696 38.1151C392.401 38.4432 392.023 38.6984 391.562 38.8807C391.101 39.0597 390.574 39.1491 389.981 39.1491ZM394.899 39V31.3636H396.619V32.6612H396.709C396.868 32.2237 397.132 31.8823 397.499 31.6371C397.867 31.3885 398.307 31.2642 398.817 31.2642C399.334 31.2642 399.77 31.3902 400.124 31.642C400.482 31.8906 400.734 32.2304 400.88 32.6612H400.96C401.129 32.237 401.414 31.8989 401.815 31.647C402.219 31.3918 402.698 31.2642 403.252 31.2642C403.954 31.2642 404.528 31.4863 404.972 31.9304C405.416 32.3745 405.638 33.0225 405.638 33.8743V39H403.833V34.1527C403.833 33.6787 403.707 33.3324 403.455 33.1136C403.204 32.8916 402.895 32.7805 402.531 32.7805C402.097 32.7805 401.757 32.9164 401.512 33.1882C401.27 33.4567 401.149 33.8063 401.149 34.2372V39H399.384V34.0781C399.384 33.6837 399.264 33.3688 399.026 33.1335C398.79 32.8982 398.482 32.7805 398.101 32.7805C397.843 32.7805 397.607 32.8468 397.395 32.9794C397.183 33.1087 397.014 33.2926 396.888 33.5312C396.762 33.7666 396.699 34.0417 396.699 34.3565V39H394.899ZM412.324 39H410.355L413.939 28.8182H416.216L419.806 39H417.837L415.118 30.9062H415.038L412.324 39ZM412.388 35.0078H417.757V36.4893H412.388V35.0078ZM423.669 39.1342C423.069 39.1342 422.532 38.9801 422.058 38.6719C421.584 38.3636 421.209 37.9162 420.934 37.3295C420.659 36.7429 420.522 36.0303 420.522 35.1918C420.522 34.3433 420.661 33.6274 420.939 33.044C421.221 32.4574 421.6 32.0149 422.078 31.7166C422.555 31.415 423.087 31.2642 423.674 31.2642C424.121 31.2642 424.489 31.3404 424.777 31.4929C425.066 31.642 425.294 31.8227 425.463 32.0348C425.632 32.2436 425.763 32.4408 425.856 32.6264H425.931V28.8182H427.735V39H425.966V37.7969H425.856C425.763 37.9825 425.629 38.1797 425.453 38.3885C425.278 38.594 425.046 38.7696 424.757 38.9155C424.469 39.0613 424.106 39.1342 423.669 39.1342ZM424.171 37.6577C424.552 37.6577 424.877 37.5549 425.145 37.3494C425.414 37.1406 425.618 36.8506 425.757 36.4794C425.896 36.1082 425.966 35.6757 425.966 35.1818C425.966 34.688 425.896 34.2588 425.757 33.8942C425.621 33.5296 425.419 33.2462 425.15 33.044C424.885 32.8419 424.559 32.7408 424.171 32.7408C423.77 32.7408 423.435 32.8452 423.167 33.054C422.898 33.2628 422.696 33.5511 422.56 33.919C422.424 34.2869 422.356 34.7079 422.356 35.1818C422.356 35.6591 422.424 36.085 422.56 36.4595C422.699 36.8307 422.903 37.1241 423.172 37.3395C423.443 37.5516 423.776 37.6577 424.171 37.6577ZM433.034 39.1491C432.268 39.1491 431.607 38.9901 431.05 38.6719C430.497 38.3504 430.071 37.8963 429.773 37.3097C429.474 36.7197 429.325 36.0253 429.325 35.2266C429.325 34.4411 429.474 33.7517 429.773 33.1584C430.074 32.5618 430.495 32.0978 431.035 31.7663C431.576 31.4316 432.21 31.2642 432.939 31.2642C433.41 31.2642 433.854 31.3404 434.272 31.4929C434.693 31.642 435.064 31.8741 435.385 32.1889C435.71 32.5038 435.965 32.9048 436.151 33.392C436.337 33.8759 436.43 34.4527 436.43 35.1222V35.674H430.17V34.4609H434.704C434.701 34.1162 434.626 33.8097 434.481 33.5412C434.335 33.2694 434.131 33.0556 433.869 32.8999C433.611 32.7441 433.309 32.6662 432.964 32.6662C432.596 32.6662 432.273 32.7557 431.995 32.9347C431.716 33.1103 431.499 33.3423 431.344 33.6307C431.191 33.9157 431.113 34.2289 431.11 34.5703V35.6293C431.11 36.0734 431.191 36.4545 431.354 36.7727C431.516 37.0876 431.743 37.3295 432.035 37.4986C432.326 37.6643 432.668 37.7472 433.059 37.7472C433.321 37.7472 433.558 37.7107 433.77 37.6378C433.982 37.5616 434.166 37.4505 434.322 37.3047C434.477 37.1589 434.595 36.9782 434.675 36.7628L436.355 36.9517C436.249 37.3958 436.047 37.7836 435.748 38.1151C435.453 38.4432 435.076 38.6984 434.615 38.8807C434.154 39.0597 433.627 39.1491 433.034 39.1491ZM441.765 31.3636V32.7557H437.375V31.3636H441.765ZM438.459 29.5341H440.259V36.7031C440.259 36.9451 440.295 37.1307 440.368 37.2599C440.444 37.3859 440.544 37.4721 440.667 37.5185C440.789 37.5649 440.925 37.5881 441.074 37.5881C441.187 37.5881 441.29 37.5798 441.382 37.5632C441.479 37.5466 441.551 37.5317 441.601 37.5185L441.904 38.9254C441.808 38.9586 441.671 38.995 441.492 39.0348C441.316 39.0746 441.101 39.0978 440.846 39.1044C440.395 39.1177 439.989 39.0497 439.627 38.9006C439.266 38.7481 438.98 38.5128 438.767 38.1946C438.559 37.8764 438.456 37.4787 438.459 37.0014V29.5341ZM443.27 39V31.3636H445.07V39H443.27ZM444.175 30.2798C443.89 30.2798 443.645 30.1854 443.439 29.9964C443.234 29.8042 443.131 29.5739 443.131 29.3054C443.131 29.0336 443.234 28.8033 443.439 28.6143C443.645 28.4221 443.89 28.326 444.175 28.326C444.464 28.326 444.709 28.4221 444.911 28.6143C445.117 28.8033 445.219 29.0336 445.219 29.3054C445.219 29.5739 445.117 29.8042 444.911 29.9964C444.709 30.1854 444.464 30.2798 444.175 30.2798Z" fill="#1C1C1C"/>
<path d="M379.151 61.5455V79H375.989V64.6222H375.886L371.804 67.2301V64.3324L376.142 61.5455H379.151ZM386.278 76.6136L386.167 77.5511C386.087 78.267 385.945 78.9943 385.741 79.733C385.542 80.4773 385.332 81.1619 385.11 81.7869C384.888 82.4119 384.71 82.9034 384.573 83.2614H382.494C382.573 82.9148 382.681 82.4432 382.817 81.8466C382.96 81.25 383.096 80.5795 383.227 79.8352C383.357 79.0909 383.445 78.3352 383.491 77.5682L383.55 76.6136H386.278ZM394.643 61.5455V79H391.481V64.6222H391.379L387.296 67.2301V64.3324L391.634 61.5455H394.643ZM405.143 79.2386C404.006 79.2386 402.989 79.0256 402.092 78.5994C401.194 78.1676 400.481 77.5767 399.952 76.8267C399.43 76.0767 399.151 75.2187 399.117 74.2528H402.185C402.242 74.9687 402.552 75.554 403.114 76.0085C403.677 76.4574 404.353 76.6818 405.143 76.6818C405.762 76.6818 406.313 76.5398 406.796 76.2557C407.279 75.9716 407.66 75.5767 407.938 75.071C408.217 74.5653 408.353 73.9886 408.347 73.3409C408.353 72.6818 408.214 72.0966 407.93 71.5852C407.646 71.0739 407.256 70.6733 406.762 70.3835C406.268 70.0881 405.7 69.9403 405.058 69.9403C404.535 69.9347 404.021 70.0312 403.515 70.2301C403.009 70.429 402.609 70.6903 402.313 71.0142L399.458 70.5455L400.37 61.5455H410.495V64.1875H402.987L402.484 68.8153H402.586C402.91 68.4347 403.367 68.1193 403.958 67.8693C404.549 67.6136 405.197 67.4858 405.901 67.4858C406.958 67.4858 407.901 67.7358 408.731 68.2358C409.56 68.7301 410.214 69.4119 410.691 70.2812C411.168 71.1506 411.407 72.1449 411.407 73.2642C411.407 74.4176 411.14 75.446 410.606 76.3494C410.077 77.2472 409.342 77.9545 408.398 78.4716C407.461 78.983 406.376 79.2386 405.143 79.2386ZM420.654 79.2386C419.819 79.233 419.004 79.0881 418.208 78.804C417.413 78.5142 416.697 78.0455 416.06 77.3977C415.424 76.7443 414.918 75.8778 414.543 74.7983C414.168 73.7131 413.984 72.3693 413.989 70.767C413.989 69.2727 414.148 67.9403 414.467 66.7699C414.785 65.5994 415.242 64.6108 415.839 63.804C416.435 62.9915 417.154 62.3722 417.995 61.946C418.842 61.5199 419.788 61.3068 420.833 61.3068C421.93 61.3068 422.901 61.5227 423.748 61.9545C424.6 62.3864 425.288 62.9773 425.81 63.7273C426.333 64.4716 426.657 65.3125 426.782 66.25H423.671C423.512 65.5795 423.185 65.0455 422.691 64.6477C422.202 64.2443 421.583 64.0426 420.833 64.0426C419.623 64.0426 418.691 64.5682 418.038 65.6193C417.39 66.6705 417.063 68.1136 417.058 69.9489H417.177C417.455 69.4489 417.816 69.0199 418.259 68.6619C418.702 68.304 419.202 68.0284 419.759 67.8352C420.322 67.6364 420.915 67.5369 421.54 67.5369C422.563 67.5369 423.481 67.7812 424.293 68.2699C425.112 68.7585 425.759 69.4318 426.237 70.2898C426.714 71.142 426.95 72.1193 426.944 73.2216C426.95 74.3693 426.688 75.4006 426.16 76.3153C425.631 77.2244 424.896 77.9403 423.952 78.4631C423.009 78.9858 421.91 79.2443 420.654 79.2386ZM420.637 76.6818C421.256 76.6818 421.81 76.5312 422.299 76.2301C422.788 75.929 423.174 75.5227 423.458 75.0114C423.742 74.5 423.881 73.9261 423.876 73.2898C423.881 72.6648 423.745 72.0994 423.467 71.5938C423.194 71.0881 422.816 70.6875 422.333 70.392C421.85 70.0966 421.299 69.9489 420.68 69.9489C420.219 69.9489 419.79 70.0369 419.393 70.2131C418.995 70.3892 418.648 70.6335 418.353 70.946C418.058 71.2528 417.825 71.6108 417.654 72.0199C417.489 72.4233 417.404 72.8551 417.398 73.3153C417.404 73.9233 417.546 74.483 417.825 74.9943C418.103 75.5057 418.487 75.9148 418.975 76.2216C419.464 76.5284 420.018 76.6818 420.637 76.6818Z" fill="#1C1C1C"/>
<path d="M422.788 69.1676V70.1051H418.969V69.1676H422.788ZM427.387 74.1193C426.745 74.1193 426.198 73.9446 425.746 73.5952C425.294 73.2429 424.949 72.733 424.711 72.0653C424.472 71.3949 424.353 70.5852 424.353 69.6364C424.353 68.6932 424.472 67.8878 424.711 67.2202C424.952 66.5497 425.299 66.0384 425.75 65.6861C426.205 65.331 426.75 65.1534 427.387 65.1534C428.023 65.1534 428.567 65.331 429.019 65.6861C429.473 66.0384 429.82 66.5497 430.059 67.2202C430.3 67.8878 430.421 68.6932 430.421 69.6364C430.421 70.5852 430.301 71.3949 430.063 72.0653C429.824 72.733 429.479 73.2429 429.027 73.5952C428.576 73.9446 428.029 74.1193 427.387 74.1193ZM427.387 73.1818C428.023 73.1818 428.517 72.875 428.87 72.2614C429.222 71.6477 429.398 70.7727 429.398 69.6364C429.398 68.8807 429.317 68.2372 429.155 67.706C428.996 67.1747 428.766 66.7699 428.465 66.4915C428.167 66.2131 427.807 66.0739 427.387 66.0739C426.756 66.0739 426.263 66.3849 425.908 67.0071C425.553 67.6264 425.375 68.5028 425.375 69.6364C425.375 70.392 425.455 71.0341 425.614 71.5625C425.773 72.0909 426.002 72.4929 426.3 72.7685C426.601 73.044 426.963 73.1818 427.387 73.1818ZM432.485 74.0682C432.275 74.0682 432.095 73.9929 431.944 73.8423C431.794 73.6918 431.718 73.5114 431.718 73.3011C431.718 73.0909 431.794 72.9105 431.944 72.7599C432.095 72.6094 432.275 72.5341 432.485 72.5341C432.696 72.5341 432.876 72.6094 433.027 72.7599C433.177 72.9105 433.252 73.0909 433.252 73.3011C433.252 73.4403 433.217 73.5682 433.146 73.6847C433.078 73.8011 432.985 73.8949 432.869 73.9659C432.755 74.0341 432.627 74.0682 432.485 74.0682ZM437.592 74.1193C437.092 74.1193 436.641 74.0199 436.241 73.821C435.84 73.6222 435.519 73.3494 435.278 73.0028C435.036 72.6562 434.904 72.2614 434.881 71.8182H435.904C435.944 72.2131 436.123 72.5398 436.441 72.7983C436.762 73.054 437.146 73.1818 437.592 73.1818C437.95 73.1818 438.268 73.098 438.546 72.9304C438.827 72.7628 439.048 72.5327 439.207 72.2401C439.369 71.9446 439.45 71.6108 439.45 71.2386C439.45 70.858 439.366 70.5185 439.198 70.2202C439.033 69.919 438.806 69.6818 438.516 69.5085C438.227 69.3352 437.896 69.2472 437.523 69.2443C437.256 69.2415 436.982 69.2827 436.701 69.3679C436.42 69.4503 436.188 69.5568 436.006 69.6875L435.018 69.5682L435.546 65.2727H440.08V66.2102H436.433L436.126 68.7841H436.177C436.356 68.642 436.58 68.5241 436.85 68.4304C437.12 68.3366 437.401 68.2898 437.694 68.2898C438.228 68.2898 438.704 68.4176 439.121 68.6733C439.542 68.9261 439.871 69.2727 440.11 69.7131C440.352 70.1534 440.472 70.6562 440.472 71.2216C440.472 71.7784 440.347 72.2756 440.097 72.7131C439.85 73.1477 439.509 73.4915 439.075 73.7443C438.64 73.9943 438.146 74.1193 437.592 74.1193ZM445.063 74.1193C444.705 74.1136 444.347 74.0455 443.989 73.9148C443.631 73.7841 443.304 73.5639 443.009 73.2543C442.713 72.9418 442.476 72.5199 442.297 71.9886C442.118 71.4545 442.029 70.7841 442.029 69.9773C442.029 69.2045 442.101 68.5199 442.246 67.9233C442.391 67.3239 442.601 66.8196 442.877 66.4105C443.152 65.9986 443.485 65.6861 443.874 65.473C444.266 65.2599 444.708 65.1534 445.199 65.1534C445.688 65.1534 446.123 65.2514 446.503 65.4474C446.887 65.6406 447.199 65.9105 447.441 66.2571C447.682 66.6037 447.838 67.0028 447.909 67.4545H446.87C446.773 67.0625 446.586 66.7372 446.307 66.4787C446.029 66.2202 445.659 66.0909 445.199 66.0909C444.523 66.0909 443.99 66.3849 443.601 66.973C443.215 67.5611 443.02 68.3864 443.017 69.4489H443.086C443.245 69.2074 443.434 69.0014 443.652 68.831C443.874 68.6577 444.118 68.5241 444.385 68.4304C444.652 68.3366 444.935 68.2898 445.233 68.2898C445.733 68.2898 446.191 68.4148 446.605 68.6648C447.02 68.9119 447.353 69.2543 447.603 69.6918C447.853 70.1264 447.978 70.625 447.978 71.1875C447.978 71.7273 447.857 72.2216 447.615 72.6705C447.374 73.1165 447.034 73.4716 446.597 73.7358C446.162 73.9972 445.651 74.125 445.063 74.1193ZM445.063 73.1818C445.421 73.1818 445.742 73.0923 446.026 72.9134C446.313 72.7344 446.539 72.4943 446.703 72.1932C446.871 71.892 446.955 71.5568 446.955 71.1875C446.955 70.8267 446.874 70.4986 446.712 70.2031C446.553 69.9048 446.333 69.6676 446.051 69.4915C445.773 69.3153 445.455 69.2273 445.097 69.2273C444.827 69.2273 444.576 69.2812 444.343 69.3892C444.11 69.4943 443.905 69.6392 443.729 69.8239C443.556 70.0085 443.419 70.2202 443.32 70.4588C443.221 70.6946 443.171 70.9432 443.171 71.2045C443.171 71.5511 443.252 71.875 443.414 72.1761C443.578 72.4773 443.803 72.7202 444.087 72.9048C444.374 73.0895 444.699 73.1818 445.063 73.1818ZM454.102 72.3636V71.9034C454.102 71.5852 454.168 71.294 454.298 71.0298C454.432 70.7628 454.625 70.5497 454.878 70.3906C455.134 70.2287 455.443 70.1477 455.807 70.1477C456.176 70.1477 456.486 70.2287 456.736 70.3906C456.986 70.5497 457.175 70.7628 457.303 71.0298C457.43 71.294 457.494 71.5852 457.494 71.9034V72.3636C457.494 72.6818 457.429 72.9744 457.298 73.2415C457.17 73.5057 456.98 73.7187 456.727 73.8807C456.477 74.0398 456.17 74.1193 455.807 74.1193C455.438 74.1193 455.126 74.0398 454.874 73.8807C454.621 73.7187 454.429 73.5057 454.298 73.2415C454.168 72.9744 454.102 72.6818 454.102 72.3636ZM454.972 71.9034V72.3636C454.972 72.6278 455.034 72.8651 455.159 73.0753C455.284 73.2827 455.5 73.3864 455.807 73.3864C456.105 73.3864 456.315 73.2827 456.438 73.0753C456.562 72.8651 456.625 72.6278 456.625 72.3636V71.9034C456.625 71.6392 456.565 71.4034 456.446 71.196C456.327 70.9858 456.114 70.8807 455.807 70.8807C455.509 70.8807 455.294 70.9858 455.163 71.196C455.036 71.4034 454.972 71.6392 454.972 71.9034ZM449.756 67.3693V66.9091C449.756 66.5909 449.821 66.2997 449.952 66.0355C450.085 65.7685 450.278 65.5554 450.531 65.3963C450.787 65.2344 451.097 65.1534 451.46 65.1534C451.83 65.1534 452.139 65.2344 452.389 65.3963C452.639 65.5554 452.828 65.7685 452.956 66.0355C453.084 66.2997 453.148 66.5909 453.148 66.9091V67.3693C453.148 67.6875 453.082 67.9801 452.952 68.2472C452.824 68.5114 452.634 68.7244 452.381 68.8864C452.131 69.0455 451.824 69.125 451.46 69.125C451.091 69.125 450.78 69.0455 450.527 68.8864C450.274 68.7244 450.082 68.5114 449.952 68.2472C449.821 67.9801 449.756 67.6875 449.756 67.3693ZM450.625 66.9091V67.3693C450.625 67.6335 450.688 67.8707 450.812 68.081C450.938 68.2884 451.153 68.392 451.46 68.392C451.759 68.392 451.969 68.2884 452.091 68.081C452.216 67.8707 452.278 67.6335 452.278 67.3693V66.9091C452.278 66.6449 452.219 66.4091 452.099 66.2017C451.98 65.9915 451.767 65.8864 451.46 65.8864C451.162 65.8864 450.947 65.9915 450.817 66.2017C450.689 66.4091 450.625 66.6449 450.625 66.9091ZM450.08 74L456.08 65.2727H457.051L451.051 74H450.08Z" fill="#1C1C1C"/>
<path fill-rule="evenodd" clip-rule="evenodd" d="M476.846 65.6393C477.045 65.8305 477.052 66.1471 476.861 66.3463L473.501 69.8463C473.406 69.9445 473.276 70 473.14 70C473.004 70 472.874 69.9445 472.779 69.8463L470.74 67.722L468.323 70.2393L470.045 71.8922L464.5 73.5L465.88 67.8939L467.602 69.5468L470.379 66.6537C470.474 66.5555 470.604 66.5 470.74 66.5C470.876 66.5 471.006 66.5555 471.101 66.6537L473.14 68.778L476.139 65.6537C476.331 65.4545 476.647 65.4481 476.846 65.6393Z" fill="#1C1C1C"/>
<path d="M662 0H535.75C526.913 0 519.75 7.16344 519.75 16V96C519.75 104.837 526.913 112 535.75 112H662C670.837 112 678 104.837 678 96V16C678 7.16344 670.837 0 662 0Z" fill="#ECEEF2"/>
</g>
<defs>
<clipPath id="clip0_0_1">
<rect width="534" height="278" fill="white" transform="translate(0 144)"/>
</clipPath>
<clipPath id="clip1_0_1">
<rect width="534" height="112" fill="white"/>
</clipPath>
</defs>
</svg>
