<svg viewBox="0 0 266 254" fill="none" xmlns="http://www.w3.org/2000/svg">
<g clip-path="url(#clip0_167_6123)">
<rect x="0.986328" y="0.574219" width="264.959" height="568.773" rx="39.6818" fill="white"/>
<g clip-path="url(#clip1_167_6123)">
<rect width="264.959" height="194.333" transform="translate(0.986328 -23)" fill="url(#paint0_linear_167_6123)"/>
<path d="M53.0858 78.2335H50.6216V82.5088H48.8649V71.6261H53.0858C54.3243 71.6261 55.2753 71.9189 55.9386 72.5045C56.6071 73.0901 56.9414 73.8985 56.9414 74.9298C56.9414 75.9611 56.6071 76.7695 55.9386 77.3551C55.2753 77.9407 54.3243 78.2335 53.0858 78.2335ZM53.0392 73.2819H50.6216V76.5777H53.0392C53.7491 76.5777 54.2725 76.443 54.6094 76.1735C54.9462 75.9041 55.1146 75.4895 55.1146 74.9298C55.1146 74.3701 54.9462 73.9555 54.6094 73.6861C54.2725 73.4166 53.7491 73.2819 53.0392 73.2819ZM65.8801 75.0619V82.5088H64.2554V81.6149C63.6906 82.3404 62.9107 82.7031 61.9157 82.7031C60.8637 82.7031 59.9801 82.3326 59.265 81.5915C58.5498 80.8505 58.1923 79.9151 58.1923 78.7854C58.1923 77.6556 58.5498 76.7203 59.265 75.9792C59.9801 75.2381 60.8637 74.8676 61.9157 74.8676C62.9107 74.8676 63.6906 75.233 64.2554 75.9637V75.0619H65.8801ZM62.11 76.399C61.4311 76.399 60.887 76.6296 60.4776 77.0908C60.0682 77.5468 59.8635 78.1117 59.8635 78.7854C59.8635 79.4591 60.0682 80.0265 60.4776 80.4877C60.887 80.9438 61.4311 81.1718 62.11 81.1718C62.7733 81.1718 63.3123 80.9464 63.7269 80.4955C64.1466 80.0446 64.3565 79.4746 64.3565 78.7854C64.3565 78.0961 64.1466 77.5261 63.7269 77.0752C63.3123 76.6244 62.7733 76.399 62.11 76.399ZM72.2001 74.8676C72.6821 74.8676 73.0993 74.9376 73.4516 75.0775L73.063 76.6866C72.7158 76.5052 72.3038 76.4145 71.827 76.4145C71.2984 76.4145 70.8709 76.5933 70.5444 76.9509C70.2179 77.3033 70.0547 77.7904 70.0547 78.4122V82.5088H68.4301V75.0619H70.0392V75.9015C70.5159 75.2122 71.2362 74.8676 72.2001 74.8676ZM81.9581 75.0619V82.5088H80.3335V81.6149C79.7686 82.3404 78.9887 82.7031 77.9937 82.7031C76.9417 82.7031 76.0581 82.3326 75.343 81.5915C74.6278 80.8505 74.2703 79.9151 74.2703 78.7854C74.2703 77.6556 74.6278 76.7203 75.343 75.9792C76.0581 75.2381 76.9417 74.8676 77.9937 74.8676C78.9887 74.8676 79.7686 75.233 80.3335 75.9637V75.0619H81.9581ZM78.188 76.399C77.5092 76.399 76.965 76.6296 76.5556 77.0908C76.1462 77.5468 75.9415 78.1117 75.9415 78.7854C75.9415 79.4591 76.1462 80.0265 76.5556 80.4877C76.965 80.9438 77.5092 81.1718 78.188 81.1718C78.8513 81.1718 79.3903 80.9464 79.8049 80.4955C80.2246 80.0446 80.4345 79.4746 80.4345 78.7854C80.4345 78.0961 80.2246 77.5261 79.8049 77.0752C79.3903 76.6244 78.8513 76.399 78.188 76.399ZM96.2906 71.6261V73.2896H92.7693V82.5088H91.0125V73.2896H87.4912V71.6261H96.2906ZM100.773 74.8676C101.255 74.8676 101.672 74.9376 102.025 75.0775L101.636 76.6866C101.289 76.5052 100.877 76.4145 100.4 76.4145C99.8715 76.4145 99.4439 76.5933 99.1174 76.9509C98.791 77.3033 98.6277 77.7904 98.6277 78.4122V82.5088H97.0031V75.0619H98.6122V75.9015C99.0889 75.2122 99.8093 74.8676 100.773 74.8676ZM110.531 75.0619V82.5088H108.906V81.6149C108.342 82.3404 107.562 82.7031 106.567 82.7031C105.515 82.7031 104.631 82.3326 103.916 81.5915C103.201 80.8505 102.843 79.9151 102.843 78.7854C102.843 77.6556 103.201 76.7203 103.916 75.9792C104.631 75.2381 105.515 74.8676 106.567 74.8676C107.562 74.8676 108.342 75.233 108.906 75.9637V75.0619H110.531ZM106.761 76.399C106.082 76.399 105.538 76.6296 105.129 77.0908C104.719 77.5468 104.515 78.1117 104.515 78.7854C104.515 79.4591 104.719 80.0265 105.129 80.4877C105.538 80.9438 106.082 81.1718 106.761 81.1718C107.424 81.1718 107.963 80.9464 108.378 80.4955C108.798 80.0446 109.008 79.4746 109.008 78.7854C109.008 78.0961 108.798 77.5261 108.378 77.0752C107.963 76.6244 107.424 76.399 106.761 76.399ZM116.983 74.8676C117.869 74.8676 118.595 75.1449 119.16 75.6994C119.725 76.2487 120.007 76.9586 120.007 77.8293V82.5088H118.375V78.3656C118.375 77.7437 118.222 77.2644 117.916 76.9275C117.616 76.5855 117.191 76.4145 116.641 76.4145C116.092 76.4145 115.633 76.5907 115.265 76.9431C114.897 77.2903 114.714 77.7697 114.714 78.3812V82.5088H113.081V75.0619H114.698V75.9714C115.201 75.2356 115.962 74.8676 116.983 74.8676ZM128.247 75.6605L127.547 76.9275C127.283 76.7617 126.938 76.614 126.513 76.4845C126.094 76.3549 125.671 76.2901 125.246 76.2901C124.811 76.2901 124.466 76.3705 124.212 76.5311C123.964 76.6918 123.839 76.9068 123.839 77.1763C123.839 77.3007 123.868 77.4095 123.925 77.5028C123.987 77.5909 124.078 77.6634 124.197 77.7204C124.321 77.7774 124.448 77.8215 124.578 77.8526C124.712 77.8837 124.876 77.9148 125.067 77.9459L125.837 78.0625C127.563 78.3112 128.426 79.0445 128.426 80.2623C128.426 80.993 128.125 81.5812 127.524 82.0268C126.923 82.4725 126.094 82.6953 125.036 82.6953C123.767 82.6953 122.702 82.3766 121.842 81.7392L122.596 80.5188C123.259 81.0267 124.078 81.2806 125.052 81.2806C125.601 81.2806 126.021 81.2003 126.311 81.0396C126.601 80.879 126.746 80.6561 126.746 80.3711C126.746 79.941 126.316 79.6663 125.456 79.5472L124.679 79.4461C123.855 79.3321 123.228 79.0911 122.798 78.7232C122.368 78.3501 122.152 77.8629 122.152 77.2618C122.152 76.5259 122.427 75.9455 122.976 75.5206C123.531 75.0905 124.282 74.8754 125.231 74.8754C126.433 74.8754 127.438 75.1371 128.247 75.6605ZM135.124 75.0619V76.5389H132.574V82.5088H130.942V76.5389H129.449V75.0619H130.942V73.8027C130.942 73.0098 131.149 72.3646 131.564 71.8671C131.984 71.3696 132.608 71.1209 133.437 71.1209C134.189 71.1209 134.88 71.3074 135.513 71.6806L134.937 73.0487C134.476 72.7844 134.012 72.6522 133.546 72.6522C133.23 72.6522 132.989 72.7533 132.823 72.9554C132.657 73.1523 132.574 73.4347 132.574 73.8027V75.0619H135.124ZM139.846 74.8676C140.887 74.8676 141.732 75.2304 142.38 75.9559C143.033 76.6762 143.362 77.6168 143.367 78.7776C143.367 78.9331 143.357 79.1352 143.336 79.3839H137.833C137.936 80.0213 138.19 80.4981 138.594 80.8142C138.999 81.1251 139.483 81.2806 140.048 81.2806C140.825 81.2806 141.543 81.0189 142.201 80.4955L143.01 81.6537C142.191 82.3533 141.17 82.7031 139.947 82.7031C138.822 82.7031 137.905 82.343 137.195 81.6226C136.49 80.9023 136.138 79.9565 136.138 78.7854C136.138 77.6194 136.48 76.6762 137.164 75.9559C137.853 75.2304 138.747 74.8676 139.846 74.8676ZM139.815 76.3135C139.255 76.3135 138.807 76.4793 138.47 76.8109C138.138 77.1374 137.928 77.5831 137.84 78.148H141.704C141.616 77.5675 141.406 77.1167 141.074 76.7954C140.748 76.4741 140.328 76.3135 139.815 76.3135ZM149.144 74.8676C149.626 74.8676 150.043 74.9376 150.395 75.0775L150.007 76.6866C149.659 76.5052 149.247 76.4145 148.771 76.4145C148.242 76.4145 147.815 76.5933 147.488 76.9509C147.162 77.3033 146.998 77.7904 146.998 78.4122V82.5088H145.374V75.0619H146.983V75.9015C147.46 75.2122 148.18 74.8676 149.144 74.8676ZM153.686 75.0619V82.5088H152.054V75.0619H153.686ZM152.054 71.6728C152.272 71.4499 152.541 71.3385 152.862 71.3385C153.184 71.3385 153.456 71.4499 153.679 71.6728C153.901 71.8956 154.013 72.1677 154.013 72.489C154.013 72.8103 153.901 73.0798 153.679 73.2974C153.456 73.5151 153.184 73.6239 152.862 73.6239C152.541 73.6239 152.272 73.5151 152.054 73.2974C151.836 73.0798 151.728 72.8103 151.728 72.489C151.728 72.1677 151.836 71.8956 152.054 71.6728ZM160.131 74.8676C161.017 74.8676 161.743 75.1449 162.308 75.6994C162.873 76.2487 163.155 76.9586 163.155 77.8293V82.5088H161.523V78.3656C161.523 77.7437 161.37 77.2644 161.064 76.9275C160.764 76.5855 160.339 76.4145 159.789 76.4145C159.24 76.4145 158.781 76.5907 158.413 76.9431C158.045 77.2903 157.862 77.7697 157.862 78.3812V82.5088H156.229V75.0619H157.846V75.9714C158.349 75.2356 159.11 74.8676 160.131 74.8676ZM168.798 74.8676C169.84 74.8676 170.685 75.2304 171.333 75.9559C171.986 76.6762 172.315 77.6168 172.32 78.7776C172.32 78.9331 172.309 79.1352 172.289 79.3839H166.785C166.889 80.0213 167.143 80.4981 167.547 80.8142C167.951 81.1251 168.436 81.2806 169.001 81.2806C169.778 81.2806 170.496 81.0189 171.154 80.4955L171.962 81.6537C171.143 82.3533 170.123 82.7031 168.9 82.7031C167.775 82.7031 166.858 82.343 166.148 81.6226C165.443 80.9023 165.091 79.9565 165.091 78.7854C165.091 77.6194 165.433 76.6762 166.117 75.9559C166.806 75.2304 167.7 74.8676 168.798 74.8676ZM168.767 76.3135C168.208 76.3135 167.759 76.4793 167.423 76.8109C167.091 77.1374 166.881 77.5831 166.793 78.148H170.656C170.568 77.5675 170.358 77.1167 170.027 76.7954C169.7 76.4741 169.28 76.3135 168.767 76.3135ZM178.719 71.6261H182.94C183.541 71.6261 184.08 71.6806 184.557 71.7894C185.038 71.8982 185.466 72.0666 185.839 72.2946C186.217 72.5227 186.508 72.831 186.71 73.2197C186.912 73.6083 187.013 74.0644 187.013 74.5878C187.013 75.1423 186.855 75.6346 186.539 76.0647C186.223 76.4896 185.821 76.7695 185.334 76.9042C185.878 77.0649 186.334 77.3706 186.702 77.8215C187.075 78.2723 187.262 78.7983 187.262 79.3995C187.262 80.4515 186.904 81.234 186.189 81.747C185.474 82.2549 184.474 82.5088 183.188 82.5088H178.719V71.6261ZM183.111 77.8448H180.476V80.8608H183.111C183.484 80.8608 183.8 80.8401 184.059 80.7987C184.323 80.7572 184.562 80.6821 184.774 80.5732C184.992 80.4644 185.152 80.3089 185.256 80.1068C185.365 79.8995 185.419 79.643 185.419 79.3373C185.419 79.0367 185.365 78.788 185.256 78.591C185.152 78.3889 184.992 78.2361 184.774 78.1324C184.562 78.0236 184.323 77.9484 184.059 77.907C183.8 77.8655 183.484 77.8448 183.111 77.8448ZM182.87 73.2741H180.476V76.2046H182.885C183.155 76.2046 183.391 76.1969 183.593 76.1813C183.8 76.1606 184.007 76.1191 184.215 76.0569C184.422 75.9947 184.59 75.9118 184.72 75.8082C184.855 75.6994 184.963 75.5543 185.046 75.3729C185.129 75.1915 185.171 74.9739 185.171 74.7199C185.171 74.4194 185.111 74.1706 184.992 73.9737C184.873 73.7716 184.696 73.6239 184.463 73.5306C184.235 73.4321 183.997 73.3648 183.748 73.3285C183.505 73.2922 183.212 73.2741 182.87 73.2741ZM196.569 75.0619V82.5088H194.944V81.6149C194.379 82.3404 193.6 82.7031 192.605 82.7031C191.553 82.7031 190.669 82.3326 189.954 81.5915C189.239 80.8505 188.881 79.9151 188.881 78.7854C188.881 77.6556 189.239 76.7203 189.954 75.9792C190.669 75.2381 191.553 74.8676 192.605 74.8676C193.6 74.8676 194.379 75.233 194.944 75.9637V75.0619H196.569ZM192.799 76.399C192.12 76.399 191.576 76.6296 191.167 77.0908C190.757 77.5468 190.552 78.1117 190.552 78.7854C190.552 79.4591 190.757 80.0265 191.167 80.4877C191.576 80.9438 192.12 81.1718 192.799 81.1718C193.462 81.1718 194.001 80.9464 194.416 80.4955C194.836 80.0446 195.045 79.4746 195.045 78.7854C195.045 78.0961 194.836 77.5261 194.416 77.0752C194.001 76.6244 193.462 76.399 192.799 76.399ZM204.887 75.6605L204.187 76.9275C203.923 76.7617 203.578 76.614 203.153 76.4845C202.734 76.3549 202.311 76.2901 201.886 76.2901C201.451 76.2901 201.106 76.3705 200.852 76.5311C200.604 76.6918 200.479 76.9068 200.479 77.1763C200.479 77.3007 200.508 77.4095 200.565 77.5028C200.627 77.5909 200.718 77.6634 200.837 77.7204C200.961 77.7774 201.088 77.8215 201.218 77.8526C201.353 77.8837 201.516 77.9148 201.708 77.9459L202.477 78.0625C204.203 78.3112 205.066 79.0445 205.066 80.2623C205.066 80.8531 204.861 81.3557 204.451 81.7703C204.047 82.1849 203.48 82.4596 202.749 82.5943L201.995 85.004H200.293L201.078 82.6643C200.041 82.571 199.176 82.2626 198.482 81.7392L199.236 80.5188C199.899 81.0267 200.718 81.2806 201.692 81.2806C202.241 81.2806 202.661 81.2003 202.951 81.0396C203.241 80.879 203.387 80.6561 203.387 80.3711C203.387 79.941 202.956 79.6663 202.096 79.5472L201.319 79.4461C200.495 79.3321 199.868 79.0911 199.438 78.7232C199.008 78.3501 198.793 77.8629 198.793 77.2618C198.793 76.5259 199.067 75.9455 199.616 75.5206C200.171 75.0905 200.922 74.8754 201.871 74.8754C203.073 74.8754 204.078 75.1371 204.887 75.6605ZM208.616 71.3152V82.5088H206.983V71.3152H208.616ZM218.31 75.0619V82.5088H216.685V81.6149C216.12 82.3404 215.341 82.7031 214.346 82.7031C213.294 82.7031 212.41 82.3326 211.695 81.5915C210.98 80.8505 210.622 79.9151 210.622 78.7854C210.622 77.6556 210.98 76.7203 211.695 75.9792C212.41 75.2381 213.294 74.8676 214.346 74.8676C215.341 74.8676 216.12 75.233 216.685 75.9637V75.0619H218.31ZM214.54 76.399C213.861 76.399 213.317 76.6296 212.908 77.0908C212.498 77.5468 212.293 78.1117 212.293 78.7854C212.293 79.4591 212.498 80.0265 212.908 80.4877C213.317 80.9438 213.861 81.1718 214.54 81.1718C215.203 81.1718 215.742 80.9464 216.157 80.4955C216.577 80.0446 216.786 79.4746 216.786 78.7854C216.786 78.0961 216.577 77.5261 216.157 77.0752C215.742 76.6244 215.203 76.399 214.54 76.399Z" fill="white"/>
<path d="M103.77 24.8279C105.489 24.8279 106.463 23.9681 106.463 22.5425C106.463 21.1169 105.489 20.2571 103.77 20.2571H100.875V27.875H101.833V24.8279H103.77ZM103.748 21.1604C104.875 21.1604 105.468 21.6175 105.468 22.5425C105.468 23.4675 104.875 23.9246 103.748 23.9246H101.833V21.1604H103.748ZM112.688 22.7057H111.796V23.4022C111.387 22.9125 110.783 22.5969 109.973 22.5969C108.52 22.5969 107.388 23.7287 107.388 25.2904C107.388 26.852 108.52 27.9838 109.973 27.9838C110.783 27.9838 111.387 27.6682 111.796 27.184V27.875H112.688V22.7057ZM110.076 23.4349C111.121 23.4349 111.85 24.2348 111.85 25.2904C111.85 26.3514 111.121 27.1513 110.076 27.1513C109.015 27.1513 108.297 26.3188 108.297 25.2904C108.297 24.262 108.999 23.4349 110.076 23.4349ZM116.96 22.5969C116.345 22.5969 115.806 22.8799 115.447 23.3859V22.7057H114.571V27.875H115.458V24.9965C115.458 24.0443 116.013 23.4403 116.802 23.4403C117.096 23.4403 117.444 23.5111 117.689 23.6417L117.906 22.7656C117.629 22.6459 117.33 22.5969 116.96 22.5969ZM123.826 22.7057H122.933V23.4022C122.525 22.9125 121.921 22.5969 121.11 22.5969C119.658 22.5969 118.526 23.7287 118.526 25.2904C118.526 26.852 119.658 27.9838 121.11 27.9838C121.921 27.9838 122.525 27.6682 122.933 27.184V27.875H123.826V22.7057ZM121.214 23.4349C122.258 23.4349 122.988 24.2348 122.988 25.2904C122.988 26.3514 122.258 27.1513 121.214 27.1513C120.153 27.1513 119.434 26.3188 119.434 25.2904C119.434 24.262 120.136 23.4349 121.214 23.4349ZM132.277 20.1429C130.013 20.1429 128.332 21.7753 128.332 24.0661C128.332 26.5528 130.237 27.9838 132.234 27.9838C134.541 27.9838 135.945 26.2372 135.945 24.0225C135.945 23.9464 135.939 23.8647 135.934 23.7831H132.609V24.6755H134.894C134.747 26.1664 133.79 27.0697 132.234 27.0697C130.601 27.0697 129.333 25.8563 129.333 24.0661C129.333 22.2759 130.601 21.0625 132.277 21.0625C133.197 21.0625 133.997 21.4542 134.524 22.0854L135.226 21.4053C134.535 20.6163 133.485 20.1429 132.277 20.1429ZM139.887 22.5969C138.32 22.5969 137.156 23.7559 137.156 25.2904C137.156 26.8248 138.32 27.9838 139.887 27.9838C141.455 27.9838 142.624 26.8248 142.624 25.2904C142.624 23.7559 141.455 22.5969 139.887 22.5969ZM139.887 23.4349C140.921 23.4349 141.71 24.2075 141.71 25.2904C141.71 26.3732 140.921 27.1513 139.887 27.1513C138.848 27.1513 138.065 26.3732 138.065 25.2904C138.065 24.2075 138.848 23.4349 139.887 23.4349ZM138.783 20.4966C138.429 20.4966 138.157 20.7741 138.157 21.1278C138.157 21.4869 138.429 21.7535 138.783 21.7535C139.137 21.7535 139.414 21.4869 139.414 21.1278C139.414 20.7741 139.137 20.4966 138.783 20.4966ZM140.987 20.4966C140.627 20.4966 140.361 20.7741 140.361 21.1278C140.361 21.4869 140.627 21.7535 140.987 21.7535C141.34 21.7535 141.618 21.4869 141.618 21.1278C141.618 20.7741 141.34 20.4966 140.987 20.4966ZM146.689 22.5969C146.091 22.5969 145.421 22.7982 144.997 23.3805V22.7057H144.116V27.875H145.002V24.9748C145.002 24.0117 145.699 23.4403 146.531 23.4403C147.429 23.4403 147.952 24.0008 147.952 24.953V27.875H148.844V24.6646C148.844 23.424 147.963 22.5969 146.689 22.5969ZM152.866 22.5969C151.413 22.5969 150.281 23.7287 150.281 25.2904C150.281 26.852 151.413 27.9838 152.866 27.9838C153.676 27.9838 154.28 27.6682 154.688 27.184V27.875H155.581V20.0395H154.688V23.4022C154.28 22.9125 153.676 22.5969 152.866 22.5969ZM152.969 23.4349C154.014 23.4349 154.743 24.2348 154.743 25.2904C154.743 26.3514 154.014 27.1513 152.969 27.1513C151.908 27.1513 151.19 26.3188 151.19 25.2904C151.19 24.262 151.892 23.4349 152.969 23.4349ZM159.64 22.5969C158.155 22.5969 157.072 23.7015 157.072 25.2904C157.072 26.901 158.16 27.9838 159.695 27.9838C160.456 27.9838 161.175 27.7988 161.817 27.2003L161.343 26.5908C160.903 26.9717 160.353 27.2057 159.749 27.2057C158.862 27.2057 158.117 26.6779 157.992 25.606H162.056C162.062 25.508 162.073 25.3883 162.073 25.274C162.062 23.6906 161.05 22.5969 159.64 22.5969ZM159.624 23.3859C160.462 23.3859 161.055 23.9736 161.164 24.8877H158.002C158.138 24.0062 158.71 23.3859 159.624 23.3859ZM165.953 22.5969C165.338 22.5969 164.799 22.8799 164.44 23.3859V22.7057H163.564V27.875H164.451V24.9965C164.451 24.0443 165.006 23.4403 165.795 23.4403C166.089 23.4403 166.437 23.5111 166.682 23.6417L166.9 22.7656C166.622 22.6459 166.323 22.5969 165.953 22.5969Z" fill="#C2BBCF"/>
</g>
<g filter="url(#filter0_d_167_6123)">
<rect x="9.25391" y="105.967" width="248.746" height="126.713" rx="7.77332" fill="white" shape-rendering="crispEdges"/>
<rect x="24.8008" y="125.789" width="24.8746" height="24.8746" rx="4.66399" fill="#F4F2F9"/>
<path d="M37.8644 132.376C37.8644 132.03 37.5838 131.749 37.2376 131.749C36.8913 131.749 36.6107 132.03 36.6107 132.376V137.6H31.3866C31.0404 137.6 30.7598 137.881 30.7598 138.227C30.7598 138.573 31.0404 138.854 31.3866 138.854H36.6107V144.078C36.6107 144.424 36.8913 144.705 37.2376 144.705C37.5838 144.705 37.8644 144.424 37.8644 144.078V138.854H43.0884C43.4346 138.854 43.7153 138.573 43.7153 138.227C43.7153 137.881 43.4346 137.6 43.0884 137.6H37.8644V132.376Z" fill="#4D008C"/>
<path d="M66.181 135.005L63.2427 139.532V142.623H62.013V139.511L59.0529 135.005H60.522L62.6333 138.417L64.7499 135.005H66.181ZM68.4716 137.274C69.2008 137.274 69.7921 137.528 70.2455 138.036C70.7026 138.54 70.9329 139.199 70.9366 140.011C70.9366 140.12 70.9293 140.262 70.9148 140.436H67.0623C67.1349 140.882 67.3126 141.216 67.5956 141.437C67.8785 141.654 68.2177 141.763 68.6131 141.763C69.1572 141.763 69.6597 141.58 70.1204 141.214L70.6863 142.025C70.1131 142.514 69.3985 142.759 68.5424 142.759C67.7552 142.759 67.1131 142.507 66.6161 142.003C66.1228 141.499 65.8761 140.836 65.8761 140.017C65.8761 139.2 66.1155 138.54 66.5944 138.036C67.0768 137.528 67.7026 137.274 68.4716 137.274ZM68.4499 138.286C68.0581 138.286 67.7443 138.402 67.5085 138.635C67.2764 138.863 67.1294 139.175 67.0678 139.57H69.7721C69.7104 139.164 69.5635 138.849 69.3314 138.624C69.1028 138.399 68.809 138.286 68.4499 138.286ZM75.0727 137.274C75.693 137.274 76.2009 137.468 76.5963 137.856C76.9917 138.241 77.1894 138.738 77.1894 139.347V142.623H76.0467V139.723C76.0467 139.288 75.9397 138.952 75.7257 138.716C75.5153 138.477 75.2178 138.357 74.8333 138.357C74.4488 138.357 74.1278 138.48 73.8702 138.727C73.6126 138.97 73.4839 139.306 73.4839 139.734V142.623H72.3412V137.41H73.473V138.047C73.8249 137.532 74.3581 137.274 75.0727 137.274ZM80.0623 137.41V142.623H78.9197V137.41H80.0623ZM78.9197 135.038C79.072 134.882 79.2606 134.804 79.4856 134.804C79.7105 134.804 79.9009 134.882 80.0569 135.038C80.2129 135.194 80.2909 135.384 80.2909 135.609C80.2909 135.834 80.2129 136.023 80.0569 136.175C79.9009 136.327 79.7105 136.404 79.4856 136.404C79.2606 136.404 79.072 136.327 78.9197 136.175C78.7673 136.023 78.6911 135.834 78.6911 135.609C78.6911 135.384 78.7673 135.194 78.9197 135.038ZM90.09 135.005V136.17H87.6251V142.623H86.3954V136.17H83.9304V135.005H90.09ZM93.2278 137.274C93.5652 137.274 93.8572 137.323 94.1038 137.421L93.8318 138.547C93.5887 138.421 93.3003 138.357 92.9666 138.357C92.5966 138.357 92.2973 138.482 92.0688 138.733C91.8403 138.979 91.726 139.32 91.726 139.755V142.623H90.5887V137.41H91.7151V137.998C92.0488 137.515 92.5531 137.274 93.2278 137.274ZM100.058 137.41V142.623H98.9211V141.997C98.5257 142.505 97.9798 142.759 97.2833 142.759C96.5469 142.759 95.9284 142.5 95.4278 141.981C94.9272 141.462 94.6769 140.807 94.6769 140.017C94.6769 139.226 94.9272 138.571 95.4278 138.052C95.9284 137.534 96.5469 137.274 97.2833 137.274C97.9798 137.274 98.5257 137.53 98.9211 138.041V137.41H100.058ZM97.4193 138.346C96.9441 138.346 96.5632 138.508 96.2766 138.83C95.9901 139.15 95.8468 139.545 95.8468 140.017C95.8468 140.488 95.9901 140.885 96.2766 141.208C96.5632 141.528 96.9441 141.687 97.4193 141.687C97.8836 141.687 98.2609 141.529 98.5511 141.214C98.8449 140.898 98.9919 140.499 98.9919 140.017C98.9919 139.534 98.8449 139.135 98.5511 138.82C98.2609 138.504 97.8836 138.346 97.4193 138.346ZM104.575 137.274C105.195 137.274 105.703 137.468 106.098 137.856C106.494 138.241 106.692 138.738 106.692 139.347V142.623H105.549V139.723C105.549 139.288 105.442 138.952 105.228 138.716C105.017 138.477 104.72 138.357 104.335 138.357C103.951 138.357 103.63 138.48 103.372 138.727C103.115 138.97 102.986 139.306 102.986 139.734V142.623H101.843V137.41H102.975V138.047C103.327 137.532 103.86 137.274 104.575 137.274ZM112.459 137.829L111.97 138.716C111.785 138.6 111.543 138.497 111.246 138.406C110.952 138.315 110.656 138.27 110.359 138.27C110.054 138.27 109.813 138.326 109.635 138.439C109.461 138.551 109.374 138.702 109.374 138.89C109.374 138.977 109.394 139.054 109.434 139.119C109.477 139.181 109.541 139.231 109.624 139.271C109.711 139.311 109.8 139.342 109.891 139.364C109.985 139.385 110.1 139.407 110.234 139.429L110.772 139.511C111.98 139.685 112.584 140.198 112.584 141.051C112.584 141.562 112.374 141.974 111.953 142.286C111.532 142.598 110.952 142.754 110.212 142.754C109.323 142.754 108.578 142.531 107.976 142.084L108.503 141.23C108.968 141.586 109.541 141.763 110.223 141.763C110.607 141.763 110.901 141.707 111.104 141.595C111.308 141.482 111.409 141.326 111.409 141.127C111.409 140.826 111.108 140.633 110.506 140.55L109.962 140.479C109.385 140.399 108.946 140.231 108.645 139.973C108.344 139.712 108.193 139.371 108.193 138.95C108.193 138.435 108.386 138.029 108.77 137.731C109.158 137.43 109.684 137.28 110.348 137.28C111.19 137.28 111.893 137.463 112.459 137.829ZM117.273 137.41V138.444H115.489V142.623H114.346V138.444H113.301V137.41H114.346V136.529C114.346 135.974 114.491 135.522 114.781 135.174C115.075 134.826 115.512 134.652 116.093 134.652C116.619 134.652 117.103 134.782 117.545 135.043L117.143 136.001C116.82 135.816 116.495 135.723 116.169 135.723C115.947 135.723 115.779 135.794 115.663 135.936C115.547 136.074 115.489 136.271 115.489 136.529V137.41H117.273ZM120.579 137.274C121.308 137.274 121.899 137.528 122.353 138.036C122.81 138.54 123.04 139.199 123.044 140.011C123.044 140.12 123.036 140.262 123.022 140.436H119.169C119.242 140.882 119.42 141.216 119.703 141.437C119.986 141.654 120.325 141.763 120.72 141.763C121.264 141.763 121.767 141.58 122.227 141.214L122.793 142.025C122.22 142.514 121.506 142.759 120.649 142.759C119.862 142.759 119.22 142.507 118.723 142.003C118.23 141.499 117.983 140.836 117.983 140.017C117.983 139.2 118.223 138.54 118.701 138.036C119.184 137.528 119.81 137.274 120.579 137.274ZM120.557 138.286C120.165 138.286 119.851 138.402 119.616 138.635C119.383 138.863 119.236 139.175 119.175 139.57H121.879C121.817 139.164 121.671 138.849 121.438 138.624C121.21 138.399 120.916 138.286 120.557 138.286ZM127.087 137.274C127.425 137.274 127.717 137.323 127.963 137.421L127.691 138.547C127.448 138.421 127.16 138.357 126.826 138.357C126.456 138.357 126.157 138.482 125.928 138.733C125.7 138.979 125.585 139.32 125.585 139.755V142.623H124.448V137.41H125.575V137.998C125.908 137.515 126.413 137.274 127.087 137.274Z" fill="black"/>
<path fill-rule="evenodd" clip-rule="evenodd" d="M233.868 134.29C233.569 134.57 233.569 135.025 233.868 135.305L236.98 138.226L233.868 141.147C233.569 141.427 233.569 141.881 233.868 142.161C234.166 142.442 234.651 142.442 234.949 142.161L238.602 138.733C238.746 138.599 238.826 138.416 238.826 138.226C238.826 138.036 238.746 137.853 238.602 137.718L234.949 134.29C234.651 134.01 234.166 134.01 233.868 134.29Z" fill="black"/>
<rect x="24.8008" y="182.923" width="105.717" height="37.32" rx="4.66399" fill="#F4F2F9"/>
<path d="M43.5081 197.965V199.13H41.0432V205.583H39.8135V199.13H37.3485V197.965H43.5081ZM48.7897 200.37V205.583H47.6525V204.957C47.2571 205.465 46.7111 205.719 46.0146 205.719C45.2782 205.719 44.6597 205.46 44.1591 204.941C43.6585 204.422 43.4082 203.767 43.4082 202.977C43.4082 202.186 43.6585 201.531 44.1591 201.012C44.6597 200.494 45.2782 200.234 46.0146 200.234C46.7111 200.234 47.2571 200.49 47.6525 201.001V200.37H48.7897ZM46.1507 201.306C45.6754 201.306 45.2946 201.468 45.008 201.79C44.7214 202.11 44.5781 202.505 44.5781 202.977C44.5781 203.448 44.7214 203.845 45.008 204.168C45.2946 204.487 45.6754 204.647 46.1507 204.647C46.615 204.647 46.9922 204.489 47.2824 204.174C47.5763 203.858 47.7232 203.459 47.7232 202.977C47.7232 202.494 47.5763 202.095 47.2824 201.78C46.9922 201.464 46.615 201.306 46.1507 201.306ZM51.7174 197.748V205.583H50.5747V197.748H51.7174ZM54.64 200.37V205.583H53.4973V200.37H54.64ZM53.4973 197.998C53.6496 197.842 53.8383 197.764 54.0632 197.764C54.2881 197.764 54.4785 197.842 54.6345 197.998C54.7905 198.154 54.8685 198.344 54.8685 198.569C54.8685 198.794 54.7905 198.983 54.6345 199.135C54.4785 199.287 54.2881 199.364 54.0632 199.364C53.8383 199.364 53.6496 199.287 53.4973 199.135C53.3449 198.983 53.2688 198.794 53.2688 198.569C53.2688 198.344 53.3449 198.154 53.4973 197.998ZM62.857 200.234C63.4773 200.234 63.9851 200.428 64.3805 200.816C64.7759 201.201 64.9736 201.698 64.9736 202.307V205.583H63.831V202.683C63.831 202.247 63.7239 201.912 63.5099 201.676C63.2995 201.437 63.0021 201.317 62.6175 201.317C62.233 201.317 61.912 201.44 61.6544 201.687C61.3969 201.93 61.2681 202.266 61.2681 202.694V205.583H60.1254V202.683C60.1254 202.247 60.0184 201.912 59.8044 201.676C59.594 201.437 59.2965 201.317 58.912 201.317C58.5275 201.317 58.2064 201.44 57.9489 201.687C57.6913 201.93 57.5626 202.266 57.5626 202.694V205.583H56.4199V200.37H57.5517V201.007C57.9035 200.492 58.4368 200.234 59.1514 200.234C59.5432 200.234 59.8951 200.318 60.207 200.484C60.5226 200.648 60.7711 200.874 60.9525 201.165C61.3298 200.544 61.9646 200.234 62.857 200.234ZM71.7134 200.37V205.583H70.5762V204.957C70.1808 205.465 69.6348 205.719 68.9383 205.719C68.2019 205.719 67.5834 205.46 67.0828 204.941C66.5822 204.422 66.3319 203.767 66.3319 202.977C66.3319 202.186 66.5822 201.531 67.0828 201.012C67.5834 200.494 68.2019 200.234 68.9383 200.234C69.6348 200.234 70.1808 200.49 70.5762 201.001V200.37H71.7134ZM69.0744 201.306C68.5991 201.306 68.2183 201.468 67.9317 201.79C67.6451 202.11 67.5018 202.505 67.5018 202.977C67.5018 203.448 67.6451 203.845 67.9317 204.168C68.2183 204.487 68.5991 204.647 69.0744 204.647C69.5387 204.647 69.9159 204.489 70.2062 204.174C70.5 203.858 70.6469 203.459 70.6469 202.977C70.6469 202.494 70.5 202.095 70.2062 201.78C69.9159 201.464 69.5387 201.306 69.0744 201.306ZM77.0516 200.37V201.404H75.0546V203.673C75.0546 204.007 75.1308 204.254 75.2832 204.413C75.4355 204.569 75.635 204.647 75.8817 204.647C76.2082 204.647 76.5582 204.529 76.9319 204.293L77.3835 205.202C76.872 205.547 76.3388 205.719 75.7838 205.719C75.1816 205.719 74.7191 205.552 74.3962 205.218C74.0734 204.885 73.9119 204.377 73.9119 203.695V201.404H72.8727V200.37H73.9119V198.792H75.0546V200.37H77.0516ZM82.3638 200.593C82.7918 200.354 83.2707 200.234 83.8003 200.234C84.3299 200.234 84.8087 200.354 85.2368 200.593C85.6648 200.829 86.0004 201.157 86.2434 201.578C86.4865 201.995 86.608 202.462 86.608 202.977C86.608 203.492 86.4865 203.96 86.2434 204.38C86.0004 204.798 85.6648 205.126 85.2368 205.365C84.8087 205.601 84.3299 205.719 83.8003 205.719C83.2707 205.719 82.7918 205.599 82.3638 205.36C81.9357 205.12 81.6002 204.792 81.3571 204.375C81.1177 203.958 80.998 203.492 80.998 202.977C80.998 202.462 81.1177 201.995 81.3571 201.578C81.6002 201.161 81.9357 200.833 82.3638 200.593ZM84.9702 201.774C84.6582 201.462 84.2682 201.306 83.8003 201.306C83.3323 201.306 82.9424 201.462 82.6304 201.774C82.322 202.086 82.1679 202.487 82.1679 202.977C82.1679 203.466 82.322 203.867 82.6304 204.179C82.9424 204.491 83.3323 204.647 83.8003 204.647C84.2682 204.647 84.6582 204.491 84.9702 204.179C85.2821 203.867 85.4381 203.466 85.4381 202.977C85.4381 202.487 85.2821 202.086 84.9702 201.774ZM89.1584 197.748V205.583H88.0157V197.748H89.1584ZM95.7158 200.37V203.374C95.7158 203.773 95.6468 204.127 95.509 204.435C95.3748 204.743 95.1916 204.99 94.9594 205.175C94.7309 205.356 94.4751 205.492 94.1922 205.583C93.9129 205.674 93.6154 205.719 93.2998 205.719C92.9842 205.719 92.6849 205.674 92.402 205.583C92.1227 205.492 91.8669 205.356 91.6348 205.175C91.4026 204.99 91.2194 204.743 91.0852 204.435C90.951 204.127 90.8839 203.773 90.8839 203.374V200.37H92.0265V203.27C92.0265 203.746 92.1426 204.094 92.3748 204.315C92.6069 204.536 92.9153 204.647 93.2998 204.647C93.6843 204.647 93.9927 204.536 94.2248 204.315C94.457 204.094 94.5731 203.746 94.5731 203.27V200.37H95.7158ZM101.48 200.789L100.99 201.676C100.805 201.56 100.564 201.457 100.266 201.366C99.9726 201.275 99.6769 201.23 99.3795 201.23C99.0747 201.23 98.8335 201.286 98.6558 201.399C98.4816 201.511 98.3946 201.662 98.3946 201.85C98.3946 201.937 98.4145 202.013 98.4544 202.079C98.498 202.14 98.5614 202.191 98.6449 202.231C98.7319 202.271 98.8208 202.302 98.9115 202.324C99.0058 202.345 99.1201 202.367 99.2543 202.389L99.793 202.471C101.001 202.645 101.605 203.158 101.605 204.01C101.605 204.424 101.462 204.776 101.175 205.066C100.892 205.356 100.495 205.549 99.9834 205.643L99.4556 207.33H98.264L98.8136 205.692C98.0881 205.627 97.4823 205.411 96.9962 205.044L97.524 204.19C97.9883 204.546 98.5614 204.723 99.2434 204.723C99.6279 204.723 99.9218 204.667 100.125 204.555C100.328 204.442 100.43 204.286 100.43 204.087C100.43 203.786 100.129 203.593 99.5264 203.51L98.9822 203.439C98.4055 203.359 97.9665 203.191 97.6654 202.933C97.3644 202.672 97.2138 202.331 97.2138 201.91C97.2138 201.395 97.4061 200.989 97.7906 200.691C98.1787 200.39 98.7047 200.24 99.3686 200.24C100.21 200.24 100.914 200.423 101.48 200.789ZM106.501 200.37V201.404H104.504V203.673C104.504 204.007 104.58 204.254 104.732 204.413C104.885 204.569 105.084 204.647 105.331 204.647C105.657 204.647 106.007 204.529 106.381 204.293L106.833 205.202C106.321 205.547 105.788 205.719 105.233 205.719C104.631 205.719 104.168 205.552 103.845 205.218C103.522 204.885 103.361 204.377 103.361 203.695V201.404H102.322V200.37H103.361V198.792H104.504V200.37H106.501ZM112.667 200.37V203.374C112.667 203.773 112.598 204.127 112.46 204.435C112.326 204.743 112.143 204.99 111.91 205.175C111.682 205.356 111.426 205.492 111.143 205.583C110.864 205.674 110.566 205.719 110.251 205.719C109.935 205.719 109.636 205.674 109.353 205.583C109.074 205.492 108.818 205.356 108.586 205.175C108.354 204.99 108.17 204.743 108.036 204.435C107.902 204.127 107.835 203.773 107.835 203.374V200.37H108.978V203.27C108.978 203.746 109.094 204.094 109.326 204.315C109.558 204.536 109.866 204.647 110.251 204.647C110.635 204.647 110.944 204.536 111.176 204.315C111.408 204.094 111.524 203.746 111.524 203.27V200.37H112.667ZM117.032 200.234C117.37 200.234 117.662 200.283 117.908 200.381L117.636 201.507C117.393 201.38 117.105 201.317 116.771 201.317C116.401 201.317 116.102 201.442 115.873 201.692C115.645 201.939 115.531 202.28 115.531 202.715V205.583H114.393V200.37H115.52V200.958C115.853 200.475 116.358 200.234 117.032 200.234Z" fill="#2A0C55"/>
<rect x="136.736" y="182.923" width="105.717" height="37.32" rx="4.66399" fill="#F4F2F9"/>
<path d="M152.123 197.965V199.13H149.658V205.583H148.428V199.13H145.963V197.965H152.123ZM157.404 200.37V205.583H156.267V204.957C155.871 205.465 155.326 205.719 154.629 205.719C153.893 205.719 153.274 205.46 152.774 204.941C152.273 204.422 152.023 203.767 152.023 202.977C152.023 202.186 152.273 201.531 152.774 201.012C153.274 200.494 153.893 200.234 154.629 200.234C155.326 200.234 155.871 200.49 156.267 201.001V200.37H157.404ZM154.765 201.306C154.29 201.306 153.909 201.468 153.622 201.79C153.336 202.11 153.193 202.505 153.193 202.977C153.193 203.448 153.336 203.845 153.622 204.168C153.909 204.487 154.29 204.647 154.765 204.647C155.229 204.647 155.607 204.489 155.897 204.174C156.191 203.858 156.338 203.459 156.338 202.977C156.338 202.494 156.191 202.095 155.897 201.78C155.607 201.464 155.229 201.306 154.765 201.306ZM160.332 197.748V205.583H159.189V197.748H160.332ZM163.254 200.37V205.583H162.112V200.37H163.254ZM162.112 197.998C162.264 197.842 162.453 197.764 162.678 197.764C162.903 197.764 163.093 197.842 163.249 197.998C163.405 198.154 163.483 198.344 163.483 198.569C163.483 198.794 163.405 198.983 163.249 199.135C163.093 199.287 162.903 199.364 162.678 199.364C162.453 199.364 162.264 199.287 162.112 199.135C161.959 198.983 161.883 198.794 161.883 198.569C161.883 198.344 161.959 198.154 162.112 197.998ZM171.471 200.234C172.092 200.234 172.6 200.428 172.995 200.816C173.39 201.201 173.588 201.698 173.588 202.307V205.583H172.445V202.683C172.445 202.247 172.338 201.912 172.124 201.676C171.914 201.437 171.616 201.317 171.232 201.317C170.847 201.317 170.526 201.44 170.269 201.687C170.011 201.93 169.883 202.266 169.883 202.694V205.583H168.74V202.683C168.74 202.247 168.633 201.912 168.419 201.676C168.208 201.437 167.911 201.317 167.526 201.317C167.142 201.317 166.821 201.44 166.563 201.687C166.306 201.93 166.177 202.266 166.177 202.694V205.583H165.034V200.37H166.166V201.007C166.518 200.492 167.051 200.234 167.766 200.234C168.158 200.234 168.509 200.318 168.821 200.484C169.137 200.648 169.386 200.874 169.567 201.165C169.944 200.544 170.579 200.234 171.471 200.234ZM180.328 200.37V205.583H179.191V204.957C178.795 205.465 178.249 205.719 177.553 205.719C176.816 205.719 176.198 205.46 175.697 204.941C175.197 204.422 174.946 203.767 174.946 202.977C174.946 202.186 175.197 201.531 175.697 201.012C176.198 200.494 176.816 200.234 177.553 200.234C178.249 200.234 178.795 200.49 179.191 201.001V200.37H180.328ZM177.689 201.306C177.214 201.306 176.833 201.468 176.546 201.79C176.26 202.11 176.116 202.505 176.116 202.977C176.116 203.448 176.26 203.845 176.546 204.168C176.833 204.487 177.214 204.647 177.689 204.647C178.153 204.647 178.53 204.489 178.821 204.174C179.114 203.858 179.261 203.459 179.261 202.977C179.261 202.494 179.114 202.095 178.821 201.78C178.53 201.464 178.153 201.306 177.689 201.306ZM185.666 200.37V201.404H183.669V203.673C183.669 204.007 183.745 204.254 183.898 204.413C184.05 204.569 184.249 204.647 184.496 204.647C184.823 204.647 185.173 204.529 185.546 204.293L185.998 205.202C185.486 205.547 184.953 205.719 184.398 205.719C183.796 205.719 183.333 205.552 183.011 205.218C182.688 204.885 182.526 204.377 182.526 203.695V201.404H181.487V200.37H182.526V198.792H183.669V200.37H185.666ZM191.131 200.37V205.583H189.988V200.37H191.131ZM189.988 197.998C190.14 197.842 190.329 197.764 190.554 197.764C190.779 197.764 190.969 197.842 191.125 197.998C191.281 198.154 191.359 198.344 191.359 198.569C191.359 198.794 191.281 198.983 191.125 199.135C190.969 199.287 190.779 199.364 190.554 199.364C190.329 199.364 190.14 199.287 189.988 199.135C189.836 198.983 189.759 198.794 189.759 198.569C189.759 198.344 189.836 198.154 189.988 197.998ZM196.948 200.789L196.458 201.676C196.273 201.56 196.032 201.457 195.735 201.366C195.441 201.275 195.145 201.23 194.848 201.23C194.543 201.23 194.302 201.286 194.124 201.399C193.95 201.511 193.863 201.662 193.863 201.85C193.863 201.937 193.883 202.013 193.923 202.079C193.966 202.14 194.03 202.191 194.113 202.231C194.2 202.271 194.289 202.302 194.38 202.324C194.474 202.345 194.588 202.367 194.722 202.389L195.261 202.471C196.469 202.645 197.073 203.158 197.073 204.01C197.073 204.424 196.93 204.776 196.643 205.066C196.36 205.356 195.963 205.549 195.452 205.643L194.924 207.33H193.732L194.282 205.692C193.556 205.627 192.95 205.411 192.464 205.044L192.992 204.19C193.456 204.546 194.03 204.723 194.712 204.723C195.096 204.723 195.39 204.667 195.593 204.555C195.796 204.442 195.898 204.286 195.898 204.087C195.898 203.786 195.597 203.593 194.994 203.51L194.45 203.439C193.874 203.359 193.435 203.191 193.134 202.933C192.832 202.672 192.682 202.331 192.682 201.91C192.682 201.395 192.874 200.989 193.259 200.691C193.647 200.39 194.173 200.24 194.837 200.24C195.678 200.24 196.382 200.423 196.948 200.789ZM199.558 197.748V205.583H198.416V197.748H199.558ZM203.558 200.234C204.287 200.234 204.879 200.488 205.332 200.996C205.789 201.5 206.019 202.159 206.023 202.971C206.023 203.08 206.016 203.221 206.001 203.396H202.149C202.221 203.842 202.399 204.176 202.682 204.397C202.965 204.614 203.304 204.723 203.7 204.723C204.244 204.723 204.746 204.54 205.207 204.174L205.773 204.984C205.2 205.474 204.485 205.719 203.629 205.719C202.842 205.719 202.2 205.467 201.703 204.963C201.209 204.458 200.963 203.796 200.963 202.977C200.963 202.16 201.202 201.5 201.681 200.996C202.163 200.488 202.789 200.234 203.558 200.234ZM203.536 201.246C203.145 201.246 202.831 201.362 202.595 201.595C202.363 201.823 202.216 202.135 202.154 202.53H204.859C204.797 202.124 204.65 201.809 204.418 201.584C204.189 201.359 203.896 201.246 203.536 201.246ZM213.865 200.234C214.485 200.234 214.993 200.428 215.388 200.816C215.784 201.201 215.981 201.698 215.981 202.307V205.583H214.839V202.683C214.839 202.247 214.732 201.912 214.518 201.676C214.307 201.437 214.01 201.317 213.625 201.317C213.241 201.317 212.92 201.44 212.662 201.687C212.405 201.93 212.276 202.266 212.276 202.694V205.583H211.133V202.683C211.133 202.247 211.026 201.912 210.812 201.676C210.602 201.437 210.304 201.317 209.92 201.317C209.535 201.317 209.214 201.44 208.957 201.687C208.699 201.93 208.57 202.266 208.57 202.694V205.583H207.428V200.37H208.56V201.007C208.911 200.492 209.445 200.234 210.159 200.234C210.551 200.234 210.903 200.318 211.215 200.484C211.53 200.648 211.779 200.874 211.96 201.165C212.338 200.544 212.972 200.234 213.865 200.234ZM218.858 197.748V205.583H217.715V197.748H218.858ZM222.858 200.234C223.587 200.234 224.178 200.488 224.632 200.996C225.089 201.5 225.319 202.159 225.323 202.971C225.323 203.08 225.316 203.221 225.301 203.396H221.449C221.521 203.842 221.699 204.176 221.982 204.397C222.265 204.614 222.604 204.723 222.999 204.723C223.543 204.723 224.046 204.54 224.507 204.174L225.073 204.984C224.499 205.474 223.785 205.719 222.929 205.719C222.141 205.719 221.499 205.467 221.002 204.963C220.509 204.458 220.262 203.796 220.262 202.977C220.262 202.16 220.502 201.5 220.981 200.996C221.463 200.488 222.089 200.234 222.858 200.234ZM222.836 201.246C222.444 201.246 222.131 201.362 221.895 201.595C221.663 201.823 221.516 202.135 221.454 202.53H224.158C224.097 202.124 223.95 201.809 223.718 201.584C223.489 201.359 223.195 201.246 222.836 201.246ZM229.366 200.234C229.704 200.234 229.996 200.283 230.243 200.381L229.97 201.507C229.727 201.38 229.439 201.317 229.105 201.317C228.735 201.317 228.436 201.442 228.207 201.692C227.979 201.939 227.865 202.28 227.865 202.715V205.583H226.727V200.37H227.854V200.958C228.188 200.475 228.692 200.234 229.366 200.234ZM232.546 200.37V205.583H231.404V200.37H232.546ZM231.404 197.998C231.556 197.842 231.745 197.764 231.969 197.764C232.194 197.764 232.385 197.842 232.541 197.998C232.697 198.154 232.775 198.344 232.775 198.569C232.775 198.794 232.697 198.983 232.541 199.135C232.385 199.287 232.194 199.364 231.969 199.364C231.745 199.364 231.556 199.287 231.404 199.135C231.251 198.983 231.175 198.794 231.175 198.569C231.175 198.344 231.251 198.154 231.404 197.998Z" fill="#2A0C55"/>
<path d="M9.25391 169.708H258V171.263H9.25391V169.708ZM258 232.68H9.25391H258ZM9.25391 232.68V170.485V232.68ZM258 170.485V232.68V170.485Z" fill="#F5F6F9" mask="url(#path-9-inside-1_167_6123)"/>
</g>
</g>
<defs>
<filter id="filter0_d_167_6123" x="-17.1754" y="89.6428" width="301.605" height="179.571" filterUnits="userSpaceOnUse" color-interpolation-filters="sRGB">
<feFlood flood-opacity="0" result="BackgroundImageFix"/>
<feColorMatrix in="SourceAlpha" type="matrix" values="0 0 0 0 0 0 0 0 0 0 0 0 0 0 0 0 0 0 127 0" result="hardAlpha"/>
<feOffset dy="10.1053"/>
<feGaussianBlur stdDeviation="13.2146"/>
<feComposite in2="hardAlpha" operator="out"/>
<feColorMatrix type="matrix" values="0 0 0 0 0.703958 0 0 0 0 0.712133 0 0 0 0 0.908333 0 0 0 0.3 0"/>
<feBlend mode="normal" in2="BackgroundImageFix" result="effect1_dropShadow_167_6123"/>
<feBlend mode="normal" in="SourceGraphic" in2="effect1_dropShadow_167_6123" result="shape"/>
</filter>
<linearGradient id="paint0_linear_167_6123" x1="132.479" y1="0" x2="132.479" y2="194.333" gradientUnits="userSpaceOnUse">
<stop stop-color="#220C45"/>
<stop offset="1" stop-color="#440E85"/>
</linearGradient>
<clipPath id="clip0_167_6123">
<rect x="0.986328" y="0.574219" width="264.959" height="568.773" rx="39.6818" fill="white"/>
</clipPath>
<clipPath id="clip1_167_6123">
<rect width="264.959" height="194.333" fill="white" transform="translate(0.986328 -23)"/>
</clipPath>
</defs>
</svg>
