<svg viewBox="0 0 480 124" fill="none" xmlns="http://www.w3.org/2000/svg">
<rect x="1.5" y="1.5" width="477" height="121" rx="14.5" stroke="#DBDFE6" stroke-width="3"/>
<path d="M68.32 39H54.67L41.65 58.46C38.535 63.08 36.75 67.49 36.75 72.11C36.75 81.805 44.975 88.875 55.79 88.875C66.675 88.875 74.9 81.665 74.9 71.795C74.9 62.73 68.32 55.485 57.365 55.485C57.085 55.485 56.84 55.485 56.56 55.52L68.32 39ZM55.79 65.075C59.955 65.075 63 67.945 63 71.9C63 75.925 59.955 78.76 55.79 78.76C51.66 78.76 48.65 75.925 48.65 71.9C48.65 67.945 51.66 65.075 55.79 65.075ZM129.021 38.125C121.076 38.125 115.791 41.275 112.116 45.545L118.626 52.93C120.726 50.445 123.981 48.275 128.531 48.275C132.521 48.275 135.426 49.99 135.426 53.21C135.426 56.535 132.136 58.285 127.901 58.285H122.301V68.26H127.831C132.486 68.26 136.336 70.045 136.336 73.475C136.336 77.045 132.941 78.725 128.741 78.725C124.786 78.725 121.111 77.15 118.381 74.315L111.906 81.7C115.756 86.285 121.846 88.875 129.301 88.875C138.996 88.875 148.131 84.22 148.131 74.42C148.131 69.275 145.121 65.39 140.011 63.325C144.491 61.19 147.116 57.375 147.116 52.265C147.116 43.725 139.661 38.125 129.021 38.125ZM221.436 39H185.981V49.535H207.926L188.606 88H202.116L221.436 47.89V39ZM281.313 38.23L259.018 46.875V58.04L269.973 53.875V88H281.313V38.23ZM354.969 39H326.024L325.394 67.14H337.504C344.014 67.14 346.149 69.59 346.149 72.67C346.149 76.205 343.769 78.55 339.219 78.55C334.494 78.55 329.629 76.065 327.214 73.755L321.579 82.085C325.534 86.075 331.764 88.91 339.289 88.91C349.964 88.91 357.909 82.4 357.909 71.9C357.909 63.185 351.749 57.13 340.409 57.13H335.579L335.789 49.43H354.969V39ZM418.701 38.125C406.696 38.125 397.141 47.61 397.141 63.5C397.141 79.355 406.696 88.875 418.701 88.875C430.741 88.875 440.296 79.355 440.296 63.5C440.296 47.61 430.741 38.125 418.701 38.125ZM418.701 48.975C424.231 48.975 428.501 53.98 428.501 63.5C428.501 73.02 424.231 78.025 418.701 78.025C413.206 78.025 408.936 73.02 408.936 63.5C408.936 53.98 413.206 48.975 418.701 48.975Z" fill="url(#paint0_linear_167_17033)"/>
<defs>
<linearGradient id="paint0_linear_167_17033" x1="15" y1="67" x2="439" y2="62" gradientUnits="userSpaceOnUse">
<stop stop-color="#D3D7DD"/>
<stop offset="1" stop-color="#EAEBEE"/>
</linearGradient>
</defs>
</svg>
