<svg width="204" height="58" viewBox="0 0 204 58" fill="none" xmlns="http://www.w3.org/2000/svg">
<path d="M76.6642 2.86329C75.8772 2.86329 75.2506 2.90281 74.6313 2.85173C74.0515 2.80401 73.7136 3.02283 73.4201 3.51348C72.8682 4.43694 72.2383 5.31413 71.6642 6.22506C71.4315 6.59377 71.0835 6.61112 70.7731 6.5022C70.6357 6.454 70.5403 6.10987 70.5335 5.89684C70.507 5.08953 70.507 4.27982 70.5335 3.47203C70.5494 2.99632 70.361 2.83052 69.8983 2.85847C69.4149 2.88787 68.9286 2.87582 68.4437 2.86329C68.0976 2.85414 67.9574 3.00451 67.9641 3.34527C67.9747 3.88411 67.9651 4.42296 67.9651 4.96229C67.9651 7.26179 67.9723 9.56081 67.9593 11.8603C67.9569 12.2893 68.0788 12.4912 68.5401 12.4613C69.0052 12.4305 69.4751 12.4348 69.9407 12.4599C70.3875 12.484 70.5461 12.3028 70.5355 11.8618C70.5133 10.946 70.5543 10.0288 70.5176 9.11353C70.4964 8.58047 70.7697 8.47926 71.176 8.5771C71.3558 8.61999 71.5462 8.78435 71.6512 8.94629C72.3183 9.96856 72.9579 11.0087 73.6196 12.0348C73.7204 12.1914 73.8828 12.4155 74.024 12.4213C74.9103 12.4565 75.7986 12.4392 76.7982 12.4392C76.6324 12.1317 76.5385 11.9259 76.417 11.7374C75.5817 10.439 74.7489 9.1386 73.8948 7.85221C73.6958 7.5529 73.69 7.33168 73.8977 7.03285C74.7084 5.86888 75.495 4.68853 76.2869 3.51203C76.3929 3.35442 76.4787 3.18381 76.6642 2.86329ZM79.9836 0.000366211C79.9711 4.06196 79.9576 8.12404 79.9455 12.1861C79.9426 13.031 79.9267 13.8764 79.9528 14.7203C79.9658 15.1493 79.8101 15.2741 79.3903 15.2732C74.7171 15.2616 70.0439 15.2592 65.3706 15.2756C64.8848 15.277 64.8159 15.0727 64.8168 14.662C64.8265 10.0245 64.8236 5.38691 64.8207 0.749354C64.8207 0.499692 64.7913 0.250029 64.7754 0.000366211" fill="white"/>
<path d="M58.7418 7.42529C59.0575 6.99971 59.4532 6.6445 59.6239 6.20253C60.221 4.65635 59.1679 3.10488 57.402 2.9892C55.7387 2.88028 54.0662 2.9092 52.3981 2.86775C51.9971 2.85763 51.9152 3.08945 51.9161 3.41575C51.9214 6.23675 51.9287 9.05726 51.9267 11.8783C51.9267 12.3115 52.0993 12.4696 52.5417 12.4619C53.925 12.4383 55.3097 12.4865 56.6915 12.4359C57.3089 12.4128 57.9422 12.2841 58.5293 12.0865C59.339 11.8137 59.8822 11.229 60.0745 10.3629C60.3796 8.99026 60.0282 8.23549 58.7418 7.42529ZM63.6965 0C63.6792 0.249663 63.6479 0.498843 63.6479 0.748024C63.645 5.36726 63.6387 9.98602 63.657 14.6053C63.6589 15.1181 63.523 15.2805 62.9953 15.2781C58.3582 15.2588 53.7211 15.2583 49.084 15.2771C48.5582 15.2791 48.4184 15.1205 48.4204 14.6053C48.4387 9.96819 48.4319 5.33112 48.429 0.694043C48.4286 0.462695 48.3967 0.231348 48.3794 0" fill="white"/>
<path d="M92.2312 7.05117C92.2312 8.76218 92.2403 10.344 92.2249 11.9259C92.2216 12.3167 92.3464 12.4816 92.7508 12.4604C93.2347 12.4353 93.7219 12.4411 94.2063 12.458C94.5596 12.47 94.6888 12.309 94.6883 11.976C94.6854 9.09956 94.6844 6.22313 94.6893 3.34719C94.6897 2.96499 94.5023 2.85317 94.1509 2.86137C93.5219 2.87582 92.892 2.88016 92.2635 2.85944C91.928 2.84835 91.7348 2.97029 91.6008 3.27731C91.248 4.08365 90.873 4.87987 90.5052 5.67947C89.9905 6.79813 89.4743 7.91583 88.9181 9.12125C88.7701 8.8229 88.6622 8.62144 88.5672 8.41371C87.797 6.73162 87.022 5.05194 86.2668 3.36358C86.1082 3.00837 85.9106 2.831 85.499 2.8551C84.9254 2.88884 84.3475 2.8898 83.774 2.85751C83.2877 2.83004 83.1604 3.03391 83.1653 3.49034C83.1836 5.39559 83.1725 7.30083 83.1725 9.20656C83.1725 10.1233 83.1836 11.0405 83.1686 11.9567C83.1628 12.3288 83.3045 12.4931 83.6761 12.4555C83.7653 12.4469 83.8559 12.4551 83.9461 12.4551C85.5356 12.4589 85.5356 12.4589 85.5356 10.8925V7.0555C86.2248 8.56698 86.9338 9.94494 87.4799 11.3851C87.8226 12.2883 88.3233 12.5886 89.241 12.4739C89.6367 12.4242 89.8353 12.309 89.9958 11.9471C90.7082 10.3416 91.4518 8.75061 92.2312 7.05117ZM96.4875 0.000366211C96.4779 4.76372 96.4682 9.52707 96.4581 14.2904C96.4557 15.399 96.5405 15.264 95.4676 15.2645C90.9737 15.2679 86.4793 15.2577 81.9859 15.277C81.4639 15.2789 81.3169 15.1276 81.3188 14.608C81.3371 9.97048 81.3294 5.33293 81.3265 0.694891C81.326 0.463543 81.2952 0.231714 81.2788 0.000366211" fill="white"/>
<path d="M100.836 40.1628C102.433 40.0698 103.693 39.4924 104.593 38.1978C105.11 37.4541 105.562 36.6376 105.89 35.7942C106.724 33.6441 106.971 31.3725 106.961 29.0865C106.957 28.1862 106.785 27.2647 106.544 26.3928C106.273 25.4052 105.548 24.7729 104.515 24.6046C103.42 24.4263 102.328 24.5454 101.276 24.8813C101.093 24.9396 100.925 25.265 100.879 25.4924C100.65 26.6338 100.463 27.7837 100.263 28.9304C99.6639 32.336 99.0754 35.7436 98.4585 39.1458C98.3876 39.5357 98.5178 39.6813 98.847 39.7507C99.5097 39.8909 100.172 40.0254 100.836 40.1628ZM115.397 29.1699C115.309 32.5596 114.759 35.8313 113.185 38.86C111.299 42.4859 108.426 44.8881 104.366 45.7373C102.218 46.186 100.089 46.1267 97.9963 45.4129C97.3866 45.2052 97.3924 45.2129 97.2931 45.8347C96.7205 49.408 96.1416 52.9809 95.5719 56.5547C95.5199 56.8791 95.3695 57.0126 95.035 57.0116C92.5543 57.0034 90.0736 57.002 87.5933 57.0121C87.1726 57.014 87.1176 56.8203 87.1784 56.4699C88.2816 50.0963 89.3839 43.7226 90.4784 37.3476C91.4246 31.8381 92.363 26.3267 93.297 20.8149C93.3553 20.4703 93.5052 20.2929 93.8508 20.1893C96.2101 19.4827 98.6055 18.9516 101.057 18.7077C102.483 18.5655 103.916 18.405 105.346 18.4108C107.24 18.4185 109.104 18.7169 110.807 19.6355C113.351 21.0086 114.616 23.2623 115.083 26.0173C115.26 27.056 115.297 28.1182 115.397 29.1699Z" fill="white"/>
<path d="M48.9896 30.4117C51.3407 30.1881 53.484 29.7225 55.2423 28.1754C55.784 27.6987 56.1112 27.0885 56.2414 26.3718C56.438 25.2912 55.7286 24.4034 54.6345 24.3403C53.3876 24.2685 52.347 24.7158 51.4713 25.5689C50.1391 26.8668 49.4716 28.5128 48.9896 30.4117ZM59.4754 37.7064C59.8099 38.7287 60.1247 39.695 60.4413 40.6609C60.6534 41.3077 60.8457 41.9627 61.09 42.5975C61.2293 42.959 61.1368 43.1412 60.8182 43.3306C59.1689 44.3114 57.4015 44.9972 55.5416 45.4378C52.8256 46.0807 50.0842 46.3097 47.3273 45.7255C43.3317 44.8787 40.9001 42.3753 40.2654 38.4038C39.3255 32.5218 40.811 27.2379 44.9203 22.8423C47.4357 20.1515 50.6172 18.7451 54.3005 18.4443C56.1146 18.2959 57.8902 18.3899 59.6089 19.0053C62.2087 19.936 63.6137 21.9883 63.6792 24.749C63.7713 28.6183 61.9682 31.3178 58.6296 33.0872C56.4785 34.2266 54.1467 34.7895 51.7561 35.1288C50.798 35.2647 49.8331 35.3611 48.8691 35.4489C48.5587 35.4773 48.4618 35.6132 48.4821 35.8947C48.6238 37.9031 49.6591 39.4222 51.9234 39.7273C53.9968 40.0074 55.8997 39.4059 57.748 38.5595C58.3129 38.3012 58.8628 38.0101 59.4754 37.7064Z" fill="white"/>
<path d="M143.046 30.3296C143.166 30.3744 143.231 30.4236 143.294 30.4183C145.229 30.2597 147.079 29.8158 148.712 28.7107C149.485 28.1868 150.091 27.511 150.312 26.5625C150.61 25.2887 149.867 24.3657 148.577 24.3165C147.145 24.262 146.054 24.8867 145.151 25.9162C144.038 27.1843 143.427 28.6924 143.046 30.3296ZM153.524 37.7646C154.09 39.4987 154.636 41.1302 155.137 42.7752C155.178 42.9125 154.964 43.2128 154.795 43.3164C152.953 44.4428 150.938 45.1282 148.835 45.5749C147.124 45.9384 145.391 46.1022 143.648 45.9972C141.041 45.84 138.612 45.1797 136.72 43.2273C135.321 41.7823 134.56 40.0106 134.297 38.0446C133.579 32.6841 134.861 27.8417 138.302 23.6538C140.652 20.7938 143.72 19.1223 147.403 18.5849C149.401 18.2933 151.371 18.3357 153.313 18.9179C156.075 19.7464 157.65 21.9177 157.716 24.799C157.818 29.3049 155.201 31.9895 151.773 33.4938C149.535 34.476 147.169 34.9624 144.75 35.2279C144.163 35.292 143.578 35.3976 142.988 35.4226C142.558 35.4405 142.478 35.64 142.512 36.0054C142.738 38.3897 144.263 39.8096 146.684 39.8428C148.881 39.8727 150.873 39.1401 152.783 38.127C152.999 38.0118 153.224 37.9106 153.524 37.7646Z" fill="white"/>
<path d="M91.7872 19.2475C90.9119 20.3103 90.1186 21.2776 89.3209 22.2416C86.8234 25.2597 84.333 28.2836 81.8156 31.2848C81.4508 31.7201 81.4055 32.0521 81.6551 32.5707C83.5642 36.535 85.4396 40.5156 87.3241 44.4914C87.4075 44.6678 87.4803 44.8495 87.5935 45.1098C87.3689 45.1295 87.2022 45.157 87.0359 45.1575C84.4834 45.1604 81.9303 45.1498 79.3783 45.1686C78.9503 45.1715 78.7368 45.0225 78.5705 44.636C77.7555 42.7385 76.9144 40.8525 76.0787 38.9641C75.9871 38.7574 75.871 38.5612 75.711 38.2556C75.4439 38.5636 75.2295 38.7935 75.0347 39.0388C73.57 40.8814 72.1005 42.7202 70.6541 44.5772C70.3263 44.998 69.9726 45.1734 69.427 45.1676C66.8571 45.1402 64.2862 45.158 61.7159 45.1594C61.5395 45.1594 61.3635 45.1594 61.0479 45.1594C61.5501 44.5468 61.9699 44.0239 62.4003 43.5101C65.5615 39.7353 68.7194 35.9581 71.8971 32.1972C72.1887 31.8521 72.2157 31.5943 72.0292 31.199C70.2348 27.3987 68.4587 23.5901 66.6788 19.783C66.6122 19.6408 66.5616 19.4914 66.4773 19.2789C66.7019 19.2663 66.8725 19.249 67.0431 19.249C69.452 19.247 71.8609 19.2581 74.2694 19.2379C74.6945 19.2345 74.9094 19.3642 75.0699 19.7642C75.8189 21.6304 76.5983 23.4846 77.3694 25.3416C77.4499 25.5354 77.5468 25.7219 77.6789 26.0038C77.8543 25.8192 77.9806 25.7069 78.0827 25.5759C79.5745 23.6629 81.0715 21.7543 82.5439 19.8269C82.8533 19.4225 83.1705 19.2258 83.7055 19.2326C86.1857 19.2634 88.6669 19.247 91.1476 19.2475C91.3207 19.2475 91.4937 19.2475 91.7872 19.2475Z" fill="white"/>
<path d="M199.287 26.7034C198.285 26.1192 197.236 25.4252 196.114 24.8781C195.107 24.387 194.008 24.1677 192.868 24.4352C191.989 24.641 191.274 25.0516 191.081 26.0035C190.892 26.9285 191.253 27.7015 192.023 28.1874C192.762 28.6539 193.58 28.9961 194.371 29.3774C195.807 30.069 197.34 30.6078 198.666 31.4667C200.955 32.9478 201.699 35.2382 201.434 37.8813C201.019 41.9979 198.53 44.3489 194.728 45.3649C189.698 46.7092 184.875 46.0676 180.357 43.4226C179.724 43.0519 179.745 43.0274 180.094 42.394C181.005 40.7442 181.911 39.0916 182.841 37.3974C183.012 37.488 183.15 37.5555 183.282 37.6326C185.268 38.7951 187.351 39.7061 189.666 39.9124C190.31 39.9697 190.994 39.8564 191.626 39.6931C192.376 39.4988 192.837 38.946 192.958 38.157C193.08 37.3627 192.724 36.7487 192.07 36.3964C191.157 35.9057 190.181 35.536 189.237 35.1003C188.002 34.5301 186.704 34.0569 185.555 33.345C183.576 32.1174 182.689 30.2059 182.61 27.8987C182.517 25.2035 183.321 22.8654 185.385 21.059C186.958 19.6825 188.851 18.973 190.885 18.6361C194.893 17.9714 198.595 18.7426 201.932 21.0946C202.428 21.4446 202.86 21.8856 203.321 22.2846C203.513 22.4499 203.581 22.6172 203.363 22.8235C201.996 24.1214 200.632 25.4228 199.287 26.7034Z" fill="white"/>
<path d="M176.536 26.8478C175.813 26.3557 175.124 25.8386 174.389 25.398C173.297 24.7435 172.117 24.3059 170.822 24.3425C170.383 24.3551 169.921 24.4428 169.515 24.6071C167.995 25.2231 167.705 27.0266 169.007 28.0282C169.678 28.5449 170.489 28.8943 171.266 29.2563C172.518 29.839 173.831 30.3007 175.053 30.9383C176.876 31.8893 178.153 33.3583 178.498 35.4356C179.199 39.6524 177.376 43.2629 173.212 44.9358C170.695 45.947 168.069 46.161 165.386 45.9268C162.757 45.6969 160.262 45.0202 157.979 43.689C156.642 42.9101 156.871 43.1718 157.496 42.0006C158.207 40.6694 158.941 39.3512 159.667 38.0287C159.776 37.8277 159.898 37.6334 160.037 37.3978C160.306 37.5486 160.537 37.6754 160.767 37.8074C162.635 38.8832 164.603 39.7156 166.766 39.8968C167.524 39.9599 168.369 39.8452 169.066 39.5551C170.423 38.9917 170.569 37.3076 169.356 36.4854C168.652 36.0077 167.838 35.6848 167.052 35.3407C165.984 34.8727 164.867 34.5088 163.821 33.9989C161.433 32.8349 160.011 30.9832 159.821 28.2494C159.612 25.251 160.507 22.7303 162.871 20.8082C164.404 19.5613 166.219 18.9483 168.134 18.6225C171.193 18.1014 174.142 18.4991 176.955 19.8067C178.251 20.4096 179.418 21.2111 180.435 22.2242C180.664 22.4522 180.733 22.6286 180.47 22.8937C179.192 24.182 177.929 25.4853 176.658 26.7813C176.622 26.817 176.566 26.8319 176.536 26.8478Z" fill="white"/>
<path d="M126.154 22.7086C127.695 20.3001 129.688 18.539 132.665 18.4132C134.076 18.3534 135.484 18.6045 136.768 19.4118C136.317 20.7233 135.871 22.0097 135.428 23.2961C135.148 24.1106 134.851 24.9198 134.598 25.7426C134.465 26.1759 134.312 26.3171 133.841 26.1118C132.798 25.6558 131.711 25.4197 130.547 25.492C128.345 25.6284 126.81 27.2102 126.421 29.4273C125.533 34.4923 124.62 39.5526 123.72 44.6162C123.655 44.9815 123.519 45.1695 123.092 45.1661C120.666 45.1464 118.24 45.1502 115.814 45.1657C115.36 45.169 115.257 44.9974 115.332 44.5796C116.364 38.7578 117.367 32.9303 118.423 27.1128C118.848 24.7748 119.095 22.4305 119.085 20.0558C119.082 19.2798 119.154 19.22 119.907 19.2205C121.684 19.2215 123.464 19.2388 125.243 19.2186C125.727 19.2133 125.901 19.3463 125.897 19.8557C125.888 20.7835 125.964 21.7118 126.004 22.6396C126.054 22.6628 126.104 22.6854 126.154 22.7086Z" fill="white"/>
<path d="M0.183105 45.1556C1.58228 44.1468 2.87445 43.2156 4.16566 42.284C5.79762 41.107 7.42139 39.9189 9.06782 38.7622C9.32664 38.58 9.6833 38.4436 9.99514 38.4431C18.8553 38.4267 27.7154 38.432 36.5755 38.4258C36.9119 38.4258 37.1462 38.4494 37.2146 38.862C37.6089 41.241 38.568 43.3482 40.3764 45.1556" fill="white"/>
<path d="M6.50391 35.2731C6.75694 35.0659 6.86876 34.9632 6.99166 34.8746C9.80398 32.8483 12.6134 30.8178 15.4373 28.8079C15.6807 28.6344 16.02 28.5082 16.3155 28.5077C23.4125 28.4922 30.5096 28.4971 37.6067 28.4995C37.7479 28.4995 37.8886 28.5178 38.0414 28.5284C37.8043 29.5434 37.5286 30.5252 37.3551 31.5243C37.1714 32.5818 37.0563 33.6542 36.97 34.7242C36.9333 35.1821 36.7603 35.2751 36.3415 35.2741C31.3463 35.264 26.3516 35.2717 21.3564 35.2731C16.6851 35.2741 12.0134 35.2731 7.34158 35.2731" fill="white"/>
<path d="M45.0108 18.8206C43.0439 20.2593 41.5218 21.9394 40.2851 23.8813C40.1308 24.1233 39.9414 24.3561 39.8474 24.6216C39.5713 25.3966 39.0623 25.5774 38.2502 25.574C29.7313 25.5364 21.2124 25.548 12.6935 25.5461C12.4993 25.5461 12.305 25.5461 11.9951 25.5461C12.1947 25.3788 12.3045 25.2747 12.4255 25.187C15.2653 23.1352 18.1041 21.0825 20.9521 19.0428C21.1415 18.9069 21.4033 18.8013 21.6312 18.8008C29.3057 18.7893 36.9797 18.7926 44.6542 18.7941C44.7245 18.7941 44.7944 18.8042 45.0108 18.8206Z" fill="white"/>
<path d="M55.7734 10.5238C54.3578 10.531 54.38 10.5306 54.3521 9.115C54.3415 8.59254 54.5005 8.40939 55.0215 8.44795C55.5758 8.48892 56.1358 8.44361 56.6916 8.46819C57.3586 8.49759 57.6203 8.81521 57.6136 9.52709C57.6073 10.2009 57.3446 10.4901 56.6896 10.5214C56.385 10.5359 56.079 10.5238 55.7734 10.5238Z" fill="white"/>
<path d="M55.5226 6.79247C54.1866 6.72499 54.3779 6.92356 54.3654 5.61307C54.3577 4.79854 54.3644 4.78697 55.1983 4.80239C55.7159 4.81203 56.2355 4.84288 56.7497 4.90361C57.1719 4.95325 57.3556 5.27087 57.3806 5.66079C57.4081 6.08155 57.2953 6.48689 56.8437 6.60787C56.4176 6.72258 55.9641 6.73511 55.5226 6.79247Z" fill="white"/>
</svg>
