<svg width="244" height="42" viewBox="0 0 244 42" fill="none" xmlns="http://www.w3.org/2000/svg">
<g clip-path="url(#clip0_25_4962)">
<mask id="mask0_25_4962" style="mask-type:alpha" maskUnits="userSpaceOnUse" x="-1" y="-1" width="245" height="67">
<path d="M-0.235352 65.9921H243.926V-0.211578H-0.235352V65.9921Z" fill="black"/>
</mask>
<g mask="url(#mask0_25_4962)">
<path d="M19.8895 29.8777C17.5243 32.0135 14.4519 32.9453 9.58794 32.9453H7.56766V7.4253H9.58794C14.4519 7.4253 17.4034 8.29562 19.8895 10.5464C22.4929 12.8646 24.0591 16.4566 24.0591 20.1538C24.0591 23.8584 22.4929 27.5605 19.8895 29.8777ZM11.0959 0.886616H0.0458984V39.4786H11.0375C16.8825 39.4786 21.1028 38.0997 24.8075 35.0235C29.2097 31.3802 31.8131 25.8891 31.8131 20.2094C31.8131 8.82041 23.3039 0.886616 11.0959 0.886616Z" fill="white"/>
<path d="M35.2769 39.4786H42.8046V0.886616H35.2769V39.4786Z" fill="white"/>
<path d="M61.2107 15.6956C56.6935 14.0241 55.3669 12.9216 55.3669 10.8365C55.3669 8.40603 57.7301 6.55896 60.9748 6.55896C63.2304 6.55896 65.084 7.48539 67.0453 9.68449L70.9838 4.52683C67.7472 1.69569 63.8746 0.248192 59.6434 0.248192C52.8154 0.248192 47.607 4.99011 47.607 11.3063C47.607 16.6232 50.0322 19.3452 57.1022 21.8897C60.0489 22.9291 61.5486 23.6217 62.3056 24.0876C63.8098 25.0697 64.5629 26.46 64.5629 28.0807C64.5629 31.2077 62.0767 33.5244 58.718 33.5244C55.1277 33.5244 52.2356 31.7288 50.5026 28.3771L45.6392 33.0596C49.1075 38.1507 53.2728 40.407 59.0004 40.407C66.8235 40.407 72.3109 35.2056 72.3109 27.7346C72.3109 21.6031 69.7739 18.8275 61.2107 15.6956Z" fill="white"/>
<path d="M74.686 20.2092C74.686 31.5528 83.5933 40.3488 95.0562 40.3488C98.2965 40.3488 101.072 39.7116 104.494 38.0995V29.2383C101.485 32.2504 98.8193 33.4651 95.406 33.4651C87.8249 33.4651 82.4438 27.9685 82.4438 20.1536C82.4438 12.744 87.9949 6.8992 95.0562 6.8992C98.6465 6.8992 101.364 8.18042 104.494 11.2415V2.38463C101.19 0.708256 98.4726 0.0140152 95.2338 0.0140152C83.8292 0.0140152 74.686 8.988 74.686 20.2092Z" fill="white"/>
<path d="M164.18 26.809L153.889 0.886578H145.666L162.042 40.4688H166.093L182.766 0.886578H174.606L164.18 26.809Z" fill="white"/>
<path d="M186.17 39.4786H207.518V32.9453H193.691V22.5282H207.008V15.9911H193.691V7.4253H207.518V0.886616H186.17V39.4786Z" fill="white"/>
<path d="M222.221 18.6539H220.022V6.96532H222.34C227.028 6.96532 229.577 8.92946 229.577 12.6854C229.577 16.5651 227.028 18.6539 222.221 18.6539ZM237.324 12.28C237.324 5.0551 232.347 0.886616 223.665 0.886616H212.503V39.4786H220.022V23.9757H221.003L231.423 39.4786H240.681L228.532 23.2203C234.201 22.0676 237.324 18.1891 237.324 12.28Z" fill="white"/>
<path d="M240.702 2.79996H240.565V1.91347H240.71C241.111 1.91347 241.318 2.05763 241.318 2.34967C241.318 2.64987 241.108 2.79996 240.702 2.79996ZM242.128 2.33723C242.128 1.66082 241.662 1.29096 240.844 1.29096H239.755V4.68311H240.565V3.36746L241.514 4.68311H242.503L241.387 3.28426C241.864 3.15572 242.128 2.80812 242.128 2.33723Z" fill="white"/>
<path d="M240.997 5.40922C239.7 5.40922 238.64 4.33047 238.64 2.98456C238.64 1.63382 239.686 0.555622 240.997 0.555622C242.286 0.555622 243.338 1.65856 243.338 2.98456C243.338 4.31914 242.286 5.40922 240.997 5.40922ZM241.008 0.0232296C239.36 0.0232296 238.053 1.3379 238.053 2.98028C238.053 4.62155 239.375 5.93774 241.008 5.93774C242.612 5.93774 243.927 4.60745 243.927 2.98028C243.927 1.36112 242.612 0.0232296 241.008 0.0232296Z" fill="white"/>
</g>
<mask id="mask1_25_4962" style="mask-type:alpha" maskUnits="userSpaceOnUse" x="-1" y="-1" width="245" height="67">
<path d="M-0.235352 65.9921V-0.211578H243.986V65.9921H-0.235352Z" fill="black"/>
</mask>
<g mask="url(#mask1_25_4962)">
<mask id="mask2_25_4962" style="mask-type:alpha" maskUnits="userSpaceOnUse" x="106" y="-1" width="43" height="42">
<path d="M106.952 20.3238C106.952 20.3238 106.952 20.3238 106.952 20.3113C106.952 8.97958 116.144 -0.213192 127.477 -0.213192C138.821 -0.213192 148.013 8.97958 148.013 20.3113C148.013 20.3238 148.013 20.3238 148.013 20.3238C148.013 31.656 138.821 40.8483 127.477 40.8483C116.144 40.8483 106.952 31.656 106.952 20.3238Z" fill="black"/>
</mask>
<g mask="url(#mask2_25_4962)">
<rect x="106.451" y="-0.639893" width="42.0441" height="41.9059" fill="white"/>
</g>
</g>
</g>
<defs>
<clipPath id="clip0_25_4962">
<rect width="243.881" height="41.0598" fill="white" transform="translate(0.0454102)"/>
</clipPath>
</defs>
</svg>
