<svg width="23" height="23" viewBox="0 0 23 23" fill="none"
  xmlns="http://www.w3.org/2000/svg">
  <defs>
    <linearGradient id="MyGradient">
      <stop offset="5%" stop-color="#00BBB4" />
      <stop offset="95%" stop-color="#2D8D8A" />
    </linearGradient>
  </defs>
  <path d="M11.209 0C17.3998 0 22.4181 5.01829 22.4181 11.209C22.4181 17.3998 17.3998 22.4181 11.209 22.4181C5.01829 22.4181 0 17.3998 0 11.209C0 5.01829 5.01829 0 11.209 0ZM11.209 1.56366C8.65093 1.56366 6.19759 2.57987 4.38873 4.38873C2.57987 6.19759 1.56366 8.65093 1.56366 11.209C1.56366 13.7672 2.57987 16.2205 4.38873 18.0294C6.19759 19.8382 8.65093 20.8544 11.209 20.8544C13.7672 20.8544 16.2205 19.8382 18.0294 18.0294C19.8382 16.2205 20.8544 13.7672 20.8544 11.209C20.8544 8.65093 19.8382 6.19759 18.0294 4.38873C16.2205 2.57987 13.7672 1.56366 11.209 1.56366ZM13.5047 3.90971C14.2334 4.18526 14.9148 4.57249 15.5245 5.05752C15.6646 5.16513 15.7991 5.27946 15.9314 5.40164C15.9561 5.42294 15.9774 5.44535 16.0009 5.46889C16.3686 5.80853 16.7026 6.19076 16.9985 6.60101C17.04 6.65817 17.0837 6.71085 17.1218 6.76578C17.1936 6.87114 17.2608 6.98099 17.3281 7.09084C17.4437 7.27612 17.5503 7.46689 17.6475 7.6625C17.7069 7.77459 17.7596 7.89677 17.8145 8.01559C17.8515 8.09741 17.893 8.18148 17.9266 8.26891C18.0084 8.47292 18.0813 8.67804 18.1474 8.88765C18.1687 8.95715 18.1856 9.03113 18.2057 9.10062C18.3194 9.49944 18.4 9.90697 18.4467 10.319C18.4546 10.393 18.4658 10.4715 18.4714 10.5443C18.4938 10.7853 18.5084 11.0286 18.5084 11.2729C18.5069 11.7504 18.463 12.2268 18.3772 12.6965C18.3615 12.7783 18.3481 12.8613 18.3324 12.9397C18.2876 13.1527 18.236 13.3612 18.1755 13.5674C17.6049 13.3063 16.9346 12.9218 16.7598 12.4992C16.4414 11.737 15.594 11.3559 15.2488 10.374C14.6805 8.74866 15.4349 8.79125 15.5402 7.78244C15.5895 7.30942 15.2488 7.21078 14.7993 7.40357C13.7501 7.84409 13.3948 7.67483 13.183 6.88459C12.9711 6.0966 13.183 5.8769 13.183 5.8769C12.4678 5.95537 12.4409 5.08442 12.8119 4.86473C13.0697 4.71677 13.2883 4.2628 13.5047 3.90971ZM10.5074 8.73969C11.1687 8.43705 11.7796 8.32832 11.6989 7.80822C11.6204 7.29373 11.4343 6.91038 10.4009 6.91038C9.3674 6.91038 9.818 8.32832 8.9706 7.48204C8.12319 6.64136 9.15555 6.85881 9.57925 6.66714C10.0041 6.47434 10.4278 5.68411 9.68573 5.62806C8.94482 5.57538 9.10286 5.95537 8.51999 5.74015C7.93712 5.52045 7.67259 6.50125 7.30045 6.3645C7.05609 6.27258 6.40036 5.76817 5.96545 5.27161C5.078 6.0435 4.37543 7.00503 3.90971 8.08508C4.03638 9.55011 4.81092 10.319 4.81092 10.319C4.81092 10.319 5.20884 11.2729 7.59413 12.4454C7.59413 12.4454 8.04249 12.4723 7.51342 11.9287C6.98436 11.3828 6.40036 10.7013 7.06282 10.3482C7.72415 9.99062 7.91134 10.0209 8.07051 10.6766C8.22856 11.3312 8.75987 10.9456 8.81143 10.319C8.86523 9.6947 9.8449 9.04121 10.5074 8.73857V8.73969ZM10.003 12.0352C11.144 12.0352 11.0375 12.3905 11.9388 13.1841C12.8388 13.9732 12.3625 14.7634 11.9107 15.3642C11.4612 15.9628 11.0633 16.6421 10.8515 17.8728C10.6385 19.0991 10.0825 18.2248 9.89871 17.9255C9.71264 17.624 9.4212 17.3527 9.50191 16.0984C9.58037 14.8453 8.73184 15.5828 8.44153 13.9463C8.1501 12.312 8.86523 12.0363 10.0041 12.0363L10.003 12.0352ZM15.5817 13.1157C15.8855 12.9218 16.6129 13.4273 16.456 13.9597C16.2957 14.4922 15.7935 14.1918 15.5413 13.9597C15.2891 13.7288 15.2757 13.3063 15.5817 13.1157Z" fill="black"/>
</svg>
