<svg viewBox="0 0 281 32" fill="currentColor"
  xmlns="http://www.w3.org/2000/svg">
  <g clip-path="url(#clip0_25_4646)">
    <path fill-rule="evenodd" clip-rule="evenodd" d="M165.908 14.4102L154.184 1.42366H151.36V31.4546H159.187V18.105L165.528 24.7856H166.381L172.762 18.105V31.4546H180.589V1.42366H177.851L165.908 14.4102ZM92.6234 20.8487C100.192 15.7129 98.0531 1.55047 86.2829 1.51012H73.1522V31.4835H76.8067L80.8127 22.6759H84.7899L89.92 31.4546H98.4739V30.3422L92.6234 20.8487ZM86.2829 15.8397H80.807V8.34635C82.6054 8.34635 84.4845 8.306 86.2829 8.34635C90.6463 8.39246 90.4272 15.8397 86.2829 15.8397ZM54.367 31.4546H61.8603V30.3422L48.332 1.11816H45.0407L31.5585 30.3422V31.4546H39.0518L40.781 27.6964H52.609L54.367 31.4546ZM50.1477 21.1427H43.2826L46.6892 13.2574L50.1477 21.1427ZM3.65444 31.4546L7.68931 23.7999H13.2056C27.5409 23.7999 27.5409 1.55047 13.2056 1.51012H0V31.4835L3.65444 31.4546ZM13.1364 16.9118H7.66049V8.35211C9.38972 8.35211 11.338 8.31176 13.1364 8.35211C17.5863 8.39822 17.3327 16.9118 13.1364 16.9118ZM132.574 31.4546H140.068V30.3422L126.539 1.11816H123.248L109.766 30.3422V31.4546H117.259L119.017 27.6964H130.845L132.574 31.4546ZM128.344 21.1427H121.496L124.874 13.2574L128.344 21.1427Z" fill="currentColor"/>
    <path d="M214.321 6.56519H204.885V31.3508H198.821V6.56519H189.391V0.893311H214.321V6.56519Z" fill="#00BBB4"/>
    <path d="M234.023 20.7508C234.026 21.3903 233.989 22.0294 233.913 22.6644H218.984C219.589 25.7079 221.722 27.0336 224.397 27.0336C226.35 26.9919 228.229 26.2773 229.717 25.0104L233.043 28.6649C230.656 30.861 227.613 31.8582 224.068 31.8582C217.612 31.8582 213.116 27.4717 213.116 20.8372C213.116 14.2027 217.462 9.68945 223.768 9.68945C229.838 9.69522 233.988 14.1912 234.023 20.7508ZM219.001 18.7967H228.316C227.797 16.0991 226.166 14.5774 223.705 14.5774C221.059 14.5832 219.491 16.1914 218.99 18.8025L219.001 18.7967Z" fill="#00BBB4"/>
    <path d="M256.981 13.6724L252.9 17.0848C252.35 16.4256 251.661 15.8959 250.883 15.5332C250.105 15.1705 249.256 14.9839 248.398 14.9866C245.464 14.9866 243.118 17.2923 243.118 20.7911C243.118 24.2899 245.424 26.5955 248.375 26.5955C249.251 26.589 250.116 26.3954 250.911 26.0276C251.706 25.6598 252.414 25.1263 252.986 24.4628L257.021 27.9213C256.019 29.1952 254.731 30.2164 253.263 30.9031C251.795 31.5897 250.186 31.9228 248.565 31.8755C241.85 31.8755 237.354 27.1835 237.354 20.7911C237.354 14.3987 241.85 9.70673 248.565 9.70673C250.181 9.65981 251.785 9.99444 253.247 10.6835C254.709 11.3725 255.988 12.3965 256.981 13.6724Z" fill="#00BBB4"/>
    <path d="M266.763 12.5196C268.261 10.433 270.503 9.69522 272.803 9.69522C277.588 9.69522 281 13.0211 281 17.9091V31.3221H275.328V19.7363C275.328 16.6928 273.806 15.0213 271.218 15.0213C268.786 15.0213 266.763 16.6064 266.763 19.7824V31.3106H261.114V0H266.786L266.763 12.5196Z" fill="#00BBB4"/>
  </g>
  <defs>
    <clipPath id="clip0_25_4646">
      <rect width="281" height="31.864" fill="currentColor"/>
    </clipPath>
  </defs>
</svg>
<svg  viewBox="0 0 293 48" fill="currentColor" xmlns="http://www.w3.org/2000/svg">
<path fill-rule="evenodd" clip-rule="evenodd" d="M165.908 23.4102L154.184 10.4237H151.36V40.4546H159.187V27.105L165.528 33.7856H166.381L172.762 27.105V40.4546H180.589V10.4237H177.851L165.908 23.4102ZM92.6234 29.8487C100.192 24.7129 98.0531 10.5505 86.2829 10.5101H73.1522V40.4835H76.8067L80.8127 31.6759H84.7899L89.92 40.4546H98.4739V39.3422L92.6234 29.8487ZM86.2829 24.8397H80.807V17.3463C82.6054 17.3463 84.4845 17.306 86.2829 17.3463C90.6463 17.3925 90.4272 24.8397 86.2829 24.8397ZM54.367 40.4546H61.8603V39.3422L48.332 10.1182H45.0407L31.5585 39.3422V40.4546H39.0518L40.781 36.6964H52.609L54.367 40.4546ZM50.1477 30.1427H43.2826L46.6892 22.2574L50.1477 30.1427ZM3.65444 40.4546L7.68931 32.7999H13.2056C27.5409 32.7999 27.5409 10.5505 13.2056 10.5101H0V40.4835L3.65444 40.4546ZM13.1364 25.9118H7.66049V17.3521C9.38972 17.3521 11.338 17.3118 13.1364 17.3521C17.5863 17.3982 17.3327 25.9118 13.1364 25.9118ZM132.574 40.4546H140.068V39.3422L126.539 10.1182H123.248L109.766 39.3422V40.4546H117.259L119.017 36.6964H130.845L132.574 40.4546ZM128.344 30.1427H121.496L124.874 22.2574L128.344 30.1427Z" fill="currentColor"/>
<path d="M219.149 10.2893H211.801V29.0228L197.806 10.2893H190.786V41H198.113V22.2664L212.108 41H219.149V10.2893ZM234.678 18.8883C228.141 18.8883 223.644 23.5826 223.644 30.3609C223.644 37.0734 228.228 41.5703 234.985 41.5703C238.955 41.5703 242.224 40.2761 244.461 38.0386L240.03 33.9146C238.67 35.143 236.937 35.8011 235.336 35.8011C232.967 35.8011 231.299 34.7043 230.729 32.3571H245.317C245.404 31.8965 245.448 30.9313 245.448 30.2293C245.426 23.4949 241.061 18.8883 234.678 18.8883ZM234.7 24.7233C236.696 24.7233 238.034 25.864 238.582 28.0137H230.751C231.277 25.8859 232.572 24.7233 234.7 24.7233ZM270.022 19.4805H262.125L258.177 25.6008L254.184 19.4805H246.156L253.57 30.1416L245.914 41H253.811L257.914 34.814L262.147 41H270.132L262.542 30.1416L270.022 19.4805ZM290.016 19.4805H282.667V13.2068H275.801V19.4805H271.787V25.5569H275.801V32.73C275.801 38.1264 278.412 41.5703 284.181 41.5703C287.647 41.5703 289.797 40.5832 291.815 39.1793L289.446 33.8268C288.371 34.463 286.989 35.165 285.716 35.165C283.983 35.165 282.667 34.3314 282.667 31.8526V25.5569H290.016V19.4805Z" fill="#00B7B3"/>
</svg>
