<svg width="88" height="69" viewBox="0 0 88 69" fill="none" xmlns="http://www.w3.org/2000/svg">
<g clip-path="url(#clip0_25_4996)">
<path d="M15.8989 67.976V63.4548C15.8989 61.7253 14.8454 60.5928 13.037 60.5928C12.1327 60.5928 11.1495 60.8913 10.4735 61.8746C9.94675 61.0494 9.19175 60.5928 8.05926 60.5928C7.30426 60.5928 6.54927 60.8211 5.95229 61.6463V60.7421H4.37207V67.976H5.95229V63.9815C5.95229 62.6998 6.62828 62.0941 7.68176 62.0941C8.73524 62.0941 9.26198 62.77 9.26198 63.9815V67.976H10.8422V63.9815C10.8422 62.6998 11.5972 62.0941 12.5717 62.0941C13.6252 62.0941 14.1519 62.77 14.1519 63.9815V67.976H15.8989ZM39.3389 60.7421H36.7754V58.5561H35.1952V60.7421H33.7642V62.1731H35.1952V65.4915C35.1952 67.1508 35.8712 68.1252 37.6797 68.1252C38.3557 68.1252 39.1106 67.897 39.6374 67.5985L39.1809 66.2378C38.7244 66.5362 38.1976 66.6152 37.8201 66.6152C37.0651 66.6152 36.7666 66.1587 36.7666 65.4125V62.1731H39.3301V60.7421H39.3389ZM52.7532 60.5841C51.849 60.5841 51.2433 61.0406 50.8658 61.6375V60.7333H49.2855V67.9672H50.8658V63.8938C50.8658 62.691 51.3925 62.0063 52.3757 62.0063C52.6742 62.0063 53.0517 62.0853 53.359 62.1555L53.8155 60.6455C53.4995 60.5841 53.0517 60.5841 52.7532 60.5841ZM32.4825 61.3391C31.7275 60.8123 30.674 60.5841 29.5415 60.5841C27.733 60.5841 26.5303 61.4883 26.5303 62.9193C26.5303 64.122 27.4346 64.8068 29.0148 65.0262L29.7698 65.1053C30.595 65.2545 31.0515 65.4828 31.0515 65.8603C31.0515 66.387 30.4458 66.7645 29.3923 66.7645C28.3388 66.7645 27.5048 66.387 26.978 66.0095L26.223 67.2122C27.0483 67.818 28.1808 68.1165 29.3133 68.1165C31.4202 68.1165 32.6317 67.1332 32.6317 65.7812C32.6317 64.4995 31.6485 63.8235 30.1473 63.5953L29.3923 63.5163C28.7163 63.4372 28.1895 63.288 28.1895 62.8403C28.1895 62.3135 28.7163 62.015 29.5503 62.015C30.4545 62.015 31.3588 62.3925 31.8153 62.6208L32.4825 61.3391ZM74.5252 60.5841C73.621 60.5841 73.0152 61.0406 72.6377 61.6375V60.7333H71.0575V67.9672H72.6377V63.8938C72.6377 62.691 73.1645 62.0063 74.1477 62.0063C74.4462 62.0063 74.8237 62.0853 75.131 62.1555L75.5875 60.6631C75.2802 60.5841 74.8325 60.5841 74.5252 60.5841ZM54.3335 64.359C54.3335 66.545 55.8435 68.1252 58.1787 68.1252C59.2322 68.1252 59.9872 67.897 60.7421 67.3L59.9872 66.0183C59.3814 66.4748 58.7844 66.6943 58.0997 66.6943C56.8179 66.6943 55.9137 65.79 55.9137 64.359C55.9137 62.9983 56.8179 62.0941 58.0997 62.0238C58.7756 62.0238 59.3814 62.2521 59.9872 62.6998L60.7421 61.4181C59.9872 60.8123 59.2322 60.5928 58.1787 60.5928C55.8435 60.5841 54.3335 62.1731 54.3335 64.359ZM68.9505 64.359V60.7421H67.3703V61.6463C66.8436 60.9703 66.0886 60.5928 65.1053 60.5928C63.0686 60.5928 61.4884 62.1731 61.4884 64.359C61.4884 66.545 63.0686 68.1252 65.1053 68.1252C66.1588 68.1252 66.9138 67.7477 67.3703 67.0718V67.976H68.9505V64.359ZM63.1476 64.359C63.1476 63.0773 63.9728 62.0238 65.3336 62.0238C66.6153 62.0238 67.5195 63.0071 67.5195 64.359C67.5195 65.6408 66.6153 66.6943 65.3336 66.6943C63.9816 66.6153 63.1476 65.632 63.1476 64.359ZM44.2376 60.5841C42.1306 60.5841 40.6206 62.0941 40.6206 64.3503C40.6206 66.6153 42.1306 68.1165 44.3166 68.1165C45.3701 68.1165 46.4236 67.818 47.2576 67.1332L46.5026 66.0007C45.8968 66.4572 45.1418 66.7557 44.3956 66.7557C43.4124 66.7557 42.4379 66.2992 42.2096 65.0262H47.5561C47.5561 64.798 47.5561 64.6487 47.5561 64.4205C47.6263 62.0941 46.2655 60.5841 44.2376 60.5841ZM44.2376 61.9448C45.2208 61.9448 45.8968 62.5506 46.0461 63.6743H42.2799C42.4291 62.6998 43.1051 61.9448 44.2376 61.9448ZM83.4974 64.359V57.8801H81.9171V61.6463C81.3904 60.9703 80.6354 60.5928 79.6522 60.5928C77.6154 60.5928 76.0352 62.1731 76.0352 64.359C76.0352 66.545 77.6154 68.1252 79.6522 68.1252C80.7056 68.1252 81.4606 67.7477 81.9171 67.0718V67.976H83.4974V64.359ZM77.6944 64.359C77.6944 63.0773 78.5197 62.0238 79.8804 62.0238C81.1621 62.0238 82.0664 63.0071 82.0664 64.359C82.0664 65.6408 81.1621 66.6943 79.8804 66.6943C78.5197 66.6153 77.6944 65.632 77.6944 64.359ZM24.7921 64.359V60.7421H23.2118V61.6463C22.6851 60.9703 21.9301 60.5928 20.9469 60.5928C18.9101 60.5928 17.3299 62.1731 17.3299 64.359C17.3299 66.545 18.9101 68.1252 20.9469 68.1252C22.0003 68.1252 22.7553 67.7477 23.2118 67.0718V67.976H24.7921V64.359ZM18.9189 64.359C18.9189 63.0773 19.7441 62.0238 21.1049 62.0238C22.3866 62.0238 23.2909 63.0071 23.2909 64.359C23.2909 65.6408 22.3866 66.6943 21.1049 66.6943C19.7441 66.6153 18.9189 65.632 18.9189 64.359Z" fill="white"/>
<path d="M55.694 5.80322H31.9556V48.4517H55.694V5.80322Z" fill="black"/>
<path d="M33.5358 27.1272C33.5358 18.4623 37.6093 10.7719 43.86 5.80293C39.2598 2.18598 33.4568 0 27.1272 0C12.1326 0 0 12.1326 0 27.1272C0 42.1217 12.1326 54.2543 27.1272 54.2543C33.4568 54.2543 39.2598 52.0684 43.86 48.4514C37.6005 43.5527 33.5358 35.7921 33.5358 27.1272Z" fill="white"/>
<path d="M87.7203 27.1272C87.7203 42.1217 75.5877 54.2543 60.5932 54.2543C54.2635 54.2543 48.4606 52.0684 43.8604 48.4514C50.19 43.4737 54.1845 35.7921 54.1845 27.1272C54.1845 18.4623 50.111 10.7719 43.8604 5.80293C48.4518 2.18598 54.2547 0 60.5844 0C75.5877 0 87.7203 12.2116 87.7203 27.1272Z" fill="white"/>
</g>
<defs>
<clipPath id="clip0_25_4996">
<rect width="87.7199" height="68.1252" fill="white"/>
</clipPath>
</defs>
</svg>
