<svg viewBox="0 0 462 691" fill="none" xmlns="http://www.w3.org/2000/svg">
<g clip-path="url(#clip0_7_40)">
<g filter="url(#filter0_d_7_40)">
<path d="M70.0083 28.7947L70.0083 595.093C70.0083 610.996 82.9002 623.888 98.8031 623.888H432.823C448.725 623.888 461.617 610.996 461.617 595.093L461.617 28.7947C461.617 12.8918 448.725 -6.10352e-05 432.823 -6.10352e-05H98.8031C82.9002 -6.10352e-05 70.0083 12.8918 70.0083 28.7947Z" fill="url(#paint0_linear_7_40)"/>
<path d="M70.968 28.795L70.968 595.093C70.968 610.466 83.4302 622.928 98.803 622.928H432.823C448.196 622.928 460.658 610.466 460.658 595.093L460.658 28.795C460.658 13.4221 448.196 0.959961 432.823 0.959961H98.803C83.4302 0.959961 70.968 13.4221 70.968 28.795Z" stroke="url(#paint1_linear_7_40)" stroke-width="1.91965"/>
</g>
<path fill-rule="evenodd" clip-rule="evenodd" d="M70.0084 67.3833H28.7948C12.8919 67.3833 0 80.2752 0 96.1782V662.476C0 678.379 12.8919 691.271 28.7948 691.271H362.815C378.718 691.271 391.61 678.379 391.61 662.476V623.888H389.69V662.476C389.69 677.319 377.658 689.351 362.815 689.351H28.7948C13.9521 689.351 1.91965 677.319 1.91965 662.476V96.1782C1.91965 81.3354 13.9521 69.303 28.7948 69.303H70.0084V67.3833Z" fill="url(#paint2_linear_7_40)"/>
<g style="mix-blend-mode:overlay">
<path d="M132.943 544.838C132.943 542.311 131.619 540.957 129.572 540.957C127.51 540.957 126.186 542.311 126.186 544.853V549.198H136.839V547.075H132.943V544.838ZM128.142 544.891C128.142 543.734 128.621 543.133 129.572 543.133C130.531 543.133 131.003 543.734 131.003 544.891V547.075H128.142V544.891ZM126.186 530.584V533.171L136.839 537.318V535.104L134.359 534.175V529.633L136.839 528.704V526.437L126.186 530.584ZM128.286 531.9L132.403 530.363V533.445L128.286 531.9ZM126.186 521.258H136.839V519.135H132.601V518.511L136.839 515.406V512.834L132.57 516.114C132.373 514.067 131.178 512.85 129.428 512.85C127.389 512.85 126.186 514.212 126.186 516.753V521.258ZM128.142 516.791C128.142 515.665 128.545 515.033 129.428 515.033C130.326 515.033 130.752 515.634 130.752 516.791V519.135H128.142V516.791ZM126.186 501.5V504.087L136.839 508.234V506.019L134.359 505.091V500.548L136.839 499.62V497.353L126.186 501.5ZM128.286 502.816L132.403 501.279V504.361L128.286 502.816ZM126.186 480.417V483.529L133.377 486.291L126.186 489.061V492.173H136.839V490.05H128.857L135.812 487.418V485.173L128.796 482.54H136.839V480.417H126.186ZM126.186 466.429V475.157H128.172V471.855H136.839V469.732H128.172V466.429H126.186ZM134.891 453.213V459.049H132.441V453.54H130.493V459.049H128.134V453.274H126.186V461.172H136.839V453.213H134.891ZM125.988 442.223C125.988 445.503 128.309 447.816 131.513 447.816C134.716 447.816 137.037 445.503 137.037 442.223C137.037 440.275 136.17 438.67 134.785 437.726L133.537 439.461C134.465 440.1 134.998 441.059 134.998 442.238C134.998 444.118 133.651 445.594 131.513 445.602C129.443 445.602 128.028 444.171 128.028 442.238C128.028 441.051 128.576 440.085 129.496 439.484L128.378 437.658C126.886 438.525 125.988 440.26 125.988 442.223ZM126.186 429.89V432.013H136.839V429.89H132.456V424.762H136.839V422.639H126.186V424.762H130.478V429.89H126.186Z" fill="white"/>
</g>
<g style="mix-blend-mode:overlay">
<path d="M393.146 536.114C391.937 538.141 391.43 540.018 391.43 542.276C391.43 545.708 393.181 548.703 396.544 548.703C399.458 548.703 400.714 546.63 401.163 543.785L401.324 542.76C401.681 540.514 402.096 539.339 403.213 539.339C404.457 539.339 405.16 540.721 405.16 542.506C405.16 544.579 404.353 546.48 403.42 547.643L406.012 549.313C407.406 547.586 408.12 544.959 408.12 542.518C408.12 539.051 406.426 535.918 402.867 535.918C400.057 535.918 398.825 538.175 398.352 541.055L398.203 541.965C397.88 543.9 397.523 545.294 396.337 545.294C395.116 545.294 394.402 544.015 394.402 542.207C394.402 540.444 394.989 538.901 395.772 537.634L393.146 536.114ZM404.883 515.18V524.014H401.174V515.675H398.226V524.014H394.655V515.272H391.707V527.227H407.832V515.18H404.883ZM391.707 506.126H407.832V502.913H401.416V501.968L407.832 497.269V493.376L401.37 498.34C401.071 495.242 399.262 493.399 396.613 493.399C393.526 493.399 391.707 495.461 391.707 499.308V506.126ZM394.667 499.365C394.667 497.661 395.277 496.705 396.613 496.705C397.972 496.705 398.617 497.615 398.617 499.365V502.913H394.667V499.365ZM391.707 481.497V484.71H407.832V481.497H401.197V473.734H407.832V470.52H391.707V473.734H398.203V481.497H391.707ZM391.707 452.485V456.402L407.832 462.679V459.327L404.077 457.922V451.046L407.832 449.641V446.208L391.707 452.485ZM394.886 454.478L401.117 452.151V456.816L394.886 454.478ZM391.707 423.948V427.173H402.476L391.707 435.362V438.368H407.832V435.155L397.062 435.143L407.832 426.966V423.948H391.707ZM391.707 389.78V393.443L398.548 397.497L391.707 401.552V405.329L401.462 399.121H407.832V395.908H401.474L391.707 389.78ZM391.707 378.915V382.129H407.832V378.915H391.707ZM404.825 357.749V366.272H391.707V369.486H407.832V357.749H404.825ZM391.707 331.984V336.695L402.591 340.876L391.707 345.069V349.779H407.832V346.566H395.749L406.277 342.581V339.183L395.657 335.198H407.832V331.984H391.707ZM391.707 313.955V317.872L407.832 324.149V320.797L404.077 319.392V312.516L407.832 311.111V307.678L391.707 313.955ZM394.886 315.948L401.117 313.621V318.286L394.886 315.948ZM391.707 287.929V300.553H394.667V292.202L405.321 300.576H407.832V287.929H404.872V296.302L394.217 287.929H391.707Z" fill="white"/>
</g>
<g filter="url(#filter1_i_7_40)">
<path d="M234.067 481.887V540.277C234.067 545.892 238.619 550.444 244.234 550.444H280.836C286.451 550.444 291.003 545.892 291.003 540.277V481.887C291.003 476.272 286.451 471.72 280.836 471.72H244.234C238.619 471.72 234.067 476.272 234.067 481.887Z" fill="url(#paint3_linear_7_40)"/>
</g>
<path d="M253.773 550.535V523.765C248.51 522.07 237.665 517.304 236.391 511.801C237.115 509.757 239.722 504.981 244.357 502.23M272.024 550.535V523.765C281.063 523.765 287.668 515.789 289.841 511.801C287.639 505.101 277.046 499.936 272.024 498.192V471.721M258.118 471.721V498.192C255.849 499.388 250.615 501.063 247.834 498.192" stroke="url(#paint4_linear_7_40)" stroke-width="0.87147"/>
<g style="mix-blend-mode:overlay">
<path d="M257.916 440.811C259.742 439.796 264.247 438.376 267.656 440.811M254.416 434.115C257.307 432.593 264.703 430.462 271.156 434.115M250.763 428.18C254.669 426.201 264.856 423.431 274.352 428.18M247.872 421.788C252.488 419.251 264.825 415.701 277.243 421.788" stroke="white" stroke-width="3.34804" stroke-linecap="round" stroke-linejoin="round"/>
</g>
<path opacity="0.75" d="M149.866 108.899C172.559 108.899 190.955 90.5022 190.955 67.809C190.955 45.1159 172.559 26.7195 149.866 26.7195C127.172 26.7195 108.776 45.1159 108.776 67.809C108.776 90.5022 127.172 108.899 149.866 108.899Z" fill="#B8B8B8"/>
<path opacity="0.7" d="M149.866 158.51C172.559 158.51 190.955 140.114 190.955 117.421C190.955 94.7277 172.559 76.3313 149.866 76.3313C127.172 76.3313 108.776 94.7277 108.776 117.421C108.776 140.114 127.172 158.51 149.866 158.51Z" fill="#5B5B5B"/>
</g>
<defs>
<filter id="filter0_d_7_40" x="23.9367" y="-44.152" width="483.753" height="716.031" filterUnits="userSpaceOnUse" color-interpolation-filters="sRGB">
<feFlood flood-opacity="0" result="BackgroundImageFix"/>
<feColorMatrix in="SourceAlpha" type="matrix" values="0 0 0 0 0 0 0 0 0 0 0 0 0 0 0 0 0 0 127 0" result="hardAlpha"/>
<feOffset dy="1.91965"/>
<feGaussianBlur stdDeviation="23.0358"/>
<feColorMatrix type="matrix" values="0 0 0 0 0 0 0 0 0 0 0 0 0 0 0 0 0 0 0.1 0"/>
<feBlend mode="normal" in2="BackgroundImageFix" result="effect1_dropShadow_7_40"/>
<feBlend mode="normal" in="SourceGraphic" in2="effect1_dropShadow_7_40" result="shape"/>
</filter>
<filter id="filter1_i_7_40" x="233.195" y="470.849" width="57.8075" height="79.5953" filterUnits="userSpaceOnUse" color-interpolation-filters="sRGB">
<feFlood flood-opacity="0" result="BackgroundImageFix"/>
<feBlend mode="normal" in="SourceGraphic" in2="BackgroundImageFix" result="shape"/>
<feColorMatrix in="SourceAlpha" type="matrix" values="0 0 0 0 0 0 0 0 0 0 0 0 0 0 0 0 0 0 127 0" result="hardAlpha"/>
<feOffset dx="-0.87147" dy="-0.87147"/>
<feGaussianBlur stdDeviation="2"/>
<feComposite in2="hardAlpha" operator="arithmetic" k2="-1" k3="1"/>
<feColorMatrix type="matrix" values="0 0 0 0 0 0 0 0 0 0 0 0 0 0 0 0 0 0 0.25 0"/>
<feBlend mode="normal" in2="shape" result="effect1_innerShadow_7_40"/>
</filter>
<linearGradient id="paint0_linear_7_40" x1="79.6063" y1="617.169" x2="395.389" y2="221.72" gradientUnits="userSpaceOnUse">
<stop stop-color="white" stop-opacity="0.4"/>
<stop offset="1" stop-color="white" stop-opacity="0.1"/>
</linearGradient>
<linearGradient id="paint1_linear_7_40" x1="71.928" y1="623.888" x2="463.54" y2="4.47282e-05" gradientUnits="userSpaceOnUse">
<stop stop-color="white" stop-opacity="0.5"/>
<stop offset="0.41481" stop-color="white" stop-opacity="0"/>
<stop offset="0.607999" stop-color="#7145B9" stop-opacity="0"/>
<stop offset="1" stop-color="#BC93FE"/>
</linearGradient>
<linearGradient id="paint2_linear_7_40" x1="-0.604335" y1="68.9202" x2="515.721" y2="190.545" gradientUnits="userSpaceOnUse">
<stop stop-color="#FDFDFD"/>
<stop offset="0.223958" stop-color="#906EC7"/>
<stop offset="1" stop-color="#3A0B85"/>
</linearGradient>
<linearGradient id="paint3_linear_7_40" x1="234.067" y1="550.444" x2="290.24" y2="479.306" gradientUnits="userSpaceOnUse">
<stop stop-color="#ABABAB"/>
<stop offset="0.3125" stop-color="white"/>
<stop offset="0.630208" stop-color="#BDBDBD"/>
<stop offset="1" stop-color="#5E5E5E"/>
</linearGradient>
<linearGradient id="paint4_linear_7_40" x1="237.262" y1="547.571" x2="287.648" y2="476.511" gradientUnits="userSpaceOnUse">
<stop stop-color="#7D7D7D"/>
<stop offset="0.494792" stop-color="white"/>
<stop offset="1" stop-color="#1C1C1C"/>
</linearGradient>
<clipPath id="clip0_7_40">
<rect width="462" height="691" fill="white"/>
</clipPath>
</defs>
</svg>
