<svg width="31" height="31" viewBox="0 0 31 31" fill="none"
  xmlns="http://www.w3.org/2000/svg">
  <path d="M15.5 0C24.0606 0 31 6.93935 31 15.5C31 24.0606 24.0606 31 15.5 31C6.93935 31 0 24.0606 0 15.5C0 6.93935 6.93935 0 15.5 0ZM15.5 2.16225C11.9626 2.16225 8.5701 3.56747 6.06879 6.06879C3.56747 8.5701 2.16225 11.9626 2.16225 15.5C2.16225 19.0374 3.56747 22.4299 6.06879 24.9312C8.5701 27.4325 11.9626 28.8377 15.5 28.8377C19.0374 28.8377 22.4299 27.4325 24.9312 24.9312C27.4325 22.4299 28.8377 19.0374 28.8377 15.5C28.8377 11.9626 27.4325 8.5701 24.9312 6.06879C22.4299 3.56747 19.0374 2.16225 15.5 2.16225ZM18.6744 5.4064C19.6821 5.78743 20.6244 6.3229 21.4675 6.9936C21.6613 7.1424 21.8472 7.3005 22.0301 7.46945C22.0642 7.4989 22.0937 7.5299 22.1262 7.56245C22.6346 8.0321 23.0965 8.56065 23.5057 9.12795C23.5631 9.207 23.6235 9.27985 23.6762 9.3558C23.7754 9.5015 23.8684 9.6534 23.9614 9.8053C24.1214 10.0615 24.2688 10.3253 24.4032 10.5958C24.4854 10.7508 24.5582 10.9198 24.6341 11.0841C24.6853 11.1972 24.7426 11.3134 24.7891 11.4343C24.9023 11.7164 25.0031 12.0001 25.0945 12.2899C25.124 12.386 25.1472 12.4884 25.1751 12.5845C25.3323 13.1359 25.4438 13.6995 25.5084 14.2693C25.5192 14.3716 25.5347 14.4801 25.5424 14.5808C25.5735 14.9141 25.5936 15.2504 25.5936 15.5883C25.5916 16.2486 25.5309 16.9074 25.4123 17.5569C25.3906 17.67 25.372 17.7847 25.3503 17.8932C25.2882 18.1877 25.2169 18.476 25.1333 18.7612C24.3443 18.4 23.4174 17.8684 23.1756 17.284C22.7354 16.2301 21.5636 15.703 21.0862 14.3452C20.3004 12.0977 21.3435 12.1566 21.4892 10.7617C21.5574 10.1075 21.0862 9.97115 20.4646 10.2377C19.0138 10.8469 18.5225 10.6129 18.2295 9.5201C17.9366 8.43045 18.2295 8.12665 18.2295 8.12665C17.2406 8.23515 17.2034 7.0308 17.7165 6.727C18.073 6.5224 18.3752 5.89465 18.6744 5.4064ZM14.5297 12.0854C15.4442 11.6668 16.2889 11.5165 16.1774 10.7973C16.0688 10.0858 15.8116 9.55575 14.3825 9.55575C12.9534 9.55575 13.5765 11.5165 12.4046 10.3462C11.2329 9.18375 12.6604 9.48445 13.2463 9.2194C13.8337 8.9528 14.4196 7.86005 13.3935 7.78255C12.369 7.7097 12.5875 8.23515 11.7815 7.93755C10.9755 7.63375 10.6097 8.99 10.0951 8.8009C9.75725 8.6738 8.8505 7.9763 8.2491 7.28965C7.02191 8.35703 6.05039 9.68664 5.4064 11.1801C5.58155 13.206 6.6526 14.2693 6.6526 14.2693C6.6526 14.2693 7.20285 15.5883 10.5013 17.2097C10.5013 17.2097 11.1212 17.2468 10.3896 16.4951C9.65805 15.7402 8.8505 14.7979 9.76655 14.3096C10.6811 13.8152 10.9399 13.857 11.16 14.7638C11.3785 15.669 12.1132 15.1358 12.1846 14.2693C12.259 13.406 13.6136 12.5023 14.5297 12.0838V12.0854ZM13.8322 16.6424C15.4101 16.6424 15.2628 17.1337 16.509 18.2311C17.7537 19.3223 17.0949 20.4151 16.4703 21.2458C15.8488 22.0735 15.2985 23.0128 15.0055 24.7147C14.711 26.4104 13.9423 25.2014 13.6881 24.7876C13.4307 24.3706 13.0278 23.9956 13.1393 22.2611C13.2478 20.5282 12.0745 21.5481 11.673 19.2851C11.2701 17.0252 12.259 16.6439 13.8338 16.6439L13.8322 16.6424ZM21.5465 18.1366C21.9666 17.8684 22.9725 18.5675 22.7555 19.3037C22.5339 20.04 21.8395 19.6246 21.4907 19.3037C21.142 18.9844 21.1234 18.4 21.5465 18.1366Z" fill="url(#paint0_linear_254_2038)"/>
  <defs>
    <linearGradient id="paint0_linear_254_2038" x1="14.7316" y1="-6.43644" x2="29.9417" y2="23.7147" gradientUnits="userSpaceOnUse">
      <stop stop-color="#4C0ABC"/>
      <stop offset="1" stop-color="#2E0F61"/>
    </linearGradient>
  </defs>
</svg>
