<svg width="130" height="60" viewBox="0 0 130 60" fill="none" xmlns="http://www.w3.org/2000/svg">
<path fill-rule="evenodd" clip-rule="evenodd" d="M118.48 9.49731C116.692 9.49731 114.72 10.4946 113.933 12.2861L105.573 31.4482L102.562 12.2861C102.208 10.4946 100.991 9.49731 99.0642 9.49731H88.474L97.5319 41.3214C97.6988 41.9315 97.7303 42.6084 97.6083 43.32C97.1343 45.9756 94.5973 48.13 91.9406 48.13H86.0101C84.504 48.13 83.5124 49.0629 83.0275 51.1749L81.71 59.0613H92.1542C97.6029 59.0613 104.002 56.3239 108.27 48.7544L129.183 9.49731" fill="white"/>
<path fill-rule="evenodd" clip-rule="evenodd" d="M15.6739 0C18.8015 0 20.3129 1.24766 19.7626 4.38307L18.8615 9.49064H26.0472L24.4638 18.4636H17.2747L15.3165 29.5735C14.6396 33.4444 18.4712 33.9599 20.6693 33.9599C21.1073 33.9599 21.4712 33.9501 21.7317 33.9347L19.9739 43.9408C19.4313 43.9985 18.8723 44.0738 17.6889 44.0738C12.2335 44.0738 1.91362 42.6125 3.9427 31.1003L6.1647 18.4636H0.92627L2.50309 9.49064H7.69034L9.35992 0" fill="white"/>
<path fill-rule="evenodd" clip-rule="evenodd" d="M76.058 9.90186L74.212 20.3635C76.4886 21.5263 78.0479 23.8878 78.0479 26.6154C78.0479 30.2115 75.352 33.1581 71.8811 33.5822L70.0361 44.0414C70.3619 44.0623 70.6933 44.0731 71.0234 44.0731C80.6709 44.0731 88.4844 36.2542 88.4844 26.6154C88.4844 18.7342 83.2514 12.066 76.058 9.90186Z" fill="white"/>
<path fill-rule="evenodd" clip-rule="evenodd" d="M67.8406 32.8695C65.5663 31.7131 64.0036 29.3408 64.0036 26.6165C64.0036 23.0431 66.7051 20.0735 70.1749 19.6573L72.0176 9.19673C71.6896 9.17609 71.3562 9.16089 71.0281 9.16089C61.3881 9.16089 53.5703 16.9852 53.5703 26.6165C53.5703 34.5007 58.8055 41.1732 65.9989 43.3376" fill="white"/>
<path fill-rule="evenodd" clip-rule="evenodd" d="M30.2073 9.49734H36.3817C39.5106 9.49734 41.0155 10.7474 40.464 13.8837L39.7884 17.6782C42.0889 13.0087 47.0788 9.15637 52.1974 9.15637C52.8687 9.15637 53.515 9.28921 53.515 9.28921L51.5194 20.6031C51.5194 20.6031 50.6238 20.395 49.2257 20.395C46.498 20.395 41.8851 21.2603 39.3176 26.3852C38.7052 27.6483 38.2345 29.1848 37.9085 31.0363L35.6746 43.7472H24.1724" fill="white"/>
<path fill-rule="evenodd" clip-rule="evenodd" d="M129.183 45.3424C129.183 46.3635 128.821 47.2364 128.1 47.9523C127.386 48.6705 126.516 49.0388 125.49 49.0388C124.474 49.0388 123.605 48.6705 122.88 47.9523C122.161 47.2364 121.798 46.3635 121.798 45.3424C121.798 44.3245 122.161 43.454 122.88 42.7302C123.605 42.0132 124.474 41.6514 125.49 41.6514C126.516 41.6514 127.386 42.0132 128.1 42.7302C128.821 43.454 129.183 44.3245 129.183 45.3424ZM128.603 45.3424C128.603 46.2153 128.298 46.9575 127.688 47.5688C127.084 48.1845 126.344 48.4907 125.49 48.4907C124.638 48.4907 123.906 48.1845 123.297 47.5688C122.696 46.9575 122.396 46.2153 122.396 45.3424C122.396 44.4727 122.696 43.7329 123.297 43.1183C123.906 42.5004 124.638 42.1942 125.49 42.1942C126.344 42.1942 127.084 42.5004 127.688 43.1183C128.298 43.7329 128.603 44.4727 128.603 45.3424ZM127.043 47.364H126.387L125.46 45.7118H124.849V47.364H124.29V43.3155H125.664C126.019 43.3155 126.32 43.4364 126.568 43.6654C126.813 43.8974 126.944 44.1862 126.944 44.5272C126.944 45.0895 126.65 45.4624 126.071 45.6388L127.043 47.364ZM126.365 44.5272C126.365 44.3245 126.297 44.1545 126.151 44.0161C126.009 43.879 125.827 43.8134 125.602 43.8134H124.849V45.2334H125.602C125.827 45.2334 126.009 45.1627 126.151 45.0351C126.297 44.9 126.365 44.7353 126.365 44.5272Z" fill="white"/>
</svg>
