<svg width="126" height="41" viewBox="0 0 126 41" fill="none" xmlns="http://www.w3.org/2000/svg">
<path d="M36.0744 0.712769L26.2249 27.2835L25.1697 21.8831C23.0567 16.2189 17.8745 11.0138 12.0454 8.62183L20.2411 39.6214L30.8897 39.6138L46.7382 0.712769H36.0744Z" fill="white"/>
<path d="M44.5166 39.6519L50.8124 0.67981H60.875L54.5818 39.6519H44.5166Z" fill="white"/>
<path d="M91.0852 1.63863C89.094 0.854828 85.9639 0 82.0677 0C72.1192 0 65.1132 5.29131 65.0548 12.8655C64.9939 18.4663 70.0544 21.5914 73.8694 23.4532C77.791 25.3607 79.1075 26.5834 79.0923 28.288C79.0669 30.8981 75.9621 32.0954 73.0679 32.0954C69.0398 32.0954 66.8989 31.5069 63.5912 30.0509L62.295 29.432L60.8872 38.1553C63.2335 39.2409 67.5838 40.182 72.0989 40.2327C82.6739 40.2327 89.5455 35.0074 89.6267 26.9207C89.6597 22.4767 86.9785 19.1106 81.1723 16.3305C77.6565 14.5219 75.4979 13.3247 75.5207 11.4958C75.5233 9.87745 77.3445 8.14243 81.2864 8.14243C84.5789 8.08916 86.9607 8.8476 88.82 9.64155L89.7231 10.0854L91.0852 1.63863Z" fill="white"/>
<path d="M116.9 0.720459H109.126C106.711 0.720459 104.905 1.41041 103.849 3.94953L88.9014 39.6671H99.4738C99.4738 39.6671 101.199 34.8629 101.589 33.8076C102.743 33.8076 113.012 33.8305 114.478 33.8305C114.78 35.1875 115.705 39.6671 115.705 39.6671H125.045L116.9 0.720459ZM104.484 25.8352C105.321 23.5954 108.494 14.9431 108.494 14.9431C108.436 15.0445 109.323 12.6855 109.831 11.2244L110.511 14.5854C110.511 14.5854 112.438 23.8871 112.839 25.8352C111.271 25.8352 106.449 25.8352 104.484 25.8352Z" fill="white"/>
<path d="M17.0807 0.687378H0.854165L0.719727 1.49401C11.8832 4.30454 21.0251 10.3847 25.1698 21.8831L21.644 3.97479C21.0352 1.50416 19.2697 0.773622 17.0807 0.687378Z" fill="white"/>
</svg>
