<svg width="319" height="252" viewBox="0 0 319 252" fill="none" xmlns="http://www.w3.org/2000/svg">
<rect width="430" height="252" rx="16" fill="url(#paint0_linear_167_6053)"/>
<path d="M52.47 41.74C53.5767 41.74 54.5967 41.9367 55.53 42.33C56.4633 42.7233 57.25 43.28 57.89 44L56.23 45.61C55.7833 45.0767 55.2367 44.66 54.59 44.36C53.9433 44.06 53.2367 43.91 52.47 43.91C51.03 43.91 49.8433 44.3833 48.91 45.33C47.9767 46.2767 47.51 47.5 47.51 49C47.51 50.4933 47.97 51.7167 48.89 52.67C49.8167 53.6167 50.9767 54.09 52.37 54.09C53.63 54.09 54.6333 53.7767 55.38 53.15C56.1333 52.5233 56.6 51.6267 56.78 50.46H53.07V48.36H59.23C59.2433 48.6 59.25 48.78 59.25 48.9C59.25 49.9067 59.09 50.8567 58.77 51.75C58.4567 52.6367 58.0133 53.4133 57.44 54.08C56.8667 54.7467 56.14 55.2767 55.26 55.67C54.3867 56.0567 53.4233 56.25 52.37 56.25C51.6433 56.25 50.93 56.15 50.23 55.95C49.5367 55.75 48.88 55.4467 48.26 55.04C47.6467 54.6333 47.1067 54.1467 46.64 53.58C46.18 53.0067 45.8133 52.3267 45.54 51.54C45.2733 50.7533 45.14 49.9067 45.14 49C45.14 47.96 45.3233 46.99 45.69 46.09C46.0567 45.19 46.56 44.4233 47.2 43.79C47.8467 43.15 48.6233 42.65 49.53 42.29C50.4433 41.9233 51.4233 41.74 52.47 41.74ZM66.3067 46.17C67.6467 46.17 68.7334 46.6367 69.5667 47.57C70.4067 48.4967 70.8301 49.7067 70.8367 51.2C70.8367 51.4 70.8234 51.66 70.7967 51.98H63.7167C63.8501 52.8 64.1767 53.4133 64.6967 53.82C65.2167 54.22 65.8401 54.42 66.5667 54.42C67.5667 54.42 68.4901 54.0833 69.3367 53.41L70.3767 54.9C69.3234 55.8 68.0101 56.25 66.4367 56.25C64.9901 56.25 63.8101 55.7867 62.8967 54.86C61.9901 53.9333 61.5367 52.7167 61.5367 51.21C61.5367 49.71 61.9767 48.4967 62.8567 47.57C63.7434 46.6367 64.8934 46.17 66.3067 46.17ZM66.2667 48.03C65.5467 48.03 64.9701 48.2433 64.5367 48.67C64.1101 49.09 63.8401 49.6633 63.7267 50.39H68.6967C68.5834 49.6433 68.3134 49.0633 67.8867 48.65C67.4667 48.2367 66.9267 48.03 66.2667 48.03ZM78.4681 46.17C79.0881 46.17 79.6248 46.26 80.0781 46.44L79.5781 48.51C79.1315 48.2767 78.6015 48.16 77.9881 48.16C77.3081 48.16 76.7581 48.39 76.3381 48.85C75.9181 49.3033 75.7081 49.93 75.7081 50.73V56H73.6181V46.42H75.6881V47.5C76.3015 46.6133 77.2281 46.17 78.4681 46.17ZM86.3712 46.17C87.0979 46.17 87.7712 46.3 88.3912 46.56C89.0112 46.82 89.5312 47.2 89.9512 47.7L88.6112 49.13C87.9112 48.47 87.1446 48.14 86.3112 48.14C85.4979 48.14 84.8212 48.4267 84.2812 49C83.7479 49.5733 83.4812 50.31 83.4812 51.21C83.4812 52.11 83.7479 52.8467 84.2812 53.42C84.8212 53.9933 85.4979 54.28 86.3112 54.28C87.1646 54.28 87.9479 53.9467 88.6612 53.28L89.9512 54.72C89.2579 55.5267 88.3446 56.0167 87.2112 56.19L86.2612 59.21H84.0712L85.1112 56.12C83.9512 55.8667 83.0312 55.2967 82.3512 54.41C81.6712 53.5167 81.3312 52.45 81.3312 51.21C81.3312 49.7567 81.7946 48.5533 82.7212 47.6C83.6479 46.6467 84.8646 46.17 86.3712 46.17ZM96.3794 46.17C97.7194 46.17 98.806 46.6367 99.6394 47.57C100.479 48.4967 100.903 49.7067 100.909 51.2C100.909 51.4 100.896 51.66 100.869 51.98H93.7894C93.9227 52.8 94.2494 53.4133 94.7694 53.82C95.2894 54.22 95.9127 54.42 96.6394 54.42C97.6394 54.42 98.5627 54.0833 99.4094 53.41L100.449 54.9C99.396 55.8 98.0827 56.25 96.5094 56.25C95.0627 56.25 93.8827 55.7867 92.9694 54.86C92.0627 53.9333 91.6094 52.7167 91.6094 51.21C91.6094 49.71 92.0494 48.4967 92.9294 47.57C93.816 46.6367 94.966 46.17 96.3794 46.17ZM96.3394 48.03C95.6194 48.03 95.0427 48.2433 94.6094 48.67C94.1827 49.09 93.9127 49.6633 93.7994 50.39H98.7694C98.656 49.6433 98.386 49.0633 97.9594 48.65C97.5394 48.2367 96.9994 48.03 96.3394 48.03ZM105.791 41.6V50.06H106.841L110.001 46.42H112.631L108.621 50.93L112.671 56H110.021L106.831 51.96H105.791V56H103.691V41.6H105.791ZM116.85 41.6V56H114.75V41.6H116.85ZM124.401 46.17C125.741 46.17 126.828 46.6367 127.661 47.57C128.501 48.4967 128.925 49.7067 128.931 51.2C128.931 51.4 128.918 51.66 128.891 51.98H121.811C121.945 52.8 122.271 53.4133 122.791 53.82C123.311 54.22 123.935 54.42 124.661 54.42C125.661 54.42 126.585 54.0833 127.431 53.41L128.471 54.9C127.418 55.8 126.105 56.25 124.531 56.25C123.085 56.25 121.905 55.7867 120.991 54.86C120.085 53.9333 119.631 52.7167 119.631 51.21C119.631 49.71 120.071 48.4967 120.951 47.57C121.838 46.6367 122.988 46.17 124.401 46.17ZM124.361 48.03C123.641 48.03 123.065 48.2433 122.631 48.67C122.205 49.09 121.935 49.6633 121.821 50.39H126.791C126.678 49.6433 126.408 49.0633 125.981 48.65C125.561 48.2367 125.021 48.03 124.361 48.03ZM139.133 47.19L138.233 48.82C137.893 48.6067 137.449 48.4167 136.903 48.25C136.363 48.0833 135.819 48 135.273 48C134.713 48 134.269 48.1033 133.943 48.31C133.623 48.5167 133.463 48.7933 133.463 49.14C133.463 49.3 133.499 49.44 133.573 49.56C133.653 49.6733 133.769 49.7667 133.923 49.84C134.083 49.9133 134.246 49.97 134.413 50.01C134.586 50.05 134.796 50.09 135.043 50.13L136.033 50.28C138.253 50.6 139.363 51.5433 139.363 53.11C139.363 53.87 139.099 54.5167 138.573 55.05C138.053 55.5833 137.323 55.9367 136.383 56.11L135.413 59.21H133.223L134.233 56.2C132.899 56.08 131.786 55.6833 130.893 55.01L131.863 53.44C132.716 54.0933 133.769 54.42 135.023 54.42C135.729 54.42 136.269 54.3167 136.643 54.11C137.016 53.9033 137.203 53.6167 137.203 53.25C137.203 52.6967 136.649 52.3433 135.543 52.19L134.543 52.06C133.483 51.9133 132.676 51.6033 132.123 51.13C131.569 50.65 131.293 50.0233 131.293 49.25C131.293 48.3033 131.646 47.5567 132.353 47.01C133.066 46.4567 134.033 46.18 135.253 46.18C136.799 46.18 138.093 46.5167 139.133 47.19ZM146.11 46.17C147.45 46.17 148.537 46.6367 149.37 47.57C150.21 48.4967 150.633 49.7067 150.64 51.2C150.64 51.4 150.627 51.66 150.6 51.98H143.52C143.653 52.8 143.98 53.4133 144.5 53.82C145.02 54.22 145.643 54.42 146.37 54.42C147.37 54.42 148.293 54.0833 149.14 53.41L150.18 54.9C149.127 55.8 147.813 56.25 146.24 56.25C144.793 56.25 143.613 55.7867 142.7 54.86C141.793 53.9333 141.34 52.7167 141.34 51.21C141.34 49.71 141.78 48.4967 142.66 47.57C143.547 46.6367 144.697 46.17 146.11 46.17ZM146.07 48.03C145.35 48.03 144.773 48.2433 144.34 48.67C143.913 49.09 143.643 49.6633 143.53 50.39H148.5C148.387 49.6433 148.117 49.0633 147.69 48.65C147.27 48.2367 146.73 48.03 146.07 48.03ZM158.441 46.17C159.581 46.17 160.515 46.5267 161.241 47.24C161.968 47.9467 162.331 48.86 162.331 49.98V56H160.231V50.67C160.231 49.87 160.035 49.2533 159.641 48.82C159.255 48.38 158.708 48.16 158.001 48.16C157.295 48.16 156.705 48.3867 156.231 48.84C155.758 49.2867 155.521 49.9033 155.521 50.69V56H153.421V46.42H155.501V47.59C156.148 46.6433 157.128 46.17 158.441 46.17ZM181.069 42V44.14H176.539V56H174.279V44.14H169.749V42H181.069ZM187.035 46.17C187.655 46.17 188.192 46.26 188.645 46.44L188.145 48.51C187.699 48.2767 187.169 48.16 186.555 48.16C185.875 48.16 185.325 48.39 184.905 48.85C184.485 49.3033 184.275 49.93 184.275 50.73V56H182.185V46.42H184.255V47.5C184.869 46.6133 185.795 46.17 187.035 46.17ZM199.788 46.42V56H197.698V54.85C196.972 55.7833 195.968 56.25 194.688 56.25C193.335 56.25 192.198 55.7733 191.278 54.82C190.358 53.8667 189.898 52.6633 189.898 51.21C189.898 49.7567 190.358 48.5533 191.278 47.6C192.198 46.6467 193.335 46.17 194.688 46.17C195.968 46.17 196.972 46.64 197.698 47.58V46.42H199.788ZM194.938 48.14C194.065 48.14 193.365 48.4367 192.838 49.03C192.312 49.6167 192.048 50.3433 192.048 51.21C192.048 52.0767 192.312 52.8067 192.838 53.4C193.365 53.9867 194.065 54.28 194.938 54.28C195.792 54.28 196.485 53.99 197.018 53.41C197.558 52.83 197.828 52.0967 197.828 51.21C197.828 50.3233 197.558 49.59 197.018 49.01C196.485 48.43 195.792 48.14 194.938 48.14ZM208.289 46.17C209.429 46.17 210.362 46.5267 211.089 47.24C211.816 47.9467 212.179 48.86 212.179 49.98V56H210.079V50.67C210.079 49.87 209.882 49.2533 209.489 48.82C209.102 48.38 208.556 48.16 207.849 48.16C207.142 48.16 206.552 48.3867 206.079 48.84C205.606 49.2867 205.369 49.9033 205.369 50.69V56H203.269V46.42H205.349V47.59C205.996 46.6433 206.976 46.17 208.289 46.17ZM222.979 47.19L222.079 48.82C221.739 48.6067 221.295 48.4167 220.749 48.25C220.209 48.0833 219.665 48 219.119 48C218.559 48 218.115 48.1033 217.789 48.31C217.469 48.5167 217.309 48.7933 217.309 49.14C217.309 49.3 217.345 49.44 217.419 49.56C217.499 49.6733 217.615 49.7667 217.769 49.84C217.929 49.9133 218.092 49.97 218.259 50.01C218.432 50.05 218.642 50.09 218.889 50.13L219.879 50.28C222.099 50.6 223.209 51.5433 223.209 53.11C223.209 54.05 222.822 54.8067 222.049 55.38C221.275 55.9533 220.209 56.24 218.849 56.24C217.215 56.24 215.845 55.83 214.739 55.01L215.709 53.44C216.562 54.0933 217.615 54.42 218.869 54.42C219.575 54.42 220.115 54.3167 220.489 54.11C220.862 53.9033 221.049 53.6167 221.049 53.25C221.049 52.6967 220.495 52.3433 219.389 52.19L218.389 52.06C217.329 51.9133 216.522 51.6033 215.969 51.13C215.415 50.65 215.139 50.0233 215.139 49.25C215.139 48.3033 215.492 47.5567 216.199 47.01C216.912 46.4567 217.879 46.18 219.099 46.18C220.645 46.18 221.939 46.5167 222.979 47.19ZM232.026 46.42V48.32H228.746V56H226.646V48.32H224.726V46.42H226.646V44.8C226.646 43.78 226.913 42.95 227.446 42.31C227.986 41.67 228.789 41.35 229.856 41.35C230.823 41.35 231.713 41.59 232.526 42.07L231.786 43.83C231.193 43.49 230.596 43.32 229.996 43.32C229.589 43.32 229.279 43.45 229.066 43.71C228.853 43.9633 228.746 44.3267 228.746 44.8V46.42H232.026ZM238.3 46.17C239.64 46.17 240.727 46.6367 241.56 47.57C242.4 48.4967 242.824 49.7067 242.83 51.2C242.83 51.4 242.817 51.66 242.79 51.98H235.71C235.844 52.8 236.17 53.4133 236.69 53.82C237.21 54.22 237.834 54.42 238.56 54.42C239.56 54.42 240.484 54.0833 241.33 53.41L242.37 54.9C241.317 55.8 240.004 56.25 238.43 56.25C236.984 56.25 235.804 55.7867 234.89 54.86C233.984 53.9333 233.53 52.7167 233.53 51.21C233.53 49.71 233.97 48.4967 234.85 47.57C235.737 46.6367 236.887 46.17 238.3 46.17ZM238.26 48.03C237.54 48.03 236.964 48.2433 236.53 48.67C236.104 49.09 235.834 49.6633 235.72 50.39H240.69C240.577 49.6433 240.307 49.0633 239.88 48.65C239.46 48.2367 238.92 48.03 238.26 48.03ZM250.462 46.17C251.082 46.17 251.619 46.26 252.072 46.44L251.572 48.51C251.125 48.2767 250.595 48.16 249.982 48.16C249.302 48.16 248.752 48.39 248.332 48.85C247.912 49.3033 247.702 49.93 247.702 50.73V56H245.612V46.42H247.682V47.5C248.295 46.6133 249.222 46.17 250.462 46.17Z" fill="#535F6A"/>
<path d="M55.98 73.35C54.69 72.45 53.08 71.82 50.95 71.82C48.02 71.82 45.65 73.31 45.65 75.97C45.65 78.29 47.39 79.4 49.78 79.67L51.19 79.83C53.41 80.08 54.58 80.76 54.58 82.12C54.58 83.79 52.87 84.67 50.7 84.67C48.88 84.67 47.06 83.93 46.09 83.11L45.21 84.39C46.53 85.47 48.68 86.19 50.71 86.19C53.73 86.19 56.25 84.75 56.25 81.98C56.25 79.56 54.19 78.58 51.88 78.3L50.55 78.14C48.37 77.88 47.32 77.17 47.32 75.87C47.32 74.29 48.83 73.34 50.94 73.34C52.62 73.34 54.03 73.88 55.16 74.65L55.98 73.35ZM63.5647 76.34C60.7147 76.34 58.5847 78.46 58.5847 81.26C58.5847 84.07 60.7147 86.19 63.5647 86.19C66.4147 86.19 68.5547 84.07 68.5547 81.26C68.5547 78.46 66.4147 76.34 63.5647 76.34ZM63.5647 77.74C65.5247 77.74 67.0247 79.22 67.0247 81.26C67.0247 83.31 65.5247 84.79 63.5647 84.79C61.5947 84.79 60.1047 83.31 60.1047 81.26C60.1047 79.22 61.5947 77.74 63.5647 77.74ZM76.0059 76.34C74.8459 76.34 73.5859 76.75 72.8159 77.88V76.53H71.3359V86H72.8359V80.66C72.8359 78.86 74.1459 77.76 75.7359 77.76C77.4659 77.76 78.4659 78.82 78.4659 80.62V86H79.9559V80.13C79.9559 77.84 78.3459 76.34 76.0059 76.34ZM88.8997 75.04C89.5597 74.12 90.4297 73.29 92.0197 73.29C93.8797 73.29 94.9197 74.54 94.9197 76.15C94.9197 77.35 94.3397 78.31 93.4797 79.21L88.1897 84.79V86H96.9997V84.53H90.4797L94.6597 80.11C95.5697 79.14 96.5397 77.89 96.5397 76.15C96.5397 73.68 94.9097 71.82 92.0697 71.82C89.6697 71.82 88.4397 73.16 87.7797 74.14L88.8997 75.04ZM106.526 77.7H104.986V81.6H100.296L105.426 72.01H103.676L98.4458 81.87V83.06H104.986V86H106.526V83.06H108.916V81.6H106.526V77.7ZM123.541 77.38C122.631 76.77 121.271 76.35 119.781 76.35C117.511 76.35 116.001 77.43 116.001 79.22C116.001 80.63 117.001 81.58 119.131 81.84L120.261 81.97C121.601 82.13 122.241 82.59 122.241 83.35C122.241 84.35 121.231 84.88 119.631 84.88C118.031 84.88 117.071 84.41 116.351 83.85L115.661 84.97C116.861 85.88 118.391 86.18 119.611 86.18C122.161 86.18 123.781 85.05 123.781 83.25C123.781 81.7 122.611 80.87 120.601 80.61L119.481 80.47C118.241 80.32 117.551 79.93 117.551 79.14C117.551 78.22 118.441 77.65 119.791 77.65C121.071 77.65 122.281 78.12 122.891 78.54L123.541 77.38ZM135.355 76.53H133.865V77.94C133.115 76.98 131.965 76.34 130.405 76.34C127.745 76.34 125.675 78.42 125.675 81.26C125.675 84.11 127.745 86.19 130.405 86.19C131.965 86.19 133.115 85.56 133.865 84.59V86H135.355V76.53ZM130.585 77.74C132.555 77.74 133.955 79.26 133.955 81.26C133.955 83.27 132.555 84.79 130.585 84.79C128.575 84.79 127.195 83.22 127.195 81.26C127.195 79.31 128.555 77.74 130.585 77.74ZM147.815 76.53H146.325V77.94C145.575 76.98 144.425 76.34 142.865 76.34C140.205 76.34 138.135 78.42 138.135 81.26C138.135 84.11 140.205 86.19 142.865 86.19C144.425 86.19 145.575 85.56 146.325 84.59V86H147.815V76.53ZM143.045 77.74C145.015 77.74 146.415 79.26 146.415 81.26C146.415 83.27 145.015 84.79 143.045 84.79C141.035 84.79 139.655 83.22 139.655 81.26C139.655 79.31 141.015 77.74 143.045 77.74ZM157.746 76.53H153.656V73.52H152.166V76.53H150.096V77.88H152.166V82.69C152.166 85.07 153.376 86.19 155.416 86.19C156.576 86.19 157.516 85.79 158.226 85.25L157.526 84.12C156.976 84.52 156.266 84.79 155.536 84.79C154.436 84.79 153.656 84.14 153.656 82.66V77.88H157.746V76.53Z" fill="#535F6A"/>
<path d="M52.3589 146.117L57.4065 151.165C58.0212 151.779 58.1584 152.483 57.818 153.275C57.479 154.068 56.8726 154.465 55.999 154.465H46.001C45.1274 154.465 44.521 154.068 44.182 153.275C43.8416 152.483 43.9788 151.779 44.5935 151.165L49.6411 146.117C49.8352 145.923 50.0455 145.777 50.272 145.68C50.4985 145.583 50.7412 145.535 51 145.535C51.2588 145.535 51.5015 145.583 51.728 145.68C51.9545 145.777 52.1648 145.923 52.3589 146.117Z" fill="#535F6A"/>
<path d="M72.381 144.238C69.519 144.238 67.179 146.659 67.179 150.7C67.179 154.732 69.519 157.162 72.381 157.162C75.252 157.162 77.592 154.732 77.592 150.7C77.592 146.659 75.252 144.238 72.381 144.238ZM72.381 145.57C74.46 145.57 76.143 147.397 76.143 150.7C76.143 154.003 74.46 155.83 72.381 155.83C70.32 155.83 68.637 154.003 68.637 150.7C68.637 147.397 70.32 145.57 72.381 145.57ZM80.2338 154.768L79.6938 159.331H80.8548L81.7998 154.768H80.2338ZM85.4401 157H87.1321L90.8851 151.123C91.4881 150.178 91.8211 149.314 91.8211 148.333C91.8211 145.993 89.9131 144.238 87.3481 144.238C84.7741 144.238 82.8841 145.993 82.8841 148.333C82.8841 150.682 84.7291 152.437 87.2221 152.437C87.6721 152.437 88.1131 152.374 88.5181 152.239L85.4401 157ZM87.3481 151.15C85.6021 151.15 84.3151 149.971 84.3151 148.333C84.3151 146.704 85.6021 145.525 87.3481 145.525C89.0941 145.525 90.3811 146.695 90.3811 148.333C90.3811 149.98 89.0941 151.15 87.3481 151.15ZM97.0884 144.238C95.2614 144.238 93.9564 145.039 93.2274 146.11L94.2264 146.965C94.7844 146.191 95.7474 145.534 97.0074 145.534C98.5914 145.534 99.8064 146.398 99.8064 147.757C99.8064 149.251 98.5824 150.007 97.0344 150.007H95.3874V151.276H97.0434C98.7174 151.276 100.085 152.104 100.085 153.562C100.085 155.128 98.7444 155.866 97.1784 155.866C95.9364 155.866 94.7934 155.389 94.0104 154.579L93.1194 155.506C94.0374 156.541 95.4504 157.162 97.2054 157.162C99.4284 157.162 101.534 156.019 101.534 153.625C101.534 152.14 100.616 151.123 99.2844 150.637C100.472 150.133 101.255 149.17 101.255 147.685C101.255 145.642 99.5724 144.238 97.0884 144.238Z" fill="#535F6A"/>
<path d="M60.016 188.256L53.28 191.296V189.2L60.016 186.16V183.008L53.28 186.048V179.568H48.96V188L46.272 189.2V192.352L48.96 191.152V193.248L46.272 194.448V197.6L48.96 196.4V202H55.6C59.984 202 62.816 200.112 64.928 196.304L61.424 194.224C59.984 196.816 58.256 197.904 55.904 197.904H53.28V194.448L60.016 191.408V188.256ZM76.9183 179.248L67.2383 183.152V187.504L72.5983 185.328V202H76.9183V179.248ZM83.8673 202H89.0833L95.2913 192.704C96.6513 190.672 97.4193 188.8 97.4193 186.752C97.4193 182.416 93.7873 179.2 89.0033 179.2C84.1873 179.2 80.5872 182.448 80.5872 186.832C80.5872 191.024 83.8033 194.272 88.3472 194.272C88.7313 194.272 89.0513 194.256 89.3553 194.208L83.8673 202ZM89.0033 190.48C86.7473 190.48 85.0833 188.96 85.0833 186.8C85.0833 184.624 86.7473 183.12 89.0033 183.12C91.2433 183.12 92.9233 184.624 92.9233 186.8C92.9233 188.96 91.2433 190.48 89.0033 190.48ZM101.354 196.192C99.6903 196.192 98.2343 197.616 98.2343 199.28C98.2343 200.96 99.6903 202.4 101.354 202.4C103.002 202.4 104.442 200.96 104.442 199.28C104.442 197.616 103.002 196.192 101.354 196.192ZM121.006 187.904H116.686V193.872H111.918L119.406 179.616H114.606L106.75 194.768V197.904H116.686V202H121.006V197.904H124.126V193.872H121.006V187.904ZM128.637 185.792C129.789 184.48 131.053 183.328 133.181 183.328C135.245 183.328 136.605 184.72 136.605 186.672C136.605 188.08 135.949 189.312 134.765 190.512L126.845 198.624V202H141.645V197.952H133.085L137.869 192.976C139.709 191.072 141.101 189.168 141.101 186.432C141.101 182.144 138.189 179.2 133.501 179.2C129.341 179.2 127.069 181.472 125.853 183.056L128.637 185.792ZM153.387 179.248L143.707 183.152V187.504L149.067 185.328V202H153.387V179.248ZM158.416 196.944L157.344 206.48H160.864L163.104 196.944H158.416ZM180.467 179.6H167.587L167.347 192H172.675C176.179 192 177.235 193.472 177.235 195.152C177.235 196.928 176.003 198.4 173.507 198.4C171.443 198.4 169.251 197.36 168.035 196.032L165.603 199.056C167.459 201.152 170.195 202.4 173.539 202.4C178.067 202.4 181.715 199.648 181.715 194.832C181.715 191.088 179.091 188.096 173.875 188.096H171.299L171.395 183.616H180.467V179.6ZM193.7 179.248L184.02 183.152V187.504L189.38 185.328V202H193.7V179.248Z" fill="#535F6A"/>
<defs>
<linearGradient id="paint0_linear_167_6053" x1="6.70489e-07" y1="115" x2="486.5" y2="240.5" gradientUnits="userSpaceOnUse">
<stop stop-color="white"/>
<stop offset="1" stop-color="white" stop-opacity="0.44"/>
</linearGradient>
</defs>
</svg>
