<svg width="430" height="252" viewBox="0 0 430 252" fill="none" xmlns="http://www.w3.org/2000/svg">
<rect width="430" height="252" rx="16" fill="url(#paint0_linear_167_6038)"/>
<path d="M45.9 42H51.33C52.1033 42 52.7967 42.07 53.41 42.21C54.03 42.35 54.58 42.5667 55.06 42.86C55.5467 43.1533 55.92 43.55 56.18 44.05C56.44 44.55 56.57 45.1367 56.57 45.81C56.57 46.5233 56.3667 47.1567 55.96 47.71C55.5533 48.2567 55.0367 48.6167 54.41 48.79C55.11 48.9967 55.6967 49.39 56.17 49.97C56.65 50.55 56.89 51.2267 56.89 52C56.89 53.3533 56.43 54.36 55.51 55.02C54.59 55.6733 53.3033 56 51.65 56H45.9V42ZM51.55 50H48.16V53.88H51.55C52.03 53.88 52.4367 53.8533 52.77 53.8C53.11 53.7467 53.4167 53.65 53.69 53.51C53.97 53.37 54.1767 53.17 54.31 52.91C54.45 52.6433 54.52 52.3133 54.52 51.92C54.52 51.5333 54.45 51.2133 54.31 50.96C54.1767 50.7 53.97 50.5033 53.69 50.37C53.4167 50.23 53.11 50.1333 52.77 50.08C52.4367 50.0267 52.03 50 51.55 50ZM51.24 44.12H48.16V47.89H51.26C51.6067 47.89 51.91 47.88 52.17 47.86C52.4367 47.8333 52.7033 47.78 52.97 47.7C53.2367 47.62 53.4533 47.5133 53.62 47.38C53.7933 47.24 53.9333 47.0533 54.04 46.82C54.1467 46.5867 54.2 46.3067 54.2 45.98C54.2 45.5933 54.1233 45.2733 53.97 45.02C53.8167 44.76 53.59 44.57 53.29 44.45C52.9967 44.3233 52.69 44.2367 52.37 44.19C52.0567 44.1433 51.68 44.12 51.24 44.12ZM69.0634 46.42V56H66.9734V54.85C66.2468 55.7833 65.2434 56.25 63.9634 56.25C62.6101 56.25 61.4734 55.7733 60.5534 54.82C59.6334 53.8667 59.1734 52.6633 59.1734 51.21C59.1734 49.7567 59.6334 48.5533 60.5534 47.6C61.4734 46.6467 62.6101 46.17 63.9634 46.17C65.2434 46.17 66.2468 46.64 66.9734 47.58V46.42H69.0634ZM64.2134 48.14C63.3401 48.14 62.6401 48.4367 62.1134 49.03C61.5868 49.6167 61.3234 50.3433 61.3234 51.21C61.3234 52.0767 61.5868 52.8067 62.1134 53.4C62.6401 53.9867 63.3401 54.28 64.2134 54.28C65.0668 54.28 65.7601 53.99 66.2934 53.41C66.8334 52.83 67.1034 52.0967 67.1034 51.21C67.1034 50.3233 66.8334 49.59 66.2934 49.01C65.7601 48.43 65.0668 48.14 64.2134 48.14ZM74.6439 41.6V50.06H75.6939L78.8539 46.42H81.4839L77.4739 50.93L81.5239 56H78.8739L75.6839 51.96H74.6439V56H72.5439V41.6H74.6439ZM85.7033 46.42V56H83.6033V46.42H85.7033ZM83.6033 42.06C83.8833 41.7733 84.2299 41.63 84.6433 41.63C85.0566 41.63 85.4066 41.7733 85.6933 42.06C85.9799 42.3467 86.1233 42.6967 86.1233 43.11C86.1233 43.5233 85.9799 43.87 85.6933 44.15C85.4066 44.43 85.0566 44.57 84.6433 44.57C84.2299 44.57 83.8833 44.43 83.6033 44.15C83.3233 43.87 83.1833 43.5233 83.1833 43.11C83.1833 42.6967 83.3233 42.3467 83.6033 42.06ZM98.3944 46.42L90.8344 60.06H88.5144L91.9444 54.03L87.6944 46.42H90.0444L93.1244 51.92L96.0944 46.42H98.3944ZM104.236 46.17C105.576 46.17 106.662 46.6367 107.496 47.57C108.336 48.4967 108.759 49.7067 108.766 51.2C108.766 51.4 108.752 51.66 108.726 51.98H101.646C101.779 52.8 102.106 53.4133 102.626 53.82C103.146 54.22 103.769 54.42 104.496 54.42C105.496 54.42 106.419 54.0833 107.266 53.41L108.306 54.9C107.252 55.8 105.939 56.25 104.366 56.25C102.919 56.25 101.739 55.7867 100.826 54.86C99.919 53.9333 99.4656 52.7167 99.4656 51.21C99.4656 49.71 99.9056 48.4967 100.786 47.57C101.672 46.6367 102.822 46.17 104.236 46.17ZM104.196 48.03C103.476 48.03 102.899 48.2433 102.466 48.67C102.039 49.09 101.769 49.6633 101.656 50.39H106.626C106.512 49.6433 106.242 49.0633 105.816 48.65C105.396 48.2367 104.856 48.03 104.196 48.03Z" fill="#535F6A"/>
<path d="M55.98 73.35C54.69 72.45 53.08 71.82 50.95 71.82C48.02 71.82 45.65 73.31 45.65 75.97C45.65 78.29 47.39 79.4 49.78 79.67L51.19 79.83C53.41 80.08 54.58 80.76 54.58 82.12C54.58 83.79 52.87 84.67 50.7 84.67C48.88 84.67 47.06 83.93 46.09 83.11L45.21 84.39C46.53 85.47 48.68 86.19 50.71 86.19C53.73 86.19 56.25 84.75 56.25 81.98C56.25 79.56 54.19 78.58 51.88 78.3L50.55 78.14C48.37 77.88 47.32 77.17 47.32 75.87C47.32 74.29 48.83 73.34 50.94 73.34C52.62 73.34 54.03 73.88 55.16 74.65L55.98 73.35ZM63.5647 76.34C60.7147 76.34 58.5847 78.46 58.5847 81.26C58.5847 84.07 60.7147 86.19 63.5647 86.19C66.4147 86.19 68.5547 84.07 68.5547 81.26C68.5547 78.46 66.4147 76.34 63.5647 76.34ZM63.5647 77.74C65.5247 77.74 67.0247 79.22 67.0247 81.26C67.0247 83.31 65.5247 84.79 63.5647 84.79C61.5947 84.79 60.1047 83.31 60.1047 81.26C60.1047 79.22 61.5947 77.74 63.5647 77.74ZM76.0059 76.34C74.8459 76.34 73.5859 76.75 72.8159 77.88V76.53H71.3359V86H72.8359V80.66C72.8359 78.86 74.1459 77.76 75.7359 77.76C77.4659 77.76 78.4659 78.82 78.4659 80.62V86H79.9559V80.13C79.9559 77.84 78.3459 76.34 76.0059 76.34ZM88.8997 75.04C89.5597 74.12 90.4297 73.29 92.0197 73.29C93.8797 73.29 94.9197 74.54 94.9197 76.15C94.9197 77.35 94.3397 78.31 93.4797 79.21L88.1897 84.79V86H96.9997V84.53H90.4797L94.6597 80.11C95.5697 79.14 96.5397 77.89 96.5397 76.15C96.5397 73.68 94.9097 71.82 92.0697 71.82C89.6697 71.82 88.4397 73.16 87.7797 74.14L88.8997 75.04ZM106.526 77.7H104.986V81.6H100.296L105.426 72.01H103.676L98.4458 81.87V83.06H104.986V86H106.526V83.06H108.916V81.6H106.526V77.7ZM123.541 77.38C122.631 76.77 121.271 76.35 119.781 76.35C117.511 76.35 116.001 77.43 116.001 79.22C116.001 80.63 117.001 81.58 119.131 81.84L120.261 81.97C121.601 82.13 122.241 82.59 122.241 83.35C122.241 84.35 121.231 84.88 119.631 84.88C118.031 84.88 117.071 84.41 116.351 83.85L115.661 84.97C116.861 85.88 118.391 86.18 119.611 86.18C122.161 86.18 123.781 85.05 123.781 83.25C123.781 81.7 122.611 80.87 120.601 80.61L119.481 80.47C118.241 80.32 117.551 79.93 117.551 79.14C117.551 78.22 118.441 77.65 119.791 77.65C121.071 77.65 122.281 78.12 122.891 78.54L123.541 77.38ZM135.355 76.53H133.865V77.94C133.115 76.98 131.965 76.34 130.405 76.34C127.745 76.34 125.675 78.42 125.675 81.26C125.675 84.11 127.745 86.19 130.405 86.19C131.965 86.19 133.115 85.56 133.865 84.59V86H135.355V76.53ZM130.585 77.74C132.555 77.74 133.955 79.26 133.955 81.26C133.955 83.27 132.555 84.79 130.585 84.79C128.575 84.79 127.195 83.22 127.195 81.26C127.195 79.31 128.555 77.74 130.585 77.74ZM147.815 76.53H146.325V77.94C145.575 76.98 144.425 76.34 142.865 76.34C140.205 76.34 138.135 78.42 138.135 81.26C138.135 84.11 140.205 86.19 142.865 86.19C144.425 86.19 145.575 85.56 146.325 84.59V86H147.815V76.53ZM143.045 77.74C145.015 77.74 146.415 79.26 146.415 81.26C146.415 83.27 145.015 84.79 143.045 84.79C141.035 84.79 139.655 83.22 139.655 81.26C139.655 79.31 141.015 77.74 143.045 77.74ZM157.746 76.53H153.656V73.52H152.166V76.53H150.096V77.88H152.166V82.69C152.166 85.07 153.376 86.19 155.416 86.19C156.576 86.19 157.516 85.79 158.226 85.25L157.526 84.12C156.976 84.52 156.266 84.79 155.536 84.79C154.436 84.79 153.656 84.14 153.656 82.66V77.88H157.746V76.53Z" fill="#535F6A"/>
<rect x="351" y="37" width="40" height="40" rx="4" fill="#F5F6F9"/>
<path d="M371 62C371.53 62 372.039 62.2107 372.414 62.5858C372.789 62.9609 373 63.4696 373 64C373 64.5304 372.789 65.0391 372.414 65.4142C372.039 65.7893 371.53 66 371 66C370.47 66 369.961 65.7893 369.586 65.4142C369.211 65.0391 369 64.5304 369 64C369 63.4696 369.211 62.9609 369.586 62.5858C369.961 62.2107 370.47 62 371 62ZM371 56C371.53 56 372.039 56.2107 372.414 56.5858C372.789 56.9609 373 57.4696 373 58C373 58.5304 372.789 59.0391 372.414 59.4142C372.039 59.7893 371.53 60 371 60C370.47 60 369.961 59.7893 369.586 59.4142C369.211 59.0391 369 58.5304 369 58C369 57.4696 369.211 56.9609 369.586 56.5858C369.961 56.2107 370.47 56 371 56ZM371 50C371.53 50 372.039 50.2107 372.414 50.5858C372.789 50.9609 373 51.4696 373 52C373 52.5304 372.789 53.0391 372.414 53.4142C372.039 53.7893 371.53 54 371 54C370.47 54 369.961 53.7893 369.586 53.4142C369.211 53.0391 369 52.5304 369 52C369 51.4696 369.211 50.9609 369.586 50.5858C369.961 50.2107 370.47 50 371 50Z" fill="#7D8E9F"/>
<path d="M49.6411 153.883L44.5935 148.835C43.9788 148.221 43.8416 147.517 44.182 146.725C44.521 145.932 45.1274 145.535 46.001 145.535H55.999C56.8726 145.535 57.479 145.932 57.818 146.725C58.1584 147.517 58.0212 148.221 57.4065 148.835L52.3589 153.883C52.1648 154.077 51.9545 154.223 51.728 154.32C51.5015 154.417 51.2588 154.465 51 154.465C50.7412 154.465 50.4985 154.417 50.272 154.32C50.0455 154.223 49.8352 154.077 49.6411 153.883Z" fill="#535F6A"/>
<path d="M72.381 144.238C69.519 144.238 67.179 146.659 67.179 150.7C67.179 154.732 69.519 157.162 72.381 157.162C75.252 157.162 77.592 154.732 77.592 150.7C77.592 146.659 75.252 144.238 72.381 144.238ZM72.381 145.57C74.46 145.57 76.143 147.397 76.143 150.7C76.143 154.003 74.46 155.83 72.381 155.83C70.32 155.83 68.637 154.003 68.637 150.7C68.637 147.397 70.32 145.57 72.381 145.57ZM80.2338 154.768L79.6938 159.331H80.8548L81.7998 154.768H80.2338ZM87.561 144.238C85.734 144.238 84.429 145.039 83.7 146.11L84.699 146.965C85.257 146.191 86.22 145.534 87.48 145.534C89.064 145.534 90.279 146.398 90.279 147.757C90.279 149.251 89.055 150.007 87.507 150.007H85.86V151.276H87.516C89.19 151.276 90.558 152.104 90.558 153.562C90.558 155.128 89.217 155.866 87.651 155.866C86.409 155.866 85.266 155.389 84.483 154.579L83.592 155.506C84.51 156.541 85.923 157.162 87.678 157.162C89.901 157.162 92.007 156.019 92.007 153.625C92.007 152.14 91.089 151.123 89.757 150.637C90.945 150.133 91.728 149.17 91.728 147.685C91.728 145.642 90.045 144.238 87.561 144.238ZM100.933 149.53H99.5474V153.04H95.3264L99.9434 144.409H98.3684L93.6614 153.283V154.354H99.5474V157H100.933V154.354H103.084V153.04H100.933V149.53Z" fill="#535F6A"/>
<path d="M60.016 188.256L53.28 191.296V189.2L60.016 186.16V183.008L53.28 186.048V179.568H48.96V188L46.272 189.2V192.352L48.96 191.152V193.248L46.272 194.448V197.6L48.96 196.4V202H55.6C59.984 202 62.816 200.112 64.928 196.304L61.424 194.224C59.984 196.816 58.256 197.904 55.904 197.904H53.28V194.448L60.016 191.408V188.256ZM74.8863 179.2C71.3183 179.2 68.8863 180.688 67.4143 182.672L70.1343 185.408C71.0463 184.208 72.5823 183.136 74.6623 183.136C76.7423 183.136 78.3743 184.128 78.3743 185.936C78.3743 187.824 76.6303 188.784 74.4543 188.784H71.8303V192.624H74.4383C76.8543 192.624 78.8223 193.632 78.8223 195.552C78.8223 197.52 77.0783 198.464 74.9023 198.464C72.9823 198.464 71.1102 197.68 69.8143 196.32L67.2383 199.152C68.9343 201.2 71.7023 202.4 75.0623 202.4C79.3023 202.4 83.3183 200.272 83.3183 195.856C83.3183 193.44 81.8303 191.648 79.4783 190.72C81.5583 189.744 82.8223 188 82.8223 185.632C82.8223 181.76 79.6063 179.2 74.8863 179.2ZM88.5748 185.792C89.7268 184.48 90.9908 183.328 93.1188 183.328C95.1828 183.328 96.5428 184.72 96.5428 186.672C96.5428 188.08 95.8868 189.312 94.7028 190.512L86.7828 198.624V202H101.583V197.952H93.0228L97.8068 192.976C99.6468 191.072 101.039 189.168 101.039 186.432C101.039 182.144 98.1268 179.2 93.4388 179.2C89.2788 179.2 87.0068 181.472 85.7908 183.056L88.5748 185.792ZM107.667 196.192C106.003 196.192 104.547 197.616 104.547 199.28C104.547 200.96 106.003 202.4 107.667 202.4C109.315 202.4 110.755 200.96 110.755 199.28C110.755 197.616 109.315 196.192 107.667 196.192ZM120.918 179.248L111.238 183.152V187.504L116.598 185.328V202H120.918V179.248ZM127.387 185.792C128.539 184.48 129.803 183.328 131.931 183.328C133.995 183.328 135.355 184.72 135.355 186.672C135.355 188.08 134.699 189.312 133.515 190.512L125.595 198.624V202H140.395V197.952H131.835L136.619 192.976C138.459 191.072 139.851 189.168 139.851 186.432C139.851 182.144 136.939 179.2 132.251 179.2C128.091 179.2 125.819 181.472 124.603 183.056L127.387 185.792ZM150.043 179.2C146.475 179.2 144.043 180.688 142.571 182.672L145.291 185.408C146.203 184.208 147.739 183.136 149.819 183.136C151.899 183.136 153.531 184.128 153.531 185.936C153.531 187.824 151.787 188.784 149.611 188.784H146.987V192.624H149.595C152.011 192.624 153.979 193.632 153.979 195.552C153.979 197.52 152.235 198.464 150.059 198.464C148.139 198.464 146.266 197.68 144.971 196.32L142.395 199.152C144.091 201.2 146.859 202.4 150.219 202.4C154.459 202.4 158.475 200.272 158.475 195.856C158.475 193.44 156.987 191.648 154.635 190.72C156.715 189.744 157.979 188 157.979 185.632C157.979 181.76 154.763 179.2 150.043 179.2ZM162.291 196.944L161.219 206.48H164.739L166.979 196.944H162.291ZM177.231 179.248L167.551 183.152V187.504L172.911 185.328V202H177.231V179.248ZM184.18 202H189.396L195.604 192.704C196.964 190.672 197.732 188.8 197.732 186.752C197.732 182.416 194.1 179.2 189.316 179.2C184.5 179.2 180.9 182.448 180.9 186.832C180.9 191.024 184.116 194.272 188.66 194.272C189.044 194.272 189.364 194.256 189.668 194.208L184.18 202ZM189.316 190.48C187.06 190.48 185.396 188.96 185.396 186.8C185.396 184.624 187.06 183.12 189.316 183.12C191.556 183.12 193.236 184.624 193.236 186.8C193.236 188.96 191.556 190.48 189.316 190.48Z" fill="#535F6A"/>
<defs>
<linearGradient id="paint0_linear_167_6038" x1="6.70489e-07" y1="115" x2="486.5" y2="240.5" gradientUnits="userSpaceOnUse">
<stop stop-color="white"/>
<stop offset="1" stop-color="white" stop-opacity="0.44"/>
</linearGradient>
</defs>
</svg>
