<svg width="151" height="38" viewBox="0 0 151 38" fill="none" xmlns="http://www.w3.org/2000/svg">
<path d="M150.478 18.9388C150.24 13.7118 146.675 11.0919 142.899 9.82129C140.946 9.15979 138.86 9.05786 136.857 9.52597C134.854 9.99408 133.006 11.0153 131.502 12.4847C130.773 13.1899 130.664 13.1394 129.9 12.4401C128.29 10.8072 126.247 9.72681 124.041 9.34153C121.835 8.95625 119.57 9.28419 117.545 10.282C117.086 10.4951 116.638 10.7353 116.205 11.0014C116.168 10.6939 116.026 10.4111 115.806 10.2055C115.586 9.99982 115.302 9.88544 115.008 9.8836H112.231C111.909 9.88453 111.601 10.0193 111.374 10.2585C111.147 10.4977 111.019 10.8218 111.018 11.1601V36.492C111.019 36.8303 111.147 37.1544 111.374 37.3936C111.601 37.6328 111.909 37.7676 112.231 37.7685H115.008C115.329 37.7673 115.637 37.6324 115.864 37.3933C116.091 37.1541 116.219 36.8302 116.22 36.492V18.5909C116.39 17.8065 116.714 17.0678 117.169 16.4218C117.625 15.7757 118.203 15.2363 118.867 14.8379C119.785 14.2299 120.84 13.8899 121.925 13.8527C123.009 13.8155 124.083 14.0825 125.037 14.6263C125.878 15.126 126.597 15.8233 127.14 16.664C127.682 17.5046 128.032 18.4657 128.164 19.4724V35.7962C128.165 36.1345 128.293 36.4587 128.521 36.6978C128.748 36.937 129.056 37.0717 129.377 37.0726H132.155C132.476 37.0717 132.784 36.9369 133.011 36.6977C133.238 36.4586 133.366 36.1344 133.367 35.7962V19.0751C133.499 18.1724 133.826 17.3135 134.323 16.5646C134.819 15.8158 135.473 15.1969 136.232 14.7556C137.188 14.1832 138.269 13.8828 139.369 13.8839C140.468 13.8849 141.549 14.1873 142.503 14.7614C143.172 15.1609 143.757 15.697 144.225 16.3384C144.694 16.9797 145.035 17.7132 145.23 18.4957C145.319 18.8591 145.36 19.2336 145.353 19.6087V36.3533C145.354 36.6865 145.48 37.0056 145.704 37.2412C145.928 37.4768 146.231 37.6097 146.548 37.611H149.285C149.601 37.6101 149.905 37.4773 150.128 37.2416C150.352 37.0059 150.478 36.6866 150.479 36.3533V26.1815C150.479 26.1815 150.479 21.8326 150.479 20.4045C150.478 20.4068 150.505 19.5265 150.478 18.9388Z" fill="#26D07C"/>
<path d="M94.9834 0.00170898H92.2064C91.885 0.00263954 91.5771 0.137439 91.3498 0.376622C91.1226 0.615806 90.9946 0.939923 90.9937 1.27818V12.2963C90.9361 12.3387 90.8675 12.3615 90.7972 12.3615C90.7269 12.3615 90.6583 12.3387 90.6006 12.2963C88.0283 10.2168 84.8428 9.15662 81.6024 9.30147C78.3619 9.44632 75.2733 10.787 72.8777 13.0885C70.4495 15.348 68.9003 18.4724 68.5276 21.8612C68.155 25.2501 68.9852 28.6644 70.8588 31.448C71.995 33.201 73.4907 34.6629 75.2355 35.7259C76.9804 36.7889 78.9297 37.4257 80.9397 37.5894C81.4165 37.6376 81.8843 37.6623 82.3488 37.6623C85.4485 37.6503 88.4471 36.501 90.8284 34.4124C90.8519 34.3935 90.8787 34.3798 90.9073 34.3719C90.9358 34.364 90.9656 34.3622 90.9948 34.3665V36.3906C90.9957 36.7288 91.1237 37.0529 91.351 37.2921C91.5782 37.5313 91.8861 37.6661 92.2075 37.667H94.9845C95.3058 37.6661 95.6138 37.5313 95.841 37.2921C96.0682 37.0529 96.1963 36.7288 96.1972 36.3906V1.27348C96.1951 0.935838 96.0664 0.612745 95.839 0.374542C95.6117 0.136339 95.3042 0.00232212 94.9834 0.00170898V0.00170898ZM82.3254 33.0054C81.1705 33.007 80.0268 32.7661 78.9614 32.2968C77.896 31.8276 76.9301 31.1395 76.1203 30.2726C75.2631 29.3602 74.5875 28.2768 74.1331 27.086C73.6787 25.8952 73.4546 24.621 73.474 23.3379C73.4832 22.0756 73.7304 20.8278 74.2011 19.6669C74.6719 18.5059 75.3568 17.4549 76.2164 16.5747C77.8375 14.8651 80.0351 13.8997 82.3299 13.8889H82.4091C83.5726 13.9049 84.7212 14.1669 85.7866 14.6594C86.8519 15.1519 87.8124 15.8648 88.6108 16.7557C89.8122 18.0655 90.6378 19.7058 90.9926 21.4878V25.4912C90.5813 27.5974 89.4967 29.4916 87.9196 30.858C86.3424 32.2245 84.368 32.9808 82.3254 33.0007V33.0054Z" fill="#26D07C"/>
<path d="M63.0092 28.3757C62.2121 28.291 61.4074 28.4153 60.6671 28.7375C59.9267 29.0597 59.2736 29.5698 58.766 30.2223C57.8146 31.4485 56.5444 32.3563 55.1106 32.8348C53.6768 33.3132 52.1417 33.3416 50.6929 32.9162C49.123 32.5688 47.674 31.7738 46.5043 30.6182C45.3345 29.4625 44.489 27.9907 44.0602 26.3634C43.8368 25.6664 43.9072 25.4866 43.934 25.4478C43.9608 25.409 44.1249 25.2574 44.9267 25.2739C48.3815 25.3279 51.8932 25.3244 55.2889 25.3209C58.2379 25.3209 61.2885 25.315 64.2866 25.3491C64.5849 25.4292 64.8982 25.4238 65.1939 25.3335C65.4896 25.2431 65.7569 25.0712 65.9681 24.8354C66.1794 24.5996 66.3268 24.3086 66.3952 23.9926C66.4635 23.6766 66.4503 23.3471 66.3568 23.0383C66.1568 20.1504 65.1495 17.3894 63.4617 15.1031C61.7739 12.8167 59.4811 11.1071 56.8721 10.1897C54.2631 9.27231 51.4545 9.18804 48.8001 9.94757C46.1457 10.7071 43.7641 12.2764 41.9554 14.4579C39.9078 16.9169 38.7514 20.0583 38.6904 23.3274C38.6542 26.6072 39.7014 29.7984 41.6528 32.3556C43.6212 34.9242 46.3645 36.7074 49.4278 37.4098C50.4439 37.6432 51.4808 37.7614 52.5208 37.7624C55.2101 37.7736 57.8434 36.9534 60.094 35.4037C62.3446 33.8539 64.1134 31.6428 65.181 29.0445L65.3139 28.7272C65.3301 28.689 65.337 28.6471 65.3339 28.6054C65.3308 28.5637 65.3179 28.5235 65.2962 28.4885C65.2746 28.4534 65.2449 28.4246 65.2099 28.4047C65.175 28.3848 65.1359 28.3744 65.0962 28.3745L63.0092 28.3757ZM60.3695 20.691H57.2921C53.0758 20.691 48.7154 20.691 44.4298 20.7039C44.3929 20.7046 44.3564 20.6963 44.3231 20.6795C44.2899 20.6627 44.2608 20.638 44.2382 20.6072C44.2157 20.5765 44.2003 20.5407 44.1932 20.5026C44.1861 20.4645 44.1876 20.4252 44.1975 20.3878L44.212 20.3337C44.7817 18.4464 45.9527 16.8239 47.5273 15.7403C48.6219 14.9122 49.8862 14.3666 51.218 14.1476C52.5499 13.9286 53.912 14.0423 55.1944 14.4796C56.4768 14.9168 57.6436 15.6653 58.6006 16.6647C59.5575 17.664 60.2778 18.8862 60.7034 20.2326C60.7171 20.2864 60.7189 20.3428 60.7085 20.3975C60.6982 20.4521 60.676 20.5035 60.6437 20.5476C60.6114 20.5918 60.5698 20.6275 60.5223 20.6519C60.4747 20.6764 60.4224 20.6889 60.3695 20.6887V20.691Z" fill="#26D07C"/>
<path d="M103.733 0.428418C102.893 0.424993 102.085 0.767268 101.482 1.38217C100.878 1.99706 100.527 2.83589 100.503 3.71953C100.504 4.17021 100.591 4.61616 100.759 5.03076C100.926 5.44536 101.172 5.82007 101.48 6.13258C102.082 6.76542 102.895 7.12567 103.745 7.13637H103.759C104.183 7.14309 104.604 7.06091 104.997 6.8946C105.39 6.7283 105.747 6.48123 106.049 6.1678C106.35 5.85438 106.589 5.48086 106.751 5.06914C106.914 4.65742 106.997 4.21574 106.996 3.76986C106.994 3.32398 106.908 2.88287 106.743 2.47229C106.578 2.06172 106.337 1.68989 106.033 1.37858C105.73 1.06727 105.371 0.822716 104.977 0.65917C104.583 0.495624 104.162 0.416391 103.738 0.426086L103.733 0.428418Z" fill="#26D07C"/>
<path d="M105.13 9.88306H102.353C102.032 9.8843 101.724 10.0192 101.497 10.2583C101.27 10.4974 101.142 10.8214 101.141 11.1595V36.4915C101.142 36.8297 101.27 37.1536 101.497 37.3927C101.724 37.6318 102.032 37.7667 102.353 37.768H105.13C105.452 37.767 105.76 37.6322 105.987 37.3931C106.214 37.1539 106.342 36.8298 106.343 36.4915V11.1595C106.342 10.8214 106.214 10.4974 105.986 10.2583C105.759 10.0192 105.452 9.8843 105.13 9.88306V9.88306Z" fill="#26D07C"/>
<path d="M21.8735 35.4756C21.7987 35.4109 20.1695 33.9229 19.4526 33.1589C16.6611 30.184 13.9957 27.2749 11.2366 24.3317C10.7709 23.8533 10.1311 23.0952 10.1322 22.8296C10.1333 22.5639 10.3556 22.2289 10.8949 21.6871C13.2174 19.3528 15.4998 16.9009 17.7063 14.5313C18.2884 13.9045 18.8709 13.2799 19.4538 12.6578C19.505 12.607 19.5591 12.5595 19.6157 12.5156C19.8396 12.3778 20.0154 12.1679 20.1174 11.9169C20.2193 11.6659 20.2419 11.3871 20.1818 11.1215V11.1215C20.1578 11.018 20.1015 10.926 20.022 10.8602C19.9424 10.7943 19.8442 10.7585 19.743 10.7584V10.7584C19.4225 10.7584 18.9691 10.7454 18.6565 10.7431C17.8849 10.7337 17.4774 10.7231 16.7728 10.7431C16.0551 10.6931 15.3362 10.8173 14.6714 11.106C14.0066 11.3948 13.4136 11.8405 12.9383 12.4086C11.0691 14.5443 9.08707 16.64 7.16872 18.6699C6.68708 19.1792 6.20582 19.6885 5.72493 20.1979C5.71265 20.2108 5.70372 20.2249 5.69256 20.239V1.28117C5.69227 0.942289 5.56453 0.61731 5.33731 0.377245C5.11008 0.13718 4.80184 0.00155294 4.47991 0H1.70288C1.38095 0.00155294 1.07267 0.13718 0.845448 0.377245C0.618223 0.61731 0.490526 0.942289 0.490234 1.28117V36.4888C0.490526 36.8277 0.618223 37.1526 0.845448 37.3927C1.07267 37.6328 1.38095 37.7684 1.70288 37.7699H4.47991C4.80184 37.7684 5.11008 37.6328 5.33731 37.3927C5.56453 37.1526 5.69227 36.8277 5.69256 36.4888V25.5871C5.72407 25.5852 5.75559 25.5905 5.78504 25.6024C5.81449 25.6144 5.84118 25.6328 5.86338 25.6564L6.07667 25.8915L7.51933 27.47C9.79835 30.03 11.8295 32.121 14.0493 34.815C15.4562 36.5229 16.6957 37.6795 18.4946 37.7218C19.332 37.7418 19.8167 37.7277 20.7278 37.7218C21.0985 37.7218 21.6379 37.7018 22.0186 37.7018C22.1421 37.699 22.261 37.6522 22.3557 37.5689C22.4505 37.4855 22.5155 37.3708 22.5401 37.2434V37.2434C22.6165 36.9123 22.5934 36.5645 22.474 36.2478C22.3546 35.9312 22.1448 35.6614 21.8735 35.4756Z" fill="#26D07C"/>
<path d="M37.7437 9.55123C37.5588 9.41589 37.35 9.32089 37.1296 9.27184C36.9093 9.22278 36.6818 9.22065 36.4607 9.2656C30.5917 9.85329 26.094 13.1796 25.8818 19.2352C25.8619 19.3258 25.8514 19.4185 25.8506 19.5115V36.4958C25.8515 36.8341 25.9795 37.1582 26.2067 37.3974C26.4339 37.6366 26.7419 37.7713 27.0632 37.7723H29.8403C30.1616 37.7713 30.4695 37.6366 30.6967 37.3974C30.924 37.1582 31.052 36.8341 31.0529 36.4958V20.5517C31.0105 19.0563 31.4797 17.5947 32.3751 16.4329C33.2705 15.2712 34.5326 14.4867 35.9314 14.2222C38.1646 13.8249 38.2763 12.5226 38.2049 10.9864C38.2248 10.7267 38.1943 10.4655 38.115 10.2187C38.0357 9.97192 37.9093 9.7448 37.7437 9.55123V9.55123Z" fill="#26D07C"/>
</svg>
