<svg width="212" height="36" viewBox="0 0 212 36" fill="none" xmlns="http://www.w3.org/2000/svg">
<g style="mix-blend-mode:luminosity">
<path fill-rule="evenodd" clip-rule="evenodd" d="M194.765 15.604L181.002 0.358634L177.686 0.358634V35.613H186.875V19.9414L194.319 27.784H195.32L202.811 19.9414V35.613H212V0.358634L208.786 0.358634L194.765 15.604ZM108.734 23.1623C117.618 17.1332 115.108 0.507501 101.29 0.460134L85.8759 0.460134V35.6469H90.166L94.8688 25.3074H99.5378L105.56 35.613H115.602V34.3071L108.734 23.1623ZM101.29 17.2821H94.8621V8.48541C96.9733 8.48541 99.1792 8.43805 101.29 8.48541C106.413 8.53955 106.156 17.2821 101.29 17.2821ZM63.8233 35.613H72.62V34.3071L56.7386 0L52.8748 0L37.0476 34.3071V35.613H45.8442L47.8742 31.2011H61.7595L63.8233 35.613ZM58.8701 23.5074H50.811L54.8101 14.2506L58.8701 23.5074ZM4.29007 35.613L9.02675 26.6269H15.5025C32.3312 26.6269 32.3312 0.507501 15.5025 0.460134L0 0.460134L0 35.6469L4.29007 35.613ZM15.4213 18.5407H8.99291V8.49218C11.0229 8.49218 13.3101 8.44481 15.4213 8.49218C20.6451 8.54631 20.3474 18.5407 15.4213 18.5407ZM155.634 35.613H164.43V34.3071L148.549 0L144.685 0L128.858 34.3071V35.613H137.655L139.718 31.2011H153.604L155.634 35.613ZM150.667 23.5074H142.628L146.593 14.2506L150.667 23.5074Z" fill="#683B9E"/>
</g>
</svg>
