<svg viewBox="0 0 27 20" fill="none" xmlns="http://www.w3.org/2000/svg">
<path fill-rule="evenodd" clip-rule="evenodd" d="M26.3806 4.28938H26.4063L22.7117 0.3125H3.86737L0.583252 4.28938H0.608944L0.593528 4.30442C0.593833 4.93055 0.82594 5.53553 1.24717 6.0081C1.66839 6.48068 2.25042 6.78908 2.88622 6.8766C3.52202 6.96411 4.16885 6.82486 4.70776 6.48444C5.24667 6.14402 5.64143 5.62533 5.81946 5.02374C5.97975 5.56551 6.31631 6.0418 6.7784 6.38077C7.2405 6.71976 7.80307 6.90306 8.38132 6.90306C8.95957 6.90306 9.52216 6.71976 9.98425 6.38077C10.4463 6.0418 10.7829 5.56551 10.9432 5.02374C11.1035 5.56551 11.44 6.0418 11.9021 6.38077C12.3642 6.71976 12.9268 6.90306 13.5051 6.90306C14.0833 6.90306 14.6459 6.71976 15.108 6.38077C15.5701 6.0418 15.9066 5.56551 16.0669 5.02374C16.2272 5.56551 16.5638 6.0418 17.0259 6.38077C17.488 6.71976 18.0505 6.90306 18.6288 6.90306C19.207 6.90306 19.7696 6.71976 20.2317 6.38077C20.6938 6.0418 21.0304 5.56551 21.1907 5.02374C21.3687 5.62533 21.7634 6.14402 22.3024 6.48444C22.8413 6.82486 23.4881 6.96411 24.1239 6.8766C24.7597 6.78908 25.3417 6.48068 25.7629 6.0081C26.1842 5.53553 26.4163 4.93055 26.4166 4.30442C26.4012 4.30943 26.3903 4.29941 26.3806 4.28938ZM3.66297 7.30198H5.9171V19.6875H3.66297V7.30198ZM21.073 7.30198H23.3272V19.6875H21.073V7.30198ZM5.91767 13.0972H21.073V19.6875H5.9171L5.91767 13.0972Z" fill="#380D6F"/>
</svg>
