<svg viewBox="0 0 31 32" fill="none" xmlns="http://www.w3.org/2000/svg">
<path d="M28.4153 9.29643V10.0755L2.58325 10.0761V9.29643C2.58514 8.67683 2.84087 8.0832 3.295 7.64509C3.7485 7.20697 4.36325 6.95998 5.00509 6.95801H25.9935C26.6353 6.95998 27.2501 7.20697 27.7036 7.64509C28.1577 8.0832 28.4134 8.67683 28.4153 9.29643Z" fill="#380D6F"/>
<path fill-rule="evenodd" clip-rule="evenodd" d="M2.58388 22.7029V12.5708H28.4166V22.7029C28.4147 23.3225 28.159 23.9161 27.7048 24.3543C27.2513 24.7924 26.6366 25.0394 25.9947 25.0413H5.00572C4.36388 25.0394 3.74913 24.7924 3.29563 24.3543C2.8415 23.9161 2.58577 23.3225 2.58388 22.7029ZM6.62069 21.9245H14.6931C14.899 21.9132 15.0924 21.8263 15.2341 21.6816C15.3758 21.5368 15.4546 21.3452 15.4546 21.1461C15.4546 20.9469 15.3758 20.7553 15.2341 20.6106C15.0924 20.4658 14.899 20.3789 14.6931 20.3676H6.62069C6.5111 20.3616 6.4015 20.3773 6.2982 20.4137C6.1949 20.4501 6.10042 20.5065 6.02043 20.5794C5.94044 20.6523 5.87682 20.7401 5.83336 20.8375C5.7899 20.935 5.76786 21.04 5.76786 21.1461C5.76786 21.2119 5.77667 21.2773 5.79368 21.3407C5.80376 21.3795 5.81699 21.4176 5.83336 21.4546C5.87682 21.552 5.94044 21.6399 6.02043 21.7127C6.10042 21.7856 6.1949 21.842 6.2982 21.8784C6.4015 21.9148 6.5111 21.9305 6.62069 21.9245ZM6.62069 18.807H14.6931C14.899 18.7958 15.0924 18.7088 15.2341 18.5641C15.3758 18.4194 15.4546 18.2277 15.4546 18.0286C15.4546 17.8294 15.3758 17.6378 15.2341 17.4931C15.0924 17.3483 14.899 17.2614 14.6931 17.2502H6.62069C6.41473 17.2614 6.22136 17.3483 6.07964 17.4931C5.93792 17.6378 5.85919 17.8294 5.85919 18.0286C5.85919 18.2277 5.93792 18.4194 6.07964 18.5641C6.22136 18.7088 6.41473 18.7958 6.62069 18.807Z" fill="#380D6F"/>
</svg>
