<svg viewBox="0 0 31 32" fill="none" xmlns="http://www.w3.org/2000/svg">
<path fill-rule="evenodd" clip-rule="evenodd" d="M19.3497 6.51098C19.3514 6.39974 19.3298 6.28931 19.2865 6.18625C19.2598 6.12271 19.2256 6.06277 19.184 6.00771C19.1579 5.97343 19.1294 5.94105 19.0981 5.91086C19.0167 5.83219 18.9199 5.77009 18.8135 5.72822C18.7071 5.68634 18.5932 5.66555 18.4782 5.66707H12.5449C12.4299 5.66563 12.316 5.68647 12.2096 5.72837C12.1572 5.74891 12.1077 5.77429 12.061 5.80409C12.0121 5.83511 11.9666 5.87092 11.9256 5.91104C11.8442 5.98969 11.7799 6.0833 11.7366 6.18633C11.6933 6.28937 11.6717 6.39976 11.6734 6.51098V9.17312H9.84969V25.0952H21.1484V9.17312H19.3246V6.51098H19.3497ZM13.4163 7.3549H17.6352V9.17369H13.4163V7.3549ZM12.5181 12.6239L14.4779 11.5462C14.52 11.5203 14.5678 11.5032 14.6173 11.4958C14.6669 11.4884 14.7175 11.491 14.7659 11.5034C14.8143 11.5158 14.8598 11.5377 14.8991 11.5678C14.9384 11.5979 14.9708 11.6355 14.9947 11.6783L15.6208 12.7593C15.6322 12.7766 15.6419 12.7947 15.6499 12.8134C15.6607 12.8394 15.6681 12.8666 15.6726 12.8944C15.6778 12.9239 15.6783 12.9538 15.6749 12.9833C15.6732 13.0019 15.6698 13.0203 15.6647 13.0384C15.6595 13.0571 15.6527 13.0754 15.6447 13.0929C15.6328 13.1195 15.6169 13.1445 15.5986 13.1674C15.5673 13.2056 15.5286 13.2371 15.4842 13.26L13.5245 14.341C13.4823 14.367 13.4345 14.3841 13.385 14.3915C13.3355 14.3989 13.2848 14.3963 13.2364 14.3839C13.1881 14.3715 13.1425 14.3496 13.1033 14.3195C13.064 14.2894 13.0315 14.2518 13.0076 14.209L12.3815 13.1279C12.3599 13.0834 12.3468 13.0357 12.3428 12.9873C12.3394 12.9422 12.3434 12.8964 12.3553 12.8519C12.3798 12.7597 12.4379 12.6789 12.5181 12.6239ZM15.2674 22.3015L13.6616 22.7757C13.5677 22.8014 13.4675 22.7912 13.381 22.747C13.2951 22.7028 13.2296 22.6282 13.1989 22.5386L12.5181 20.3241C12.4914 20.2332 12.5022 20.1359 12.5477 20.0524C12.579 19.9955 12.6246 19.9479 12.6798 19.914C12.7054 19.8982 12.7333 19.8854 12.7629 19.8759L14.3686 19.4017C14.4625 19.376 14.5627 19.3862 14.6492 19.4304C14.7039 19.4584 14.75 19.4986 14.7841 19.547C14.804 19.5751 14.82 19.6059 14.8314 19.6388L15.5116 21.8533C15.5264 21.8982 15.532 21.9455 15.5275 21.9925C15.5235 22.0394 15.5093 22.0851 15.4865 22.1268C15.4637 22.1685 15.433 22.2053 15.3949 22.2352C15.3573 22.2651 15.314 22.288 15.2674 22.3015ZM17.1178 18.1367C16.0836 18.1367 15.2674 17.5569 15.2674 16.8717C15.2674 16.1598 16.0836 15.6066 17.1178 15.6066C18.1527 15.6066 18.9683 16.1864 18.9683 16.8717C18.9683 17.5569 18.1527 18.1367 17.1178 18.1367Z" fill="#380D6F"/>
<path d="M2.58325 11.2555V23.0128C2.58496 23.5645 2.81207 24.0933 3.21507 24.4834C3.61749 24.8736 4.16393 25.0935 4.7337 25.0952H5.82202V25.807C5.82202 25.85 5.82771 25.8924 5.83852 25.9333C5.86186 26.0187 5.90796 26.0975 5.97342 26.161C6.00018 26.1871 6.02977 26.2099 6.06165 26.2294C6.11174 26.2603 6.16752 26.2826 6.22558 26.2954C6.26258 26.3035 6.30071 26.3077 6.33942 26.3077H7.62126C7.75844 26.3077 7.88993 26.2549 7.98726 26.161C8.08403 26.0671 8.13867 25.9398 8.13867 25.807V9.17312H4.7337C4.16507 9.17871 3.62148 9.3999 3.21962 9.78922C2.81719 10.1785 2.58894 10.705 2.58325 11.2555Z" fill="#380D6F"/>
<path d="M22.8884 9.17312H26.2922C26.574 9.17423 26.8518 9.22903 27.1108 9.3344C27.3698 9.43977 27.6043 9.59362 27.8018 9.78713C27.9987 9.98063 28.1547 10.21 28.26 10.4619C28.3659 10.7139 28.4188 10.9836 28.4165 11.2555V23.0387C28.4148 23.5905 28.1877 24.1192 27.7847 24.5094C27.3817 24.8996 26.8358 25.1195 26.2661 25.1211H25.1772V25.833C25.1772 25.8939 25.1658 25.9537 25.1442 26.0096C25.1186 26.0756 25.0787 26.1362 25.0258 26.187C24.929 26.2809 24.7975 26.3337 24.6603 26.3337H23.4053C23.2681 26.3337 23.1366 26.2809 23.0398 26.187C22.9431 26.0931 22.8884 25.9658 22.8884 25.833V9.17312Z" fill="#380D6F"/>
</svg>
